<svg width="555" height="534" viewBox="0 0 555 534" fill="none" xmlns="http://www.w3.org/2000/svg">
<path d="M128.755 374.363C127.45 370.289 128.993 365.9 130.616 361.942C136.323 348.024 156.592 319.07 164.62 306.35L158.518 297.458C148.052 312.711 110.069 358.134 92.0037 362.059C84.9303 363.596 77.5957 363.01 70.3642 363.308C63.1326 363.605 55.5392 364.972 50.0285 369.67C44.519 374.367 42.061 383.24 46.3624 389.065C37.6149 389.021 28.9544 393.391 23.7896 400.458C18.6235 407.524 17.083 417.108 19.7727 425.44C20.5847 427.955 21.7732 430.53 21.2801 433.126C20.5565 436.94 16.6488 439.09 13.7456 441.666C5.22007 449.237 4.87541 463.699 11.9205 472.666C18.9657 481.633 31.8049 484.935 42.8325 482.056C53.8601 479.177 62.9744 470.865 68.5195 460.899C70.3495 467.68 79.357 469.448 86.2022 467.9C95.7912 465.731 104.398 459.514 109.477 451.09C114.556 442.666 116.039 432.146 113.486 422.644C123.135 426.063 134.874 422.093 140.473 413.515C146.072 404.939 144.989 392.582 137.986 385.111C134.718 381.627 130.212 378.912 128.755 374.363Z" fill="#EBEBEB"/>
<path d="M253.476 0H41.9089V131.065H253.476V0Z" fill="#FAFAFA"/>
<path d="M92.9873 94.764C107.658 89.1954 124.532 104.593 138.913 98.3144C147.282 94.6609 151.077 85.1871 155.177 77.0219C159.277 68.8568 166.341 60.2435 175.422 61.1913C184.581 62.1476 191.987 72.762 200.834 70.2035C206.41 68.5916 209.194 62.4005 210.592 56.7619C211.99 51.1233 212.959 44.8917 217.212 40.9374C221.464 36.9831 230.322 38.0414 230.99 43.8126V113.294H65.5427C65.5427 113.293 87.9096 96.6915 92.9873 94.764Z" fill="#EBEBEB"/>
<path d="M61.1236 113.293C61.1236 113.442 101.226 113.562 150.683 113.562C200.157 113.562 240.251 113.442 240.251 113.293C240.251 113.145 200.157 113.024 150.683 113.024C101.226 113.024 61.1236 113.145 61.1236 113.293Z" fill="#E0E0E0"/>
<path d="M61.1236 82.9456C61.1236 83.0942 101.226 83.2145 150.683 83.2145C200.157 83.2145 240.251 83.0942 240.251 82.9456C240.251 82.7971 200.157 82.6768 150.683 82.6768C101.226 82.6755 61.1236 82.7971 61.1236 82.9456Z" fill="#E0E0E0"/>
<path d="M61.1236 52.5965C61.1236 52.745 101.226 52.8653 150.683 52.8653C200.157 52.8653 240.251 52.745 240.251 52.5965C240.251 52.4479 200.157 52.3276 150.683 52.3276C101.226 52.3276 61.1236 52.4479 61.1236 52.5965Z" fill="#E0E0E0"/>
<path d="M61.1236 23.7552C61.1236 23.9037 101.226 24.0241 150.683 24.0241C200.157 24.0241 240.251 23.9037 240.251 23.7552C240.251 23.6066 200.157 23.4863 150.683 23.4863C101.226 23.4851 61.1236 23.6054 61.1236 23.7552Z" fill="#E0E0E0"/>
<path d="M452.909 448.674C454.003 444.878 456.347 441.209 459.972 439.646C463.742 438.02 468.108 438.945 471.967 440.348C475.826 441.752 479.614 443.63 483.712 443.883C487.81 444.136 492.435 442.191 493.662 438.269C494.815 434.582 492.595 430.651 489.814 427.972C483.972 422.344 475.193 419.957 467.309 421.851C459.423 423.746 452.685 429.862 450.032 437.532" fill="#71B219"/>
<g opacity="0.5">
<g opacity="0.5">
<g opacity="0.5">
<g opacity="0.5">
<g opacity="0.5">
<path opacity="0.5" d="M452.909 448.674C454.003 444.878 456.347 441.209 459.972 439.646C463.742 438.02 468.108 438.945 471.967 440.348C475.826 441.752 479.614 443.63 483.712 443.883C487.81 444.136 492.435 442.191 493.662 438.269C494.815 434.582 492.595 430.651 489.814 427.972C483.972 422.344 475.193 419.957 467.309 421.851C459.423 423.746 452.685 429.862 450.032 437.532" fill="black"/>
</g>
</g>
</g>
</g>
</g>
<path d="M420.446 465.149C414.434 459.433 414.734 449.482 417.733 441.744C420.732 434.006 427.276 428.065 434.588 424.149C448.759 416.558 466.475 415.984 481.107 422.64C473.917 422.878 466.967 426.964 463.255 433.133C459.961 438.61 459.228 445.256 456.507 451.04C453.475 457.482 447.91 462.689 441.283 465.282C434.656 467.873 427.04 467.825 420.446 465.149Z" fill="#71B219"/>
<path d="M417.556 430.807C410.901 422.942 410.014 410.318 410.994 400.059C411.974 389.799 414.35 379.474 412.734 369.295C411.776 363.265 409.438 357.507 408.648 351.452C407.858 345.397 408.978 338.551 413.664 334.643C419.051 330.151 427.534 331.211 433.138 335.429C438.742 339.647 441.989 346.272 444.362 352.876C449.575 367.385 451.488 383.473 447.206 398.284C442.923 413.094 432.875 426.336 418.134 430.807" fill="#71B219"/>
<path d="M414.361 495.329C414.343 495.329 414.334 495.017 414.337 494.423C414.345 493.829 414.337 492.952 414.386 491.824C414.47 489.569 414.687 486.306 415.193 482.3C415.701 478.295 416.492 473.545 417.75 468.352C418.99 463.148 421.109 457.602 424.11 452.204C427.118 446.803 430.788 442.141 434.501 438.299C438.223 434.454 442.03 431.464 445.395 429.232C447.056 428.08 448.666 427.207 450.049 426.398C451.47 425.653 452.708 425.041 453.723 424.55C454.727 424.127 455.524 423.791 456.118 423.542C456.667 423.317 456.959 423.208 456.967 423.225C456.974 423.242 456.696 423.386 456.162 423.644C455.581 423.916 454.799 424.282 453.816 424.742C452.819 425.262 451.598 425.899 450.2 426.667C448.836 427.498 447.251 428.39 445.613 429.555C442.296 431.815 438.542 434.816 434.867 438.652C431.202 442.484 427.576 447.118 424.592 452.473C418.472 463.188 416.796 474.454 415.58 482.35C415.028 486.338 414.752 489.587 414.602 491.834C414.538 492.92 414.486 493.783 414.449 494.424C414.41 495.017 414.381 495.329 414.361 495.329Z" fill="#263238"/>
<path d="M356.953 399.783C344.638 407.221 344.676 413.989 346.733 420.378C348.79 426.767 356.348 431.206 362.614 428.813C366.156 427.46 368.722 424.379 370.914 421.283C373.106 418.186 375.165 414.872 378.236 412.647C381.308 410.423 385.76 409.572 388.846 411.777" fill="#71B219"/>
<g opacity="0.5">
<g opacity="0.5">
<g opacity="0.5">
<g opacity="0.5">
<g opacity="0.5">
<path opacity="0.5" d="M356.953 399.783C344.638 407.221 344.676 413.989 346.733 420.378C348.79 426.767 356.348 431.206 362.614 428.813C366.156 427.46 368.722 424.379 370.914 421.283C373.106 418.186 375.165 414.872 378.236 412.647C381.308 410.423 385.76 409.572 388.846 411.777" fill="black"/>
</g>
</g>
</g>
</g>
</g>
<path d="M347.733 407.938C350.953 403.485 358.908 402.195 363.93 404.417C368.953 406.639 372.632 411.046 375.926 415.445C379.219 419.844 382.425 424.489 386.986 427.55C391.548 430.61 397.921 431.719 402.468 428.636C405.454 426.611 407.185 423.091 407.727 419.522C408.269 415.952 407.747 412.308 407.003 408.775C405.917 403.606 404.143 398.208 400.01 394.922C395.404 391.262 389.013 391.088 383.134 391.281C376.389 391.502 369.543 392.009 363.212 394.349C356.88 396.688 350.42 401.742 347.733 407.938Z" fill="#71B219"/>
<path d="M404.127 485.457C404.117 485.457 404.106 485.365 404.094 485.186C404.083 484.975 404.069 484.713 404.052 484.39C404.026 483.648 403.991 482.625 403.946 481.331C403.868 478.628 403.758 474.796 403.623 470.08C403.473 465.331 403.281 459.676 402.939 453.406C402.588 447.137 402.123 440.243 401.172 433.067C400.689 429.485 400.124 425.981 399.133 422.738C398.134 419.492 396.805 416.468 395.359 413.699C393.898 410.936 392.297 408.421 390.597 406.219C388.89 404.024 387.128 402.119 385.398 400.506C381.904 397.309 378.56 395.356 376.181 394.217C375.58 393.942 375.055 393.67 374.584 393.479C374.119 393.298 373.719 393.142 373.381 393.012C373.083 392.892 372.84 392.794 372.644 392.714C372.478 392.644 372.395 392.603 372.398 392.594C372.401 392.585 372.49 392.607 372.662 392.66C372.863 392.726 373.112 392.807 373.419 392.907C373.763 393.025 374.172 393.164 374.645 393.327C375.126 393.503 375.66 393.76 376.272 394.021C378.694 395.108 382.099 397.027 385.661 400.217C387.423 401.827 389.219 403.735 390.958 405.938C392.689 408.148 394.32 410.678 395.806 413.461C397.279 416.251 398.627 419.29 399.647 422.577C400.662 425.877 401.231 429.394 401.717 432.992C402.671 440.196 403.12 447.1 403.444 453.377C403.759 459.657 403.912 465.316 404.012 470.069C404.109 474.821 404.147 478.668 404.159 481.326C404.16 482.621 404.161 483.644 404.161 484.387C404.157 484.71 404.152 484.971 404.148 485.182C404.144 485.365 404.136 485.457 404.127 485.457Z" fill="#263238"/>
<path d="M408.557 491.027C408.557 491.027 407.868 489.197 407.208 485.734C406.567 482.275 406.085 477.149 406.644 470.863C407.17 464.579 408.777 457.203 411.337 449.287C413.863 441.356 417.295 432.876 420.225 423.761C421.679 419.199 422.914 414.688 423.761 410.256C424.62 405.827 425.162 401.503 425.508 397.369C426.198 389.1 426.1 381.607 425.9 375.333C425.688 369.056 425.354 363.979 425.146 360.472C425.044 358.745 424.964 357.391 424.908 356.432C424.887 355.994 424.871 355.646 424.859 355.38C424.85 355.143 424.852 355.021 424.86 355.02C424.87 355.02 424.888 355.14 424.914 355.376C424.94 355.641 424.974 355.987 425.017 356.423C425.098 357.381 425.212 358.732 425.358 360.456C425.632 363.96 426.024 369.034 426.288 375.318C426.538 381.599 426.677 389.107 426.012 397.41C425.68 401.559 425.145 405.904 424.289 410.358C423.444 414.814 422.206 419.353 420.748 423.927C417.806 433.072 414.364 441.543 411.817 449.442C409.239 457.326 407.603 464.652 407.029 470.897C406.423 477.144 406.843 482.242 407.417 485.697C407.718 487.423 407.996 488.76 408.238 489.651C408.341 490.077 408.424 490.415 408.487 490.674C408.544 490.904 408.567 491.025 408.557 491.027Z" fill="#263238"/>
<path d="M439.088 496.597H381.266L379.946 485.457H439.088V496.597Z" fill="#455A64"/>
<path d="M387.471 495.329L394.7 528.747H426.12L432.883 495.329H387.471Z" fill="#455A64"/>
<path d="M410.698 496.794C426.378 496.838 439.089 496.749 439.09 496.597C439.09 496.444 426.379 496.285 410.699 496.241C395.019 496.197 382.307 496.285 382.307 496.438C382.306 496.59 395.017 496.75 410.698 496.794Z" fill="#455A64"/>
<path d="M429.164 513.091C429.09 513.203 427.458 511.519 424.071 510.17C422.391 509.501 420.266 508.98 417.879 508.925C415.487 508.847 412.892 509.418 410.266 510.323C407.63 511.216 405.168 512.253 402.772 512.825C400.363 513.344 398.122 513.306 396.296 513.02C394.463 512.733 393.043 512.189 392.133 511.701C391.684 511.443 391.341 511.236 391.13 511.062C390.913 510.899 390.805 510.806 390.816 510.79C390.846 510.745 391.309 511.076 392.227 511.508C393.148 511.928 394.553 512.402 396.35 512.634C398.14 512.864 400.332 512.859 402.659 512.329C404.973 511.75 407.434 510.7 410.089 509.8C412.737 508.887 415.426 508.307 417.891 508.417C420.349 508.501 422.52 509.078 424.217 509.807C425.93 510.518 427.173 511.38 427.987 512.007C428.394 512.324 428.693 512.591 428.884 512.782C429.079 512.972 429.176 513.077 429.164 513.091Z" fill="#263238"/>
<path d="M428.725 515.324C428.649 515.437 427.079 513.804 423.835 512.441C422.221 511.772 420.171 511.255 417.864 511.21C415.553 511.146 413.039 511.67 410.5 512.536C407.953 513.388 405.562 514.377 403.28 514.992C400.999 515.616 398.846 515.834 397.056 515.691C395.261 515.566 393.861 515.059 392.977 514.598C392.54 514.351 392.208 514.151 392.004 513.982C391.794 513.824 391.691 513.733 391.702 513.718C391.733 513.673 392.18 513.997 393.07 514.405C393.963 514.796 395.333 515.229 397.081 515.303C398.824 515.392 400.917 515.141 403.145 514.504C405.379 513.874 407.751 512.876 410.328 512.014C412.893 511.139 415.497 510.608 417.879 510.703C420.257 510.778 422.358 511.352 423.989 512.084C425.634 512.802 426.82 513.654 427.599 514.27C427.99 514.58 428.275 514.841 428.46 515.027C428.645 515.207 428.737 515.309 428.725 515.324Z" fill="white"/>
<path d="M429.737 510.875C429.666 510.98 427.969 509.275 424.508 507.792C422.79 507.061 420.621 506.411 418.161 506.264C415.698 506.091 413.014 506.721 410.305 507.65C407.581 508.565 405.052 509.674 402.546 510.187C400.04 510.642 397.738 510.502 395.858 510.198C393.975 509.871 392.507 509.334 391.561 508.836C391.094 508.576 390.737 508.366 390.518 508.188C390.293 508.02 390.18 507.925 390.191 507.909C390.222 507.865 390.7 508.207 391.653 508.642C392.609 509.07 394.063 509.54 395.917 509.811C397.765 510.06 400.029 510.155 402.448 509.686C404.847 509.17 407.386 508.048 410.126 507.126C412.856 506.188 415.637 505.547 418.189 505.755C420.727 505.935 422.931 506.643 424.661 507.433C426.406 508.214 427.68 509.108 428.519 509.757C428.937 510.086 429.247 510.359 429.445 510.558C429.65 510.753 429.749 510.861 429.737 510.875Z" fill="white"/>
<path d="M410.549 496.921C426.593 496.921 439.599 496.797 439.599 496.645C439.599 496.492 426.593 496.369 410.549 496.369C394.505 496.369 381.499 496.492 381.499 496.645C381.499 496.797 394.505 496.921 410.549 496.921Z" fill="#263238"/>
<path d="M186.659 268.738L178.971 265.011C174.687 265.431 170.253 265.898 166.533 268.066C162.814 270.234 160.01 274.611 161.059 278.79C161.934 282.275 165.267 285.175 164.771 288.734C164.32 291.958 160.992 293.818 158.097 295.3C155.203 296.781 151.976 299.006 152.026 302.259C152.055 304.139 153.282 305.857 154.874 306.854C156.466 307.851 158.377 308.216 160.252 308.316C169.387 308.809 178.232 303.198 182.912 295.33C187.592 287.462 188.455 277.717 186.659 268.738Z" fill="#71B219"/>
<g opacity="0.7">
<g opacity="0.7">
<path opacity="0.7" d="M186.659 268.738L178.971 265.011C174.687 265.431 170.253 265.898 166.533 268.066C162.814 270.234 160.01 274.611 161.059 278.79C161.934 282.275 165.267 285.175 164.771 288.734C164.32 291.958 160.992 293.818 158.097 295.3C155.203 296.781 151.976 299.006 152.026 302.259C152.055 304.139 153.282 305.857 154.874 306.854C156.466 307.851 158.377 308.216 160.252 308.316C169.387 308.809 178.232 303.198 182.912 295.33C187.592 287.462 188.455 277.717 186.659 268.738Z" fill="white"/>
</g>
</g>
<path d="M165.743 262.457L191.482 281.216C191.482 281.216 198.316 272.633 195.89 262.577L182.903 253.465C182.905 253.463 175.011 252.199 165.743 262.457Z" fill="#263238"/>
<path d="M176.478 250.426L198.955 266.146L282.049 154.076C282.049 154.076 287.733 143.492 279.258 129.968C279.258 129.968 262.085 128.409 252.611 139.722C243.138 151.035 176.478 250.426 176.478 250.426Z" fill="#E0E0E0"/>
<path d="M176.478 250.425C176.478 250.425 176.613 250.196 176.911 249.727C177.223 249.248 177.669 248.565 178.251 247.674C179.45 245.867 181.2 243.231 183.455 239.833C188.027 233.022 194.635 223.174 202.839 210.949C211.086 198.737 220.944 184.154 232.098 167.968C237.682 159.881 243.551 151.367 249.918 142.69C250.747 141.624 251.58 140.555 252.418 139.479C253.366 138.486 254.266 137.429 255.37 136.583C257.494 134.812 259.913 133.337 262.529 132.307C265.134 131.252 267.888 130.526 270.7 130.087C273.517 129.649 276.38 129.469 279.288 129.651L279.444 129.661L279.53 129.799C281.914 133.67 283.817 138.319 284.16 143.267C284.408 147.05 283.902 150.876 282.331 154.226L282.324 154.242L282.307 154.265C247.065 201.69 216.544 242.761 199.092 266.246L198.994 266.379L198.86 266.284C191.694 261.221 186.084 257.259 182.248 254.55C180.366 253.211 178.921 252.184 177.929 251.478C177.456 251.14 177.096 250.879 176.836 250.693C176.589 250.517 176.478 250.425 176.478 250.425C176.478 250.425 176.62 250.511 176.876 250.684C177.146 250.868 177.523 251.124 178.013 251.458C179.024 252.152 180.493 253.164 182.41 254.484C186.253 257.145 191.872 261.036 199.051 266.007L198.818 266.045C216.219 242.523 246.652 201.385 281.792 153.886L281.767 153.925C283.249 150.766 283.77 146.984 283.52 143.315C283.185 138.492 281.329 133.944 278.987 130.138L279.227 130.287C273.579 129.975 267.874 130.855 262.765 132.89C260.199 133.898 257.839 135.338 255.767 137.062C254.689 137.885 253.815 138.913 252.889 139.878C252.058 140.943 251.232 142.003 250.409 143.058C244.047 151.71 238.164 160.219 232.568 168.295C221.387 184.457 211.49 199.015 203.196 211.193C194.923 223.371 188.26 233.181 183.65 239.967C181.354 243.337 179.572 245.952 178.352 247.744C177.752 248.613 177.292 249.28 176.97 249.746C176.657 250.188 176.478 250.425 176.478 250.425Z" fill="#263238"/>
<path d="M177.573 248.795L164.263 249.018L176.503 233.114L188.499 232.557L177.573 248.795Z" fill="#455A64"/>
<path d="M279.258 129.969C279.259 129.978 279.135 130.021 278.895 130.094C278.652 130.159 278.295 130.255 277.859 130.489C276.963 130.883 275.733 131.668 274.22 132.775C271.197 134.996 267.066 138.584 262.213 143.324L262.278 143.173C262.195 143.507 262.072 143.674 261.97 143.887L261.63 144.489C261.395 144.886 261.155 145.289 260.913 145.695C260.415 146.499 259.906 147.322 259.386 148.162C258.322 149.832 257.212 151.575 256.058 153.386C253.712 156.986 251.19 160.854 248.526 164.94C243.16 173.091 237.167 182.084 230.806 191.5C224.676 200.597 218.719 209.183 213.338 217.013C207.947 224.827 203.091 231.868 199.003 237.792C194.921 243.669 191.609 248.436 189.292 251.771C188.153 253.386 187.259 254.654 186.626 255.553C186.332 255.959 186.099 256.28 185.919 256.528C185.758 256.745 185.669 256.853 185.661 256.847C185.652 256.841 185.721 256.72 185.866 256.491C186.031 256.236 186.247 255.902 186.52 255.481C187.13 254.566 187.991 253.276 189.089 251.631C191.365 248.268 194.62 243.463 198.632 237.537C206.751 225.636 217.929 209.248 230.279 191.141C236.639 181.727 242.647 172.746 248.04 164.617C253.422 156.503 258.234 149.165 261.982 143.166L261.907 143.011C266.817 138.296 270.997 134.754 274.083 132.58C275.625 131.496 276.886 130.738 277.813 130.375C278.26 130.158 278.633 130.078 278.885 130.032C279.13 129.98 279.256 129.958 279.258 129.969Z" fill="#263238"/>
<path d="M240.408 179.249C240.357 179.183 240.654 178.949 241.09 179.206C241.288 179.319 241.505 179.637 241.435 180C241.377 180.339 241.109 180.685 240.664 180.75C240.216 180.792 239.877 180.52 239.737 180.208C239.582 179.875 239.704 179.522 239.861 179.357C240.203 178.992 240.547 179.118 240.524 179.196C240.529 179.285 240.324 179.369 240.235 179.61C240.191 179.73 240.193 179.848 240.263 179.945C240.328 180.049 240.484 180.133 240.588 180.116C240.692 180.108 240.823 179.99 240.86 179.875C240.903 179.767 240.876 179.657 240.801 179.555C240.65 179.35 240.432 179.332 240.408 179.249Z" fill="#263238"/>
<path d="M229.003 195.399C228.953 195.333 229.25 195.099 229.687 195.356C229.885 195.469 230.102 195.787 230.032 196.15C229.974 196.49 229.706 196.835 229.261 196.9C228.813 196.942 228.474 196.67 228.334 196.358C228.179 196.025 228.301 195.671 228.458 195.507C228.8 195.142 229.144 195.268 229.121 195.346C229.125 195.435 228.921 195.519 228.832 195.76C228.788 195.88 228.79 195.998 228.86 196.095C228.925 196.199 229.081 196.284 229.185 196.266C229.289 196.258 229.42 196.14 229.457 196.025C229.5 195.917 229.474 195.806 229.398 195.705C229.248 195.5 229.029 195.482 229.003 195.399Z" fill="#263238"/>
<path d="M215.975 214.501C215.925 214.435 216.223 214.202 216.658 214.458C216.857 214.571 217.074 214.889 217.004 215.253C216.946 215.592 216.678 215.938 216.233 216.003C215.785 216.045 215.445 215.772 215.306 215.46C215.151 215.128 215.273 214.774 215.43 214.609C215.772 214.245 216.115 214.37 216.093 214.449C216.098 214.537 215.893 214.622 215.804 214.862C215.759 214.983 215.762 215.101 215.832 215.198C215.897 215.302 216.053 215.385 216.157 215.368C216.261 215.361 216.392 215.243 216.429 215.128C216.472 215.02 216.446 214.909 216.37 214.807C216.219 214.602 216.001 214.585 215.975 214.501Z" fill="#263238"/>
<path d="M202.852 234.059C202.801 233.993 203.098 233.76 203.534 234.016C203.732 234.129 203.949 234.447 203.879 234.81C203.821 235.149 203.553 235.495 203.108 235.561C202.66 235.602 202.32 235.33 202.181 235.018C202.026 234.685 202.148 234.332 202.305 234.167C202.647 233.802 202.991 233.928 202.968 234.006C202.972 234.095 202.768 234.179 202.679 234.42C202.634 234.54 202.637 234.658 202.707 234.755C202.772 234.86 202.928 234.943 203.032 234.926C203.136 234.918 203.267 234.801 203.304 234.685C203.347 234.577 203.321 234.467 203.245 234.365C203.096 234.16 202.877 234.143 202.852 234.059Z" fill="#263238"/>
<path d="M190.683 252.436C190.633 252.37 190.931 252.136 191.366 252.393C191.565 252.506 191.782 252.824 191.712 253.187C191.653 253.526 191.386 253.872 190.941 253.937C190.493 253.979 190.153 253.707 190.014 253.395C189.859 253.062 189.98 252.709 190.137 252.544C190.48 252.179 190.824 252.305 190.801 252.383C190.805 252.472 190.601 252.556 190.512 252.797C190.467 252.917 190.47 253.035 190.54 253.132C190.605 253.236 190.761 253.32 190.865 253.303C190.969 253.295 191.1 253.178 191.137 253.062C191.18 252.954 191.153 252.844 191.078 252.742C190.927 252.537 190.709 252.519 190.683 252.436Z" fill="#263238"/>
<path d="M251.291 163.339C251.24 163.273 251.538 163.039 251.974 163.296C252.172 163.409 252.389 163.727 252.32 164.09C252.261 164.43 251.993 164.775 251.548 164.84C251.1 164.882 250.761 164.609 250.621 164.298C250.466 163.965 250.588 163.611 250.745 163.447C251.087 163.082 251.432 163.207 251.408 163.286C251.412 163.374 251.208 163.459 251.119 163.7C251.075 163.82 251.077 163.938 251.147 164.035C251.212 164.139 251.368 164.224 251.472 164.206C251.576 164.198 251.708 164.08 251.744 163.965C251.787 163.857 251.76 163.746 251.685 163.645C251.535 163.44 251.316 163.422 251.291 163.339Z" fill="#263238"/>
<path d="M262.912 146.109C262.861 146.043 263.158 145.809 263.594 146.066C263.792 146.179 264.01 146.497 263.94 146.86C263.881 147.199 263.613 147.545 263.168 147.61C262.72 147.652 262.381 147.379 262.241 147.068C262.086 146.735 262.208 146.381 262.365 146.217C262.707 145.852 263.052 145.978 263.028 146.056C263.032 146.144 262.828 146.229 262.739 146.47C262.695 146.59 262.697 146.708 262.766 146.805C262.831 146.909 262.987 146.993 263.091 146.976C263.195 146.968 263.326 146.85 263.363 146.735C263.406 146.627 263.38 146.516 263.304 146.415C263.155 146.211 262.936 146.194 262.912 146.109Z" fill="#263238"/>
<path d="M154.864 283.915C153.288 281.851 149.855 281.588 147.984 283.39L148.139 283.308C146.681 284.472 146.181 286.869 146.979 288.631C148.048 290.999 151.334 292.029 153.563 290.697C155.79 289.365 156.44 285.98 154.864 283.915Z" fill="#71B219"/>
<g opacity="0.7">
<g opacity="0.7">
<path opacity="0.7" d="M154.864 283.915C153.288 281.851 149.855 281.588 147.984 283.39L148.139 283.308C146.681 284.472 146.181 286.869 146.979 288.631C148.048 290.999 151.334 292.029 153.563 290.697C155.79 289.365 156.44 285.98 154.864 283.915Z" fill="white"/>
</g>
</g>
<path d="M280.137 156.485C280.055 156.551 278.866 155.165 276.59 153.293C274.338 151.397 271.047 148.985 267.252 146.575C263.46 144.158 259.85 142.255 257.145 141.116C256.466 140.836 255.84 140.622 255.295 140.41C254.771 140.257 254.297 140.12 253.863 139.992C253.063 139.86 252.61 139.765 252.611 139.721C252.613 139.678 253.069 139.685 253.91 139.748C254.362 139.845 254.855 139.951 255.399 140.067C255.961 140.249 256.611 140.437 257.31 140.695C260.097 141.743 263.776 143.602 267.595 146.035C271.416 148.461 274.689 150.95 276.887 152.951C277.993 153.942 278.827 154.815 279.372 155.444C279.899 156.089 280.171 156.456 280.137 156.485Z" fill="#263238"/>
<path d="M246.269 368.398L207.761 374.095L214.599 422.086C219.139 421.152 224.798 395.011 224.798 395.011L249.62 392.374L246.269 368.398Z" fill="#455A64"/>
<path d="M224.76 379.876C224.373 378.984 223.239 378.492 222.332 378.84C221.426 379.19 220.915 380.34 221.285 381.239C221.655 382.138 223 382.771 223.862 382.323C224.724 381.875 225.25 380.49 224.675 379.706" fill="white"/>
<path d="M207.761 374.097L211.665 373.674L216.762 419.845C216.762 419.845 216.137 422.115 214.599 422.088L207.761 374.097Z" fill="white"/>
<path d="M225.152 395.755C224.917 395.781 224.643 394.624 223.727 393.578C222.838 392.509 221.739 392.06 221.8 391.83C221.815 391.608 223.265 391.758 224.352 393.043C225.451 394.319 225.374 395.776 225.152 395.755Z" fill="#263238"/>
<path d="M223.789 401.086C223.57 401.172 223.028 400.213 221.924 399.56C220.84 398.872 219.74 398.824 219.717 398.59C219.65 398.375 220.998 398.017 222.354 398.858C223.717 399.685 224.011 401.049 223.789 401.086Z" fill="#263238"/>
<path d="M218.177 404.804C218.096 404.598 219.219 404.105 220.588 404.524C221.96 404.933 222.623 405.967 222.442 406.093C222.267 406.253 221.479 405.64 220.35 405.313C219.231 404.96 218.233 405.034 218.177 404.804Z" fill="#263238"/>
<path d="M230.743 394.526C230.516 394.459 230.685 393.338 230.407 392.025C230.155 390.708 229.564 389.741 229.747 389.59C229.896 389.43 230.907 390.313 231.214 391.862C231.531 393.409 230.943 394.615 230.743 394.526Z" fill="#263238"/>
<path d="M236.268 392.572C236.171 392.588 235.895 391.683 235.938 390.167C235.96 389.412 236.078 388.509 236.351 387.542C236.489 387.058 236.665 386.559 236.886 386.058C236.997 385.816 237.102 385.533 237.347 385.251C237.555 384.956 238.154 384.721 238.578 384.966C238.981 385.159 239.202 385.571 239.26 385.916C239.321 386.269 239.291 386.566 239.263 386.836C239.209 387.388 239.104 387.915 238.964 388.404C238.678 389.38 238.258 390.2 237.826 390.827C236.955 392.088 236.134 392.593 236.077 392.519C235.985 392.423 236.64 391.777 237.329 390.523C237.671 389.898 238.006 389.113 238.231 388.207C238.34 387.754 238.421 387.271 238.459 386.767C238.52 386.239 238.461 385.807 238.217 385.709C238.124 385.673 238.089 385.672 237.956 385.8C237.834 385.929 237.729 386.155 237.62 386.393C237.404 386.857 237.224 387.318 237.075 387.767C236.78 388.663 236.61 389.504 236.517 390.217C236.331 391.644 236.396 392.557 236.268 392.572Z" fill="#263238"/>
<path d="M235.889 392.314C235.841 392.236 236.614 391.651 238.118 391.349C238.863 391.202 239.787 391.15 240.794 391.301C241.297 391.38 241.818 391.51 242.339 391.705C242.853 391.919 243.536 392.172 243.771 393.066C243.857 393.538 243.543 393.985 243.245 394.166C242.943 394.371 242.669 394.442 242.399 394.537C241.852 394.706 241.302 394.773 240.782 394.77C239.74 394.765 238.831 394.468 238.156 394.097C236.78 393.336 236.36 392.398 236.437 392.367C236.544 392.271 237.112 393.024 238.408 393.571C239.047 393.841 239.868 394.045 240.773 394.01C241.224 393.994 241.694 393.919 242.154 393.768C242.653 393.62 243.037 393.37 242.958 393.186C242.928 392.946 242.485 392.597 242.051 392.458C241.586 392.272 241.118 392.14 240.665 392.048C239.756 391.871 238.908 391.858 238.202 391.924C236.783 392.061 235.943 392.437 235.889 392.314Z" fill="#263238"/>
<path d="M134.423 417.729L105.454 443.755L137.619 479.996C140.889 476.708 131.193 451.784 131.193 451.784L150.437 435.871L134.423 417.729Z" fill="#455A64"/>
<path d="M122.816 439.182C122.002 438.652 120.784 438.867 120.221 439.66C119.657 440.452 119.867 441.694 120.671 442.239C121.476 442.784 122.946 442.569 123.417 441.72C123.888 440.869 123.564 439.425 122.652 439.089" fill="white"/>
<path d="M105.454 443.754L108.476 441.245L138.186 476.93C138.186 476.93 138.917 479.167 137.619 479.994L105.454 443.754Z" fill="white"/>
<path d="M131.9 452.208C131.718 452.359 130.852 451.546 129.511 451.18C128.179 450.78 127.015 451.012 126.941 450.787C126.831 450.593 128.122 449.918 129.738 450.388C131.357 450.844 132.096 452.102 131.9 452.208Z" fill="#263238"/>
<path d="M133.703 457.406C133.567 457.598 132.587 457.099 131.305 457.164C130.022 457.189 129.079 457.757 128.93 457.574C128.755 457.433 129.682 456.389 131.277 456.34C132.87 456.276 133.867 457.252 133.703 457.406Z" fill="#263238"/>
<path d="M131.073 463.607C130.893 463.479 131.558 462.448 132.929 462.042C134.298 461.625 135.421 462.12 135.34 462.326C135.284 462.556 134.287 462.48 133.166 462.831C132.037 463.154 131.247 463.766 131.073 463.607Z" fill="#263238"/>
<path d="M135.884 448.094C135.657 448.162 135.18 447.134 134.224 446.195C133.287 445.236 132.26 444.756 132.33 444.529C132.367 444.313 133.697 444.491 134.807 445.614C135.925 446.726 136.1 448.058 135.884 448.094Z" fill="#263238"/>
<path d="M139.414 443.411C139.342 443.478 138.613 442.876 137.812 441.588C137.414 440.946 137.014 440.13 136.709 439.171C136.557 438.691 136.428 438.178 136.336 437.638C136.296 437.375 136.227 437.082 136.276 436.711C136.287 436.351 136.656 435.822 137.144 435.794C137.587 435.731 137.999 435.953 138.237 436.21C138.484 436.469 138.621 436.734 138.748 436.974C139.008 437.465 139.21 437.962 139.362 438.446C139.661 439.418 139.763 440.334 139.75 441.095C139.719 442.627 139.313 443.501 139.225 443.472C139.095 443.443 139.286 442.542 139.168 441.116C139.109 440.405 138.956 439.566 138.643 438.686C138.484 438.248 138.285 437.8 138.039 437.359C137.798 436.885 137.511 436.556 137.254 436.61C137.157 436.632 137.127 436.651 137.086 436.83C137.056 437.006 137.092 437.251 137.132 437.51C137.208 438.016 137.313 438.501 137.435 438.956C137.683 439.867 138.006 440.662 138.321 441.308C138.954 442.602 139.512 443.329 139.414 443.411Z" fill="#263238"/>
<path d="M138.955 443.405C138.871 443.367 139.194 442.452 140.281 441.368C140.822 440.833 141.562 440.281 142.486 439.851C142.948 439.639 143.455 439.459 143.997 439.334C144.543 439.228 145.252 439.062 145.94 439.678C146.272 440.024 146.256 440.572 146.107 440.886C145.968 441.223 145.779 441.435 145.607 441.663C145.243 442.106 144.821 442.466 144.387 442.751C143.515 443.322 142.594 443.576 141.826 443.641C140.26 443.767 139.393 443.216 139.439 443.148C139.476 443.01 140.364 443.324 141.746 443.064C142.428 442.936 143.226 442.651 143.96 442.122C144.327 441.859 144.678 441.538 144.978 441.157C145.313 440.758 145.495 440.338 145.328 440.229C145.171 440.046 144.609 439.998 144.17 440.122C143.681 440.225 143.217 440.373 142.788 440.547C141.932 440.902 141.218 441.36 140.666 441.804C139.562 442.7 139.068 443.477 138.955 443.405Z" fill="#263238"/>
<path d="M259.692 252.354C258.738 252.741 249.755 254.357 241.921 270.369C234.087 286.382 235.326 296.038 235.326 296.038L196.676 351.2L117.97 424.731L142.885 449.246L224.874 377.524C224.874 377.524 267.766 338.886 272.317 333.746C281.1 323.825 310.717 281.259 310.717 281.259L259.692 252.354Z" fill="#263238"/>
<path d="M273.814 315.319L289.625 354.005L231.893 368.742L235.881 396.975C235.881 396.975 326.017 384.727 330.936 380.242C335.854 375.756 339.076 371.765 339.189 367.202C339.302 362.639 310.598 271.97 310.598 271.97L278.083 297.285L273.814 315.319Z" fill="#263238"/>
<path d="M306.519 283.502C306.54 283.51 306.467 283.715 306.307 284.096C306.112 284.542 305.874 285.089 305.585 285.753C304.979 287.206 303.903 289.208 302.57 291.679C299.848 296.593 295.646 303.12 290.675 310.085C285.709 317.06 280.953 323.18 277.436 327.545C275.68 329.73 274.229 331.475 273.212 332.668C272.736 333.213 272.345 333.663 272.025 334.028C271.748 334.334 271.592 334.488 271.575 334.473C271.558 334.458 271.679 334.279 271.925 333.946C272.22 333.559 272.582 333.086 273.02 332.511C274.038 331.196 275.411 329.422 277.082 327.265C280.505 322.832 285.199 316.677 290.155 309.715C295.118 302.761 299.366 296.293 302.178 291.455C303.555 289.021 304.688 287.058 305.36 285.645C305.693 285.003 305.966 284.474 306.19 284.043C306.387 283.68 306.5 283.493 306.519 283.502Z" fill="#455A64"/>
<path d="M307.916 361.582C307.815 361.645 307.193 360.569 305.84 359.144C305.172 358.425 304.283 357.66 303.232 356.906C302.163 356.178 300.92 355.477 299.536 354.918C298.142 354.379 296.756 354.042 295.478 353.843C294.197 353.675 293.026 353.626 292.047 353.694C290.085 353.811 288.898 354.171 288.866 354.055C288.854 354.014 289.14 353.897 289.674 353.721C290.205 353.532 291.008 353.362 292.008 353.244C293.011 353.115 294.222 353.116 295.554 353.259C296.881 353.432 298.325 353.764 299.769 354.323C301.204 354.902 302.485 355.646 303.573 356.426C304.643 357.232 305.528 358.06 306.172 358.839C306.824 359.61 307.292 360.284 307.551 360.784C307.824 361.28 307.954 361.56 307.916 361.582Z" fill="#455A64"/>
<path d="M298.847 352.275C303.512 351.549 307.271 350.819 307.244 350.644C307.217 350.47 303.414 350.918 298.749 351.644C294.085 352.37 290.325 353.1 290.353 353.274C290.38 353.449 294.183 353.001 298.847 352.275Z" fill="#455A64"/>
<path d="M271.576 334.473C271.583 334.48 271.483 334.593 271.278 334.804C271.047 335.036 270.743 335.343 270.357 335.732C269.51 336.564 268.307 337.745 266.772 339.254C263.656 342.311 259.091 346.674 253.407 352.022C242.045 362.721 226.084 377.221 208.182 392.919C190.27 408.618 173.907 422.654 162.085 432.839C156.19 437.906 151.41 442.015 148.073 444.884C146.434 446.28 145.151 447.373 144.248 448.143C143.827 448.492 143.494 448.769 143.243 448.977C143.013 449.163 142.893 449.254 142.886 449.245C142.878 449.236 142.985 449.13 143.2 448.928C143.441 448.707 143.759 448.415 144.164 448.046C145.049 447.255 146.305 446.132 147.91 444.698C151.215 441.792 155.951 437.63 161.789 432.497C173.577 422.226 189.819 408.074 207.761 392.439C225.661 376.744 241.662 362.304 253.101 351.692C258.821 346.388 263.434 342.077 266.601 339.075C268.171 337.603 269.401 336.452 270.268 335.64C270.673 335.271 270.992 334.978 271.234 334.759C271.452 334.561 271.569 334.465 271.576 334.473Z" fill="#455A64"/>
<path d="M421.639 70.4603L428.09 59.4703C428.09 59.4703 431.372 48.4804 432.277 47.5449C433.182 46.6094 434.201 46.3762 434.88 46.8439C435.559 47.3116 445.404 50.1181 446.083 50.5858C446.762 51.0535 446.083 57.1329 446.083 57.1329L445.97 58.5361C445.97 58.5361 449.787 57.2827 451.288 58.5361C452.005 59.1352 450.835 61.9269 448.458 62.979C446.307 63.9316 443.227 65.7474 439.556 69.2928C438.73 70.092 437.647 70.5585 436.516 70.604C435.88 70.6297 435.371 70.6101 435.558 70.4616C436.297 69.8735 429.447 79.1129 429.447 79.1129L421.639 70.4603Z" fill="#B78876"/>
<path d="M451.288 58.5349C451.224 58.6061 450.655 58.0966 449.475 58.1617C448.317 58.1813 446.724 58.6073 445.001 59.1904C443.268 59.7908 441.59 60.2106 440.339 60.1591C439.085 60.132 438.379 59.7552 438.409 59.6925C438.438 59.5907 439.16 59.7969 440.328 59.7073C441.499 59.6434 443.065 59.1831 444.798 58.584C446.546 57.9935 448.225 57.6129 449.487 57.7099C450.114 57.7504 450.622 57.9247 450.918 58.1273C451.222 58.3225 451.31 58.5177 451.288 58.5349Z" fill="#AA6550"/>
<path d="M438.156 52.6348C438.223 52.5943 438.416 53.0571 439.101 53.3739C439.776 53.7213 440.886 53.6636 442.063 53.0915L442.608 52.8263L442.458 53.4328C442.229 54.3584 442.131 55.4474 442.28 56.5707C442.291 56.6443 442.301 56.718 442.311 56.7855L442.361 57.1317L442.027 57.155C441.364 57.2005 440.854 56.9292 440.409 56.772C439.96 56.5952 439.562 56.5179 439.263 56.664C438.968 56.8015 438.777 57.1514 438.746 57.4767C438.711 57.8033 438.822 58.1335 438.977 58.3974C439.298 58.9364 439.762 59.2494 440.06 59.4753C440.368 59.6975 440.538 59.8313 440.517 59.8706C440.496 59.9075 440.291 59.8485 439.937 59.6865C439.594 59.5158 439.052 59.2568 438.605 58.6393C438.391 58.3336 438.205 57.926 438.224 57.4386C438.249 56.9709 438.472 56.4307 439.001 56.1435C439.539 55.8586 440.163 56.0146 440.623 56.1864C441.101 56.3571 441.56 56.5572 441.969 56.5191L441.684 56.8874C441.673 56.8138 441.662 56.734 441.65 56.6554C441.488 55.4412 441.617 54.2664 441.9 53.283L442.294 53.6243C441.655 53.887 441.012 54.0589 440.417 54.0638C439.824 54.0761 439.299 53.9067 438.937 53.6795C438.188 53.2069 438.104 52.6324 438.156 52.6348Z" fill="#AA6550"/>
<path d="M436.919 59.0237C436.77 58.9156 437.622 57.6069 438.125 55.7974C438.396 54.8901 438.501 54.0811 438.336 53.5311C438.192 52.9725 437.899 52.7074 437.957 52.6325C437.988 52.5588 438.45 52.7233 438.76 53.374C439.093 54.021 439.025 55.0375 438.741 55.9717C438.194 57.9188 437.042 59.1391 436.919 59.0237Z" fill="#AA6550"/>
<path d="M331.596 76.9595C334.978 75.08 338.679 73.5736 342.546 73.4656C346.413 73.3563 350.477 74.8393 352.752 77.9711C354.517 80.4018 355.153 83.6711 357.478 85.574C360.673 88.1913 365.395 87.0422 369.457 87.7825C370.286 87.9335 371.224 88.2871 371.459 89.0961C371.661 89.7959 371.237 90.5091 370.831 91.1144C369.462 93.1597 368.092 95.2062 366.723 97.2514C368.321 98.2937 370.409 98.5441 372.207 97.9095C371.402 102.187 369.041 106.154 365.667 108.899C366.466 108.491 367.48 109.179 367.724 110.044C367.967 110.908 367.665 111.826 367.309 112.651C365.127 117.709 360.68 121.737 355.433 123.407C350.187 125.076 344.232 124.358 339.532 121.49" fill="#263238"/>
<path d="M333.932 76.4239C329.973 72.995 323.61 72.7557 319.405 75.8788C316.498 78.0383 314.781 81.3898 312.805 84.4258C310.829 87.4617 308.211 90.4646 304.655 91.1447C301.773 91.6972 298.686 90.6217 295.909 91.5683C292.903 92.5921 291.08 95.8061 290.743 98.9661C290.405 102.126 291.266 105.278 292.12 108.338C290.391 109.692 288.095 110.294 285.925 109.962C286.666 112.217 288.167 114.214 290.128 115.548C291.372 116.395 292.829 117.015 293.74 118.215C294.631 119.386 294.853 120.89 294.947 122.436C295.174 126.137 298.796 128.623 302.346 127.563C303.896 127.1 305.42 126.542 307.463 125.474C307.463 125.474 305.723 127.821 308.414 130.409C310.585 130.183 312.608 128.83 313.646 126.908" fill="#263238"/>
<path d="M355.569 101.661C356.771 90.304 349.058 79.9278 337.844 77.8163L336.729 77.6063C324.582 76.046 316.473 85.5002 315.25 97.6957L307.095 153.575L334.646 158.705L337.759 140.604C337.759 140.604 349.648 140.982 351.963 129.45C353.081 123.88 354.452 112.224 355.569 101.661Z" fill="#B78876"/>
<path d="M349.466 109.258C349.334 110.136 348.481 110.746 347.562 110.624C346.646 110.502 346.01 109.694 346.142 108.816C346.275 107.938 347.127 107.327 348.043 107.448C348.962 107.57 349.598 108.38 349.466 109.258Z" fill="#263238"/>
<path d="M352.023 106.849C351.778 107.026 350.704 105.865 348.928 105.536C347.159 105.181 345.685 105.85 345.534 105.596C345.458 105.482 345.739 105.132 346.383 104.826C347.018 104.52 348.046 104.299 349.151 104.512C350.255 104.727 351.108 105.309 351.565 105.827C352.031 106.347 352.142 106.771 352.023 106.849Z" fill="#263238"/>
<path d="M333.496 108.166C333.25 108.343 332.173 107.182 330.399 106.853C328.63 106.498 327.156 107.167 327.004 106.913C326.928 106.799 327.206 106.45 327.854 106.143C328.489 105.836 329.517 105.615 330.621 105.829C331.724 106.044 332.578 106.626 333.034 107.144C333.502 107.664 333.615 108.089 333.496 108.166Z" fill="#263238"/>
<path d="M338.483 118.28C338.494 118.177 339.632 118.194 341.463 118.302C341.925 118.34 342.371 118.332 342.505 118.036C342.674 117.728 342.577 117.203 342.456 116.634C342.237 115.456 342.008 114.221 341.766 112.927C340.829 107.66 340.243 103.363 340.455 103.326C340.667 103.29 341.599 107.531 342.535 112.799C342.754 114.095 342.965 115.332 343.165 116.515C343.24 117.062 343.425 117.703 343.066 118.339C342.881 118.654 342.502 118.839 342.196 118.862C341.89 118.896 341.633 118.853 341.407 118.824C339.588 118.584 338.47 118.383 338.483 118.28Z" fill="#263238"/>
<path d="M333.028 118.526C333.32 118.564 332.961 120.492 334.353 122.171C335.741 123.854 337.835 124.023 337.799 124.296C337.803 124.422 337.272 124.584 336.4 124.444C335.544 124.313 334.354 123.806 333.503 122.779C332.655 121.751 332.433 120.55 332.516 119.746C332.594 118.927 332.898 118.489 333.028 118.526Z" fill="#263238"/>
<path d="M335.551 99.3899C335.336 99.8663 333.557 99.5004 331.425 99.5974C329.291 99.6514 327.542 100.144 327.294 99.6833C327.185 99.4636 327.516 99.0253 328.241 98.6018C328.959 98.1794 330.082 97.8099 331.361 97.7633C332.639 97.7191 333.786 98.0076 334.532 98.3783C335.283 98.7491 335.644 99.1628 335.551 99.3899Z" fill="#263238"/>
<path d="M353.158 100C352.703 100.337 351.278 99.6504 349.478 99.3104C347.689 98.9187 346.1 98.9912 345.825 98.505C345.707 98.273 346.018 97.9108 346.754 97.6457C347.479 97.3817 348.634 97.2651 349.867 97.5155C351.1 97.7684 352.109 98.3246 352.664 98.85C353.227 99.3791 353.361 99.8333 353.158 100Z" fill="#263238"/>
<path d="M315.387 106.581C315.207 106.459 307.894 102.738 306.66 110.688C305.427 118.637 313.655 118.237 313.704 118.011C313.755 117.785 315.387 106.581 315.387 106.581Z" fill="#B78876"/>
<path d="M312.441 114.751C312.41 114.721 312.288 114.826 312.036 114.898C311.792 114.966 311.389 114.977 310.999 114.758C310.208 114.319 309.707 112.876 309.891 111.437C309.983 110.71 310.242 110.045 310.587 109.514C310.919 108.97 311.358 108.623 311.792 108.613C312.228 108.581 312.488 108.881 312.55 109.12C312.623 109.36 312.548 109.509 312.587 109.53C312.607 109.554 312.778 109.423 312.765 109.086C312.756 108.923 312.693 108.721 312.529 108.54C312.363 108.354 312.095 108.233 311.796 108.218C311.177 108.165 310.538 108.643 310.16 109.226C309.748 109.805 309.44 110.55 309.337 111.367C309.139 112.976 309.726 114.603 310.822 115.114C311.358 115.347 311.85 115.25 312.12 115.1C312.397 114.942 312.467 114.77 312.441 114.751Z" fill="#AA6550"/>
<path d="M327.102 83.957C329.518 83.8588 331.889 84.631 333.784 86.1349L335.01 87.1072L355.223 93.2492C360.485 91.5955 358.053 86.6112 353.937 84.4014C349.121 81.8148 343.959 77.1632 338.605 76.0681C333.251 74.9743 323.417 76.6034 318.582 81.9351C315.709 85.1037 314.752 88.0292 314.752 88.0292C313.463 92.2118 312.069 100.869 312.24 105.242C312.327 107.497 313.998 110.45 313.998 110.45C313.998 110.45 313.998 110.45 313.999 110.45C315.815 110.781 316.757 109.462 316.816 107.615L317.786 100.506C317.786 100.506 324.775 97.2648 323.344 88.6847C323.319 88.6332 323.368 88.7596 323.344 88.6847C322.568 86.3767 324.482 83.8404 327.102 83.957Z" fill="#263238"/>
<path d="M323.525 86.1033C324.408 83.6369 328.802 82.7407 331.131 83.934C333.46 85.1273 334.958 87.4414 336.547 89.5223C338.137 91.6032 340.159 93.6706 342.762 93.9541C345.468 94.2488 348.388 92.5534 350.801 93.8154C351.865 94.3716 352.592 95.4163 353.597 96.0755C355.142 97.0908 357.188 97.0699 358.936 96.4684C360.684 95.8668 362.202 94.7521 363.69 93.6546C358.567 92.8665 354.191 89.6439 350.1 86.4569C346.01 83.2699 341.778 79.922 336.716 78.8012C331.655 77.6803 325.508 79.5623 323.525 84.3563" fill="#263238"/>
<path d="M295.731 118.245C295.748 118.215 295.968 118.384 296.45 118.499C296.924 118.603 297.703 118.586 298.51 118.106C299.323 117.65 300.005 116.612 300.092 115.279C300.213 113.944 299.743 112.45 298.958 110.935C298.184 109.416 297.216 107.728 296.737 105.702C296.242 103.715 296.303 101.255 297.698 99.2588C298.384 98.2656 299.461 97.5389 300.63 97.1288C301.813 96.7237 303.082 96.6378 304.334 96.6415C306.825 96.6402 309.429 97.0969 311.872 96.38C313.073 96.0141 314.12 95.28 314.817 94.2807C315.513 93.2777 315.896 92.0881 316.124 90.8997C316.592 88.5107 316.398 86.0861 316.796 83.7867C316.988 82.6425 317.294 81.5266 317.825 80.5334C318.358 79.5463 319.113 78.6931 320.032 78.1505C321.882 77.0346 323.997 77.0935 325.68 77.5318C327.403 77.9737 328.757 78.8994 329.809 79.7857C330.865 80.6856 331.645 81.5892 332.262 82.3344C332.876 83.0832 333.32 83.6885 333.617 84.0997C333.914 84.5134 334.06 84.7369 334.043 84.7504C334.025 84.7639 333.845 84.5662 333.516 84.1795C333.142 83.7437 332.664 83.1851 332.073 82.4964C331.432 81.7819 330.634 80.9139 329.58 80.062C328.529 79.2198 327.213 78.3617 325.57 77.97C323.961 77.5772 321.972 77.5686 320.31 78.6023C318.623 79.6163 317.688 81.68 317.378 83.8812C317.004 86.091 317.212 88.5131 316.739 91.0163C316.505 92.2563 316.107 93.533 315.337 94.6465C314.569 95.7588 313.377 96.5948 312.062 96.9913C309.393 97.7611 306.764 97.2639 304.329 97.2688C303.108 97.259 301.908 97.3424 300.826 97.7071C299.759 98.079 298.8 98.715 298.177 99.6013C296.901 101.395 296.799 103.678 297.252 105.582C297.688 107.531 298.6 109.181 299.363 110.737C300.134 112.285 300.614 113.89 300.448 115.313C300.328 116.735 299.533 117.87 298.634 118.323C297.746 118.806 296.91 118.776 296.418 118.625C295.919 118.461 295.731 118.245 295.731 118.245Z" fill="#455A64"/>
<path d="M364.39 89.068C364.403 89.0864 364.295 89.1735 364.076 89.3233C363.864 89.4854 363.526 89.6842 363.061 89.8893C362.142 90.2944 360.674 90.7167 358.846 90.5436C357.043 90.4012 354.846 89.6695 353.087 87.9471C352.209 87.0976 351.518 85.9608 351.041 84.754C350.539 83.5533 350.15 82.2827 349.489 81.1471C348.175 78.8686 345.639 77.6606 343.39 77.6115C341.096 77.5268 339.171 78.6648 338.043 79.96C336.886 81.2601 336.38 82.6424 336.195 83.5963C336.003 84.56 336.041 85.1186 335.979 85.1198C335.957 85.121 335.934 84.9848 335.909 84.7196C335.886 84.4557 335.879 84.0591 335.95 83.5558C336.066 82.5565 336.521 81.0808 337.704 79.6641C338.842 78.2572 340.912 76.9645 343.403 77.0234C345.832 77.0431 348.593 78.3247 350.042 80.8255C350.753 82.0519 351.14 83.3483 351.621 84.517C352.082 85.698 352.698 86.7244 353.504 87.5322C355.115 89.1576 357.178 89.9064 358.893 90.0955C360.631 90.3177 362.051 89.9838 362.969 89.6609C363.9 89.3368 364.351 89.0017 364.39 89.068Z" fill="#455A64"/>
<path d="M305.699 87.7287C305.676 87.7078 305.798 87.5899 305.912 87.3149C306.021 87.0436 306.086 86.5796 305.871 86.0603C305.676 85.552 305.143 84.9738 304.358 85.018C303.609 85.0352 302.731 85.633 302.47 86.555C302.202 87.4758 302.647 88.6482 303.556 89.343C304.474 90.044 305.82 90.249 307.122 89.99C308.429 89.7396 309.733 89.0484 310.717 87.9779C311.715 86.9135 312.253 85.4477 312.721 83.9168C313.173 82.381 313.717 80.8182 314.595 79.5218C315.442 78.2094 316.517 77.1254 317.66 76.2685C319.966 74.5485 322.588 73.8782 324.73 73.8758C326.891 73.8451 328.588 74.3754 329.677 74.8432C330.224 75.0826 330.632 75.306 330.897 75.4742C331.16 75.6436 331.293 75.7406 331.282 75.7602C331.255 75.8093 330.686 75.4791 329.587 75.0752C328.49 74.6873 326.823 74.2404 324.742 74.3288C322.675 74.3889 320.195 75.0764 318.013 76.7411C316.933 77.571 315.917 78.6121 315.12 79.8643C314.291 81.1055 313.789 82.5553 313.33 84.1095C312.862 85.6429 312.289 87.2315 311.177 88.4051C310.091 89.5726 308.666 90.3141 307.23 90.5707C305.803 90.8346 304.296 90.6038 303.23 89.7617C302.185 88.9268 301.685 87.5605 302.037 86.4286C302.401 85.3016 303.438 84.6571 304.355 84.6607C304.816 84.6534 305.243 84.84 305.536 85.0978C305.828 85.3617 306.004 85.6772 306.105 85.9731C306.31 86.5734 306.19 87.0903 306.03 87.3702C305.863 87.6538 305.705 87.7385 305.699 87.7287Z" fill="#263238"/>
<path d="M331.596 76.9595C334.978 75.08 338.679 73.5736 342.546 73.4656C346.413 73.3563 350.477 74.8393 352.752 77.9711C354.517 80.4018 355.153 83.6711 357.478 85.574C360.673 88.1913 365.395 87.0422 369.457 87.7825C370.286 87.9335 371.224 88.2871 371.459 89.0961C371.661 89.7959 371.237 90.5091 370.831 91.1144C369.462 93.1597 368.092 95.2062 366.723 97.2514C368.321 98.2937 370.409 98.5441 372.207 97.9095C371.402 102.187 369.041 106.154 365.667 108.899C366.466 108.491 367.48 109.179 367.724 110.044C367.967 110.908 367.665 111.826 367.309 112.651C365.127 117.709 360.68 121.737 355.433 123.407C350.187 125.076 344.232 124.358 339.532 121.49" fill="#263238"/>
<path d="M333.932 76.4239C329.973 72.995 323.61 72.7557 319.405 75.8788C316.498 78.0383 314.781 81.3898 312.805 84.4258C310.829 87.4617 308.211 90.4646 304.655 91.1447C301.773 91.6972 298.686 90.6217 295.909 91.5683C292.903 92.5921 291.08 95.8061 290.743 98.9661C290.405 102.126 291.266 105.278 292.12 108.338C290.391 109.692 288.095 110.294 285.925 109.962C286.666 112.217 288.167 114.214 290.128 115.548C291.372 116.395 292.829 117.015 293.74 118.215C294.631 119.386 294.853 120.89 294.947 122.436C295.174 126.137 298.796 128.623 302.346 127.563C303.896 127.1 305.42 126.542 307.463 125.474C307.463 125.474 305.723 127.821 308.414 130.409C310.585 130.183 312.608 128.83 313.646 126.908" fill="#263238"/>
<path d="M355.569 101.661C356.771 90.304 349.058 79.9278 337.844 77.8163L336.729 77.6063C324.582 76.046 316.473 85.5002 315.25 97.6957L307.095 153.575L334.646 158.705L337.759 140.604C337.759 140.604 349.648 140.982 351.963 129.45C353.081 123.88 354.452 112.224 355.569 101.661Z" fill="#B78876"/>
<path d="M337.858 140.605C337.858 140.605 330.4 139.661 323.561 133.322C323.561 133.322 325.555 142.311 337.274 143.441L337.858 140.605Z" fill="#AA6550"/>
<path d="M349.466 109.258C349.334 110.136 348.481 110.746 347.562 110.624C346.646 110.502 346.01 109.694 346.142 108.816C346.275 107.938 347.127 107.327 348.043 107.448C348.962 107.57 349.598 108.38 349.466 109.258Z" fill="#263238"/>
<path d="M352.023 106.849C351.778 107.026 350.704 105.865 348.928 105.536C347.159 105.181 345.685 105.85 345.534 105.596C345.458 105.482 345.739 105.132 346.383 104.826C347.018 104.52 348.046 104.299 349.151 104.512C350.255 104.727 351.108 105.309 351.565 105.827C352.031 106.347 352.142 106.771 352.023 106.849Z" fill="#263238"/>
<path d="M333.496 108.166C333.25 108.343 332.173 107.182 330.399 106.853C328.63 106.498 327.156 107.167 327.004 106.913C326.928 106.799 327.206 106.45 327.854 106.143C328.489 105.836 329.517 105.615 330.621 105.829C331.724 106.044 332.578 106.626 333.034 107.144C333.502 107.664 333.615 108.089 333.496 108.166Z" fill="#263238"/>
<path d="M338.483 118.28C338.494 118.177 339.632 118.194 341.463 118.302C341.925 118.34 342.371 118.332 342.505 118.036C342.674 117.728 342.577 117.203 342.456 116.634C342.237 115.456 342.008 114.221 341.766 112.927C340.829 107.66 340.243 103.363 340.455 103.326C340.667 103.29 341.599 107.531 342.535 112.799C342.754 114.095 342.965 115.332 343.165 116.515C343.24 117.062 343.425 117.703 343.066 118.339C342.881 118.654 342.502 118.839 342.196 118.862C341.89 118.896 341.633 118.853 341.407 118.824C339.588 118.584 338.47 118.383 338.483 118.28Z" fill="#263238"/>
<path d="M333.028 118.526C333.32 118.564 332.961 120.492 334.353 122.171C335.741 123.854 337.835 124.023 337.799 124.296C337.803 124.422 337.272 124.584 336.4 124.444C335.544 124.313 334.354 123.806 333.503 122.779C332.655 121.751 332.433 120.55 332.516 119.746C332.594 118.927 332.898 118.489 333.028 118.526Z" fill="#263238"/>
<path d="M335.551 99.3899C335.336 99.8663 333.557 99.5004 331.425 99.5974C329.291 99.6514 327.542 100.144 327.294 99.6833C327.185 99.4636 327.516 99.0253 328.241 98.6018C328.959 98.1794 330.082 97.8099 331.361 97.7633C332.639 97.7191 333.786 98.0076 334.532 98.3783C335.283 98.7491 335.644 99.1628 335.551 99.3899Z" fill="#263238"/>
<path d="M353.158 100C352.703 100.337 351.278 99.6504 349.478 99.3104C347.689 98.9187 346.1 98.9912 345.825 98.505C345.707 98.273 346.018 97.9108 346.754 97.6457C347.479 97.3817 348.634 97.2651 349.867 97.5155C351.1 97.7684 352.109 98.3246 352.664 98.85C353.227 99.3791 353.361 99.8333 353.158 100Z" fill="#263238"/>
<path d="M315.387 106.581C315.207 106.459 307.894 102.738 306.66 110.688C305.427 118.637 313.655 118.237 313.704 118.011C313.755 117.785 315.387 106.581 315.387 106.581Z" fill="#B78876"/>
<path d="M312.441 114.751C312.41 114.721 312.288 114.826 312.036 114.898C311.792 114.966 311.389 114.977 310.999 114.758C310.208 114.319 309.707 112.876 309.891 111.437C309.983 110.71 310.242 110.045 310.587 109.514C310.919 108.97 311.358 108.623 311.792 108.613C312.228 108.581 312.488 108.881 312.55 109.12C312.623 109.36 312.548 109.509 312.587 109.53C312.607 109.554 312.778 109.423 312.765 109.086C312.756 108.923 312.693 108.721 312.529 108.54C312.363 108.354 312.095 108.233 311.796 108.218C311.177 108.165 310.538 108.643 310.16 109.226C309.748 109.805 309.44 110.55 309.337 111.367C309.139 112.976 309.726 114.603 310.822 115.114C311.358 115.347 311.85 115.25 312.12 115.1C312.397 114.942 312.467 114.77 312.441 114.751Z" fill="#AA6550"/>
<path d="M327.102 83.957C329.518 83.8588 331.889 84.631 333.784 86.1349L335.01 87.1072L355.223 93.2492C360.485 91.5955 358.053 86.6112 353.937 84.4014C349.121 81.8148 343.959 77.1632 338.605 76.0681C333.251 74.9743 323.417 76.6034 318.582 81.9351C315.709 85.1037 314.752 88.0292 314.752 88.0292C313.463 92.2118 312.069 100.869 312.24 105.242C312.327 107.497 313.998 110.45 313.998 110.45C313.998 110.45 313.998 110.45 313.999 110.45C315.815 110.781 316.757 109.462 316.816 107.615L317.786 100.506C317.786 100.506 324.775 97.2648 323.344 88.6847C323.319 88.6332 323.368 88.7596 323.344 88.6847C322.568 86.3767 324.482 83.8404 327.102 83.957Z" fill="#263238"/>
<path d="M323.525 86.1033C324.408 83.6369 328.802 82.7407 331.131 83.934C333.46 85.1273 334.958 87.4414 336.547 89.5223C338.137 91.6032 340.159 93.6706 342.762 93.9541C345.468 94.2488 348.388 92.5534 350.801 93.8154C351.865 94.3716 352.592 95.4163 353.597 96.0755C355.142 97.0908 357.188 97.0699 358.936 96.4684C360.684 95.8668 362.202 94.7521 363.69 93.6546C358.567 92.8665 354.191 89.6439 350.1 86.4569C346.01 83.2699 341.778 79.922 336.716 78.8012C331.655 77.6803 325.508 79.5623 323.525 84.3563" fill="#263238"/>
<path d="M295.731 118.245C295.748 118.215 295.968 118.384 296.45 118.499C296.924 118.603 297.703 118.586 298.51 118.106C299.323 117.65 300.005 116.612 300.092 115.279C300.213 113.944 299.743 112.45 298.958 110.935C298.184 109.416 297.216 107.728 296.737 105.702C296.242 103.715 296.303 101.255 297.698 99.2588C298.384 98.2656 299.461 97.5389 300.63 97.1288C301.813 96.7237 303.082 96.6378 304.334 96.6415C306.825 96.6402 309.429 97.0969 311.872 96.38C313.073 96.0141 314.12 95.28 314.817 94.2807C315.513 93.2777 315.896 92.0881 316.124 90.8997C316.592 88.5107 316.398 86.0861 316.796 83.7867C316.988 82.6425 317.294 81.5266 317.825 80.5334C318.358 79.5463 319.113 78.6931 320.032 78.1505C321.882 77.0346 323.997 77.0935 325.68 77.5318C327.403 77.9737 328.757 78.8994 329.809 79.7857C330.865 80.6856 331.645 81.5892 332.262 82.3344C332.876 83.0832 333.32 83.6885 333.617 84.0997C333.914 84.5134 334.06 84.7369 334.043 84.7504C334.025 84.7639 333.845 84.5662 333.516 84.1795C333.142 83.7437 332.664 83.1851 332.073 82.4964C331.432 81.7819 330.634 80.9139 329.58 80.062C328.529 79.2198 327.213 78.3617 325.57 77.97C323.961 77.5772 321.972 77.5686 320.31 78.6023C318.623 79.6163 317.688 81.68 317.378 83.8812C317.004 86.091 317.212 88.5131 316.739 91.0163C316.505 92.2563 316.107 93.533 315.337 94.6465C314.569 95.7588 313.377 96.5948 312.062 96.9913C309.393 97.7611 306.764 97.2639 304.329 97.2688C303.108 97.259 301.908 97.3424 300.826 97.7071C299.759 98.079 298.8 98.715 298.177 99.6013C296.901 101.395 296.799 103.678 297.252 105.582C297.688 107.531 298.6 109.181 299.363 110.737C300.134 112.285 300.614 113.89 300.448 115.313C300.328 116.735 299.533 117.87 298.634 118.323C297.746 118.806 296.91 118.776 296.418 118.625C295.919 118.461 295.731 118.245 295.731 118.245Z" fill="#455A64"/>
<path d="M364.39 89.068C364.403 89.0864 364.295 89.1735 364.076 89.3233C363.864 89.4854 363.526 89.6842 363.061 89.8893C362.142 90.2944 360.674 90.7167 358.846 90.5436C357.043 90.4012 354.846 89.6695 353.087 87.9471C352.209 87.0976 351.518 85.9608 351.041 84.754C350.539 83.5533 350.15 82.2827 349.489 81.1471C348.175 78.8686 345.639 77.6606 343.39 77.6115C341.096 77.5268 339.171 78.6648 338.043 79.96C336.886 81.2601 336.38 82.6424 336.195 83.5963C336.003 84.56 336.041 85.1186 335.979 85.1198C335.957 85.121 335.934 84.9848 335.909 84.7196C335.886 84.4557 335.879 84.0591 335.95 83.5558C336.066 82.5565 336.521 81.0808 337.704 79.6641C338.842 78.2572 340.912 76.9645 343.403 77.0234C345.832 77.0431 348.593 78.3247 350.042 80.8255C350.753 82.0519 351.14 83.3483 351.621 84.517C352.082 85.698 352.698 86.7244 353.504 87.5322C355.115 89.1576 357.178 89.9064 358.893 90.0955C360.631 90.3177 362.051 89.9838 362.969 89.6609C363.9 89.3368 364.351 89.0017 364.39 89.068Z" fill="#455A64"/>
<path d="M305.699 87.7287C305.676 87.7078 305.798 87.5899 305.912 87.3149C306.021 87.0436 306.086 86.5796 305.871 86.0603C305.676 85.552 305.143 84.9738 304.358 85.018C303.609 85.0352 302.731 85.633 302.47 86.555C302.202 87.4758 302.647 88.6482 303.556 89.343C304.474 90.044 305.82 90.249 307.122 89.99C308.429 89.7396 309.733 89.0484 310.717 87.9779C311.715 86.9135 312.253 85.4477 312.721 83.9168C313.173 82.381 313.717 80.8182 314.595 79.5218C315.442 78.2094 316.517 77.1254 317.66 76.2685C319.966 74.5485 322.588 73.8782 324.73 73.8758C326.891 73.8451 328.588 74.3754 329.677 74.8432C330.224 75.0826 330.632 75.306 330.897 75.4742C331.16 75.6436 331.293 75.7406 331.282 75.7602C331.255 75.8093 330.686 75.4791 329.587 75.0752C328.49 74.6873 326.823 74.2404 324.742 74.3288C322.675 74.3889 320.195 75.0764 318.013 76.7411C316.933 77.571 315.917 78.6121 315.12 79.8643C314.291 81.1055 313.789 82.5553 313.33 84.1095C312.862 85.6429 312.289 87.2315 311.177 88.4051C310.091 89.5726 308.666 90.3141 307.23 90.5707C305.803 90.8346 304.296 90.6038 303.23 89.7617C302.185 88.9268 301.685 87.5605 302.037 86.4286C302.401 85.3016 303.438 84.6571 304.355 84.6607C304.816 84.6534 305.243 84.84 305.536 85.0978C305.828 85.3617 306.004 85.6772 306.105 85.9731C306.31 86.5734 306.19 87.0903 306.03 87.3702C305.863 87.6538 305.705 87.7385 305.699 87.7287Z" fill="#263238"/>
<path d="M337.858 140.605C337.858 140.605 330.4 139.661 323.561 133.322C323.561 133.322 325.555 142.311 337.274 143.441L337.858 140.605Z" fill="#AA6550"/>
<path d="M210.969 310.907C210.969 310.907 212.768 297.904 201.975 297.103C191.181 296.303 188.983 305.705 188.983 305.705L184.586 303.98C184.586 303.98 188.983 290.901 203.774 294.302C218.565 297.702 215.167 312.707 215.167 312.707L210.969 310.907Z" fill="#71B219"/>
<g opacity="0.3">
<path opacity="0.3" d="M210.969 310.907C210.969 310.907 212.768 297.904 201.975 297.103C191.181 296.303 188.983 305.705 188.983 305.705L184.586 303.98C184.586 303.98 188.983 290.901 203.774 294.302C218.565 297.702 215.167 312.707 215.167 312.707L210.969 310.907Z" fill="black"/>
</g>
<path d="M162.286 297.148L147.693 357.312L227.522 375.06L241.032 315.415L162.286 297.148Z" fill="#71B219"/>
<path d="M241.032 315.415C241.039 315.423 240.972 315.496 240.834 315.628C240.666 315.784 240.463 315.974 240.214 316.206C239.62 316.742 238.813 317.471 237.794 318.39C235.681 320.274 232.638 323.019 228.742 326.26C224.83 329.456 220.11 333.311 214.11 336.396C211.117 337.925 207.813 339.262 204.231 340.081C200.663 340.926 196.79 341.194 192.925 340.578C189.058 339.947 185.48 338.378 182.436 336.323C179.381 334.264 176.833 331.747 174.72 329.124C170.502 323.828 168.133 318.131 166.5 313.348C164.887 308.531 163.965 304.526 163.328 301.768C163.036 300.425 162.806 299.362 162.635 298.58C162.57 298.246 162.518 297.972 162.475 297.746C162.441 297.557 162.43 297.46 162.441 297.458C162.452 297.455 162.486 297.548 162.538 297.731C162.598 297.952 162.672 298.221 162.762 298.55C162.96 299.325 163.23 300.378 163.57 301.709C164.28 304.447 165.269 308.429 166.927 313.2C168.605 317.94 170.999 323.559 175.178 328.753C177.273 331.327 179.787 333.793 182.785 335.802C185.771 337.809 189.261 339.332 193.027 339.947C196.794 340.546 200.581 340.292 204.09 339.469C207.612 338.674 210.877 337.367 213.842 335.87C219.784 332.852 224.514 329.055 228.455 325.908C232.379 322.72 235.466 320.027 237.631 318.201C238.683 317.32 239.517 316.621 240.13 316.108C240.397 315.896 240.614 315.721 240.793 315.578C240.944 315.462 241.025 315.406 241.032 315.415Z" fill="#263238"/>
<path d="M227.931 344.559C221.504 359.99 216.426 372.554 216.588 372.621C216.751 372.689 222.093 360.235 228.52 344.805C234.947 329.374 240.025 316.81 239.863 316.742C239.7 316.675 234.358 329.129 227.931 344.559Z" fill="#263238"/>
<path d="M240.588 315.798C240.609 315.804 240.573 316.014 240.486 316.411C240.375 316.877 240.238 317.447 240.073 318.135C239.704 319.631 239.127 321.784 238.388 324.436C236.911 329.742 234.72 337.027 232.228 345.047C229.766 353.03 227.539 360.254 225.891 365.599C225.118 368.164 224.483 370.273 224.01 371.839C223.799 372.516 223.624 373.074 223.482 373.531C223.354 373.916 223.277 374.115 223.255 374.109C223.234 374.103 223.269 373.893 223.357 373.497C223.468 373.03 223.604 372.462 223.77 371.772C224.139 370.276 224.716 368.124 225.455 365.471C226.932 360.165 229.122 352.879 231.616 344.857C234.076 336.876 236.304 329.653 237.952 324.308C238.725 321.743 239.36 319.634 239.832 318.068C240.043 317.391 240.219 316.833 240.361 316.375C240.49 315.992 240.567 315.793 240.588 315.798Z" fill="#263238"/>
<path d="M192.372 338.144L189.977 337.7L189.15 342.174L191.545 342.617L192.372 338.144Z" fill="#263238"/>
<path d="M241.032 315.415C241.027 315.436 240.747 315.394 240.219 315.293C239.628 315.173 238.865 315.017 237.917 314.823C235.849 314.371 232.985 313.745 229.478 312.979C222.302 311.347 212.513 309.121 201.699 306.662C190.897 304.13 181.123 301.839 173.957 300.161C170.47 299.313 167.623 298.62 165.567 298.12C164.631 297.878 163.876 297.684 163.293 297.533C162.774 297.392 162.505 297.307 162.51 297.286C162.515 297.264 162.795 297.307 163.322 297.407C163.913 297.528 164.676 297.684 165.623 297.878C167.691 298.329 170.554 298.956 174.06 299.722C181.238 301.353 191.028 303.58 201.847 306.04C212.645 308.571 222.419 310.861 229.586 312.541C233.072 313.389 235.92 314.081 237.977 314.582C238.912 314.824 239.667 315.018 240.251 315.169C240.768 315.309 241.038 315.394 241.032 315.415Z" fill="#263238"/>
<path d="M203.944 272.8C203.944 272.8 195.741 286.297 195.087 288.562C194.432 290.827 191.374 294.063 193.843 295.454C193.843 295.454 193.035 297.168 195.753 298.39C195.753 298.39 195.12 301.441 198.905 301.87C198.905 301.87 200.932 304.872 203.27 304.018C203.27 304.018 206.179 306.277 207.974 304.189C209.767 302.101 211.87 298.636 211.87 298.636L213.64 300.718C213.64 300.718 215.396 298.42 215.354 295.469C215.311 292.518 212.449 288.204 213.966 284.821C215.309 281.828 215.799 281.328 215.799 281.328L203.944 272.8Z" fill="#B78876"/>
<g opacity="0.3">
<g opacity="0.3">
<path opacity="0.3" d="M220.751 332.068C216.524 338.539 210.311 343.534 203.461 347.107C198.533 349.677 192.724 351.335 187.423 349.665C182.796 348.208 179.264 344.443 176.485 340.463C170.88 332.433 167.453 322.895 166.664 313.131C166.664 313.131 175.721 338.063 191.413 339.662C207.105 341.263 220.751 332.068 220.751 332.068Z" fill="black"/>
</g>
</g>
<path d="M200.904 264.412L205.318 277.383L216.016 260.4L211.819 247.539L200.904 264.412Z" fill="#455A64"/>
<path d="M421.639 67.1231L425.938 61.6821L435.641 72.7335L431.471 80.7243L421.639 67.1231Z" fill="#FAFAFA"/>
<path d="M421.639 67.1224C421.675 67.1236 421.968 67.4809 422.476 68.1352C423.038 68.8743 423.748 69.8073 424.605 70.9331C426.401 73.3184 428.883 76.6552 431.719 80.5444L431.201 80.5824C432.2 78.6599 433.278 76.5827 434.396 74.427C434.721 73.8045 435.043 73.1895 435.359 72.5855L435.402 72.9427C431.627 68.6324 428.259 64.7444 425.769 61.8312L426.115 61.8226C424.82 63.3867 423.743 64.6855 422.914 65.6873C422.136 66.6043 421.684 67.1224 421.639 67.1224C421.595 67.1212 421.963 66.6007 422.671 65.6394C423.379 64.6794 424.43 63.2749 425.762 61.5415L425.925 61.3291L426.109 61.5329C428.676 64.3786 432.095 68.2212 435.88 72.5229L436.024 72.6862L435.923 72.8801C435.608 73.4854 435.287 74.1004 434.963 74.7228C433.836 76.8725 432.748 78.946 431.742 80.8648L431.512 81.3043L431.223 80.9029C428.355 76.9007 425.921 73.4362 424.226 70.9932C423.439 69.8441 422.786 68.8927 422.27 68.1401C421.827 67.4772 421.604 67.1212 421.639 67.1224Z" fill="#263238"/>
<path d="M199.593 269.67C199.593 269.67 195.931 276.553 195.84 276.622L213.756 285.864L215.798 281.328L199.593 269.67Z" fill="#FAFAFA"/>
<path d="M199.593 269.67C199.584 269.633 200.006 269.908 200.796 270.443C201.675 271.048 202.815 271.833 204.2 272.786C207.114 274.805 211.251 277.694 215.978 281.075L216.184 281.222L216.08 281.454C215.423 282.919 214.744 284.436 214.046 285.994L213.909 286.301L213.609 286.146C213.169 285.919 212.698 285.676 212.222 285.432C205.776 282.107 199.951 279.063 195.735 276.823L195.544 276.721L195.703 276.439C196.838 274.416 197.776 272.744 198.485 271.481C199.162 270.296 199.553 269.649 199.593 269.67C199.632 269.691 199.316 270.377 198.706 271.6C198.381 272.239 198.006 272.978 197.58 273.818C197.354 274.253 197.116 274.713 196.865 275.198C196.736 275.442 196.605 275.693 196.47 275.949L196.261 276.34L196.152 276.54L196.096 276.64C196.068 276.69 196.02 276.756 195.976 276.804L195.944 276.419C200.212 278.557 206.069 281.539 212.515 284.863C212.99 285.109 213.462 285.352 213.901 285.579L213.465 285.731C214.169 284.176 214.854 282.661 215.515 281.199L215.617 281.578C211.021 278.252 207.056 275.312 204.198 273.181C202.828 272.152 201.701 271.306 200.832 270.653C200.039 270.05 199.601 269.707 199.593 269.67Z" fill="#263238"/>
<path d="M302.913 268.671C319.536 268.59 337.721 274.776 349.586 286.36C354.339 277.879 352.379 267.773 349.482 258.675C346.585 249.577 341.219 241.615 335.827 233.866C334.484 231.937 333.058 229.942 330.985 228.883C327.022 226.86 322.058 228.929 318.569 231.919C313.285 236.447 309.872 242.936 307.875 249.648C305.878 256.36 305.186 263.358 304.506 270.303" fill="#455A64"/>
<path d="M335.974 149.981C335.974 149.981 336.179 143.441 339.302 143.441C342.119 143.441 344.589 144.353 344.589 144.353L420.755 65.5327L433.822 80.968L397.759 127.215L353.279 172.664C353.279 172.664 349.358 179.97 348.638 183.799C347.919 187.628 346.676 224.187 347.078 231.004C347.479 237.822 353.711 264.677 353.634 277.402C353.556 290.126 349.585 286.361 349.585 286.361L336.288 249.194L330.06 232.625L327.465 229.014L329.616 219.14C329.616 219.14 337.899 191.09 337.858 185.583C337.818 180.076 339.081 174.053 339.081 169.75C339.081 165.632 335.143 157.79 335.143 157.79L335.974 149.981Z" fill="#263238"/>
<path d="M308.593 135.375L306.925 140.919L306.01 141.329L299.409 157.129L298.292 277.399L308.246 280.112C308.246 280.112 317.653 269.12 320.765 261.169C323.878 253.219 330.264 229.75 330.264 229.75L338.969 177.662L340.227 164.693C340.592 160.92 339.072 157.21 336.166 154.781L336.606 149.669L334.133 150.897L308.593 135.375Z" fill="#FAFAFA"/>
<path d="M307.199 140.95C307.156 140.939 307.248 140.396 307.452 139.424C307.698 138.325 308.007 136.951 308.373 135.32L308.44 135.021L308.712 135.181C311.694 136.927 315.774 139.365 320.254 142.089C326.248 145.732 331.457 148.971 334.217 150.758L334.06 150.75C335.671 150.003 336.579 149.615 336.605 149.667C336.632 149.721 335.774 150.209 334.204 151.042L334.128 151.083L334.046 151.036C331.19 149.41 325.916 146.277 319.922 142.634C315.441 139.911 311.399 137.413 308.476 135.57L308.814 135.43C308.369 137.042 307.994 138.399 307.694 139.484C307.417 140.439 307.242 140.961 307.199 140.95Z" fill="#263238"/>
<path d="M331.944 160.228C331.988 160.223 332.113 160.941 332.303 162.245C332.5 163.549 332.724 165.444 332.947 167.792C333.399 172.485 333.747 179.003 333.589 186.202C333.422 193.403 332.778 199.899 332.114 204.566C331.785 206.901 331.475 208.783 331.22 210.077C330.971 211.372 330.813 212.083 330.77 212.076C330.727 212.068 330.802 211.343 330.975 210.038C331.154 208.734 331.396 206.845 331.667 204.51C332.214 199.838 332.783 193.362 332.95 186.188C333.108 179.016 332.831 172.521 332.496 167.83C332.33 165.484 332.176 163.586 332.056 162.275C331.943 160.962 331.9 160.234 331.944 160.228Z" fill="#263238"/>
<path d="M331.341 212.514C331.341 212.514 338.27 191.316 338.27 192.037C338.27 192.757 334.269 243.823 334.269 243.823L327.995 226.582L331.341 212.514Z" fill="#263238"/>
<path d="M320.608 249.296C320.567 249.28 320.724 248.755 321.043 247.82C321.408 246.764 321.867 245.443 322.411 243.873C323.57 240.542 325.129 235.928 326.707 230.786C328.282 225.641 329.577 220.945 330.483 217.537C330.912 215.932 331.273 214.58 331.561 213.501C331.821 212.548 331.986 212.026 332.029 212.036C332.072 212.046 331.989 212.587 331.804 213.557C331.621 214.528 331.321 215.927 330.922 217.647C330.126 221.089 328.897 225.815 327.318 230.974C325.735 236.129 324.104 240.733 322.835 244.029C322.2 245.678 321.666 247.004 321.273 247.911C320.884 248.818 320.649 249.312 320.608 249.296Z" fill="#455A64"/>
<path d="M342.293 186.103C342.331 186.099 342.427 186.528 342.502 187.315C342.578 188.1 342.632 189.247 342.558 190.664C342.432 193.485 341.613 197.42 339.628 201.277C337.929 204.643 336.054 207.517 334.814 209.878C333.529 212.218 332.863 214.019 332.56 214.689L332.435 214.65C332.519 214.444 332.573 214.342 332.595 214.349C332.617 214.355 332.605 214.471 332.561 214.689L332.436 214.65C332.601 213.935 333.159 212.058 334.376 209.652C335.55 207.226 337.385 204.309 339.058 200.993C341.006 197.201 341.867 193.404 342.109 190.629C342.362 187.85 342.183 186.11 342.293 186.103Z" fill="#455A64"/>
<path d="M336.4 152.05C336.427 152.016 336.903 152.325 337.707 152.961C338.511 153.599 339.644 154.56 340.942 155.861C342.223 157.171 343.728 158.791 344.977 160.915C345.566 161.986 346.217 163.141 346.365 164.541C346.514 165.895 346.444 167.288 346.242 168.68C345.641 172.921 344.467 176.702 343.473 179.794C342.458 182.884 341.533 185.272 340.948 186.645L340.836 186.481C341.81 186.518 342.333 186.559 342.333 186.602C342.333 186.645 341.81 186.685 340.836 186.722L340.667 186.728L340.725 186.559C341.197 185.152 342.027 182.733 342.972 179.636C343.894 176.54 345.021 172.756 345.609 168.598C345.81 167.234 345.874 165.882 345.746 164.627C345.634 163.382 345.02 162.241 344.468 161.211C343.292 159.144 341.843 157.51 340.618 156.177C339.377 154.849 338.296 153.843 337.548 153.152C336.795 152.459 336.373 152.085 336.4 152.05Z" fill="#455A64"/>
<path d="M351.49 162.899C351.397 162.9 351.329 161.75 351.225 159.902C351.107 158.061 350.959 155.498 350.196 152.815C349.432 150.135 348.044 147.961 346.76 146.682C345.482 145.379 344.424 144.886 344.48 144.785C344.497 144.75 344.777 144.834 345.248 145.071C345.72 145.306 346.367 145.724 347.073 146.357C348.497 147.605 350.018 149.854 350.81 152.64C351.599 155.42 351.672 158.036 351.676 159.891C351.665 161.751 351.573 162.898 351.49 162.899Z" fill="#455A64"/>
<path d="M338.324 217.602C338.365 217.767 336.71 218.294 334.586 218.419C332.462 218.551 330.755 218.229 330.776 218.06C330.793 217.877 332.482 217.911 334.547 217.78C336.613 217.66 338.285 217.423 338.324 217.602Z" fill="#455A64"/>
<path d="M332.123 223.254C333.133 225.024 334.076 226.388 334.229 226.301C334.382 226.213 333.687 224.707 332.677 222.937C331.667 221.167 330.724 219.802 330.571 219.89C330.418 219.977 331.113 221.484 332.123 223.254Z" fill="#455A64"/>
<path d="M283.801 148.018C283.825 147.99 284.253 148.311 284.958 148.972C285.665 149.631 286.622 150.661 287.648 152.058C289.703 154.822 291.909 159.284 292.408 164.606C292.905 169.929 291.563 174.724 290.057 177.822C289.308 179.386 288.56 180.575 287.987 181.354C287.416 182.134 287.056 182.529 287.026 182.506C286.92 182.434 288.275 180.763 289.646 177.635C291.024 174.541 292.256 169.851 291.773 164.666C291.287 159.484 289.206 155.104 287.279 152.318C285.35 149.5 283.709 148.109 283.801 148.018Z" fill="#455A64"/>
<path d="M230.862 270.368C233.83 276.779 282.277 302.305 282.277 302.305C282.277 302.305 293.659 293.64 308.234 275.794C322.809 257.949 331.34 212.512 331.34 212.512C331.34 212.512 323.25 177.287 317.561 162.47C311.872 147.652 306.01 141.042 306.01 141.042L276.351 148.289L267.054 210.617L266.513 229.928C266.513 229.928 264.143 230.525 264.143 231.567C264.143 232.609 264.143 233.86 264.143 233.86L230.862 270.368Z" fill="#263238"/>
<path d="M198.019 268.538C198.019 268.538 240.847 199.11 245.447 191.176C250.748 182.033 273.847 146.803 277.337 148.049C280.828 149.295 292.571 158.098 287.867 175.39C283.162 192.683 277.732 201.816 277.732 201.816L260.74 219.886L216.495 281.828L199.195 269.384L198.019 268.538Z" fill="#263238"/>
<path d="M329.393 218.446C329.412 218.456 329.343 218.636 329.19 218.97C329.04 219.305 328.804 219.793 328.493 220.415C327.86 221.656 326.939 223.456 325.561 225.548C324.18 227.616 322.332 230.056 319.56 231.966C316.806 233.919 313.092 234.877 309.279 235.002C301.626 235.171 294.783 233.956 289.95 232.755C287.53 232.15 285.606 231.539 284.291 231.081C283.631 230.857 283.127 230.66 282.786 230.525C282.445 230.388 282.27 230.306 282.277 230.285C282.293 230.239 283.03 230.461 284.366 230.844C285.701 231.228 287.636 231.771 290.055 232.316C294.877 233.399 301.705 234.532 309.251 234.364C313.002 234.236 316.56 233.33 319.23 231.479C321.922 229.664 323.775 227.308 325.187 225.295C326.596 223.261 327.575 221.5 328.274 220.298C328.965 219.09 329.351 218.424 329.393 218.446Z" fill="#455A64"/>
<path d="M330.862 214.079C330.847 214.095 330.634 213.919 330.24 213.572C329.804 213.173 329.242 212.66 328.547 212.024C327.092 210.664 324.995 208.681 322.556 206.073C320.141 203.454 317.358 200.189 314.981 196.078C312.554 191.981 310.919 186.975 309.551 181.718C308.194 176.449 306.994 171.412 305.866 166.836C304.795 162.252 303.599 158.17 303.235 154.578C302.839 150.986 303.615 148.024 304.607 146.279C305.093 145.394 305.595 144.786 305.963 144.408C306.14 144.213 306.297 144.084 306.399 143.996C306.502 143.909 306.559 143.868 306.566 143.875C306.629 143.927 305.723 144.629 304.828 146.393C303.927 148.138 303.24 151.014 303.684 154.53C304.093 158.036 305.335 162.122 306.436 166.696C307.585 171.272 308.845 176.287 310.168 181.555C311.532 186.799 313.129 191.738 315.491 195.786C317.806 199.855 320.528 203.123 322.889 205.769C325.273 208.402 327.319 210.432 328.719 211.846C329.381 212.516 329.914 213.059 330.33 213.479C330.694 213.858 330.878 214.064 330.862 214.079Z" fill="#455A64"/>
<path d="M306.519 277.558C306.534 277.574 306.315 277.812 305.882 278.249C305.4 278.724 304.762 279.352 303.965 280.139C302.232 281.809 299.808 284.144 296.834 287.008C293.792 289.905 290.192 293.333 286.201 297.135C285.177 298.059 284.247 299.129 282.968 299.965C282.33 300.367 281.557 300.669 280.74 300.658C279.927 300.649 279.174 300.375 278.474 300.085C275.704 298.893 272.855 297.638 269.978 296.251C258.436 290.763 248.544 284.707 241.645 279.981C238.186 277.625 235.475 275.598 233.609 274.189C232.728 273.496 232.024 272.943 231.492 272.524C231.014 272.137 230.768 271.926 230.782 271.908C230.795 271.891 231.066 272.067 231.571 272.421C232.12 272.815 232.847 273.337 233.757 273.989C235.666 275.334 238.415 277.303 241.898 279.607C248.849 284.227 258.745 290.202 270.252 295.674C273.119 297.056 275.966 298.314 278.714 299.507C279.394 299.793 280.076 300.031 280.747 300.04C281.415 300.051 282.064 299.809 282.645 299.447C283.802 298.705 284.772 297.626 285.797 296.707C289.824 292.943 293.455 289.548 296.523 286.679C299.555 283.876 302.025 281.592 303.793 279.959C304.624 279.209 305.289 278.608 305.792 278.155C306.255 277.748 306.505 277.542 306.519 277.558Z" fill="#455A64"/>
<path d="M328.015 215.24C327.96 215.202 328.34 214.75 329.175 214.943C329.573 215.057 330.017 215.455 330.064 216.068C330.124 216.718 329.524 217.303 328.885 217.375C328.209 217.476 327.592 217.112 327.322 216.596C327.05 216.06 327.2 215.472 327.52 215.169C327.854 214.86 328.233 214.865 328.441 214.928C328.659 215 328.729 215.115 328.706 215.147C328.689 215.222 328.202 215.043 327.854 215.472C327.705 215.667 327.663 216.034 327.838 216.311C328.002 216.589 328.413 216.81 328.789 216.743C329.192 216.683 329.486 216.388 329.476 216.088C329.481 215.769 329.254 215.478 329.014 215.365C328.488 215.125 328.045 215.333 328.015 215.24Z" fill="#455A64"/>
<path d="M282.201 251.86C282.177 251.897 281.853 251.724 281.287 251.38C280.718 251.04 279.924 250.505 278.964 249.809C277.046 248.419 274.513 246.323 271.999 243.715C269.488 241.103 267.488 238.491 266.172 236.522C265.512 235.538 265.008 234.722 264.689 234.14C264.366 233.562 264.206 233.232 264.244 233.209C264.328 233.156 265.138 234.372 266.541 236.261C267.942 238.15 269.975 240.686 272.46 243.272C274.949 245.851 277.406 247.98 279.24 249.451C281.073 250.923 282.256 251.778 282.201 251.86Z" fill="#455A64"/>
<path d="M288.796 248.439C288.773 248.477 288.409 248.296 287.768 247.936C287.127 247.58 286.219 247.032 285.114 246.326C282.903 244.918 279.925 242.843 276.8 240.34C273.676 237.833 271.004 235.375 269.149 233.523C268.22 232.597 267.487 231.83 267 231.281C266.51 230.735 266.255 230.418 266.287 230.387C266.355 230.321 267.531 231.434 269.46 233.196C271.388 234.959 274.093 237.348 277.2 239.841C280.308 242.331 283.227 244.451 285.366 245.95C287.505 247.453 288.847 248.358 288.796 248.439Z" fill="#455A64"/>
<path d="M280.019 195.873C280.088 195.932 279.029 197.292 277.323 199.493C275.504 201.822 273.186 204.79 270.623 208.071C267.992 211.413 265.588 214.42 263.799 216.56C262.021 218.709 260.808 219.954 260.74 219.886C260.704 219.85 260.973 219.516 261.441 218.895C262.003 218.162 262.67 217.291 263.447 216.278C265.258 213.943 267.568 210.967 270.121 207.676C272.751 204.334 275.172 201.339 276.973 199.209C277.87 198.143 278.616 197.293 279.146 196.72C279.677 196.147 279.986 195.844 280.019 195.873Z" fill="#455A64"/>
<path d="M279.129 147.611C279.129 147.611 295.094 151.887 291.691 170.63C288.287 189.373 266.93 215.044 266.93 215.044L265.018 214.669L256.91 225.247C256.91 225.247 263.54 227.694 268.746 225.192C273.953 222.69 287.158 202.288 293.532 186.103C301.124 166.823 298.697 158.313 296.24 153.842C290.764 143.876 285.269 145.733 285.269 145.733L279.129 147.611Z" fill="#455A64"/>
<path d="M333.605 151.256L329.755 155.94L331.341 160.176L334.104 161.135L336.179 156.196L333.605 151.256Z" fill="#71B219"/>
<path d="M334.904 159.232C334.71 159.236 334.657 157.764 333.856 156.217C333.07 154.667 331.973 153.677 332.105 153.53C332.184 153.397 333.548 154.216 334.426 155.929C335.308 157.652 335.061 159.267 334.904 159.232Z" fill="#263238"/>
<path d="M331.841 160.094C331.841 160.094 332.682 164.783 331.841 166.672C328.686 173.752 322.638 167.297 317.103 161.297C311.568 155.298 304.004 139.757 294.978 136.947C285.953 134.137 276.016 133.703 268.945 140.263L266.752 148.326L274.824 148.06C274.824 148.06 286.098 138.2 295.808 146.796C305.519 155.392 316.962 175.195 324.522 175.681C332.083 176.167 334.787 172.468 335.333 167.892C335.879 163.317 334.904 159.232 334.904 159.232L331.841 160.094Z" fill="#71B219"/>
<g opacity="0.3">
<g opacity="0.3">
<path opacity="0.3" d="M315.295 159.122C317.433 164.091 321.417 168.573 326.189 171.113C327.149 171.625 328.201 172.081 329.286 171.994C330.465 171.899 331.523 171.154 332.211 170.191C332.899 169.229 333.256 168.069 333.476 166.906C333.748 165.471 333.828 164.006 333.848 162.546C333.856 161.924 333.844 161.269 333.524 160.737C333.204 160.206 332.414 160.066 331.89 160.398C332.101 162.165 332.362 163.774 332.03 165.523C331.697 167.271 330.682 168.838 329.091 169.633C329.107 169.576 326.771 170.514 323.05 167.243C319.256 163.902 315.295 159.122 315.295 159.122Z" fill="black"/>
</g>
</g>
<path d="M334.95 159.122C335.095 159.198 334.637 160.127 333.477 160.518C332.91 160.705 332.336 160.659 331.977 160.51C331.613 160.364 331.455 160.171 331.493 160.1C331.581 159.939 332.365 160.236 333.28 159.909C334.198 159.613 334.805 159.003 334.95 159.122Z" fill="#263238"/>
<path d="M334.748 170.315C334.577 170.368 334.218 169.683 333.85 168.823C333.484 167.961 333.239 167.228 333.395 167.141C333.547 167.055 334.056 167.676 334.437 168.572C334.82 169.468 334.915 170.265 334.748 170.315Z" fill="white"/>
<path d="M335.489 163.332C335.357 163.454 335.027 163.317 334.648 163.198C334.273 163.068 333.926 162.98 333.894 162.804C333.855 162.634 334.306 162.411 334.85 162.591C335.393 162.769 335.621 163.219 335.489 163.332Z" fill="white"/>
<path d="M332.45 157.178C333.158 156.308 333.622 155.513 333.485 155.402C333.349 155.29 332.664 155.905 331.956 156.775C331.248 157.645 330.784 158.44 330.921 158.552C331.057 158.663 331.742 158.048 332.45 157.178Z" fill="white"/>
<path d="M327.741 175.672C327.571 175.621 327.635 174.773 327.882 173.779C328.129 172.783 328.47 172.005 328.643 172.04C328.816 172.075 328.753 172.923 328.502 173.933C328.251 174.944 327.91 175.722 327.741 175.672Z" fill="white"/>
<path d="M319.392 172.954C319.258 172.839 319.904 171.821 320.837 170.682C321.769 169.541 322.636 168.705 322.776 168.814C322.914 168.922 322.268 169.94 321.331 171.087C320.394 172.233 319.525 173.069 319.392 172.954Z" fill="white"/>
<path d="M318.554 164.923C318.678 165.048 317.871 165.946 316.751 166.929C315.63 167.911 314.635 168.593 314.527 168.453C314.419 168.313 315.226 167.416 316.33 166.447C317.434 165.48 318.43 164.797 318.554 164.923Z" fill="white"/>
<path d="M315.103 158.912C315.25 158.998 314.559 160.417 313.286 161.868C312.018 163.325 310.704 164.198 310.6 164.064C310.485 163.923 311.579 162.858 312.805 161.447C314.038 160.044 314.947 158.816 315.103 158.912Z" fill="white"/>
<path d="M307.962 155.166C309.288 153.953 310.266 152.863 310.147 152.733C310.027 152.602 308.856 153.48 307.53 154.693C306.204 155.907 305.226 156.996 305.346 157.127C305.465 157.257 306.636 156.379 307.962 155.166Z" fill="white"/>
<path d="M306.863 147.366C306.968 147.516 305.656 148.602 304.14 150.037C302.617 151.466 301.454 152.711 301.312 152.597C301.177 152.494 302.142 151.038 303.702 149.572C305.257 148.101 306.767 147.225 306.863 147.366Z" fill="white"/>
<path d="M302.525 142.108C302.625 142.265 301.191 143.313 299.687 144.87C298.169 146.417 297.161 147.879 297 147.782C296.853 147.704 297.651 146.036 299.229 144.424C300.798 142.804 302.444 141.962 302.525 142.108Z" fill="white"/>
<path d="M295.59 137.182C295.744 137.278 294.941 138.839 294.018 140.784C293.088 142.728 292.38 144.335 292.21 144.275C292.048 144.219 292.494 142.49 293.441 140.509C294.383 138.528 295.445 137.09 295.59 137.182Z" fill="white"/>
<path d="M287.754 135.356C287.924 135.433 287.266 137.138 286.842 139.328C286.402 141.515 286.363 143.343 286.175 143.349C286.011 143.365 285.759 141.479 286.216 139.204C286.658 136.927 287.607 135.278 287.754 135.356Z" fill="white"/>
<path d="M280.696 144.579C280.536 144.633 279.745 142.66 279.254 140.097C278.756 137.534 278.757 135.409 278.926 135.4C279.108 135.386 279.391 137.456 279.882 139.977C280.364 142.496 280.871 144.524 280.696 144.579Z" fill="white"/>
<path d="M275.148 147.379C275.048 147.51 273.276 146.221 271.714 144.047C270.14 141.882 269.472 139.793 269.627 139.739C269.801 139.666 270.709 141.58 272.232 143.672C273.739 145.775 275.273 147.237 275.148 147.379Z" fill="white"/>
<path d="M333.817 152.938C333.768 152.94 333.708 152.262 333.64 150.999L333.889 151.07C333.076 152.418 331.625 154.521 329.35 156.704C328.761 157.213 328.242 157.883 327.297 158.228C326.822 158.394 326.237 158.296 325.819 158.047C325.386 157.806 325.047 157.492 324.698 157.207C323.296 156.042 321.822 154.79 320.312 153.475C314.223 148.18 309.26 143.307 307.105 141.047L307.216 141.084C306.007 141.209 305.354 141.253 305.347 141.206C305.341 141.159 305.981 141.025 307.179 140.819L307.239 140.809L307.291 140.856C309.598 142.957 314.655 147.71 320.731 152.992C322.245 154.294 323.705 155.548 325.091 156.738C325.778 157.338 326.442 157.915 327.13 157.673C327.817 157.455 328.405 156.809 328.983 156.313C331.262 154.218 332.766 152.201 333.662 150.924L333.917 150.562L333.913 150.995C333.898 152.258 333.866 152.937 333.817 152.938Z" fill="#263238"/>
<path d="M309.533 449.247H289.847V527.958H309.533V449.247Z" fill="#E0E0E0"/>
<path d="M280.58 466.417H260.894V527.959H280.58V466.417Z" fill="#E0E0E0"/>
<path d="M251.186 480.473H231.501V527.957H251.186V480.473Z" fill="#E0E0E0"/>
<path d="M223.975 499.76H204.289V527.958H223.975V499.76Z" fill="#E0E0E0"/>
<path d="M528.421 133.774C533.515 114.768 522.216 95.2178 503.184 90.1073C484.152 84.9968 464.594 96.2611 459.5 115.267C454.406 134.273 465.705 153.823 484.737 158.933C503.769 164.044 523.327 152.779 528.421 133.774Z" fill="#F5F5F5"/>
<path d="M520.221 131.574C524.103 117.091 515.492 102.194 500.989 98.299C486.485 94.4045 471.581 102.988 467.699 117.471C463.818 131.954 472.428 146.851 486.932 150.746C501.435 154.64 516.339 146.057 520.221 131.574Z" fill="#EBEBEB"/>
<path d="M520.486 130.742C520.325 130.705 520.523 129.522 520.639 127.394C520.743 125.277 520.724 122.168 519.77 118.523C519.291 116.708 518.585 114.768 517.573 112.812C516.545 110.869 515.236 108.9 513.567 107.084C512.737 106.174 511.83 105.289 510.831 104.478C509.836 103.661 508.771 102.882 507.618 102.203C506.469 101.522 505.26 100.889 503.977 100.375C502.695 99.8594 501.359 99.4285 499.981 99.0945C498.596 98.779 497.208 98.5691 495.832 98.4586C494.453 98.3469 493.089 98.3739 491.757 98.4709C490.421 98.5654 489.122 98.7888 487.868 99.0761C486.611 99.3573 485.406 99.7464 484.258 100.191C481.956 101.074 479.908 102.253 478.124 103.536C476.349 104.835 474.853 106.258 473.617 107.671C471.143 110.509 469.745 113.283 468.896 115.226C468.056 117.183 467.706 118.331 467.545 118.291C467.426 118.266 467.507 117.05 468.135 114.946C468.772 112.859 470.019 109.855 472.482 106.733C473.712 105.179 475.237 103.605 477.082 102.16C478.935 100.731 481.091 99.41 483.543 98.412C484.765 97.9098 486.051 97.4691 487.399 97.145C488.745 96.8148 490.143 96.557 491.58 96.4403C493.018 96.32 494.491 96.282 495.977 96.3937C497.464 96.5029 498.964 96.7276 500.455 97.0689C501.943 97.4286 503.384 97.8963 504.764 98.4598C506.145 99.0221 507.448 99.7133 508.681 100.461C509.917 101.206 511.054 102.061 512.11 102.956C513.173 103.846 514.13 104.814 515.001 105.807C516.751 107.794 518.095 109.936 519.119 112.043C520.126 114.158 520.794 116.249 521.205 118.187C522.023 122.081 521.803 125.327 521.446 127.479C521.073 129.647 520.605 130.772 520.486 130.742Z" fill="#E0E0E0"/>
<path d="M492.777 140.992L491.617 145.588L487.518 144.55L488.648 140.077C484.652 138.803 481.078 136.546 479.269 134.21L482.787 129.773C484.454 131.811 487.126 133.666 490.006 134.7L491.736 127.846C487.464 125.588 482.764 122.782 484.248 116.914C485.347 112.564 489.447 109.629 496.111 110.53L497.262 105.974L501.362 107.011L500.231 111.485C503.243 112.509 506.029 114.086 507.921 116.094L504.596 120.624C502.805 118.905 500.85 117.668 498.862 116.901L497.1 123.879C501.38 126.097 505.999 128.883 504.537 134.668C503.46 138.937 499.41 141.841 492.777 140.992ZM493.261 121.816L494.731 115.988C492.434 115.93 491.274 116.903 490.93 118.258C490.568 119.693 491.601 120.786 493.261 121.816ZM497.814 133.492C498.177 132.054 497.184 130.975 495.576 129.912L494.145 135.575C496.311 135.643 497.482 134.804 497.814 133.492Z" fill="#E0E0E0"/>
<path d="M161.787 169.57C158.137 139.062 130.412 117.299 99.8623 120.96C69.3124 124.622 47.5058 152.322 51.1557 182.83C54.8057 213.339 82.5302 235.102 113.08 231.44C143.63 227.778 165.437 200.078 161.787 169.57Z" fill="#F5F5F5"/>
<path d="M148.626 171.151C145.844 147.902 124.716 131.318 101.435 134.109C78.1539 136.899 61.5354 158.008 64.3168 181.256C67.0983 204.505 88.2263 221.089 111.508 218.298C134.789 215.508 151.407 194.399 148.626 171.151Z" fill="#EBEBEB"/>
<path d="M148.527 169.839C148.273 169.88 147.872 168.049 146.806 164.898C145.728 161.768 143.895 157.274 140.396 152.546C138.649 150.193 136.499 147.793 133.898 145.546C131.28 143.328 128.241 141.235 124.768 139.574C123.036 138.738 121.208 137.983 119.289 137.387C117.373 136.782 115.377 136.271 113.313 135.958C111.253 135.639 109.132 135.425 106.975 135.427C104.818 135.424 102.631 135.576 100.44 135.894C98.2491 136.242 96.115 136.745 94.0569 137.386C91.9938 138.026 90.0326 138.858 88.1585 139.772C86.277 140.686 84.5243 141.765 82.8735 142.912C81.214 144.05 79.6943 145.314 78.2887 146.626C75.464 149.245 73.1803 152.145 71.3405 155.042C69.5216 157.957 68.1797 160.889 67.2071 163.655C65.2692 169.208 64.8522 174.04 64.7504 177.35C64.6682 180.674 64.8277 182.542 64.5726 182.578C64.3849 182.61 63.7974 180.802 63.4859 177.387C63.1976 173.992 63.2614 168.912 65.019 162.956C65.8997 159.987 67.1961 156.82 69.031 153.654C70.8879 150.505 73.2453 147.336 76.2196 144.465C77.6988 143.027 79.308 141.64 81.0729 140.386C82.8317 139.125 84.7083 137.938 86.7235 136.934C88.7374 135.924 90.8495 135.012 93.0695 134.309C95.2871 133.603 97.5917 133.057 99.9515 132.684C102.316 132.34 104.677 132.181 107.004 132.194C109.332 132.206 111.621 132.451 113.842 132.817C116.067 133.177 118.209 133.755 120.26 134.438C122.318 135.11 124.267 135.957 126.106 136.89C129.795 138.751 132.987 141.074 135.694 143.532C138.381 146.011 140.562 148.653 142.282 151.224C145.728 156.392 147.294 161.225 148.026 164.55C148.742 167.91 148.715 169.812 148.527 169.839Z" fill="#E0E0E0"/>
<path d="M114.318 200.807L115.304 208.143L108.76 209.021L107.801 201.882C101.27 202.359 94.7805 201.167 90.8029 198.833L93.3283 190.356C96.9269 192.34 101.875 193.475 106.65 193.299L105.18 182.359C97.6788 181.571 89.2379 180.236 87.9831 170.869C87.051 163.927 91.2898 157.288 101.471 154.72L100.495 147.448L107.04 146.568L107.997 153.709C112.958 153.442 117.91 154.108 121.818 155.916L119.629 164.416C116.036 162.966 112.484 162.309 109.158 162.356L110.653 173.494C118.143 174.218 126.455 175.571 127.694 184.806C128.608 191.616 124.424 198.181 114.318 200.807ZM103.887 172.733L102.636 163.432C99.2732 164.684 98.1559 166.768 98.4453 168.932C98.7544 171.223 100.885 172.205 103.887 172.733ZM117.264 187.008C116.956 184.714 114.892 183.727 111.943 183.12L113.156 192.161C116.334 190.999 117.545 189.103 117.264 187.008Z" fill="#E0E0E0"/>
<path d="M429.409 236.335C425.995 228.034 416.488 224.082 408.176 227.507C399.863 230.933 395.892 240.439 399.306 248.74C402.721 257.041 412.227 260.993 420.54 257.568C428.853 254.142 432.824 244.636 429.409 236.335Z" fill="#F5F5F5"/>
<path d="M425.827 237.813C423.225 231.487 415.981 228.476 409.646 231.086C403.312 233.696 400.286 240.94 402.887 247.266C405.489 253.591 412.734 256.603 419.068 253.992C425.403 251.382 428.429 244.138 425.827 237.813Z" fill="#EBEBEB"/>
<path d="M425.673 237.446C425.605 237.477 425.35 236.993 424.802 236.19C424.254 235.393 423.387 234.273 422.032 233.217C421.356 232.691 420.562 232.184 419.655 231.756C418.745 231.336 417.725 230.986 416.618 230.791C416.065 230.691 415.492 230.621 414.904 230.606C414.318 230.586 413.716 230.598 413.11 230.672C412.505 230.743 411.892 230.85 411.284 231.019C410.677 231.187 410.073 231.402 409.481 231.664C408.892 231.934 408.33 232.242 407.8 232.585C407.269 232.926 406.784 233.314 406.327 233.719C405.87 234.124 405.46 234.565 405.085 235.017C404.707 235.467 404.378 235.942 404.085 236.421C403.495 237.38 403.08 238.375 402.789 239.334C402.506 240.297 402.357 241.227 402.3 242.083C402.189 243.798 402.449 245.19 402.68 246.13C402.916 247.072 403.108 247.585 403.039 247.616C402.989 247.639 402.682 247.176 402.327 246.24C401.979 245.307 401.6 243.873 401.629 242.058C401.645 241.154 401.761 240.16 402.03 239.125C402.306 238.094 402.721 237.018 403.333 235.975C403.638 235.455 403.981 234.938 404.38 234.447C404.776 233.955 405.211 233.473 405.699 233.031C406.188 232.589 406.71 232.167 407.28 231.795C407.85 231.422 408.455 231.088 409.091 230.798C409.73 230.516 410.381 230.286 411.037 230.107C411.693 229.928 412.357 229.817 413.011 229.746C413.664 229.674 414.313 229.668 414.944 229.7C415.575 229.728 416.19 229.812 416.781 229.932C417.965 230.166 419.045 230.57 419.999 231.049C420.95 231.536 421.771 232.108 422.456 232.697C423.831 233.882 424.649 235.12 425.115 235.999C425.583 236.886 425.724 237.424 425.673 237.446Z" fill="#E0E0E0"/>
<path d="M418.469 248.845L419.32 250.833L417.546 251.592L416.717 249.659C414.917 250.305 412.996 250.479 411.695 250.134L411.743 247.55C412.91 247.826 414.392 247.757 415.723 247.334L414.453 244.37C412.28 244.736 409.8 245.023 408.713 242.484C407.907 240.604 408.581 238.402 411.246 236.881L410.402 234.911L412.176 234.15L413.003 236.085C414.378 235.621 415.824 235.419 417.066 235.622L417.115 238.185C415.99 238.059 414.939 238.152 414.007 238.426L415.299 241.443C417.464 241.06 419.91 240.789 420.981 243.291C421.771 245.137 421.107 247.313 418.469 248.845ZM413.336 241.761L412.255 239.241C411.406 239.857 411.256 240.531 411.506 241.118C411.772 241.738 412.449 241.847 413.336 241.761ZM418.217 244.73C417.951 244.109 417.293 243.992 416.416 244.053L417.464 246.503C418.268 245.927 418.46 245.297 418.217 244.73Z" fill="#E0E0E0"/>
</svg>
