<svg width="456" height="304" viewBox="0 0 456 304" fill="none" xmlns="http://www.w3.org/2000/svg">
<path d="M114.45 44.3677H58.672V124.954H114.45V44.3677Z" fill="#E0E0E0"/>
<path d="M111.653 44.3677H55.875V124.954H111.653V44.3677Z" fill="#F5F5F5"/>
<path d="M104.728 53.0942H62.8061V116.221H104.728V53.0942Z" fill="white"/>
<path d="M104.728 116.228C104.728 116.228 104.728 116.118 104.728 115.918C104.728 115.718 104.728 115.409 104.728 115.022C104.728 114.228 104.728 113.064 104.728 111.561C104.728 108.531 104.728 104.126 104.685 98.5566C104.685 87.4244 104.649 71.6562 104.618 53.1066L104.758 53.246H62.8425L62.9945 53.0945C62.9945 76.9103 62.9945 98.8656 62.9945 116.228L62.8729 116.106L93.3884 116.167L101.815 116.197H104.028H104.795H104.053H101.864H93.4614L62.8729 116.258H62.7513V116.137C62.7513 98.7747 62.7513 76.8194 62.7513 53.0036V52.8521H62.9094H104.825H104.965V53.1005C104.965 71.7047 104.91 87.4971 104.898 98.6535C104.898 104.211 104.867 108.604 104.855 111.622C104.855 113.119 104.855 114.27 104.855 115.058C104.855 115.44 104.855 115.737 104.855 115.937C104.855 116.137 104.728 116.228 104.728 116.228Z" fill="#E0E0E0"/>
<path d="M111.817 44.3677C111.529 44.883 111.195 45.3717 110.82 45.8281C110.176 46.6887 109.252 47.8643 108.206 49.1369C107.16 50.4095 106.175 51.5306 105.446 52.3305C105.079 52.7824 104.672 53.2002 104.23 53.5789C104.544 53.0873 104.9 52.6231 105.294 52.1911L107.981 48.943L110.656 45.6766C111.005 45.2083 111.394 44.7704 111.817 44.3677Z" fill="#E0E0E0"/>
<path d="M104.94 116.021C107.022 119.315 109.469 122.364 112.236 125.111L104.94 116.021Z" fill="white"/>
<path d="M112.255 125.136C111.787 124.799 111.359 124.411 110.978 123.978C110.006 122.993 109.085 121.96 108.218 120.882C107.209 119.615 106.364 118.409 105.786 117.518C105.454 117.048 105.169 116.547 104.935 116.021C105.311 116.454 105.654 116.914 105.962 117.397C106.57 118.258 107.446 119.433 108.449 120.688C109.452 121.942 110.425 123.045 111.13 123.833C111.536 124.24 111.912 124.675 112.255 125.136Z" fill="#E0E0E0"/>
<path d="M55.8689 124.887L63.1649 115.906L55.8689 124.887Z" fill="white"/>
<path d="M63.177 115.906C62.0766 117.494 60.8955 119.026 59.6385 120.494C58.4622 122.025 57.2038 123.491 55.8689 124.887C56.9693 123.299 58.1504 121.768 59.4074 120.3C60.5837 118.769 61.8421 117.302 63.177 115.906Z" fill="#E0E0E0"/>
<path d="M55.875 44.3677C57.1354 45.716 58.3208 47.1321 59.4258 48.6097C60.6091 50.0204 61.7133 51.4952 62.7333 53.0274C61.4751 51.6789 60.2917 50.2627 59.1886 48.7854C58.0037 47.3745 56.8975 45.8997 55.875 44.3677Z" fill="#E0E0E0"/>
<path d="M91.6683 65.9111H77.6295V105.634H91.6683V65.9111Z" fill="#E0E0E0"/>
<path d="M189.653 32.6235V67.917H138.8L136.97 32.872L189.653 32.6235Z" fill="#E0E0E0"/>
<path d="M136.964 32.8722V67.8384H187.817V32.8722H136.964Z" fill="white"/>
<path d="M188.06 68.0804H136.727V32.6294H188.06V68.0804ZM137.213 67.6017H187.58V33.1021H137.213V67.6017Z" fill="#E0E0E0"/>
<path d="M182.315 37.2168H142.479V63.493H182.315V37.2168Z" fill="white"/>
<path d="M182.315 37.2172H181.549H179.36H171.152L142.479 37.3445L142.594 37.2293C142.594 45.2588 142.594 54.1549 142.594 63.5055L142.473 63.3843H182.309L182.206 63.4812C182.206 55.4881 182.248 48.9372 182.26 44.3619C182.26 42.0834 182.26 40.3017 182.26 39.0776C182.26 38.4716 182.26 38.0111 182.26 37.6899C182.26 37.3687 182.26 37.2051 182.26 37.2051C182.26 37.2051 182.26 37.3566 182.26 37.6656C182.26 37.9747 182.26 38.4413 182.26 39.0352C182.26 40.2472 182.26 42.0288 182.291 44.3013C182.291 48.8827 182.321 55.4639 182.339 63.4812V63.5843H182.242H142.406H142.278V63.457C142.278 54.1064 142.278 45.2103 142.278 37.1808V37.1021H142.394L171.146 37.1566L179.33 37.193H181.494H182.23L182.315 37.2172Z" fill="#E0E0E0"/>
<path d="M136.97 32.7749C137.284 32.9255 137.578 33.1149 137.845 33.3385C138.362 33.7142 139.061 34.2475 139.839 34.8535C140.618 35.4595 141.274 36.0655 141.749 36.4715C142.02 36.691 142.265 36.9411 142.478 37.2169C141.509 36.5417 140.576 35.8176 139.681 35.0474C138.73 34.348 137.824 33.5889 136.97 32.7749Z" fill="#E0E0E0"/>
<path d="M187.823 32.8721C186.987 33.6921 186.093 34.4516 185.148 35.1446C184.253 35.901 183.307 36.5936 182.314 37.2171C183.151 36.397 184.045 35.6376 184.99 34.9446C185.883 34.1866 186.83 33.4939 187.823 32.8721Z" fill="#E0E0E0"/>
<path d="M187.78 67.8441L182.108 63.2627L187.78 67.8441Z" fill="white"/>
<path d="M182.108 63.2627C183.128 63.9293 184.103 64.6621 185.026 65.4564C185.997 66.1898 186.917 66.9875 187.78 67.8441C186.759 67.1813 185.786 66.4483 184.868 65.6503C183.893 64.9199 182.97 64.1221 182.108 63.2627Z" fill="#E0E0E0"/>
<path d="M136.97 67.838C137.796 67.028 138.68 66.2786 139.615 65.5958C140.499 64.846 141.436 64.1595 142.417 63.5415C141.594 64.3562 140.71 65.1078 139.773 65.7898C138.889 66.5389 137.952 67.2235 136.97 67.838Z" fill="#E0E0E0"/>
<path d="M150.565 45.404V54.2031H175.633V45.404H150.565Z" fill="#E0E0E0"/>
<path d="M396.836 190.765C396.836 190.765 392.27 188.644 388.688 199.31C385.107 209.976 384.043 215.981 384.043 215.981C384.043 215.981 383.016 218.26 381.38 217.114C379.745 215.969 377.209 212.412 374.881 213.478C372.552 214.545 372.054 217.502 373.154 221.556C374.255 225.61 376.34 234.573 376.522 235.385C376.705 236.197 376.419 237.44 375.185 236.84C373.951 236.24 366.399 230.028 363.633 233.767C360.866 237.506 365.815 248.311 366.332 249.487C366.849 250.663 366.685 251.244 366.138 251.638C365.591 252.032 363.262 249.705 361.043 248.002C358.823 246.299 355.96 244.766 354.555 247.057C353.151 249.347 353.88 257.886 364.016 270.418L369.093 275.915L376.468 274.393C392.051 270.182 397.669 263.698 397.881 261.019C398.094 258.341 394.841 257.928 392.075 257.989C389.309 258.05 386.031 258.565 385.825 257.922C385.618 257.28 385.825 256.71 386.931 256.104C388.038 255.498 398.392 249.59 398.38 244.954C398.368 240.318 388.597 240.936 387.241 240.712C385.886 240.488 386.396 239.288 387.01 238.749C387.624 238.209 394.604 232.161 397.881 229.525C401.158 226.889 402.557 224.277 401.244 221.981C399.93 219.684 395.832 221.156 393.838 221.126C391.844 221.096 392.349 218.648 392.349 218.648C392.349 218.648 395.024 213.194 398.429 202.437C401.833 191.681 396.738 190.753 396.738 190.753" fill="#EBEBEB"/>
<path d="M368.132 277.435C370.649 269.557 375.355 255.649 379.337 243.681C383.319 231.712 386.913 220.883 389.472 213.03C390.743 209.103 391.771 205.927 392.512 203.721C392.871 202.631 393.12 201.776 393.339 201.188C393.433 200.909 393.505 200.691 393.558 200.534C393.607 200.382 393.637 200.31 393.637 200.31C393.637 200.31 393.637 200.388 393.576 200.54C393.516 200.691 393.467 200.916 393.382 201.2C393.199 201.806 392.938 202.649 392.598 203.746C391.917 205.957 390.913 209.145 389.649 213.078C387.132 220.956 383.569 231.791 379.586 243.754C375.604 255.716 370.868 269.63 368.308 277.484" fill="#E0E0E0"/>
<path d="M378.231 218.587C378.332 218.736 378.419 218.895 378.492 219.06C378.65 219.369 378.863 219.829 379.1 220.393C379.617 221.526 380.316 223.108 380.991 224.865C381.666 226.622 382.304 228.168 382.815 229.368C383.028 229.907 383.216 230.368 383.362 230.731C383.445 230.892 383.507 231.063 383.545 231.24C383.444 231.091 383.356 230.933 383.283 230.768C383.125 230.458 382.912 230.004 382.675 229.434C382.171 228.295 381.52 226.707 380.815 224.95C380.11 223.193 379.477 221.653 378.991 220.459L378.431 219.096C378.343 218.935 378.276 218.764 378.231 218.587Z" fill="#E0E0E0"/>
<path d="M384.256 231.264C384.225 231.204 387.436 229.689 391.424 227.871C395.413 226.053 398.659 224.635 398.72 224.695C398.781 224.756 395.534 226.271 391.546 228.083C387.557 229.895 384.256 231.331 384.256 231.264Z" fill="#E0E0E0"/>
<path d="M377.288 249.371C377.465 249.314 377.649 249.278 377.835 249.262L379.325 249.044C380.577 248.862 382.316 248.602 384.219 248.238C386.122 247.875 387.831 247.505 389.083 247.214L390.548 246.881C390.726 246.826 390.91 246.793 391.096 246.784C390.927 246.86 390.752 246.921 390.573 246.966C390.232 247.069 389.74 247.214 389.126 247.378C387.91 247.705 386.183 248.111 384.262 248.468C382.34 248.826 380.614 249.074 379.343 249.208C378.735 249.28 378.2 249.329 377.841 249.353C377.658 249.375 377.473 249.381 377.288 249.371Z" fill="#E0E0E0"/>
<path d="M369.323 239.088C369.454 239.197 369.573 239.321 369.676 239.458L370.569 240.524C371.317 241.427 372.333 242.688 373.445 244.087C374.558 245.487 375.561 246.76 376.272 247.693L377.105 248.802C377.214 248.934 377.31 249.076 377.391 249.226C377.258 249.119 377.139 248.995 377.038 248.857L376.145 247.796C375.397 246.887 374.381 245.633 373.263 244.233C372.144 242.833 371.153 241.554 370.442 240.627L369.609 239.518C369.497 239.386 369.401 239.242 369.323 239.088Z" fill="#E0E0E0"/>
<path d="M361.152 254.292C361.316 254.436 361.465 254.597 361.596 254.771C361.9 255.123 362.283 255.583 362.745 256.129C363.712 257.28 365.025 258.886 366.472 260.668C367.919 262.449 369.214 264.067 370.12 265.249L371.214 266.649C371.354 266.817 371.478 266.998 371.585 267.188C371.425 267.04 371.277 266.88 371.141 266.709L369.992 265.352C369.032 264.195 367.712 262.595 366.265 260.813C364.818 259.031 363.523 257.413 362.617 256.232C362.179 255.668 361.809 255.195 361.529 254.826C361.386 254.661 361.26 254.482 361.152 254.292Z" fill="#E0E0E0"/>
<path d="M371.488 266.806C371.711 266.739 371.938 266.688 372.169 266.655L374.048 266.315C375.635 266.024 377.823 265.612 380.225 265.103C382.627 264.594 384.791 264.061 386.354 263.667L388.208 263.206C388.433 263.14 388.662 263.091 388.895 263.061C388.682 263.158 388.46 263.235 388.232 263.291C387.801 263.425 387.174 263.612 386.408 263.825C384.852 264.261 382.693 264.812 380.286 265.327C377.878 265.843 375.683 266.236 374.09 266.485C373.294 266.612 372.643 266.703 372.199 266.758C371.964 266.796 371.726 266.813 371.488 266.806Z" fill="#E0E0E0"/>
<path d="M410.4 277.217C410.4 277.302 326.867 277.375 223.854 277.375C120.84 277.375 37.3071 277.32 37.3071 277.217C37.3071 277.114 120.822 277.06 223.878 277.06C326.934 277.06 410.4 277.132 410.4 277.217Z" fill="#263238"/>
<path d="M296.313 66.3262L290.527 71.2578L298.25 80.2572L304.035 75.3255L296.313 66.3262Z" fill="#263238"/>
<path d="M301.313 65.6267L289.408 75.8196L281.06 66.1236C284.344 61.5301 288.259 58.0638 292.947 55.9307L301.313 65.6267Z" fill="#455A64"/>
<path d="M291.414 74.1103C291.348 74.1709 289.335 71.9651 286.915 69.1956C284.495 66.4262 282.586 64.1355 282.659 64.0749C282.732 64.0143 284.739 66.2202 287.158 68.9896C289.578 71.759 291.481 74.0558 291.414 74.1103Z" fill="#263238"/>
<path d="M293.664 72.1711C293.183 71.7046 292.736 71.2044 292.326 70.6743C291.524 69.735 290.436 68.4321 289.238 66.9777L286.198 63.2447L285.286 62.1115C285.067 61.8328 284.951 61.7055 284.951 61.6873C285.073 61.5782 287.098 63.875 289.493 66.7777C290.709 68.2321 291.755 69.5593 292.533 70.5349C292.958 71.0461 293.336 71.5936 293.664 72.1711Z" fill="#263238"/>
<path d="M296.704 69.5837C296.215 69.1187 295.762 68.6185 295.348 68.0869C294.539 67.1355 293.445 65.8084 292.241 64.3358L289.201 60.5422L288.289 59.3848C288.171 59.2468 288.065 59.0988 287.973 58.9424C288.495 59.3725 288.965 59.8628 289.371 60.4028C290.192 61.3421 291.299 62.6632 292.496 64.1358C293.694 65.6084 294.77 66.9598 295.536 67.9475C295.971 68.4593 296.361 69.0066 296.704 69.5837Z" fill="#263238"/>
<path d="M299.446 67.1595C299.379 67.2141 297.379 64.99 294.977 62.1903C292.576 59.3906 290.691 57.0696 290.758 57.009C290.825 56.9484 292.819 59.1785 295.221 61.9843C297.622 64.7901 299.513 67.105 299.446 67.1595Z" fill="#263238"/>
<path d="M398.189 72.452L392.93 66.9668L384.341 75.1477L389.6 80.633L398.189 72.452Z" fill="#263238"/>
<path d="M398.441 77.8497L387.606 66.5478L396.866 57.7305C401.633 60.7605 405.317 64.4752 407.694 69.0324L398.441 77.8497Z" fill="#455A64"/>
<path d="M389.418 68.4442C389.357 68.3775 391.455 66.2565 394.105 63.7053C396.756 61.154 398.969 59.136 399.012 59.1966C399.055 59.2572 396.975 61.3782 394.324 63.9356C391.673 66.4929 389.479 68.5048 389.418 68.4442Z" fill="#263238"/>
<path d="M391.485 70.5957C391.917 70.0868 392.389 69.6127 392.895 69.1777C393.789 68.3293 395.042 67.1718 396.434 65.8992L400.015 62.6692L401.103 61.6996C401.365 61.4693 401.493 61.3542 401.511 61.3481C401.626 61.4633 399.431 63.6025 396.647 66.1355C395.254 67.4021 393.978 68.5595 393.041 69.3413C392.556 69.7995 392.036 70.219 391.485 70.5957Z" fill="#263238"/>
<path d="M394.233 73.462C394.671 72.9484 395.149 72.4701 395.662 72.0319C396.568 71.1774 397.839 70.0139 399.255 68.7413L402.903 65.5053L404.016 64.5357C404.152 64.4151 404.294 64.3019 404.442 64.1963C404.04 64.7401 403.574 65.2344 403.055 65.6689C402.155 66.5354 400.885 67.705 399.474 68.9776C398.064 70.2502 396.763 71.4016 395.826 72.2015C395.328 72.6619 394.796 73.0833 394.233 73.462Z" fill="#263238"/>
<path d="M396.805 76.0741C396.744 76.0075 398.872 73.9046 401.553 71.3655C404.235 68.8264 406.46 66.8266 406.521 66.8932C406.581 66.9599 404.453 69.0627 401.772 71.5958C399.091 74.1289 396.866 76.1287 396.805 76.0741Z" fill="#263238"/>
<path d="M349.649 46.2646H340.638V60.2814H349.649V46.2646Z" fill="#263238"/>
<path d="M354.464 50.4583H335.92V35.3508C342.42 33.7509 348.621 33.654 354.482 35.3508L354.464 50.4583Z" fill="#71B219"/>
<path d="M354.701 35.4114C354.484 35.5469 354.254 35.6606 354.014 35.7508C353.379 36.0295 352.728 36.2683 352.063 36.4659C351.067 36.7717 350.051 37.0106 349.023 37.1809C347.774 37.3785 346.512 37.4838 345.247 37.4961C343.983 37.4979 342.721 37.4047 341.471 37.2173C340.444 37.0584 339.428 36.8296 338.431 36.5325C337.766 36.3384 337.112 36.1057 336.474 35.8356C336.232 35.7522 336.001 35.6403 335.787 35.5023C335.787 35.4478 336.808 35.8659 338.492 36.3144C339.481 36.5747 340.483 36.7771 341.496 36.9204C342.733 37.0872 343.98 37.1722 345.229 37.1749C346.478 37.1607 347.725 37.0635 348.962 36.884C349.97 36.7387 350.968 36.5364 351.953 36.278C353.68 35.7871 354.677 35.3569 354.701 35.4114Z" fill="#263238"/>
<path d="M342.049 50.4158C341.963 50.4158 341.89 47.513 341.89 43.9376C341.89 40.3622 341.963 37.4595 342.049 37.4595C342.134 37.4595 342.207 40.3562 342.207 43.9376C342.207 47.5191 342.14 50.4158 342.049 50.4158Z" fill="#263238"/>
<path d="M345.581 50.5006C345.496 50.5006 345.423 47.5857 345.423 43.9921C345.423 40.3985 345.496 37.4897 345.581 37.4897C345.666 37.4897 345.739 40.3985 345.739 43.9921C345.739 47.5857 345.672 50.5006 345.581 50.5006Z" fill="#263238"/>
<path d="M349.114 50.4461C349.029 50.4461 348.956 47.5312 348.956 43.9376C348.956 40.3441 349.029 37.4292 349.114 37.4292C349.199 37.4292 349.272 40.3441 349.272 43.9376C349.272 47.5312 349.205 50.4461 349.114 50.4461Z" fill="#263238"/>
<path d="M352.032 50.4463C351.941 50.4463 351.874 47.2951 351.874 43.4107C351.874 39.5262 351.941 36.375 352.032 36.375C352.123 36.375 352.19 39.5262 352.19 43.4107C352.19 47.2951 352.141 50.4463 352.032 50.4463Z" fill="#263238"/>
<path d="M338.711 50.3555C338.626 50.3555 338.553 47.2043 338.553 43.3198C338.553 39.4354 338.626 36.2842 338.711 36.2842C338.796 36.2842 338.869 39.4354 338.869 43.3198C338.869 47.2043 338.802 50.3555 338.711 50.3555Z" fill="#263238"/>
<path d="M390.413 167.496C416.016 141.977 416.016 100.603 390.413 75.0842C364.81 49.5653 323.299 49.5654 297.696 75.0842C272.093 100.603 272.093 141.977 297.696 167.496C323.299 193.015 364.81 193.015 390.413 167.496Z" fill="#71B219"/>
<path d="M344.055 175.652C374.464 175.652 399.115 151.081 399.115 120.772C399.115 90.4634 374.464 65.8931 344.055 65.8931C313.646 65.8931 288.994 90.4634 288.994 120.772C288.994 151.081 313.646 175.652 344.055 175.652Z" fill="#FAFAFA"/>
<path d="M399.115 120.772C399.115 120.772 399.115 120.475 399.073 119.888C399.03 119.3 399.073 118.421 398.957 117.276C398.74 113.934 398.215 110.619 397.389 107.374C396.793 105.031 396.039 102.731 395.133 100.489C394.068 97.8169 392.787 95.235 391.303 92.769C387.671 86.7445 382.926 81.4617 377.319 77.2009C370.513 72.04 362.59 68.537 354.184 66.9716C347.059 65.665 339.747 65.7493 332.655 67.2201C330.164 67.759 327.711 68.4573 325.31 69.3108C315.095 73.0197 306.209 79.6596 299.774 88.3937C298.095 90.6682 296.599 93.0714 295.299 95.5809C294.624 96.8353 294.047 98.1382 293.475 99.4471C292.904 100.756 292.393 102.114 291.961 103.495C291.028 106.26 290.329 109.098 289.87 111.979C289.408 114.892 289.167 117.835 289.146 120.784C289.168 123.735 289.408 126.68 289.864 129.596C290.329 132.475 291.029 135.313 291.955 138.08C292.393 139.455 292.94 140.788 293.469 142.122C293.998 143.455 294.637 144.74 295.293 145.994C296.592 148.505 298.091 150.908 299.774 153.181C306.208 161.918 315.093 168.561 325.31 172.27C327.711 173.124 330.164 173.822 332.655 174.361C335.083 174.867 337.543 175.209 340.018 175.385C344.754 175.742 349.516 175.481 354.184 174.609C362.59 173.044 370.513 169.541 377.319 164.38C382.928 160.121 387.673 154.838 391.303 148.812C392.786 146.345 394.067 143.763 395.133 141.091C397.292 135.734 398.583 130.067 398.957 124.305C399.061 123.16 399.042 122.281 399.073 121.693C399.103 121.106 399.115 120.803 399.115 120.803C399.115 120.803 399.115 121.106 399.115 121.693C399.115 122.281 399.115 123.16 399.03 124.305C398.697 130.084 397.431 135.77 395.279 141.146C394.22 143.831 392.943 146.425 391.461 148.903C387.838 154.958 383.092 160.27 377.477 164.556C370.647 169.748 362.693 173.276 354.251 174.858C349.562 175.741 344.777 176.01 340.018 175.658C337.531 175.482 335.059 175.14 332.618 174.634C330.113 174.096 327.645 173.396 325.231 172.537C314.955 168.814 306.016 162.14 299.543 153.357C297.854 151.072 296.349 148.656 295.044 146.133C294.363 144.873 293.779 143.552 293.183 142.237C292.588 140.922 292.101 139.558 291.663 138.171C290.731 135.392 290.027 132.543 289.56 129.65C288.595 123.783 288.595 117.798 289.56 111.931C290.03 109.051 290.733 106.213 291.663 103.447C292.107 102.059 292.654 100.72 293.19 99.3805C293.725 98.0412 294.363 96.7504 295.044 95.49C296.353 92.9682 297.86 90.5529 299.549 88.2664C306.02 79.4849 314.957 72.8124 325.231 69.0926C327.643 68.2343 330.109 67.5339 332.612 66.9958C335.055 66.49 337.529 66.1479 340.018 65.9717C344.775 65.6195 349.558 65.8884 354.245 66.7716C362.689 68.3464 370.644 71.8751 377.471 77.0736C383.086 81.3622 387.832 86.6763 391.455 92.7327C394.178 97.3043 396.226 102.244 397.535 107.398C398.346 110.655 398.853 113.98 399.048 117.33C399.14 118.476 399.109 119.354 399.134 119.942C399.158 120.53 399.115 120.772 399.115 120.772Z" fill="#263238"/>
<path d="M391.035 118.785C389.29 118.857 387.868 118.785 387.862 118.633C387.855 118.482 389.26 118.276 391.005 118.179C392.75 118.082 394.173 118.142 394.185 118.324C394.197 118.506 392.768 118.712 391.035 118.785Z" fill="#263238"/>
<path d="M389.861 131.42C388.159 131.02 386.821 130.578 386.821 130.426C386.821 130.275 388.268 130.456 389.977 130.826C391.685 131.196 393.017 131.644 393.017 131.82C393.017 131.996 391.552 131.814 389.861 131.42Z" fill="#263238"/>
<path d="M385.32 143.267C383.782 142.431 382.602 141.637 382.675 141.504C382.748 141.37 384.061 141.922 385.606 142.716C387.15 143.51 388.336 144.328 388.251 144.485C388.165 144.643 386.852 144.11 385.32 143.267Z" fill="#263238"/>
<path d="M377.751 153.472C376.498 152.26 375.568 151.182 375.677 151.048C375.787 150.915 376.893 151.818 378.17 153.018C379.447 154.218 380.365 155.29 380.243 155.442C380.122 155.593 378.997 154.69 377.751 153.472Z" fill="#263238"/>
<path d="M367.719 161.29C366.843 159.781 366.235 158.496 366.369 158.417C366.503 158.339 367.342 159.49 368.242 160.981C369.141 162.472 369.749 163.756 369.597 163.853C369.445 163.95 368.6 162.787 367.719 161.29Z" fill="#263238"/>
<path d="M355.954 166.132C355.516 164.441 355.279 163.041 355.431 163.005C355.583 162.968 356.075 164.295 356.544 165.974C357.012 167.653 357.243 169.053 357.066 169.101C356.89 169.15 356.392 167.816 355.954 166.132Z" fill="#263238"/>
<path d="M343.313 167.634C343.313 165.889 343.49 164.477 343.642 164.477C343.794 164.477 343.921 165.895 343.921 167.634C343.921 169.374 343.769 170.792 343.593 170.792C343.417 170.792 343.283 169.386 343.313 167.634Z" fill="#263238"/>
<path d="M330.752 165.738C331.251 164.065 331.774 162.75 331.926 162.793C332.078 162.835 331.81 164.229 331.318 165.907C330.825 167.586 330.321 168.937 330.144 168.852C329.968 168.768 330.223 167.41 330.752 165.738Z" fill="#263238"/>
<path d="M319.121 160.52C320.051 159.048 320.908 157.914 321.042 157.993C321.176 158.072 320.543 159.351 319.637 160.841C318.732 162.332 317.868 163.459 317.716 163.368C317.564 163.277 318.19 161.999 319.121 160.52Z" fill="#263238"/>
<path d="M309.338 152.4C310.633 151.224 311.77 150.363 311.867 150.479C311.965 150.594 311.028 151.648 309.752 152.842C308.475 154.036 307.35 154.896 307.222 154.769C307.095 154.642 308.049 153.575 309.338 152.4Z" fill="#263238"/>
<path d="M302.091 141.964C303.653 141.183 304.979 140.655 305.046 140.789C305.113 140.922 303.921 141.692 302.371 142.504C300.82 143.316 299.501 143.843 299.416 143.679C299.331 143.516 300.534 142.752 302.091 141.964Z" fill="#263238"/>
<path d="M297.92 129.978C299.641 129.638 301.058 129.487 301.088 129.638C301.118 129.79 299.756 130.208 298.048 130.572C296.339 130.935 294.917 131.087 294.88 130.911C294.844 130.735 296.218 130.317 297.92 129.978Z" fill="#263238"/>
<path d="M297.148 117.337C298.893 117.464 300.297 117.694 300.291 117.846C300.285 117.997 298.856 118.04 297.111 117.937C295.366 117.833 293.956 117.609 293.968 117.427C293.98 117.246 295.403 117.179 297.148 117.337Z" fill="#263238"/>
<path d="M299.792 104.895C301.44 105.501 302.729 106.107 302.68 106.234C302.632 106.362 301.245 106.034 299.592 105.465C297.938 104.895 296.649 104.301 296.704 104.132C296.758 103.962 298.151 104.301 299.792 104.895Z" fill="#263238"/>
<path d="M305.697 93.6538C307.119 94.6659 308.202 95.587 308.129 95.7143C308.056 95.8415 306.803 95.1386 305.362 94.1508C303.921 93.163 302.839 92.2419 302.93 92.0904C303.021 91.9389 304.268 92.6418 305.697 93.6538Z" fill="#263238"/>
<path d="M314.397 84.3942C315.498 85.7456 316.294 86.9213 316.179 87.0243C316.063 87.1273 315.048 86.1153 313.929 84.776C312.81 83.4368 312.008 82.2672 312.148 82.152C312.287 82.0369 313.297 83.0429 314.397 84.3942Z" fill="#263238"/>
<path d="M325.28 77.7891C325.973 79.3889 326.429 80.7342 326.283 80.8191C326.137 80.9039 325.444 79.6434 324.727 78.0557C324.009 76.468 323.553 75.1227 323.717 75.0257C323.882 74.9288 324.569 76.1953 325.28 77.7891Z" fill="#263238"/>
<path d="M337.526 74.3527C337.763 76.0798 337.836 77.4979 337.678 77.5221C337.519 77.5463 337.185 76.1647 336.924 74.4436C336.662 72.7226 336.589 71.2985 336.766 71.2742C336.942 71.25 337.288 72.6256 337.526 74.3527Z" fill="#263238"/>
<path d="M350.257 74.3103C350.025 76.0374 349.715 77.4252 349.563 77.407C349.411 77.3888 349.448 75.9647 349.655 74.2376C349.861 72.5105 350.171 71.1167 350.348 71.1409C350.524 71.1652 350.488 72.5772 350.257 74.3103Z" fill="#263238"/>
<path d="M362.532 77.6617C361.845 79.2676 361.17 80.516 361.024 80.4554C360.878 80.3948 361.31 79.0434 361.972 77.4254C362.635 75.8074 363.316 74.5651 363.48 74.6378C363.644 74.7105 363.225 76.0619 362.532 77.6617Z" fill="#263238"/>
<path d="M373.452 84.1884C372.357 85.5519 371.372 86.576 371.251 86.4791C371.129 86.3821 371.901 85.1883 372.977 83.8127C374.054 82.4371 375.032 81.3887 375.178 81.5281C375.324 81.6675 374.528 82.831 373.452 84.1884Z" fill="#263238"/>
<path d="M382.226 93.3873C380.803 94.4054 379.581 95.1326 379.489 95.0053C379.398 94.8781 380.462 93.9388 381.867 92.8964C383.271 91.8541 384.493 91.133 384.603 91.2784C384.712 91.4238 383.648 92.3692 382.226 93.3873Z" fill="#263238"/>
<path d="M388.202 104.61C386.561 105.216 385.162 105.574 385.126 105.434C385.089 105.295 386.342 104.665 387.99 104.041C389.637 103.416 390.993 103.047 391.06 103.217C391.127 103.386 389.844 104.004 388.202 104.61Z" fill="#263238"/>
<path d="M390.944 116.985C389.199 117.124 387.776 117.112 387.764 116.985C387.752 116.858 389.151 116.579 390.889 116.379C392.628 116.179 394.057 116.228 394.069 116.409C394.081 116.591 392.671 116.846 390.944 116.985Z" fill="#263238"/>
<path d="M322.672 61.4028L322.484 61.4877L321.924 61.7119C321.438 61.9179 320.708 62.1664 319.778 62.5724C317.157 63.6646 314.612 64.9299 312.16 66.3599C310.603 67.2568 308.956 68.3294 307.223 69.5354C305.49 70.7413 303.721 72.1472 301.951 73.7289C294.184 80.5532 288.25 89.2044 284.69 98.8961C283.857 101.114 283.231 103.283 282.69 105.314C282.149 107.344 281.784 109.283 281.51 111.052C281.066 113.848 280.809 116.67 280.738 119.5C280.69 120.506 280.738 121.282 280.738 121.809C280.738 122.063 280.738 122.257 280.738 122.415C280.744 122.483 280.744 122.552 280.738 122.621C280.73 122.555 280.73 122.487 280.738 122.421C280.738 122.269 280.738 122.069 280.738 121.815C280.738 121.288 280.671 120.512 280.702 119.506C280.724 116.666 280.949 113.83 281.377 111.022C281.632 109.24 282.027 107.307 282.52 105.253C283.069 103.069 283.731 100.915 284.502 98.7991C288.044 89.0426 294.012 80.3416 301.848 73.5107C303.629 71.9291 305.441 70.5656 307.156 69.3233C308.87 68.081 310.561 67.0508 312.135 66.166C314.604 64.7507 317.17 63.5114 319.814 62.4573C320.745 62.0694 321.493 61.8513 321.991 61.6513L322.563 61.4574C322.598 61.4365 322.634 61.4183 322.672 61.4028Z" fill="white"/>
<path d="M340.973 57.8636C340.347 57.993 339.713 58.076 339.076 58.112C337.896 58.2332 336.279 58.409 334.491 58.6392C332.704 58.8695 331.093 59.1119 329.925 59.2937C329.3 59.4219 328.666 59.5029 328.028 59.5361C328.633 59.3261 329.256 59.1719 329.889 59.0756C331.05 58.8392 332.661 58.5605 334.449 58.3302C336.236 58.0999 337.872 57.9545 339.057 57.8878C339.694 57.82 340.335 57.8119 340.973 57.8636Z" fill="white"/>
<g opacity="0.4">
<path opacity="0.4" d="M300.048 153.763C300.048 153.763 328.581 198.644 372.844 175.658C419.052 151.66 393.516 96.6538 393.516 96.6538C393.516 96.6538 415.258 140.492 370.217 169.071C359 176.191 346.785 176.197 337.47 175.264C313.667 172.889 300.048 153.763 300.048 153.763Z" fill="black"/>
</g>
<path d="M359.401 91.6055C359.675 99.6544 359.431 107.712 358.671 115.73C358.392 118.633 358.063 121.566 356.939 124.263C355.814 126.96 353.899 129.432 351.199 130.571C348.5 131.711 345.046 131.238 343.167 129.008L359.401 91.6055Z" fill="#E0E0E0"/>
<path d="M342.857 116.446L362.867 82.8613L350.792 120.779L344.62 122.615L342.857 116.446Z" fill="#71B219"/>
<g opacity="0.4">
<path opacity="0.4" d="M362.867 82.8613L348.025 117.179L350.792 120.779L362.867 82.8613Z" fill="black"/>
</g>
<path d="M344.62 129.032C348.176 129.032 351.059 126.159 351.059 122.615C351.059 119.071 348.176 116.197 344.62 116.197C341.064 116.197 338.181 119.071 338.181 122.615C338.181 126.159 341.064 129.032 344.62 129.032Z" fill="#FAFAFA"/>
<path d="M351.059 122.614C351.001 122.093 350.914 121.575 350.797 121.063C350.425 119.681 349.598 118.463 348.451 117.603C347.607 116.97 346.619 116.559 345.575 116.405C344.531 116.252 343.465 116.361 342.474 116.724C341.904 116.925 341.368 117.214 340.887 117.579C340.375 117.949 339.925 118.399 339.556 118.912C338.765 119.986 338.339 121.283 338.339 122.614C338.339 123.946 338.765 125.243 339.556 126.317C340.294 127.316 341.308 128.078 342.474 128.511C343.306 128.815 344.193 128.942 345.077 128.885C345.961 128.828 346.824 128.587 347.609 128.178C348.395 127.768 349.086 127.2 349.638 126.509C350.19 125.819 350.591 125.02 350.816 124.166C350.933 123.654 351.02 123.136 351.077 122.614C351.115 123.146 351.068 123.68 350.937 124.196C350.605 125.641 349.78 126.926 348.603 127.832C347.795 128.457 346.852 128.882 345.848 129.074C344.694 129.294 343.502 129.202 342.395 128.808C341.794 128.601 341.229 128.3 340.723 127.917C340.185 127.53 339.713 127.059 339.325 126.523C338.487 125.4 338.036 124.038 338.036 122.639C338.036 121.24 338.487 119.877 339.325 118.754C339.715 118.22 340.187 117.749 340.723 117.36C341.232 116.983 341.796 116.684 342.395 116.476C343.501 116.078 344.694 115.986 345.848 116.209C347.074 116.444 348.207 117.026 349.109 117.886C350.012 118.746 350.646 119.847 350.937 121.057C351.059 121.567 351.1 122.092 351.059 122.614Z" fill="#263238"/>
<path d="M349.338 123.577C349.862 120.992 348.185 118.473 345.591 117.95C342.998 117.427 340.47 119.099 339.946 121.684C339.421 124.269 341.099 126.788 343.692 127.311C346.286 127.834 348.813 126.162 349.338 123.577Z" fill="#455A64"/>
<path d="M293.858 276.648H325.535L310.767 149.788L293.858 276.648Z" fill="#E0E0E0"/>
<path d="M137.992 149.788L117.369 278.145L293.354 280.43L310.767 149.788H137.992Z" fill="#FAFAFA"/>
<path d="M302.93 208.588H128.543L132.337 184.954H306.079L302.93 208.588Z" fill="#EBEBEB"/>
<path d="M302.942 208.606H128.525L132.325 184.972H306.097L302.942 208.606ZM128.561 208.576H302.918L306.061 184.942H132.355L128.561 208.576Z" fill="#263238"/>
<path d="M137.992 149.788L132.337 184.954H306.079L310.767 149.788H137.992Z" fill="#71B219"/>
<path d="M138.016 149.788L310.791 149.643H310.956V149.806C305.867 188.051 300.091 231.422 293.986 277.23V277.369H291.87L117.514 277.321H117.344V277.169L138.016 149.788C137.846 150.842 129.99 200.056 117.666 277.23L117.539 277.078H291.828H293.804L293.652 277.212C299.762 231.404 305.55 188.039 310.676 149.794L310.816 149.952L138.016 149.788Z" fill="#263238"/>
<path d="M306.079 184.954C306.079 185.039 267.167 185.112 219.214 185.112C171.261 185.112 132.337 185.039 132.337 184.954C132.337 184.869 171.249 184.796 219.214 184.796C267.179 184.796 306.079 184.863 306.079 184.954Z" fill="#263238"/>
<path d="M302.93 208.588C302.93 208.679 263.812 208.746 215.573 208.746C167.334 208.746 128.209 208.679 128.209 208.588C128.209 208.497 167.316 208.431 215.573 208.431C263.83 208.431 302.93 208.503 302.93 208.588Z" fill="#263238"/>
<path d="M299.379 230.337C299.379 230.428 260.267 230.495 212.028 230.495C163.789 230.495 124.64 230.428 124.64 230.337C124.64 230.246 163.747 230.18 212.004 230.18C260.26 230.18 299.379 230.252 299.379 230.337Z" fill="#263238"/>
<path d="M295.835 252.087C295.835 252.172 256.716 252.244 208.477 252.244C160.239 252.244 121.114 252.172 121.114 252.087C121.114 252.002 160.22 251.929 208.477 251.929C256.734 251.929 295.835 252.002 295.835 252.087Z" fill="#263238"/>
<path d="M142.071 277.405C141.986 277.405 145.178 256.68 149.209 231.156C153.24 205.631 156.566 184.936 156.651 184.954C156.736 184.972 153.544 205.667 149.519 231.204C145.494 256.741 142.162 277.418 142.071 277.405Z" fill="#263238"/>
<path d="M168.963 277.405C168.872 277.405 172.07 256.68 176.095 231.156C180.12 205.631 183.452 184.936 183.543 184.954C183.634 184.972 180.436 205.667 176.405 231.204C172.374 256.741 169.024 277.418 168.963 277.405Z" fill="#263238"/>
<path d="M193.952 276.478C193.867 276.478 197.028 255.965 201.011 230.695C204.993 205.425 208.307 184.936 208.386 184.954C208.465 184.972 205.309 205.461 201.327 230.743C197.344 256.026 194.031 276.49 193.952 276.478Z" fill="#263238"/>
<path d="M218.667 277.212C218.582 277.212 221.768 256.529 225.787 231.059C229.806 205.588 233.132 184.936 233.217 184.954C233.302 184.972 230.116 205.625 226.097 231.107C222.078 256.589 218.753 277.224 218.667 277.212Z" fill="#263238"/>
<path d="M243.504 277.212C243.419 277.212 246.604 256.529 250.623 231.059C254.642 205.588 257.968 184.936 258.053 184.954C258.138 184.972 254.958 205.625 250.94 231.107C246.921 256.589 243.595 277.224 243.504 277.212Z" fill="#263238"/>
<path d="M268.323 277.32C268.238 277.32 271.43 256.613 275.455 231.101C279.48 205.588 282.805 184.912 282.897 184.93C282.988 184.948 279.79 205.631 275.765 231.149C271.74 256.668 268.408 277.357 268.323 277.32Z" fill="#263238"/>
<g opacity="0.2">
<path opacity="0.2" d="M252.697 186.602C255.688 185.281 257.561 182.179 258.333 179.009C259.105 175.84 258.984 172.531 259.099 169.265C259.215 165.998 259.604 162.635 261.276 159.829C262.267 158.175 263.659 156.799 264.76 155.205C265.86 153.612 266.675 151.672 266.267 149.751L247.553 149.848L252.697 186.602Z" fill="black"/>
</g>
<path d="M175.104 210.339C175.054 210.42 174.992 210.494 174.921 210.558L174.362 211.164C173.87 211.666 173.146 212.376 172.234 213.26C170.41 215.006 167.875 217.381 164.987 219.926C162.099 222.471 159.424 224.689 157.46 226.265C156.475 227.053 155.672 227.683 155.113 228.083L154.462 228.568C154.39 228.631 154.308 228.682 154.219 228.719C154.219 228.719 154.286 228.641 154.42 228.519L155.028 227.986L157.308 226.065C159.241 224.447 161.892 222.199 164.774 219.666C167.656 217.133 170.246 214.781 172.07 213.078L174.265 211.06L174.873 210.521C174.942 210.451 175.019 210.39 175.104 210.339Z" fill="#263238"/>
<path d="M173.7 228.962C173.442 228.737 173.2 228.494 172.976 228.235L171.073 226.211C169.432 224.472 167.231 222.132 164.805 219.545L158.469 212.939L156.548 210.933C156.306 210.695 156.08 210.44 155.873 210.17C156.149 210.373 156.405 210.6 156.639 210.849C157.114 211.297 157.795 211.958 158.628 212.782C160.293 214.43 162.567 216.739 165.03 219.333C167.492 221.926 169.681 224.314 171.237 226.065C172.016 226.938 172.642 227.653 173.061 228.15C173.299 228.4 173.513 228.672 173.7 228.962Z" fill="#263238"/>
<path d="M180.193 215.909C180.193 215.909 180.254 215.751 180.382 215.442C180.583 214.993 180.827 214.565 181.111 214.163C182.229 212.606 183.806 211.435 185.622 210.812C186.924 210.343 188.311 210.161 189.69 210.279C191.332 210.438 192.913 210.975 194.311 211.848C195.924 212.839 197.287 214.187 198.293 215.787C199.457 217.574 200.037 219.676 199.953 221.805C199.883 222.953 199.526 224.066 198.913 225.041C198.272 226.052 197.417 226.913 196.408 227.562C194.261 228.935 191.732 229.594 189.185 229.447C187.851 229.375 186.538 229.091 185.294 228.604C184 228.101 182.837 227.314 181.889 226.301C181.419 225.769 181.022 225.176 180.71 224.538C180.413 223.887 180.208 223.197 180.102 222.49C179.9 221.04 180.027 219.563 180.473 218.169C181.402 215.261 183.418 212.82 186.103 211.351C187.495 210.59 189.043 210.156 190.629 210.083C192.215 210.011 193.797 210.301 195.253 210.933C196.762 211.567 198.082 212.574 199.09 213.86C200.098 215.181 200.729 216.75 200.914 218.399C201.124 220.072 200.852 221.771 200.129 223.296C199.758 224.061 199.27 224.764 198.682 225.38C198.084 225.988 197.41 226.515 196.676 226.95C195.195 227.763 193.563 228.263 191.879 228.419C190.196 228.576 188.499 228.385 186.893 227.859C185.312 227.375 183.858 226.547 182.637 225.435C181.426 224.322 180.599 222.857 180.272 221.247C179.929 219.666 180.155 218.014 180.91 216.581C181.293 215.875 181.819 215.256 182.455 214.763C183.08 214.293 183.779 213.926 184.522 213.678C185.982 213.212 187.514 213.007 189.046 213.072C190.537 213.083 192.021 213.287 193.46 213.678C194.882 214.051 196.196 214.753 197.296 215.727C198.35 216.707 199.068 217.991 199.351 219.399C199.63 220.76 199.549 222.17 199.114 223.49C198.684 224.762 197.956 225.915 196.992 226.853C195.161 228.638 192.735 229.69 190.176 229.81C188.979 229.873 187.78 229.7 186.65 229.301C185.565 228.913 184.589 228.271 183.805 227.429C183.062 226.625 182.5 225.672 182.157 224.635C181.818 223.662 181.668 222.634 181.713 221.605C181.8 219.7 182.563 217.887 183.865 216.49C184.979 215.276 186.389 214.368 187.957 213.854C189.274 213.427 190.669 213.294 192.043 213.466C193.942 213.702 195.746 214.426 197.278 215.569C197.676 215.861 198.052 216.181 198.403 216.527C198.64 216.763 198.755 216.89 198.755 216.89C198.755 216.89 198.622 216.775 198.384 216.551C198.023 216.217 197.641 215.905 197.241 215.618C195.707 214.509 193.913 213.81 192.031 213.588C190.547 213.416 189.043 213.602 187.645 214.129C186.248 214.656 184.998 215.51 183.999 216.618C182.73 217.984 181.991 219.757 181.914 221.617C181.872 222.626 182.023 223.633 182.358 224.586C182.696 225.593 183.246 226.516 183.969 227.295C184.731 228.111 185.677 228.735 186.729 229.113C187.832 229.495 188.998 229.66 190.164 229.598C192.662 229.475 195.027 228.442 196.81 226.695C197.741 225.787 198.443 224.672 198.859 223.441C199.275 222.165 199.35 220.804 199.078 219.49C198.804 218.138 198.113 216.905 197.102 215.963C196.032 215.026 194.758 214.349 193.381 213.988C191.965 213.601 190.507 213.398 189.039 213.382C187.544 213.325 186.05 213.53 184.625 213.988C183.172 214.431 181.942 215.408 181.184 216.721C180.464 218.091 180.249 219.669 180.576 221.181C180.891 222.726 181.689 224.133 182.856 225.199C184.039 226.288 185.452 227.1 186.99 227.574C188.553 228.087 190.205 228.273 191.844 228.12C193.482 227.968 195.071 227.481 196.512 226.689C197.223 226.273 197.876 225.763 198.451 225.174C199.016 224.583 199.485 223.908 199.844 223.174C200.543 221.703 200.807 220.063 200.604 218.448C200.43 216.855 199.827 215.339 198.859 214.06C197.885 212.817 196.608 211.843 195.15 211.23C193.737 210.615 192.202 210.331 190.662 210.401C189.122 210.47 187.618 210.891 186.267 211.63C183.658 213.062 181.699 215.437 180.795 218.266C180.362 219.619 180.235 221.051 180.424 222.459C180.533 223.143 180.738 223.808 181.032 224.435C181.333 225.047 181.713 225.618 182.163 226.132C183.08 227.112 184.206 227.874 185.458 228.362C186.674 228.841 187.959 229.123 189.264 229.198C191.757 229.35 194.233 228.714 196.342 227.38C197.316 226.786 198.136 225.971 198.737 225.003C199.338 224.035 199.703 222.939 199.801 221.805C199.886 219.723 199.323 217.666 198.19 215.915C197.206 214.334 195.87 213.001 194.286 212.018C192.914 211.152 191.36 210.615 189.745 210.448C188.387 210.32 187.017 210.49 185.732 210.945C183.932 211.552 182.361 212.694 181.233 214.218C180.942 214.613 180.689 215.035 180.479 215.478C180.272 215.757 180.193 215.909 180.193 215.909Z" fill="#71B219"/>
<path d="M196.664 232.64C196.718 232.707 191.897 236.815 185.89 241.821C179.883 246.826 174.946 250.82 174.909 250.753C174.873 250.687 179.676 246.578 185.683 241.578C191.69 236.579 196.609 232.573 196.664 232.64Z" fill="#263238"/>
<path d="M197.715 250.214C197.429 250.046 197.159 249.854 196.907 249.638L194.767 247.978C192.973 246.56 190.511 244.584 187.799 242.391C185.087 240.197 182.649 238.197 180.892 236.737L178.819 234.991C178.556 234.791 178.312 234.568 178.089 234.325C178.374 234.494 178.645 234.687 178.898 234.9L181.032 236.561C182.826 237.979 185.288 239.954 188 242.148C190.711 244.342 193.149 246.342 194.913 247.802L196.98 249.541C197.241 249.748 197.487 249.972 197.715 250.214Z" fill="#263238"/>
<path d="M247.42 232.877C247.468 232.943 242.86 236.464 237.114 240.755C231.369 245.045 226.675 248.433 226.62 248.36C226.565 248.287 231.18 244.772 236.926 240.482C242.671 236.191 247.365 232.804 247.42 232.877Z" fill="#263238"/>
<path d="M249.207 247.784C249.164 247.857 244.264 244.833 238.263 241.021C232.262 237.21 227.453 234.071 227.495 233.992C227.538 233.913 232.438 236.949 238.439 240.755C244.44 244.56 249.28 247.712 249.207 247.784Z" fill="#263238"/>
<path d="M197.454 277.217C197.387 277.157 202.178 272.151 208.148 266.049C214.119 259.946 219.013 255.032 219.092 255.092C219.172 255.153 214.368 260.159 208.398 266.267C202.427 272.375 197.515 277.278 197.454 277.217Z" fill="#71B219"/>
<path d="M217.706 277.212C217.706 277.212 217.627 277.145 217.506 277L216.995 276.394C216.521 275.788 215.888 275.006 215.116 274.048C213.529 272.073 211.28 269.388 208.671 266.534C206.063 263.68 203.589 261.201 201.765 259.444L199.6 257.323L198.992 256.753C198.922 256.689 198.859 256.618 198.804 256.541C198.804 256.541 198.895 256.59 199.035 256.705L199.643 257.232C200.184 257.692 200.95 258.377 201.886 259.238C203.747 260.959 206.252 263.419 208.872 266.279C211.493 269.14 213.736 271.855 215.256 273.867C216.034 274.873 216.648 275.685 217.08 276.291L217.548 276.957C217.611 277.035 217.664 277.121 217.706 277.212Z" fill="#71B219"/>
<path d="M167.936 251.723C167.936 251.723 168.131 266.613 164.361 275.527L141.385 271.624C141.385 271.624 148.304 257.516 146.419 249.675L167.936 251.723Z" fill="#EBEBEB"/>
<path d="M167.93 251.166C167.93 251.166 165.048 269.443 163.284 274.897L140.448 270.376C140.448 270.376 145.148 252.705 145.087 247.784L167.93 251.166Z" fill="#71B219"/>
<path d="M147.404 255.977C147.404 256.062 150.796 256.85 155.022 257.735C159.248 258.619 162.683 259.268 162.701 259.189C162.719 259.11 159.308 258.316 155.083 257.432C150.857 256.547 147.422 255.892 147.404 255.977Z" fill="white"/>
<path d="M146.82 259.85C146.82 259.935 150.212 260.716 154.438 261.607C158.663 262.498 162.099 263.14 162.117 263.062C162.135 262.983 158.724 262.189 154.499 261.304C150.273 260.419 146.838 259.747 146.82 259.85Z" fill="white"/>
<path d="M150.176 264.231C150.565 264.4 150.974 264.522 151.392 264.595C152.176 264.782 153.265 265.031 154.462 265.285C155.66 265.54 156.761 265.746 157.557 265.891C157.983 265.998 158.42 266.051 158.858 266.049C158.454 265.879 158.032 265.755 157.6 265.679C156.821 265.485 155.733 265.237 154.529 264.988C153.325 264.74 152.231 264.522 151.441 264.382C151.027 264.281 150.602 264.23 150.176 264.231Z" fill="white"/>
<path d="M276.64 209.915C276.64 209.915 278.993 224.423 276.61 233.676L253.603 233.185C253.603 233.185 258.309 218.411 255.324 211.024L276.64 209.915Z" fill="#EBEBEB"/>
<path d="M276.537 209.37C276.537 209.37 276.385 227.616 275.455 233.185L252.49 232.101C252.49 232.101 254.503 214.163 253.706 209.37H276.537Z" fill="#455A64"/>
<path d="M256.965 217.49C256.965 217.575 260.418 217.648 264.68 217.654C268.942 217.66 272.402 217.599 272.402 217.515C272.402 217.43 268.949 217.357 264.68 217.351C260.412 217.345 256.965 217.406 256.965 217.49Z" fill="white"/>
<path d="M257.184 221.35C257.184 221.435 260.637 221.508 264.9 221.514C269.162 221.52 272.621 221.459 272.621 221.374C272.621 221.29 269.168 221.217 264.9 221.211C260.631 221.205 257.184 221.265 257.184 221.35Z" fill="white"/>
<path d="M261.3 224.908C261.724 224.998 262.157 225.037 262.589 225.023C263.386 225.023 264.486 225.065 265.702 225.071C266.918 225.077 268.013 225.071 268.809 225.029C269.241 225.046 269.674 225.012 270.098 224.926C269.675 224.836 269.242 224.799 268.809 224.817C268.013 224.786 266.918 224.768 265.702 224.762C264.486 224.756 263.386 224.762 262.589 224.805C262.157 224.787 261.724 224.822 261.3 224.908Z" fill="white"/>
<path d="M281.504 168.083C277.211 168.083 272.888 165.398 270.614 161.175C268.404 156.969 267.719 152.131 268.675 147.479C269.933 141.419 273.958 136.45 278.932 134.862C283.157 133.511 290.709 134.256 294.272 140.201C295.969 143.108 296.812 146.432 296.704 149.794C296.688 150.033 296.625 150.266 296.518 150.48C296.412 150.695 296.264 150.886 296.083 151.044C295.903 151.202 295.693 151.322 295.465 151.399C295.238 151.475 294.998 151.507 294.758 151.491C294.274 151.459 293.823 151.236 293.504 150.873C293.185 150.509 293.023 150.034 293.056 149.552C293.089 146.927 292.412 144.342 291.098 142.067C288.35 137.492 282.324 137.583 280.002 138.322C275.746 139.68 273.022 144.267 272.201 148.212C271.413 152.032 271.974 156.005 273.788 159.46C275.582 162.793 279.212 164.865 282.428 164.374C282.903 164.308 283.384 164.431 283.769 164.717C284.153 165.002 284.41 165.427 284.482 165.899C284.555 166.371 284.438 166.853 284.157 167.24C283.876 167.627 283.454 167.889 282.981 167.968C282.492 168.043 281.998 168.082 281.504 168.083Z" fill="#263238"/>
<path d="M163.746 168.083C159.448 168.083 155.131 165.398 152.857 161.175C150.645 156.969 149.957 152.131 150.911 147.479C151.975 142.364 155.575 136.474 161.247 134.85C163.983 134.112 166.882 134.258 169.528 135.268L168.215 138.662C166.311 137.94 164.228 137.828 162.257 138.34C158.074 139.552 155.35 144.17 154.511 148.212C153.723 152.032 154.283 156.005 156.098 159.46C157.891 162.799 161.527 164.865 164.737 164.374L165.291 167.968C164.78 168.047 164.263 168.085 163.746 168.083Z" fill="#263238"/>
<path d="M280.002 149.885L278.324 159.041H303.015L305.21 149.976L280.002 149.885Z" fill="#71B219"/>
<path d="M170.003 166.635C170.004 167.41 169.775 168.167 169.344 168.812C168.913 169.457 168.299 169.959 167.581 170.256C166.863 170.553 166.073 170.632 165.311 170.481C164.548 170.33 163.848 169.957 163.298 169.409C162.748 168.861 162.374 168.163 162.223 167.403C162.072 166.643 162.15 165.855 162.448 165.14C162.746 164.424 163.25 163.813 163.897 163.383C164.544 162.954 165.304 162.725 166.081 162.726C167.121 162.728 168.118 163.14 168.853 163.873C169.588 164.605 170.001 165.599 170.003 166.635Z" fill="#263238"/>
<path d="M287.657 166.635C287.658 167.41 287.429 168.167 286.998 168.812C286.567 169.457 285.953 169.959 285.235 170.256C284.518 170.553 283.727 170.632 282.965 170.481C282.202 170.33 281.502 169.957 280.952 169.409C280.403 168.861 280.028 168.163 279.877 167.403C279.726 166.643 279.804 165.855 280.102 165.14C280.4 164.424 280.904 163.813 281.551 163.383C282.198 162.954 282.958 162.725 283.736 162.726C284.775 162.728 285.772 163.14 286.507 163.873C287.242 164.605 287.656 165.599 287.657 166.635Z" fill="#263238"/>
<path d="M222.863 90.8662L216.406 115.276L194.116 117.664V121.603L225.434 122.699L231.32 95.3142L222.863 90.8662Z" fill="#FFBE9D"/>
<path d="M232.256 123.348C232.256 123.348 197.43 121.693 187.513 129.408C177.597 137.122 182.4 149.788 182.4 149.788L238.445 149.642L243.394 121.324L232.256 123.348Z" fill="#263238"/>
<path d="M238.184 142.031C238.015 142.035 237.846 142.023 237.679 141.994C237.351 141.958 236.87 141.909 236.25 141.831C235.034 141.679 233.21 141.425 231.021 141.055C225.275 140.081 219.59 138.772 213.997 137.134C210.726 136.171 207.632 135.201 204.774 134.492C202.251 133.841 199.672 133.435 197.071 133.28C195.316 133.182 193.555 133.284 191.824 133.583C191.216 133.656 190.748 133.813 190.419 133.868C190.257 133.908 190.093 133.938 189.927 133.959C190.081 133.892 190.242 133.842 190.407 133.807C190.864 133.665 191.329 133.55 191.799 133.462C193.535 133.112 195.308 132.976 197.077 133.056C199.715 133.181 202.335 133.569 204.896 134.213C207.772 134.904 210.872 135.874 214.131 136.837C219.694 138.461 225.338 139.794 231.04 140.831C233.235 141.231 235.016 141.516 236.25 141.71L237.673 141.934C237.846 141.952 238.016 141.984 238.184 142.031Z" fill="#455A64"/>
<path d="M205.814 134.304C204.846 133.509 203.815 132.794 202.731 132.165C201.595 131.635 200.418 131.198 199.211 130.856C199.585 130.824 199.963 130.861 200.324 130.965C201.213 131.156 202.072 131.466 202.877 131.886C203.682 132.309 204.426 132.837 205.09 133.456C205.382 133.692 205.627 133.979 205.814 134.304Z" fill="#455A64"/>
<path d="M235.946 198.801L236.414 213.387L233.472 225.035C233.424 225.234 233.418 225.441 233.454 225.643C233.49 225.845 233.568 226.037 233.682 226.208C233.796 226.378 233.944 226.524 234.117 226.635C234.29 226.746 234.485 226.82 234.688 226.853C234.923 226.895 235.165 226.881 235.393 226.812C235.622 226.742 235.83 226.619 236.001 226.453C238.214 224.295 246.337 216.32 246.234 215.26C246.124 214.048 246.763 199.831 246.763 199.831L235.946 198.801Z" fill="#71B219"/>
<g opacity="0.6">
<path opacity="0.6" d="M234.633 226.877L246.185 214.296V214.902C246.192 215.438 246.007 215.958 245.662 216.369C244.744 217.466 242.136 220.441 236.001 226.465C235.826 226.638 235.61 226.765 235.374 226.835C235.137 226.904 234.887 226.915 234.645 226.865L234.633 226.877Z" fill="white"/>
</g>
<g opacity="0.6">
<path opacity="0.6" d="M243.121 209.612C242.935 209.747 242.808 209.947 242.764 210.172C242.72 210.396 242.763 210.629 242.884 210.824C243.012 211.006 243.204 211.132 243.422 211.177C243.64 211.222 243.867 211.182 244.057 211.066C244.248 210.926 244.379 210.719 244.424 210.486C244.469 210.254 244.425 210.014 244.3 209.812C244.149 209.634 243.934 209.522 243.702 209.5C243.469 209.477 243.237 209.546 243.054 209.691" fill="white"/>
</g>
<path d="M237.923 220.465C237.837 220.508 237.497 219.75 236.627 219.344C236.089 219.134 235.515 219.031 234.937 219.041C234.937 219.005 235.107 218.89 235.448 218.835C235.899 218.781 236.357 218.856 236.766 219.053C237.176 219.249 237.52 219.559 237.758 219.944C237.929 220.241 237.953 220.453 237.923 220.465Z" fill="#263238"/>
<path d="M236.895 222.435C236.474 222.206 236.04 222.004 235.594 221.829C235.119 221.746 234.64 221.689 234.159 221.659C234.382 221.516 234.637 221.429 234.902 221.404C235.166 221.38 235.433 221.42 235.679 221.52C236.542 221.75 236.968 222.393 236.895 222.435Z" fill="#263238"/>
<path d="M239.838 217.932C239.217 217.524 238.566 217.162 237.892 216.848C237.18 216.631 236.453 216.469 235.716 216.363C236.481 216.203 237.277 216.266 238.008 216.544C238.739 216.822 239.374 217.304 239.838 217.932Z" fill="#263238"/>
<path d="M240.069 213.496C240.032 213.587 239.217 213.254 238.166 213.23C237.114 213.206 236.281 213.46 236.244 213.369C236.834 213.045 237.501 212.886 238.174 212.908C238.847 212.931 239.502 213.134 240.069 213.496Z" fill="#263238"/>
<path d="M240.038 209.212C239.398 209.012 238.733 208.899 238.062 208.879C237.397 208.956 236.746 209.125 236.129 209.382C236.129 209.352 236.262 209.164 236.597 208.97C237.044 208.718 237.545 208.575 238.059 208.553C238.572 208.531 239.084 208.63 239.552 208.843C239.886 209.006 240.062 209.176 240.038 209.212Z" fill="#263238"/>
<path d="M238.081 208.061C238.043 207.879 238.043 207.691 238.081 207.509C238.126 207.003 238.273 206.51 238.512 206.061C238.655 205.715 238.909 205.427 239.236 205.243C239.349 205.192 239.475 205.178 239.596 205.2C239.718 205.223 239.83 205.282 239.917 205.37C240.073 205.552 240.158 205.785 240.154 206.025C240.125 206.513 239.928 206.977 239.595 207.337C239.263 207.697 238.816 207.931 238.33 208C237.845 208.054 237.355 207.963 236.922 207.738C236.489 207.514 236.132 207.166 235.898 206.74C235.839 206.632 235.804 206.513 235.796 206.39C235.787 206.268 235.805 206.145 235.849 206.031C235.906 205.922 235.995 205.833 236.103 205.776C236.212 205.719 236.335 205.695 236.457 205.709C236.819 205.786 237.154 205.955 237.43 206.2C237.829 206.515 238.171 206.897 238.439 207.327C238.547 207.48 238.625 207.65 238.67 207.83C238.284 207.283 237.819 206.795 237.29 206.382C237.044 206.18 236.751 206.041 236.439 205.976C236.372 205.965 236.302 205.975 236.241 206.005C236.18 206.036 236.13 206.085 236.099 206.146C236.077 206.224 236.071 206.305 236.082 206.385C236.092 206.465 236.119 206.543 236.159 206.612C236.373 206.973 236.685 207.266 237.06 207.455C237.435 207.644 237.857 207.722 238.275 207.679C238.69 207.626 239.074 207.433 239.363 207.132C239.651 206.831 239.828 206.44 239.862 206.025C239.87 205.859 239.818 205.695 239.716 205.564C239.67 205.512 239.609 205.476 239.541 205.462C239.473 205.448 239.402 205.456 239.339 205.485C239.072 205.648 238.861 205.886 238.731 206.17C238.408 206.759 238.188 207.398 238.081 208.061Z" fill="#263238"/>
<path d="M243.364 121.324C243.364 121.324 228.304 149.703 228.097 154.654C227.89 159.605 228.097 205.243 228.097 205.243H251.408C252.016 205.243 255.512 184.681 254.8 179.948C254.089 175.216 251.578 149.776 251.578 149.776H264.99C264.99 149.776 268.669 145.855 268.535 140.88C268.456 138.134 266.656 132.523 264.887 129.547C263.738 127.638 256.375 117.646 256.375 117.646L243.364 121.324Z" fill="#263238"/>
<path d="M242.355 123.245C242.339 123.302 242.316 123.356 242.288 123.408C242.233 123.53 242.16 123.681 242.069 123.869L241.194 125.638C240.799 126.408 240.33 127.341 239.783 128.426L238.908 130.165L237.99 132.147L233.472 141.897C232.615 143.715 231.715 145.661 230.779 147.654L229.362 150.684C228.904 151.732 228.558 152.825 228.328 153.945C228.098 155.068 227.977 156.21 227.97 157.357C227.933 158.49 227.909 159.611 227.891 160.708C227.891 162.914 227.848 165.035 227.854 167.059C227.854 171.107 227.903 174.755 227.945 177.815C227.988 180.875 228.024 183.33 228.055 185.087C228.055 185.923 228.055 186.584 228.055 187.057C228.055 187.269 228.055 187.438 228.055 187.572C228.055 187.705 228.055 187.747 228.055 187.747C228.045 187.689 228.045 187.63 228.055 187.572C228.055 187.438 228.055 187.269 228.055 187.063C228.055 186.584 228.006 185.929 227.97 185.087C227.909 183.378 227.83 180.9 227.763 177.815C227.696 174.731 227.623 171.113 227.605 167.059C227.605 165.035 227.605 162.907 227.605 160.708C227.605 159.605 227.641 158.484 227.684 157.344C227.69 156.18 227.81 155.019 228.043 153.878C228.278 152.737 228.633 151.624 229.101 150.557L230.523 147.527L233.235 141.782L237.844 132.056L238.78 130.08C239.102 129.474 239.388 128.868 239.68 128.353L241.133 125.59C241.528 124.845 241.844 124.263 242.063 123.845C242.167 123.663 242.252 123.517 242.312 123.396C242.373 123.275 242.349 123.239 242.355 123.245Z" fill="#455A64"/>
<path d="M237.478 132.91C236.995 131.757 236.589 130.572 236.262 129.365C235.835 128.19 235.488 126.987 235.223 125.766C235.79 126.886 236.238 128.062 236.56 129.274C236.991 130.452 237.298 131.67 237.478 132.91Z" fill="#455A64"/>
<path d="M254.849 179.057C254.81 178.954 254.785 178.846 254.776 178.736C254.748 178.49 254.705 178.181 254.648 177.809C254.539 176.955 254.399 175.791 254.223 174.379C253.888 171.446 253.438 167.465 252.94 163.065C252.441 158.665 252.034 154.636 251.785 151.733C251.669 150.315 251.572 149.151 251.499 148.297C251.499 147.915 251.45 147.606 251.432 147.358C251.424 147.249 251.424 147.139 251.432 147.03C251.47 147.133 251.493 147.242 251.499 147.351C251.529 147.6 251.572 147.909 251.62 148.285C251.718 149.139 251.851 150.297 252.01 151.715C252.332 154.648 252.77 158.635 253.226 163.035C253.682 167.434 254.113 171.416 254.442 174.355C254.575 175.773 254.691 176.936 254.77 177.791C254.8 178.167 254.825 178.482 254.843 178.73C254.854 178.839 254.856 178.948 254.849 179.057Z" fill="#455A64"/>
<path d="M248.927 45.3193C248.569 42.8953 250.654 40.5622 253.062 40.2774C255.469 39.9926 257.895 41.4894 259.002 43.6771C259.517 44.7772 259.799 45.9714 259.83 47.185C259.862 48.3987 259.642 49.6057 259.184 50.7309C258.576 52.2641 257.452 53.8154 255.816 53.9366C254.18 54.0578 252.928 52.8155 251.846 51.6702" fill="#263238"/>
<path d="M231.812 57.3424C226.948 46.7192 238.5 41.3804 244.781 43.1499C250.69 44.8164 253.214 47.7494 254.186 51.6884C255.252 55.6403 255.039 59.8266 253.578 63.6509C252.812 65.5052 251.438 67.3838 249.444 67.6141" fill="#263238"/>
<path d="M248.55 49.0461C249.05 49.0977 249.513 49.3353 249.845 49.7116C250.178 50.0878 250.356 50.575 250.344 51.0762L249.207 78.1159C249.164 81.3095 244.489 83.1154 241.053 83.0426C237.594 82.9699 237.478 81.2731 237.405 78.2371C237.326 73.1649 237.326 71.256 237.326 71.2863C237.326 71.3166 232.949 70.559 232.043 64.8687C231.587 62.0387 231.733 57.3967 231.97 53.6032C232.189 50.1914 234.457 45.9979 237.874 46.3312L248.55 49.0461Z" fill="#FFBE9D"/>
<path d="M234.207 56.8395C234.204 57.0303 234.276 57.2148 234.408 57.3531C234.54 57.4914 234.721 57.5725 234.913 57.5788C235.006 57.5862 235.1 57.5749 235.189 57.5455C235.277 57.5161 235.359 57.4691 235.43 57.4075C235.5 57.3459 235.557 57.2709 235.598 57.1868C235.639 57.1028 235.662 57.0115 235.666 56.9183C235.668 56.7279 235.596 56.5443 235.464 56.4063C235.332 56.2684 235.152 56.1868 234.961 56.179C234.868 56.1715 234.774 56.1829 234.685 56.2123C234.596 56.2417 234.514 56.2886 234.444 56.3502C234.374 56.4118 234.316 56.4869 234.276 56.5709C234.235 56.655 234.212 56.7463 234.207 56.8395Z" fill="#263238"/>
<path d="M232.998 56.0212C233.089 56.1121 233.648 55.706 234.432 55.706C235.217 55.706 235.8 56.0999 235.886 56.003C235.971 55.906 235.837 55.7909 235.582 55.6091C235.24 55.3742 234.835 55.2494 234.42 55.2516C234.011 55.2476 233.612 55.3774 233.283 55.6212C233.04 55.803 232.955 55.9787 232.998 56.0212Z" fill="#263238"/>
<path d="M241.911 56.8395C241.909 57.0259 241.978 57.2061 242.104 57.3434C242.231 57.4808 242.405 57.5649 242.592 57.5788C242.685 57.5862 242.779 57.5749 242.868 57.5454C242.957 57.516 243.039 57.4691 243.109 57.4075C243.179 57.3459 243.236 57.2709 243.277 57.1868C243.318 57.1028 243.341 57.0114 243.346 56.9182C243.347 56.7279 243.275 56.5443 243.143 56.4063C243.011 56.2683 242.831 56.1868 242.64 56.1789C242.456 56.1707 242.276 56.2355 242.139 56.3593C242.002 56.483 241.92 56.6556 241.911 56.8395Z" fill="#263238"/>
<path d="M240.768 56.1667C240.859 56.2576 241.412 55.8515 242.197 55.8515C242.981 55.8515 243.565 56.2454 243.65 56.1545C243.735 56.0636 243.601 55.9364 243.346 55.7546C243.005 55.5186 242.599 55.3937 242.184 55.397C241.776 55.397 241.378 55.5264 241.048 55.7667C240.768 55.9485 240.701 56.1303 240.768 56.1667Z" fill="#263238"/>
<path d="M237.886 61.9903C237.472 61.8629 237.043 61.7856 236.61 61.76C236.409 61.76 236.214 61.6994 236.184 61.5661C236.165 61.3552 236.212 61.1436 236.318 60.9601C236.506 60.4753 236.701 59.9663 236.926 59.433C237.477 58.1392 237.924 56.8038 238.263 55.4395C237.605 56.685 237.05 57.9821 236.604 59.3179L236.032 60.8571C235.906 61.0996 235.87 61.3783 235.929 61.6449C235.959 61.7153 236.005 61.7781 236.062 61.8284C236.12 61.8788 236.189 61.9155 236.263 61.9358C236.374 61.9651 236.489 61.9814 236.604 61.9843C237.029 62.0391 237.46 62.0412 237.886 61.9903Z" fill="#263238"/>
<path d="M237.345 71.2806C240.044 71.3296 242.703 70.6265 245.024 69.2505C245.024 69.2505 243.163 73.1652 237.448 72.632L237.345 71.2806Z" fill="#EB996E"/>
<path d="M238.22 63.8809C238.371 63.6941 238.566 63.5484 238.788 63.4573C239.01 63.3661 239.252 63.3326 239.491 63.3597C239.666 63.3743 239.836 63.4243 239.99 63.5066C240.145 63.5889 240.281 63.7018 240.391 63.8385C240.495 63.9692 240.557 64.1287 240.568 64.2956C240.579 64.4624 240.538 64.6286 240.451 64.7717C240.325 64.9134 240.159 65.014 239.975 65.0604C239.791 65.1069 239.597 65.0971 239.418 65.0323C239.044 64.9009 238.7 64.6947 238.409 64.4263C238.32 64.3637 238.244 64.2856 238.184 64.196C238.155 64.1527 238.14 64.1022 238.14 64.0506C238.14 63.9989 238.155 63.9484 238.184 63.9051" fill="#EB996E"/>
<path d="M240.209 62.5358C240.081 62.5358 240.075 63.3781 239.346 63.9841C238.616 64.5901 237.704 64.4932 237.698 64.5901C237.692 64.6871 237.898 64.7537 238.306 64.7659C238.808 64.7716 239.296 64.6022 239.686 64.2871C240.056 63.9834 240.296 63.5496 240.355 63.0751C240.361 62.7418 240.264 62.5297 240.209 62.5358Z" fill="#263238"/>
<path d="M240.391 54.791C240.47 55.0031 241.26 54.9001 242.184 55.0152C243.109 55.1304 243.856 55.3728 243.978 55.1849C244.033 55.094 243.899 54.894 243.601 54.6819C243.2 54.4251 242.744 54.2672 242.269 54.2214C241.797 54.1626 241.317 54.2187 240.871 54.385C240.531 54.5183 240.36 54.688 240.391 54.791Z" fill="#263238"/>
<path d="M233.289 53.7426C233.429 53.9244 233.97 53.7426 234.627 53.7426C235.284 53.7426 235.843 53.8638 235.959 53.6759C236.013 53.585 235.959 53.4033 235.685 53.2396C235.365 53.0297 234.986 52.9258 234.603 52.9427C234.22 52.9506 233.848 53.0754 233.539 53.3002C233.308 53.476 233.229 53.6578 233.289 53.7426Z" fill="#263238"/>
<path d="M240.726 44.4647C238.788 44.5632 236.906 45.1468 235.254 46.1615C234.328 46.64 233.505 47.2957 232.833 48.0911C232.161 48.8866 231.653 49.8062 231.338 50.7974C231.258 51.0035 231.221 51.2238 231.23 51.4447C231.238 51.6656 231.291 51.8825 231.387 52.0821C231.568 52.3103 231.823 52.4685 232.108 52.5294C232.393 52.5902 232.691 52.5499 232.949 52.4154C233.465 52.1361 233.904 51.7344 234.226 51.2458C234.355 51.7801 234.662 52.255 235.096 52.5927C235.531 52.9304 236.068 53.1108 236.619 53.1045C237.17 53.0981 237.703 52.9054 238.13 52.5578C238.557 52.2102 238.853 51.7283 238.969 51.1913C239.012 51.7372 239.265 52.2454 239.675 52.61C240.085 52.9746 240.62 53.1675 241.17 53.1487C241.718 53.1014 242.24 52.8955 242.672 52.5564C243.104 52.2172 243.427 51.7596 243.602 51.2398C243.736 52.2251 244.078 53.1711 244.605 54.0152C244.875 54.4342 245.268 54.7602 245.73 54.9489C246.192 55.1375 246.702 55.1797 247.189 55.0697C246.985 55.9075 246.997 56.7832 247.225 57.6149C247.529 58.4148 248.739 72.1043 249.554 71.8256C250.369 71.5468 250.338 57.5846 250.521 56.7725C250.925 55.2149 251.129 53.6123 251.129 52.0033C251.183 50.3458 250.644 48.723 249.608 47.4251C248.572 46.1273 247.107 45.239 245.474 44.9192C243.844 44.5465 242.172 44.3936 240.501 44.4647" fill="#263238"/>
<path d="M252.168 69.3956C252.168 69.3956 252.113 69.432 251.992 69.4744C251.821 69.5367 251.643 69.5794 251.463 69.6017C250.617 69.7087 249.758 69.5741 248.987 69.2136C248.215 68.8531 247.562 68.2816 247.103 67.5655C246.482 66.4867 246.22 65.2389 246.355 64.0022C246.447 62.6993 246.751 61.5116 246.89 60.4208C247.028 59.4524 247.113 58.4773 247.146 57.4998C247.146 56.6636 247.146 55.9909 247.146 55.5182C247.12 55.2765 247.12 55.0327 247.146 54.791C247.218 55.0294 247.261 55.2756 247.273 55.5243C247.34 56.1868 247.372 56.8522 247.371 57.518C247.37 58.5047 247.307 59.4904 247.182 60.4692C247.049 61.5843 246.763 62.7781 246.672 64.0325C246.542 65.2067 246.779 66.3921 247.353 67.4261C247.852 68.2493 248.621 68.8762 249.529 69.2017C250.139 69.4337 250.792 69.5329 251.444 69.4926C251.913 69.4623 252.162 69.3653 252.168 69.3956Z" fill="#263238"/>
<path d="M238.713 43.7314C238.934 44.1464 239.037 44.6137 239.01 45.0828C239.032 46.2311 238.596 47.3411 237.798 48.1701C237.001 48.9991 235.906 49.4796 234.754 49.5066C234.287 49.5513 233.816 49.4675 233.393 49.2642C233.393 49.2097 233.915 49.3551 234.742 49.2642C235.823 49.1911 236.838 48.7201 237.589 47.9429C238.341 47.1656 238.776 46.1376 238.81 45.0586C238.828 44.2526 238.658 43.7436 238.713 43.7314Z" fill="#455A64"/>
<path d="M239.552 50.4339C239.582 50.4339 239.509 50.8217 239.072 51.2459C238.781 51.5064 238.44 51.7056 238.071 51.8316C237.701 51.9576 237.309 52.0078 236.919 51.9792C236.155 51.9112 235.419 51.6596 234.773 51.2459C234.281 50.9368 234.013 50.7005 234.037 50.6399C234.332 50.7323 234.614 50.8605 234.876 51.0217C235.518 51.354 236.218 51.5598 236.938 51.6277C237.652 51.6697 238.357 51.4546 238.926 51.0217C239.37 50.7429 239.515 50.4096 239.552 50.4339Z" fill="#455A64"/>
<path d="M253.323 48.6948C253.364 49.2165 253.327 49.7413 253.214 50.2522C253.042 51.518 252.562 52.7226 251.815 53.761C251.426 54.2759 250.934 54.706 250.372 55.0249C249.809 55.3438 249.187 55.5447 248.544 55.6153C248.153 55.6504 247.759 55.6113 247.383 55.5002C247.121 55.4214 246.994 55.3426 247 55.3245C247.501 55.4139 248.012 55.4363 248.52 55.3911C249.729 55.1954 250.817 54.5447 251.56 53.5731C252.272 52.5691 252.759 51.4241 252.989 50.2159C253.069 49.7025 253.18 49.1945 253.323 48.6948Z" fill="#455A64"/>
<path d="M254.369 51.4521C254.425 51.6079 254.456 51.7716 254.46 51.937C254.501 52.3781 254.511 52.8215 254.491 53.2641C254.459 54.7553 253.923 56.1921 252.971 57.3425C252.433 57.9749 251.733 58.4503 250.946 58.7181C250.301 58.9286 249.612 58.9703 248.946 58.8393C248.498 58.7541 248.074 58.5766 247.699 58.3181C247.444 58.1303 247.334 57.9909 247.347 57.9788C247.846 58.2951 248.401 58.5132 248.982 58.6211C249.609 58.711 250.249 58.6507 250.849 58.4454C251.579 58.1768 252.228 57.7261 252.733 57.1364C253.636 56.0287 254.174 54.6698 254.272 53.2459C254.369 52.149 254.314 51.4582 254.369 51.4521Z" fill="#455A64"/>
<path d="M174.228 124.699L163.193 149.855H178.387L189.21 124.5L174.228 124.699Z" fill="#455A64"/>
<path d="M166.202 97.9442L178.648 122.342H217.901L216.314 119.154L204.944 118.815L195.672 98.2472C195.391 97.6206 194.933 97.0886 194.355 96.7155C193.776 96.3423 193.102 96.144 192.413 96.1443H167.309C167.094 96.1366 166.88 96.1861 166.69 96.2877C166.501 96.3892 166.341 96.5392 166.229 96.7223C166.116 96.9054 166.054 97.115 166.05 97.3297C166.045 97.5444 166.098 97.7564 166.202 97.9442Z" fill="#E0E0E0"/>
<path d="M185.86 108.883C185.86 109.179 185.771 109.468 185.606 109.714C185.441 109.96 185.207 110.152 184.932 110.265C184.658 110.379 184.356 110.408 184.065 110.351C183.773 110.293 183.506 110.15 183.296 109.941C183.086 109.732 182.943 109.465 182.885 109.175C182.827 108.884 182.857 108.583 182.97 108.31C183.084 108.036 183.276 107.802 183.523 107.638C183.77 107.474 184.061 107.386 184.358 107.386C184.756 107.387 185.137 107.546 185.418 107.826C185.699 108.106 185.858 108.486 185.86 108.883Z" fill="#263238"/>
<path d="M222.084 122.391H174.101V124.724H222.084V122.391Z" fill="#455A64"/>
<path d="M207.303 123.56L221.901 149.879H228.881L230.401 146.867L231.8 143.697L222.084 124.724L207.303 123.56Z" fill="#455A64"/>
<path d="M232.669 78.437C232.669 78.437 224.194 81.4125 222.37 90.8661L231.32 95.3141L232.669 78.437Z" fill="#71B219"/>
<path d="M232.67 78.4373C232.67 78.4373 226.742 91.6845 226.967 98.9201C227.046 101.435 228.699 108.01 228.699 108.01L231.782 124.287C231.782 124.287 255.378 121.106 255.901 121.106C256.424 121.106 255.111 107.743 255.111 107.743L258.96 82.0673C258.96 82.0673 257.196 78.5706 249.232 77.3586C244.459 76.6133 232.67 78.4373 232.67 78.4373Z" fill="#71B219"/>
<path d="M230.432 86.1274C230.487 86.1577 229.866 87.1455 229.119 88.8544C228.685 89.855 228.319 90.8835 228.024 91.9329C227.669 93.2188 227.411 94.5294 227.252 95.8537C227.112 97.1801 227.069 98.5148 227.124 99.8473C227.18 100.935 227.307 102.018 227.507 103.089C227.848 104.907 228.237 106.022 228.176 106.041C228.049 105.799 227.947 105.545 227.872 105.283C227.764 104.983 227.67 104.678 227.592 104.368C227.495 104.004 227.368 103.598 227.282 103.156C227.054 102.077 226.904 100.984 226.832 99.8836C226.76 98.5337 226.794 97.1801 226.936 95.8356C227.098 94.4929 227.368 93.1655 227.744 91.8663C228.057 90.81 228.449 89.7789 228.918 88.7817C229.089 88.3944 229.279 88.0162 229.489 87.6485C229.635 87.3635 229.795 87.0864 229.97 86.8183C230.1 86.573 230.255 86.3415 230.432 86.1274Z" fill="#263238"/>
<path d="M235.539 78.316L235.88 74.68C235.917 74.3021 236.092 73.9512 236.373 73.6941C236.653 73.437 237.019 73.2918 237.4 73.2862L249.043 73.1104C249.396 73.1063 249.737 73.2361 249.998 73.4735C250.259 73.7109 250.419 74.0382 250.447 74.3891L250.745 78.3099C249.77 80.3691 248.122 82.0361 246.07 83.0367C242.647 84.6911 237.327 84.7456 237.327 84.7456L235.539 78.316Z" fill="#71B219"/>
<path d="M238.585 73.3165C238.622 73.3165 238.452 73.5529 238.379 73.9225C238.313 74.4578 238.313 74.9992 238.379 75.5345C238.481 76.3149 238.481 77.1053 238.379 77.8857C238.169 77.1256 238.063 76.3409 238.063 75.5527C237.981 74.9915 238.006 74.4201 238.135 73.868C238.336 73.4498 238.567 73.2862 238.585 73.3165Z" fill="#263238"/>
<path d="M241.376 77.813C241.172 77.0708 241.074 76.3038 241.084 75.5344C241.039 74.99 241.039 74.4427 241.084 73.8982C241.145 73.4619 241.321 73.2377 241.358 73.2922C241.394 73.3468 241.303 73.5468 241.309 73.9467C241.315 74.3467 241.376 74.9163 241.376 75.5223C241.478 76.2825 241.478 77.0529 241.376 77.813Z" fill="#263238"/>
<path d="M244.872 77.7161C244.621 77.009 244.467 76.2709 244.416 75.5224C244.266 74.7809 244.219 74.0223 244.276 73.2681C244.531 73.9807 244.684 74.7252 244.732 75.48C244.88 76.2156 244.927 76.9679 244.872 77.7161Z" fill="#263238"/>
<path d="M247.888 77.9465C247.61 77.1677 247.462 76.3489 247.45 75.5225C247.333 74.6986 247.354 73.8612 247.511 73.0439C247.67 73.8425 247.756 74.6539 247.766 75.4679C247.884 76.2885 247.925 77.1183 247.888 77.9465Z" fill="#263238"/>
<g opacity="0.3">
<path opacity="0.3" d="M250.198 91.8296C249.73 95.908 250.04 102.938 251.487 106.786L258.284 95.5928L250.198 91.8296Z" fill="black"/>
</g>
<path d="M258.327 81.2246L258.363 81.261C260.291 83.2776 261.701 85.7288 262.473 88.4057L263.726 94.096L250.35 96.1564C249.613 93.7428 249.439 91.1936 249.839 88.7026C250.496 84.4122 258.327 81.2246 258.327 81.2246Z" fill="#71B219"/>
<path d="M263.726 94.0962C263.639 94.1267 263.55 94.149 263.459 94.1628L262.692 94.3022L259.829 94.7688L250.137 96.2354H249.967V96.0596C249.937 95.2536 249.912 94.4174 249.894 93.5568C249.864 91.3207 249.894 89.1815 250.028 87.2363C250.121 85.4931 250.656 83.8019 251.584 82.3216C252.208 81.3259 253.063 80.4945 254.077 79.8976C254.351 79.7356 254.64 79.6016 254.94 79.4976C255.041 79.4517 255.147 79.4211 255.257 79.4067C255.257 79.4067 254.831 79.5704 254.138 80.0127C253.173 80.6288 252.364 81.4583 251.773 82.4367C250.892 83.9078 250.391 85.5734 250.314 87.2847C250.174 89.2118 250.18 91.3449 250.216 93.5811C250.216 94.4295 250.259 95.2718 250.277 96.0717L250.101 95.9202L259.829 94.5567L262.705 94.1871L263.483 94.0962C263.564 94.0857 263.645 94.0857 263.726 94.0962Z" fill="#263238"/>
<path d="M235.472 85.7396C234.792 85.3445 234.166 84.8616 233.612 84.3034C232.987 83.823 232.431 83.2603 231.958 82.6309C233.264 83.5062 234.445 84.5518 235.472 85.7396Z" fill="#FAFAFA"/>
<path d="M233.666 92.751C233.189 93.2392 232.637 93.6483 232.031 93.963C231.474 94.3651 230.859 94.6798 230.207 94.8962C231.239 94.0123 232.401 93.2927 233.654 92.7631L233.666 92.751Z" fill="#FAFAFA"/>
<path d="M241.127 94.4781C241.018 93.6169 241.018 92.7456 241.127 91.8844C241.131 91.0185 241.237 90.1562 241.443 89.3149C241.549 90.1742 241.549 91.0433 241.443 91.9026C241.441 92.7705 241.334 93.6352 241.127 94.4781Z" fill="#FAFAFA"/>
<path d="M248.38 101.49C247.775 100.923 247.21 100.316 246.69 99.6715C246.092 99.1038 245.533 98.4964 245.018 97.8535C245.747 98.2755 246.393 98.8281 246.921 99.4836C247.522 100.061 248.017 100.74 248.38 101.49Z" fill="#FAFAFA"/>
<path d="M249.402 86.8301C248.88 87.3711 248.284 87.8362 247.632 88.2118C247.035 88.6698 246.379 89.0449 245.681 89.3268C246.204 88.7849 246.802 88.3197 247.456 87.9451C248.052 87.4895 248.706 87.1145 249.402 86.8301Z" fill="#FAFAFA"/>
<path d="M242.848 81.5278C242.271 82.0873 241.62 82.5663 240.914 82.9519C240.267 83.4296 239.56 83.8208 238.811 84.1154C239.388 83.5551 240.038 83.0741 240.744 82.6853C241.394 82.2135 242.101 81.8247 242.848 81.5278Z" fill="#FAFAFA"/>
<path d="M248.757 83.6368C248.358 83.0502 248.047 82.4093 247.833 81.734C247.533 81.0919 247.329 80.4102 247.225 79.71C247.628 80.296 247.939 80.9396 248.149 81.6189C248.452 82.2574 248.656 82.9377 248.757 83.6368Z" fill="#FAFAFA"/>
<path d="M256.886 86.2969C255.914 85.6249 255.07 84.7856 254.393 83.8184C254.908 84.1117 255.367 84.4933 255.749 84.9455C256.207 85.3236 256.592 85.7815 256.886 86.2969Z" fill="#FAFAFA"/>
<path d="M253.536 92.2057C253.343 91.6071 253.255 90.9798 253.275 90.3513C253.184 89.7307 253.203 89.0991 253.329 88.4849C253.609 89.7046 253.679 90.9627 253.536 92.2057Z" fill="#FAFAFA"/>
<path d="M260.291 90.9815C259.583 91.0939 258.861 91.0692 258.163 90.9088C257.45 90.8507 256.755 90.6595 256.114 90.3452C256.82 90.3526 257.524 90.438 258.211 90.5997C258.916 90.6528 259.613 90.7808 260.291 90.9815Z" fill="#FAFAFA"/>
<path d="M233.053 103.192C232.557 102.508 232.148 101.765 231.837 100.98C231.429 100.24 231.115 99.4523 230.9 98.6353C231.396 99.3194 231.805 100.062 232.116 100.847C232.525 101.587 232.84 102.375 233.053 103.192Z" fill="#FAFAFA"/>
<path d="M241.984 112.755C241.413 112.237 240.915 111.644 240.506 110.991C240.018 110.396 239.609 109.74 239.29 109.04C239.863 109.558 240.362 110.151 240.774 110.804C241.265 111.396 241.672 112.052 241.984 112.755Z" fill="#FAFAFA"/>
<path d="M249.365 108.743C248.739 109.15 248.06 109.468 247.346 109.689C246.67 110.007 245.951 110.225 245.212 110.337C246.513 109.61 247.911 109.074 249.365 108.743Z" fill="#FAFAFA"/>
<path d="M231.18 116.488C231.472 115.344 231.964 114.261 232.633 113.288C232.53 113.875 232.324 114.439 232.025 114.955C231.836 115.511 231.549 116.03 231.18 116.488Z" fill="#FAFAFA"/>
<path d="M225.458 89.103C225.107 88.6591 224.895 88.1214 224.85 87.5577C224.707 87.0115 224.733 86.4349 224.923 85.9033C225.049 86.429 225.13 86.9641 225.167 87.5032C225.307 88.0277 225.405 88.5627 225.458 89.103Z" fill="#FAFAFA"/>
<path d="M235.618 110.355C234.969 110.185 234.353 109.908 233.794 109.537C233.188 109.263 232.63 108.895 232.14 108.446C232.788 108.62 233.404 108.896 233.964 109.264C234.567 109.543 235.125 109.911 235.618 110.355Z" fill="#FAFAFA"/>
<path d="M241.486 100.259C240.489 101.449 239.33 102.496 238.044 103.368C238.506 102.741 239.05 102.178 239.662 101.695C240.201 101.136 240.815 100.653 241.486 100.259Z" fill="#FAFAFA"/>
<g opacity="0.3">
<path opacity="0.3" d="M237.892 100.071C238.187 102.184 239.132 104.153 240.598 105.707C242.118 107.186 244.471 107.931 246.447 107.162C246.663 107.102 246.861 106.992 247.025 106.84C247.189 106.688 247.314 106.499 247.389 106.289C247.423 106.03 247.365 105.768 247.227 105.547C247.088 105.326 246.877 105.16 246.629 105.077C246.137 104.919 245.621 104.845 245.103 104.859C243.629 104.762 242.204 104.292 240.963 103.492C239.722 102.693 238.707 101.59 238.014 100.289" fill="black"/>
</g>
<path d="M245.796 104.956C245.796 104.956 245.656 105.004 245.389 105.029C245.013 105.067 244.634 105.067 244.258 105.029C243.7 104.963 243.151 104.833 242.623 104.641C241.319 104.174 240.162 103.373 239.266 102.32C238.903 101.893 238.591 101.425 238.336 100.926C238.157 100.594 238.016 100.242 237.917 99.8777C237.868 99.7477 237.841 99.6105 237.838 99.4717C237.898 99.4717 238.063 100.017 238.531 100.817C238.805 101.284 239.124 101.722 239.485 102.126C239.932 102.617 240.432 103.058 240.975 103.441C241.524 103.812 242.111 104.122 242.726 104.368C243.231 104.566 243.754 104.712 244.288 104.804C245.207 104.938 245.796 104.895 245.796 104.956Z" fill="#263238"/>
<path d="M212.326 114.724L221.129 113.7L227.337 117.754L251.049 112.082L251.608 95.89L262.145 94.5083V114.112C262.086 116.492 261.083 118.752 259.355 120.396C257.627 122.039 255.316 122.933 252.928 122.881L218.174 121.918L216.697 118.973L209.237 118.748L212.326 114.724Z" fill="#FFBE9D"/>
<path d="M250.769 112.052C250.623 112.11 250.473 112.157 250.319 112.192L249.03 112.525L244.27 113.701L228.535 117.5L227.069 117.852H227.009H226.96L220.758 113.785H220.843L212.033 114.803L212.094 114.767L209.76 117.718L209.152 118.494C209.084 118.587 209.007 118.672 208.921 118.749C208.977 118.65 209.04 118.554 209.109 118.464L209.717 117.664L211.979 114.67H212.015L220.813 113.573H220.862H220.898L227.112 117.621H227.002L228.468 117.27L244.221 113.549L249.006 112.452L250.307 112.167C250.458 112.117 250.612 112.079 250.769 112.052Z" fill="#EB996E"/>
<path d="M217.135 117.239C215.999 117.372 214.855 117.416 213.712 117.373H213.104L213.189 117.342C212.501 117.973 211.759 118.54 210.97 119.039C211.597 118.35 212.28 117.713 213.013 117.136L213.049 117.1H213.724C214.863 117.053 216.004 117.1 217.135 117.239Z" fill="#EB996E"/>
<path d="M255.141 114.7C254.688 113.987 254.099 113.37 253.408 112.882C252.675 112.469 251.867 112.206 251.031 112.106C251.277 112.021 251.54 112.001 251.797 112.046C252.418 112.111 253.015 112.318 253.542 112.652C254.07 112.985 254.513 113.435 254.837 113.967C255.001 114.18 255.106 114.433 255.141 114.7Z" fill="#EB996E"/>
<path d="M103.086 244.154H63.384V249.59H103.086V244.154Z" fill="#263238"/>
<path d="M103.154 249.663H63.3176V244.087H103.154V249.663ZM63.4514 249.523H103.02V244.221H63.4514V249.523Z" fill="#263238"/>
<path d="M67.069 247.784L72.7782 275.884H93.9244L99.4511 249.596L67.069 247.784Z" fill="#263238"/>
<path d="M67.069 273.224L70.1151 277.405H95.8153L99.4511 273.224H67.069Z" fill="#455A64"/>
<path d="M81.7458 248.602C81.6667 248.602 81.5695 235.585 81.5208 219.514C81.4722 203.443 81.5208 190.426 81.5816 190.426C81.6424 190.426 81.758 203.443 81.8066 219.514C81.8552 235.585 81.8248 248.602 81.7458 248.602Z" fill="#263238"/>
<path d="M90.5922 216.023C90.5657 216.128 90.5291 216.229 90.4828 216.326C90.3916 216.551 90.27 216.829 90.1301 217.169C90.0511 217.357 89.966 217.557 89.8687 217.775C89.7714 217.993 89.6984 218.254 89.6072 218.514L89.2972 219.362C89.1938 219.665 89.1087 219.968 89.0053 220.332C88.5336 221.923 88.162 223.543 87.8927 225.18C87.5876 227.189 87.3846 229.211 87.2847 231.24C87.1411 234.932 87.2468 238.628 87.6008 242.306C87.7285 243.724 87.8562 244.863 87.9535 245.651C87.99 246.02 88.0264 246.323 88.0508 246.56C88.059 246.667 88.059 246.774 88.0508 246.881C88.0124 246.78 87.9879 246.674 87.9778 246.566C87.9352 246.329 87.8866 246.033 87.8258 245.669C87.6981 244.881 87.534 243.742 87.382 242.33C86.9685 238.645 86.8364 234.933 86.9868 231.228C87.0769 229.188 87.2799 227.155 87.5948 225.138C87.876 223.497 88.27 221.877 88.7743 220.29C88.8837 219.95 88.9749 219.623 89.0844 219.326L89.4127 218.478L89.7045 217.744C89.8018 217.52 89.8991 217.326 89.9842 217.138L90.3916 216.314C90.4425 216.207 90.5102 216.109 90.5922 216.023Z" fill="#263238"/>
<path d="M89.5772 205.497C89.5435 205.643 89.5009 205.787 89.4495 205.927C89.3461 206.224 89.2063 206.63 89.036 207.139L88.732 208.012C88.6348 208.339 88.5253 208.691 88.4098 209.066C88.1788 209.818 87.9112 210.672 87.6741 211.636L87.2728 213.145C87.1512 213.672 87.0296 214.223 86.902 214.787C86.6223 215.92 86.4216 217.15 86.1663 218.423C85.7285 221.005 85.3455 223.877 85.078 226.877C84.8104 229.876 84.7192 232.779 84.6828 235.403C84.6463 238.027 84.6828 240.391 84.8165 242.372C84.8469 243.366 84.9138 244.257 84.9624 245.045C85.0111 245.832 85.0597 246.511 85.1084 247.063C85.157 247.614 85.1813 248.02 85.2056 248.341C85.2138 248.489 85.2138 248.636 85.2056 248.784C85.1666 248.641 85.1421 248.495 85.1327 248.347C85.0962 248.026 85.0476 247.608 84.9807 247.075C84.9138 246.541 84.8469 245.863 84.7861 245.057C84.7253 244.251 84.6463 243.378 84.5976 242.384C84.4639 240.397 84.4092 238.033 84.4031 235.403C84.397 232.773 84.5247 229.883 84.78 226.859C85.0354 223.835 85.4428 220.968 85.8927 218.375C86.1541 217.084 86.3669 215.854 86.6527 214.739C86.7864 214.169 86.9202 213.617 87.0418 213.09L87.4613 211.587C87.7106 210.624 87.9964 209.769 88.2456 209.018C88.3672 208.642 88.4828 208.297 88.5861 207.97C88.6895 207.642 88.8111 207.364 88.9144 207.103L89.3765 205.891C89.4283 205.753 89.4956 205.62 89.5772 205.497Z" fill="#263238"/>
<path d="M79.2347 250.905C79.2284 250.855 79.2284 250.804 79.2347 250.753C79.2347 250.638 79.2347 250.493 79.1982 250.305C79.1678 249.893 79.1314 249.317 79.0827 248.584C78.9854 247.063 78.8517 244.906 78.6814 242.239C78.341 236.888 77.8424 229.513 76.9365 221.362C76.4744 217.29 75.9393 213.43 75.38 209.927C75.0881 208.182 74.8206 206.522 74.5105 204.97C74.2005 203.419 73.9025 201.983 73.6593 200.668C73.4161 199.353 73.1061 198.177 72.8689 197.141C72.6318 196.104 72.419 195.208 72.2609 194.48C72.1029 193.753 71.9509 193.208 71.8475 192.802C71.811 192.626 71.7745 192.481 71.7502 192.365C71.7408 192.315 71.7408 192.264 71.7502 192.214C71.7753 192.26 71.7937 192.308 71.8049 192.359L71.9265 192.79C72.0421 193.19 72.1941 193.747 72.3947 194.456C72.5953 195.165 72.8325 196.062 73.0817 197.104C73.331 198.147 73.635 199.316 73.9086 200.631C74.1822 201.946 74.5166 203.376 74.7963 204.928C75.076 206.479 75.4043 208.14 75.6961 209.891C76.2677 213.394 76.8088 217.26 77.2709 221.326C78.1768 229.471 78.6449 236.87 78.9368 242.227C79.0827 244.912 79.1861 247.075 79.2469 248.578C79.2469 249.311 79.2955 249.887 79.3077 250.305C79.3077 250.487 79.3077 250.638 79.3077 250.753C79.2911 250.807 79.2665 250.858 79.2347 250.905Z" fill="#263238"/>
<path d="M81.4235 196.722C81.2471 194.904 79.3806 193.486 77.5201 193.468C76.5895 193.509 75.6805 193.761 74.862 194.204C74.0435 194.647 73.3369 195.27 72.7959 196.026C71.7258 197.547 70.9523 199.255 70.5159 201.061C69.2635 205.406 68.5825 209.97 69.1175 214.46C69.6526 218.951 71.4766 223.368 74.7111 226.538C75.234 227.059 75.9271 227.574 76.6385 227.416C77.0234 227.304 77.3731 227.096 77.6539 226.81C80.8197 223.921 83.3289 220.391 85.013 216.456C86.6972 212.52 87.5173 208.272 87.4183 203.994C87.3697 202.292 87.1447 200.51 86.2023 199.092C85.2599 197.674 83.0407 196.159 81.4295 196.729" fill="#71B219"/>
<path d="M67.543 181.936L64.9286 186.663C64.8678 186.772 64.7888 186.899 64.6611 186.905C64.5334 186.911 64.4179 186.79 64.3449 186.675L57.4259 176.118L59.0189 175.215L67.543 181.936Z" fill="#71B219"/>
<g opacity="0.2">
<path opacity="0.2" d="M67.543 181.936L64.9286 186.663C64.8678 186.772 64.7888 186.899 64.6611 186.905C64.5334 186.911 64.4179 186.79 64.3449 186.675L57.4259 176.118L59.0189 175.215L67.543 181.936Z" fill="black"/>
</g>
<path d="M81.582 190.45L57.9794 176.567C57.8451 176.515 57.7222 176.438 57.6179 176.339C57.5136 176.24 57.4298 176.122 57.3714 175.991C57.2802 175.646 57.5417 175.306 57.7909 175.046C59.415 173.368 61.3823 172.059 63.5592 171.207C65.7362 170.355 68.0716 169.979 70.4069 170.107C72.7413 170.274 74.9997 171.006 76.9869 172.238C78.9742 173.47 80.6306 175.166 81.813 177.179C84.0869 181.233 84.166 186.602 81.5516 190.45" fill="#71B219"/>
<path d="M61.408 172.137C61.5089 172.109 61.6135 172.097 61.7181 172.101C61.9187 172.101 62.2227 172.052 62.6118 172.058C63.7077 172.044 64.8026 172.129 65.8829 172.313C67.4923 172.588 69.0609 173.062 70.5523 173.725C73.1264 174.879 75.4124 176.587 77.2466 178.725C79.0809 180.863 80.4179 183.379 81.1619 186.093C81.4665 187.146 81.6701 188.226 81.7699 189.317C81.8186 189.699 81.8064 190.002 81.8186 190.208C81.8291 190.311 81.8291 190.414 81.8186 190.517C81.8186 190.517 81.7639 190.093 81.6666 189.305C81.5319 188.229 81.3103 187.165 81.0038 186.124C80.0141 182.669 78.0727 179.561 75.3999 177.151C72.7271 174.74 69.4301 173.125 65.8829 172.489C64.8139 172.286 63.7301 172.17 62.6422 172.143C61.8093 172.149 61.408 172.161 61.408 172.137Z" fill="#263238"/>
<path d="M78.3832 180.869C78.0028 181.1 77.5941 181.281 77.1672 181.408C76.4133 181.705 75.3432 182.081 74.188 182.457C73.0328 182.833 71.9384 183.123 71.148 183.317C70.7286 183.445 70.2963 183.526 69.8591 183.56C70.248 183.372 70.6555 183.226 71.0751 183.123L74.0786 182.184L77.076 181.221C77.499 181.061 77.9369 180.943 78.3832 180.869Z" fill="#263238"/>
<path d="M74.6684 170.919C74.8796 171.777 74.9737 172.66 74.948 173.543C75.0175 174.424 74.9684 175.311 74.8021 176.179C74.6881 175.307 74.6434 174.428 74.6684 173.549C74.5989 172.674 74.5989 171.794 74.6684 170.919Z" fill="#263238"/>
<path d="M57.76 176.306C58.3122 176.054 58.886 175.851 59.4746 175.7C60.5446 175.367 62.0403 174.949 63.7306 174.549C65.4208 174.149 66.9165 173.846 67.9866 173.652C68.5863 173.519 69.1966 173.437 69.8106 173.41C69.2334 173.595 68.6443 173.74 68.0474 173.846C66.953 174.088 65.4451 174.452 63.7914 174.828C62.1376 175.203 60.6358 175.609 59.5354 175.888C58.9535 176.067 58.3604 176.206 57.76 176.306Z" fill="#263238"/>
<path d="M70.6985 192.347C68.6677 190.814 66.5215 190.529 63.974 190.608C61.4261 190.77 58.9309 191.405 56.6172 192.481C52.6348 194.214 48.8956 196.777 46.5183 200.401C44.141 204.025 43.3081 208.824 45.0895 212.776C45.2297 213.189 45.5175 213.536 45.8981 213.751C46.3403 213.874 46.8118 213.838 47.2297 213.648C51.7593 212.176 56.3132 210.691 60.478 208.388C64.6428 206.085 68.4306 202.88 70.662 198.692C71.2334 197.715 71.6015 196.633 71.7442 195.511C71.8051 194.943 71.7439 194.369 71.5646 193.826C71.3853 193.284 71.0921 192.786 70.7045 192.365" fill="#71B219"/>
<path d="M70.7351 191.875C70.6337 191.932 70.5255 191.977 70.4129 192.008L69.4644 192.335L68.7774 192.559C68.5281 192.65 68.2606 192.759 67.9748 192.874C67.4033 193.105 66.7588 193.335 66.0353 193.674L64.9287 194.177C64.5396 194.353 64.1566 194.571 63.7492 194.783C62.9284 195.183 62.1015 195.698 61.2138 196.22C57.4224 198.562 54.0485 201.517 51.2305 204.964C50.6225 205.77 49.9841 206.528 49.4794 207.291C49.218 207.667 48.9566 208.018 48.7255 208.376L48.1175 209.406C47.6919 210.055 47.3758 210.685 47.0718 211.224C46.9258 211.491 46.7799 211.739 46.6583 211.976C46.5367 212.212 46.4395 212.424 46.3483 212.624L45.8983 213.521C45.8559 213.629 45.7987 213.731 45.7281 213.824C45.7577 213.711 45.7984 213.601 45.8497 213.497L46.2449 212.575C46.3361 212.375 46.4334 212.157 46.5367 211.915C46.6401 211.673 46.7921 211.424 46.9319 211.151C47.2238 210.6 47.5399 209.939 47.9412 209.303C48.1479 208.97 48.3546 208.618 48.5492 208.255C48.7438 207.891 49.0356 207.54 49.291 207.158C49.7895 206.382 50.4036 205.619 51.0298 204.8C52.4469 203.064 54.0001 201.443 55.675 199.952C57.3684 198.486 59.1781 197.159 61.0862 195.983C61.9799 195.462 62.819 194.953 63.6458 194.559C64.0593 194.353 64.4484 194.141 64.8618 193.953L65.9866 193.468C66.698 193.135 67.3668 192.917 67.9505 192.699C68.2423 192.596 68.5098 192.493 68.7652 192.408L69.4583 192.202L70.425 191.929C70.5269 191.903 70.6306 191.885 70.7351 191.875Z" fill="#263238"/>
<path d="M54.8785 200.431C53.262 201.045 51.6141 201.573 49.9415 202.013C48.2942 202.547 46.6174 202.986 44.9195 203.328C46.5359 202.714 48.1839 202.186 49.8564 201.746C51.5048 201.216 53.1814 200.777 54.8785 200.431Z" fill="#263238"/>
<path d="M54.6717 211.266C54.5888 210.76 54.5522 210.247 54.5623 209.733C54.5623 208.788 54.5623 207.473 54.5623 206.031C54.5623 204.588 54.6839 203.273 54.7629 202.328C54.7753 201.814 54.8405 201.302 54.9575 200.801C54.9984 201.313 54.9984 201.828 54.9575 202.34C54.921 203.376 54.8845 204.637 54.842 206.037C54.7994 207.436 54.7751 208.697 54.7447 209.733C54.7675 210.245 54.743 210.759 54.6717 211.266Z" fill="#263238"/>
<path d="M64.0104 206.552C63.9314 206.552 63.6821 203.891 63.4572 200.601C63.2322 197.31 63.1045 194.638 63.1836 194.638C63.2626 194.638 63.5058 197.292 63.7368 200.583C63.9679 203.873 64.0895 206.546 64.0104 206.552Z" fill="#263238"/>
<path d="M52.3914 194.377C52.9156 194.311 53.4449 194.295 53.9722 194.329C54.945 194.329 56.2947 194.365 57.7843 194.413C59.274 194.462 60.6176 194.523 61.5904 194.577C62.1186 194.584 62.6454 194.635 63.1651 194.729C62.6409 194.795 62.1116 194.811 61.5844 194.777C60.6116 194.777 59.2618 194.747 57.7722 194.692C56.2826 194.638 54.9389 194.583 53.96 194.529C53.4338 194.523 52.909 194.472 52.3914 194.377Z" fill="#263238"/>
<path d="M75.7264 227.798C75.6994 227.691 75.6871 227.581 75.6899 227.471C75.6899 227.234 75.6899 226.925 75.6474 226.55C75.6109 225.744 75.6048 224.586 75.6474 223.144C75.6899 221.702 75.769 219.999 75.9392 218.108C76.1095 216.217 76.3891 214.139 76.7722 211.975C77.1552 209.812 77.6295 207.782 78.1098 205.915C78.5901 204.049 79.113 202.443 79.5872 201.067C80.0615 199.692 80.4627 198.643 80.8032 197.88C80.9491 197.528 81.0647 197.274 81.162 197.025C81.1992 196.924 81.246 196.827 81.3018 196.734C81.2885 196.842 81.2577 196.946 81.2106 197.043L80.864 197.934C80.5843 198.686 80.2013 199.752 79.7575 201.146C79.3136 202.54 78.8272 204.176 78.3469 205.994C77.8666 207.812 77.4167 209.86 77.0276 212.018C76.6384 214.175 76.377 216.26 76.1824 218.12C75.9879 219.981 75.8784 221.708 75.8298 223.138C75.7812 224.568 75.7507 225.732 75.7507 226.537C75.7507 226.913 75.7507 227.216 75.7507 227.459C75.7506 227.572 75.7425 227.686 75.7264 227.798Z" fill="#263238"/>
<path d="M76.9667 211.745C76.6907 212.121 76.3747 212.467 76.0243 212.775C75.4163 213.381 74.5469 214.193 73.5619 215.06C72.5769 215.927 71.6467 216.672 70.9597 217.199C70.6082 217.504 70.225 217.77 69.8166 217.993C70.1261 217.644 70.4681 217.326 70.8381 217.042L73.3734 214.848L75.8905 212.63C76.2202 212.302 76.5806 212.005 76.9667 211.745Z" fill="#263238"/>
<path d="M84.439 217.739C84.0692 217.305 83.7338 216.843 83.4358 216.357L81.1071 212.963L78.7238 209.606C78.3703 209.158 78.0512 208.684 77.7692 208.188C78.1807 208.584 78.5533 209.018 78.8819 209.485C79.5385 210.315 80.414 211.479 81.3139 212.806C82.2137 214.133 83.0284 215.351 83.5817 216.248C83.9136 216.717 84.2006 217.216 84.439 217.739Z" fill="#263238"/>
<path d="M80.5236 198.874C80.5661 198.94 78.0916 200.607 74.9847 202.595C71.8778 204.582 69.3303 206.146 69.2877 206.079C69.2452 206.012 71.7197 204.346 74.8327 202.358C77.9456 200.371 80.4871 198.813 80.5236 198.874Z" fill="#263238"/>
<path d="M87.5526 206.419C86.2424 205.331 84.9902 204.176 83.8012 202.958C82.5493 201.813 81.3619 200.599 80.2444 199.322C81.5593 200.406 82.8137 201.562 84.0019 202.783C85.2546 203.925 86.4401 205.139 87.5526 206.419Z" fill="#263238"/>
<path d="M89.285 206.255L91.413 206.079C92.9263 205.955 94.3948 205.507 95.7176 204.764C96.365 204.388 97.0351 204.052 97.724 203.758C100.357 202.709 103.299 202.897 106.133 202.752C110.775 202.519 115.323 201.361 119.509 199.346C119.76 199.236 119.972 199.052 120.117 198.819C120.554 198.025 119.74 197.316 119.04 196.886C115.447 194.68 111.793 192.45 107.726 191.353C103.658 190.256 99.0312 190.444 95.5656 192.826C91.492 195.625 90.0024 201.37 89.3154 206.255" fill="#71B219"/>
<path d="M120.135 198.54C120.012 198.49 119.893 198.433 119.776 198.37L118.767 197.843C117.891 197.383 116.633 196.704 115.034 195.946C113.182 195.035 111.25 194.292 109.264 193.728C106.834 193.032 104.29 192.826 101.779 193.122C99.2653 193.401 96.891 194.418 94.9576 196.043C93.4474 197.442 92.2392 199.133 91.4068 201.013C90.659 202.606 90.1908 203.964 89.8625 204.885L89.4795 205.958C89.4418 206.085 89.393 206.208 89.3336 206.327C89.351 206.195 89.3816 206.065 89.4248 205.939C89.5099 205.667 89.6193 205.303 89.7531 204.855C90.1588 203.531 90.642 202.232 91.2001 200.964C92.0194 199.04 93.233 197.309 94.763 195.88C96.7236 194.196 99.1473 193.141 101.719 192.85C104.263 192.543 106.843 192.749 109.306 193.456C111.304 194.04 113.244 194.807 115.101 195.746C116.687 196.534 117.934 197.237 118.797 197.728L119.782 198.304C119.909 198.367 120.028 198.447 120.135 198.54Z" fill="#263238"/>
<path d="M115.021 201.298C114.979 201.358 112.188 199.565 108.796 197.286C105.403 195.007 102.685 193.105 102.716 193.044C102.746 192.983 105.543 194.777 108.935 197.056C112.328 199.334 115.064 201.231 115.021 201.298Z" fill="#263238"/>
<path d="M112.347 192.771C110.927 193.216 109.428 193.354 107.951 193.177C108.673 193.027 109.408 192.942 110.146 192.923C110.874 192.809 111.61 192.758 112.347 192.771Z" fill="#263238"/>
<path d="M99.8517 190.541C99.32 191.795 98.6228 192.973 97.7784 194.044C97.9961 193.398 98.303 192.786 98.6904 192.226C98.9954 191.612 99.3864 191.045 99.8517 190.541Z" fill="#263238"/>
<path d="M102.345 202.934C101.875 202.738 101.426 202.495 101.007 202.206C100.198 201.722 99.1101 200.994 97.9671 200.164C96.824 199.334 95.7844 198.528 95.0426 197.946C94.6274 197.654 94.2406 197.323 93.8874 196.958C94.3392 197.193 94.7668 197.471 95.1642 197.789L98.1373 199.94C99.2925 200.776 100.357 201.51 101.135 202.043C101.563 202.304 101.968 202.602 102.345 202.934Z" fill="#263238"/>
<path d="M92.4164 215.278C90.3856 214.739 87.9597 216.708 87.5524 218.763C87.145 220.817 87.9111 222.914 88.8109 224.823C90.7473 229.061 93.6197 232.809 97.2135 235.785C100.838 238.748 105.361 240.403 110.048 240.482C109.191 236.506 110.273 232.349 109.799 228.307C109.375 224.747 107.753 221.435 105.196 218.913C102.639 216.392 99.3 214.809 95.7239 214.424C94.4288 214.284 92.9271 214.084 92.4103 215.278" fill="#71B219"/>
<path d="M110.048 240.481C109.946 240.448 109.849 240.403 109.756 240.348C109.49 240.198 109.236 240.028 108.996 239.839C108.145 239.1 107.461 238.189 106.99 237.167C106.668 236.561 106.303 235.858 105.95 235.1C105.598 234.343 105.245 233.543 104.856 232.676C104.466 231.789 104.017 230.929 103.512 230.101C102.971 229.218 102.361 228.379 101.688 227.592C100.302 225.968 98.8064 224.562 97.5113 223.21C96.3404 222.034 95.2745 220.759 94.3254 219.399C93.6896 218.477 93.167 217.482 92.7689 216.435C92.6412 216.066 92.544 215.769 92.4953 215.569C92.4616 215.469 92.4412 215.365 92.4345 215.26C92.4345 215.26 92.5744 215.672 92.8723 216.399C93.3059 217.418 93.8481 218.387 94.4896 219.29C95.4568 220.62 96.5304 221.871 97.6998 223.029C99.0009 224.362 100.503 225.768 101.907 227.41C102.595 228.208 103.22 229.059 103.774 229.955C104.276 230.797 104.725 231.669 105.117 232.567L106.187 234.991C106.528 235.743 106.881 236.433 107.197 237.058C107.641 238.071 108.286 238.984 109.094 239.742C109.677 240.263 110.079 240.457 110.048 240.481Z" fill="#263238"/>
<path d="M99.5484 237.179C99.5606 236.719 99.6238 236.262 99.7369 235.816C99.895 234.979 100.156 233.834 100.509 232.586C100.862 231.337 101.239 230.228 101.543 229.434C101.676 228.994 101.862 228.57 102.096 228.174C102.014 228.624 101.892 229.066 101.731 229.495C101.476 230.307 101.123 231.422 100.783 232.664C100.442 233.907 100.175 235.034 99.9315 235.858C99.8477 236.31 99.7194 236.752 99.5484 237.179Z" fill="#263238"/>
<path d="M109.677 227.416C109.19 227.345 108.71 227.233 108.242 227.083C107.367 226.859 106.157 226.543 104.813 226.24C103.469 225.937 102.241 225.707 101.354 225.538C100.867 225.475 100.387 225.37 99.9188 225.222C100.41 225.21 100.901 225.251 101.384 225.344C102.284 225.459 103.524 225.665 104.874 225.95C106.224 226.234 107.434 226.598 108.297 226.877C108.775 227.008 109.237 227.189 109.677 227.416Z" fill="#263238"/>
<path d="M92.0086 230.252C92.0315 229.719 92.1048 229.19 92.2275 228.671C92.4099 227.707 92.6896 226.374 93.0726 224.926C93.4557 223.477 93.8569 222.174 94.1731 221.241C94.3292 220.728 94.5327 220.231 94.7811 219.756C94.6928 220.281 94.5627 220.798 94.392 221.302C94.1245 222.247 93.7475 223.55 93.3705 224.992C92.9936 226.434 92.6774 227.762 92.4525 228.713C92.3487 229.238 92.2003 229.753 92.0086 230.252Z" fill="#263238"/>
<path d="M105.014 218.908C105.014 218.981 102.467 218.781 99.3476 218.448C96.2286 218.114 93.6993 217.787 93.7114 217.714C95.6069 217.769 97.4982 217.92 99.378 218.169C101.268 218.319 103.149 218.566 105.014 218.908Z" fill="#263238"/>
<path d="M103.154 249.572C103.154 249.65 94.2344 249.711 83.2357 249.711C72.237 249.711 63.3176 249.65 63.3176 249.572C63.3176 249.493 72.237 249.432 83.2357 249.432C94.2344 249.432 103.154 249.493 103.154 249.572Z" fill="#455A64"/>
<path d="M96.9522 261.007C96.9522 261.086 90.9391 261.152 83.5276 261.152C76.1161 261.152 70.109 261.086 70.109 261.007C70.109 260.928 76.1161 260.868 83.5276 260.868C90.9391 260.868 96.9522 260.959 96.9522 261.007Z" fill="#455A64"/>
<path d="M97.183 262.643C97.183 262.722 91.176 262.782 83.7645 262.782C76.3529 262.782 70.3459 262.722 70.3459 262.643C70.3459 262.564 76.3529 262.503 83.7645 262.503C91.176 262.503 97.183 262.564 97.183 262.643Z" fill="#455A64"/>
<path d="M97.1828 259.661C97.1828 259.74 90.9691 259.801 83.3022 259.801C75.6353 259.801 69.4216 259.74 69.4216 259.661C69.4216 259.583 75.6353 259.522 83.3022 259.522C90.9691 259.522 97.1828 259.583 97.1828 259.661Z" fill="#455A64"/>
</svg>
