<svg width="508" height="344" viewBox="0 0 508 344" fill="none" xmlns="http://www.w3.org/2000/svg">
<g clip-path="url(#clip0)">
<path fill-rule="evenodd" clip-rule="evenodd" d="M342.075 49.7374C344.839 50.0851 347.51 50.8019 350.028 51.8427L355.873 46.9323L365.914 54.5926L362.75 61.5486C364.422 63.7025 365.823 66.0921 366.894 68.6718L374.489 69.3421L376.184 81.8752L369.044 84.5506C368.698 87.3225 367.982 90.0002 366.942 92.5231L371.841 98.383L364.2 108.446L357.26 105.276C355.111 106.952 352.727 108.355 350.153 109.428L349.484 117.04L336.979 118.741L334.311 111.583C331.545 111.237 328.875 110.518 326.357 109.477L320.51 114.388L310.469 106.728L313.634 99.7709C311.962 97.617 310.562 95.2273 309.489 92.6476L301.896 91.9766L300.199 79.4435L307.34 76.7688C307.685 73.9969 308.402 71.3185 309.441 68.7963L304.542 62.9364L312.183 52.8725L319.124 56.0437C321.272 54.3679 323.656 52.9639 326.231 51.8899L326.9 44.2783L339.403 42.5781L342.075 49.7374ZM338.325 67.0203C329.725 67.3282 323.607 75.3803 325.602 83.7734C327.077 89.981 332.844 94.3787 339.207 94.1459C347.802 93.8314 353.91 85.7859 351.921 77.3994C350.449 71.1925 344.685 66.7926 338.325 67.0203Z" fill="#F5F5F5"/>
<path fill-rule="evenodd" clip-rule="evenodd" d="M228.208 89.8078C230.002 90.0339 231.736 90.4988 233.37 91.1743L237.165 87.9868L243.683 92.9591L241.629 97.4746C242.715 98.8728 243.625 100.424 244.32 102.098L249.25 102.534L250.35 110.669L245.715 112.406C245.491 114.206 245.025 115.943 244.351 117.581L247.531 121.385L242.571 127.917L238.066 125.859C236.671 126.947 235.123 127.858 233.452 128.555L233.018 133.496L224.901 134.6L223.169 129.953C221.374 129.729 219.641 129.262 218.006 128.586L214.211 131.774L207.693 126.801L209.747 122.286C208.662 120.888 207.753 119.336 207.057 117.662L202.128 117.227L201.027 109.091L205.662 107.354C205.887 105.555 206.352 103.816 207.026 102.179L203.846 98.3748L208.806 91.8424L213.311 93.9013C214.706 92.8133 216.254 91.902 217.925 91.2052L218.359 86.2646L226.475 85.1611L228.208 89.8078ZM225.773 101.027C220.191 101.226 216.22 106.453 217.514 111.902C218.472 115.931 222.216 118.785 226.346 118.634C231.926 118.43 235.89 113.208 234.6 107.764C233.644 103.735 229.902 100.879 225.773 101.027Z" fill="#EBEBEB"/>
<path d="M296.313 149.273C296.313 149.273 297.518 149.715 299.248 151.217C300.938 152.694 303.131 155.484 303.797 159.599C304.111 161.628 304.057 163.959 303.294 166.277C302.527 168.574 301.18 170.913 299.098 172.714C298.086 173.638 296.894 174.414 295.593 175.013C294.299 175.632 292.877 176.059 291.396 176.243C288.439 176.677 285.25 176.091 282.461 174.589C279.696 173.039 277.488 170.657 276.264 167.924C275.623 166.573 275.217 165.142 275.042 163.715C274.847 162.292 274.859 160.867 275.093 159.515C275.488 156.787 276.733 154.391 278.254 152.509C279.795 150.618 281.726 149.32 283.603 148.495C287.424 146.848 290.949 147.203 293.099 147.838C295.294 148.492 296.313 149.273 296.313 149.273C296.271 149.365 295.189 148.69 293.02 148.146C290.891 147.616 287.476 147.374 283.837 149.024C282.049 149.849 280.223 151.117 278.776 152.938C277.35 154.752 276.187 157.042 275.835 159.63C275.621 160.914 275.621 162.264 275.813 163.61C275.986 164.96 276.375 166.312 276.988 167.587C278.155 170.168 280.241 172.406 282.852 173.873C285.488 175.29 288.492 175.851 291.29 175.45C292.691 175.282 294.039 174.885 295.266 174.305C296.502 173.745 297.637 173.019 298.602 172.149C300.59 170.46 301.891 168.247 302.651 166.067C303.406 163.866 303.492 161.641 303.226 159.686C302.659 155.723 300.62 152.966 299.03 151.451C297.408 149.91 296.259 149.358 296.313 149.273Z" fill="#EBEBEB"/>
<path d="M311.47 137.803C311.459 137.806 311.496 137.641 311.579 137.314C311.674 136.954 311.801 136.471 311.965 135.846C312.331 134.504 312.86 132.57 313.546 130.06L313.608 130.21C310.627 128.593 306.707 126.468 301.966 123.896L302.22 123.852C300.621 125.678 298.845 127.706 296.945 129.876L296.85 129.985L296.709 129.95C294.095 129.314 291.221 128.964 288.194 129.047L288.032 129.051L287.953 128.908C286.736 126.726 285.421 124.363 284.051 121.907L284.386 122.045C280.387 123.223 276.144 124.474 271.688 125.787L271.918 125.459C272.074 127.937 272.245 130.665 272.421 133.463L272.433 133.666L272.258 133.772C269.985 135.149 267.662 136.964 265.607 139.138L265.461 139.293L265.255 139.234C262.871 138.553 260.241 137.803 257.564 137.038L257.982 136.863C255.987 140.519 253.835 144.462 251.63 148.504L251.549 148.037C253.416 149.689 255.466 151.504 257.542 153.343L257.718 153.499L257.662 153.727C257.022 156.328 256.666 159.258 256.744 162.223L256.751 162.461L256.542 162.578C254.351 163.798 251.961 165.128 249.547 166.471L249.736 166.01C250.911 170.042 252.17 174.364 253.446 178.745L253.032 178.454C255.555 178.299 258.277 178.132 261.019 177.964L261.265 177.949L261.392 178.16C262.788 180.486 264.597 182.797 266.718 184.817L266.721 184.82L266.722 184.822C266.772 185.004 266.612 184.415 266.833 185.231L266.831 185.239L266.827 185.254L266.818 185.284L266.8 185.345L266.766 185.466L266.697 185.709L266.558 186.193L266.281 187.162L265.729 189.094C265.361 190.38 264.995 191.661 264.63 192.936L264.435 192.466C268.356 194.623 272.226 196.751 276.04 198.849L275.544 198.936C277.329 196.916 279.095 194.915 280.846 192.935L281.007 192.753L281.242 192.811C284.042 193.507 286.901 193.812 289.715 193.745L289.955 193.739L290.07 193.948C291.381 196.321 292.672 198.656 293.947 200.963L293.498 200.778C297.837 199.515 302.076 198.281 306.208 197.078L305.939 197.462C305.777 194.746 305.618 192.078 305.462 189.457L305.449 189.235L305.639 189.121C308.137 187.615 310.377 185.801 312.304 183.779L312.452 183.624L312.656 183.683C315.291 184.444 317.846 185.182 320.341 185.902L319.95 186.066C322.198 181.979 324.321 178.121 326.341 174.447L326.408 174.832C324.306 172.958 322.334 171.2 320.432 169.504L320.299 169.386L320.341 169.214C321.079 166.243 321.348 163.393 321.293 160.692L321.289 160.528L321.43 160.45C323.978 159.045 326.272 157.779 328.439 156.584L328.325 156.862C326.912 151.922 325.708 147.712 324.677 144.109L324.864 144.24C321.673 144.415 319.056 144.557 316.875 144.677L316.795 144.681L316.755 144.613C315.264 142.111 313.864 140.447 312.918 139.375C312.449 138.867 312.09 138.479 311.827 138.194C311.573 137.933 311.46 137.806 311.47 137.803C311.48 137.8 311.621 137.918 311.876 138.15C312.134 138.393 312.525 138.763 313.018 139.287C314 140.334 315.442 141.98 316.98 144.481L316.86 144.418C319.039 144.27 321.654 144.093 324.842 143.878L324.987 143.868L325.029 144.009C326.091 147.604 327.333 151.802 328.788 156.73L328.843 156.914L328.674 157.009C326.515 158.219 324.229 159.5 321.691 160.922L321.828 160.682C321.902 163.427 321.644 166.329 320.909 169.358L320.818 169.068C322.728 170.754 324.71 172.503 326.82 174.366L327.007 174.531L326.887 174.75C324.882 178.431 322.775 182.299 320.543 186.395L320.414 186.633L320.153 186.559C317.656 185.847 315.099 185.118 312.461 184.366L312.814 184.27C310.85 186.344 308.566 188.204 306.014 189.751L306.19 189.416C306.353 192.036 306.519 194.704 306.687 197.42L306.706 197.719L306.418 197.804C302.288 199.016 298.052 200.258 293.715 201.53L293.418 201.618L293.267 201.345C291.989 199.04 290.695 196.706 289.38 194.336L289.734 194.539C286.851 194.613 283.92 194.304 281.05 193.593L281.446 193.47C279.698 195.452 277.932 197.454 276.149 199.475L275.936 199.718L275.653 199.562C271.838 197.467 267.967 195.34 264.045 193.185L263.76 193.028L263.85 192.714C264.214 191.439 264.58 190.158 264.947 188.872L265.499 186.939L265.776 185.97L265.915 185.485L265.984 185.242L266.018 185.121L266.035 185.06L266.044 185.03L266.048 185.015L266.051 185.007C266.272 185.823 266.111 185.232 266.16 185.414L266.159 185.413L266.156 185.41C263.98 183.338 262.126 180.968 260.695 178.583L261.068 178.779C258.326 178.946 255.604 179.111 253.081 179.265L252.757 179.285L252.667 178.974C251.395 174.591 250.14 170.268 248.968 166.234L248.879 165.927L249.158 165.772C251.574 164.432 253.966 163.104 256.158 161.887L255.955 162.243C255.879 159.205 256.248 156.204 256.909 153.542L257.028 153.925C254.955 152.082 252.909 150.263 251.045 148.607L250.818 148.405L250.964 148.139C253.179 144.103 255.34 140.166 257.344 136.514L257.484 136.259L257.763 136.339C260.438 137.112 263.065 137.87 265.447 138.558L265.096 138.653C267.203 136.437 269.583 134.592 271.909 133.196L271.748 133.505C271.583 130.707 271.422 127.977 271.276 125.499L271.26 125.242L271.506 125.172C275.968 123.879 280.217 122.648 284.221 121.488L284.445 121.423L284.557 121.625C285.912 124.09 287.215 126.46 288.419 128.649L288.178 128.511C291.256 128.444 294.174 128.819 296.821 129.485L296.585 129.559C298.503 127.404 300.296 125.39 301.909 123.577L302.02 123.453L302.163 123.533C306.875 126.159 310.769 128.33 313.731 129.982L313.823 130.033L313.794 130.132C313.058 132.603 312.489 134.508 312.095 135.829C311.903 136.455 311.754 136.938 311.643 137.299C311.54 137.63 311.481 137.8 311.47 137.803Z" fill="#EBEBEB"/>
<path d="M342.587 151.124L331.055 105.156L377.977 104.379L342.587 151.124Z" fill="#EBEBEB"/>
<path d="M363.828 113.312L347.71 134.602L433.605 199.935L449.723 178.645L363.828 113.312Z" fill="#EBEBEB"/>
<path d="M426.53 268.632L432.491 282.178C432.491 282.178 420.756 292.799 421.615 295.41L448.233 284.77L439.81 263.282L426.53 268.632Z" fill="#E8505B"/>
<path d="M426.53 268.632L432.491 282.178C432.491 282.178 420.756 292.799 421.615 295.41L448.233 284.77L439.81 263.282L426.53 268.632Z" fill="#71B219"/>
<path d="M448.233 284.769L447.299 282.637L422.128 293.636C422.128 293.636 421.148 294.627 421.615 295.41L448.233 284.769Z" fill="#263238"/>
<path d="M473.404 287.82L480.865 300.596C480.865 300.596 470.415 312.489 471.564 314.984L496.799 301.374L485.988 280.987L473.404 287.82Z" fill="#E8505B"/>
<path d="M473.404 287.82L480.865 300.596C480.865 300.596 470.415 312.489 471.564 314.984L496.799 301.374L485.988 280.987L473.404 287.82Z" fill="#71B219"/>
<path d="M496.799 301.374L495.629 299.362L471.871 313.165C471.871 313.165 471.011 314.261 471.563 314.985L496.799 301.374Z" fill="#263238"/>
<path d="M440.842 108.6L424.485 109.877L423.942 100.698C423.942 100.698 417.344 100.602 416.356 94.1421C415.369 87.6826 414.404 72.6663 414.404 72.6663C421.425 68.3939 430.204 68.265 437.347 72.3297L438.408 72.933L440.842 108.6Z" fill="#FFBE9D"/>
<path d="M423.919 100.606C423.919 100.606 428.045 100.364 431.998 97.0225C431.998 97.0225 430.568 102.103 424.044 102.428L423.919 100.606Z" fill="#EB996E"/>
<path d="M438.552 79.7477C438.656 79.6844 442.804 77.8074 443.283 82.2515C443.763 86.6949 439.212 86.261 439.191 86.1343C439.17 86.0076 438.552 79.7477 438.552 79.7477Z" fill="#FFBE9D"/>
<path d="M440.364 84.3038C440.382 84.2876 440.447 84.3495 440.584 84.3951C440.717 84.4393 440.941 84.4563 441.162 84.3443C441.612 84.1211 441.926 83.3329 441.861 82.53C441.829 82.1241 441.703 81.7484 441.525 81.4449C441.355 81.1348 441.12 80.93 440.88 80.9138C440.639 80.8851 440.487 81.0442 440.447 81.1753C440.401 81.3057 440.439 81.3919 440.416 81.4015C440.405 81.414 440.312 81.3374 440.329 81.1503C440.337 81.0597 440.378 80.9492 440.473 80.8527C440.57 80.754 440.722 80.6936 440.888 80.6928C441.233 80.6796 441.574 80.9617 441.769 81.2947C441.983 81.6269 442.134 82.049 442.17 82.5042C442.239 83.4029 441.872 84.2898 441.251 84.5454C440.948 84.6611 440.678 84.5948 440.532 84.5042C440.384 84.4106 440.349 84.3141 440.364 84.3038Z" fill="#EB996E"/>
<path d="M417.19 82.8355C417.241 83.3261 417.698 83.687 418.21 83.6421C418.721 83.5979 419.095 83.1655 419.043 82.6749C418.992 82.1843 418.535 81.8234 418.024 81.8668C417.512 81.9118 417.138 82.3449 417.19 82.8355Z" fill="#263238"/>
<path d="M416.902 81.5977C417.033 81.7023 417.659 81.0858 418.652 80.9488C419.641 80.7978 420.441 81.2066 420.532 81.0696C420.578 81.0084 420.431 80.8073 420.081 80.6202C419.736 80.4339 419.172 80.2851 418.555 80.3742C417.938 80.4648 417.45 80.7661 417.184 81.0416C416.912 81.3193 416.839 81.5513 416.902 81.5977Z" fill="#263238"/>
<path d="M426.839 81.716C426.89 82.2066 427.346 82.5675 427.859 82.5233C428.369 82.4791 428.743 82.0467 428.692 81.5561C428.641 81.0655 428.184 80.7046 427.673 80.7488C427.16 80.7922 426.787 81.2254 426.839 81.716Z" fill="#263238"/>
<path d="M426.68 80.4085C426.812 80.5131 427.439 79.8966 428.43 79.7596C429.42 79.6085 430.22 80.0174 430.31 79.8804C430.355 79.8192 430.21 79.6181 429.859 79.4318C429.515 79.2454 428.951 79.0966 428.333 79.1857C427.716 79.2763 427.228 79.5776 426.962 79.8531C426.69 80.1301 426.617 80.3621 426.68 80.4085Z" fill="#263238"/>
<path d="M424.115 88.2906C424.111 88.2331 423.48 88.214 422.463 88.2265C422.206 88.2361 421.959 88.2191 421.892 88.0519C421.807 87.8773 421.874 87.5886 421.955 87.2755C422.107 86.6273 422.266 85.9481 422.433 85.2365C423.087 82.3371 423.523 79.9674 423.406 79.9416C423.289 79.9158 422.664 82.2458 422.01 85.1452C421.855 85.859 421.706 86.5404 421.566 87.1915C421.51 87.4936 421.391 87.8442 421.574 88.2066C421.668 88.3864 421.873 88.4983 422.042 88.5189C422.211 88.5455 422.355 88.5285 422.481 88.5182C423.495 88.4313 424.119 88.3473 424.115 88.2906Z" fill="#263238"/>
<path d="M427.131 88.5662C426.969 88.5795 427.118 89.6594 426.304 90.5551C425.491 91.4531 424.327 91.4936 424.339 91.6461C424.333 91.7161 424.624 91.8199 425.11 91.7647C425.588 91.7139 426.26 91.4634 426.758 90.9154C427.255 90.3666 427.409 89.7051 427.383 89.2572C427.361 88.7997 427.204 88.5493 427.131 88.5662Z" fill="#263238"/>
<path d="M425.878 76.5479C426.014 76.8043 426.986 76.5369 428.17 76.5133C429.353 76.4662 430.339 76.6754 430.46 76.4109C430.513 76.285 430.313 76.0537 429.897 75.8459C429.484 75.6375 428.849 75.4739 428.139 75.4938C427.43 75.5159 426.805 75.717 426.406 75.9498C426.003 76.1826 425.817 76.4249 425.878 76.5479Z" fill="#263238"/>
<path d="M416.863 78.6681C417.07 78.8692 417.72 78.5385 418.54 78.4118C419.356 78.2563 420.079 78.3491 420.206 78.0906C420.261 77.9661 420.12 77.7547 419.785 77.5838C419.456 77.4129 418.93 77.3098 418.368 77.4063C417.805 77.5035 417.345 77.7775 417.091 78.0493C416.834 78.3226 416.771 78.5687 416.863 78.6681Z" fill="#263238"/>
<path d="M410.686 69.0244C410.504 68.2318 410.681 67.3294 411.266 66.7659C411.851 66.2031 412.865 66.0904 413.479 66.6215C413.024 65.5836 413.731 64.2135 414.839 63.9844C415.882 63.7693 416.892 64.4396 417.949 64.5759C418.98 64.7092 420.013 64.3225 420.914 63.8024C421.815 63.2824 422.634 62.6238 423.551 62.134C425.465 61.1108 427.785 60.8788 429.863 61.5019C431.94 62.1251 433.752 63.5962 434.791 65.5048C436.141 64.8639 437.846 65.356 438.884 66.4322C439.923 67.5084 440.367 69.0509 440.401 70.5478C440.423 71.5592 440.271 72.561 440.07 73.5554C440.082 73.6387 440.101 73.719 440.112 73.8029C440.544 77.3704 440.729 81.6053 439.217 81.8425C436.583 82.255 436.513 77.1819 436.513 77.1819C433.098 76.3841 433.622 71.3485 432.708 70.7253C431.795 70.1014 429.86 68.6252 423.564 73.056C421.12 74.776 417.612 75.2276 415.64 75.0626C415.582 75.0582 415.524 75.0574 415.466 75.0523C415.454 75.0508 415.438 75.0508 415.426 75.0501C415.404 75.0478 415.388 75.0383 415.366 75.0353C414.734 74.9624 414.114 74.8084 413.523 74.541C412.854 74.2383 412.222 73.7889 411.866 73.1459C411.51 72.502 411.489 71.6395 411.952 71.0686C411.364 70.5065 410.867 69.817 410.686 69.0244Z" fill="#263238"/>
<path d="M423.919 106.323L424.648 132.011L440.594 97.6029L440.195 94.417L423.919 106.323Z" fill="#EBEBEB"/>
<path d="M434.498 183.116C433.914 183.308 400.713 216.964 401.459 223.008C402.205 229.054 425.839 273.824 425.839 273.824L442.701 265.491L426.883 226.241L427.09 223.806L446.421 207.928L445.389 182.394L434.498 183.116Z" fill="#263238"/>
<path d="M441.657 189.748C442.042 190.334 447.792 243.208 449.333 245.944C450.874 248.68 473.967 293.819 473.967 293.819L491.113 286.894L470.181 237.285L472.567 190.332L471.275 177.073L445.389 182.393L441.657 189.748Z" fill="#263238"/>
<path d="M449.032 245.014C449.02 245.015 448.982 244.833 448.921 244.485C448.857 244.101 448.775 243.593 448.671 242.958C448.464 241.59 448.175 239.678 447.821 237.333C447.134 232.544 446.194 225.994 445.156 218.758C444.158 211.513 443.256 204.957 442.596 200.165C442.29 197.813 442.04 195.896 441.862 194.524C441.787 193.886 441.727 193.374 441.682 192.988C441.644 192.637 441.631 192.451 441.643 192.449C441.656 192.448 441.694 192.63 441.755 192.978C441.818 193.362 441.901 193.869 442.005 194.504C442.212 195.872 442.5 197.783 442.855 200.129C443.542 204.917 444.482 211.468 445.521 218.708C446.517 225.95 447.42 232.506 448.08 237.299C448.386 239.651 448.635 241.568 448.813 242.939C448.889 243.578 448.948 244.089 448.994 244.475C449.031 244.826 449.045 245.012 449.032 245.014Z" fill="#455A64"/>
<path d="M468.773 239.964C469.422 237.677 469.868 235.802 469.77 235.774C469.672 235.746 469.067 237.576 468.418 239.862C467.77 242.149 467.324 244.025 467.422 244.053C467.52 244.08 468.125 242.25 468.773 239.964Z" fill="#455A64"/>
<path d="M472.34 247.744C472.306 247.769 471.9 247.302 471.403 246.439C470.906 245.579 470.352 244.3 470.033 242.808C469.717 241.314 469.703 239.92 469.806 238.932C469.908 237.94 470.089 237.35 470.13 237.358C470.253 237.367 469.752 239.806 470.393 242.731C470.998 245.663 472.448 247.685 472.34 247.744Z" fill="#455A64"/>
<path d="M421.353 220.546C421.387 220.459 422.774 221.037 424.121 222.277C425.477 223.508 426.178 224.839 426.096 224.881C426.004 224.942 425.186 223.74 423.873 222.549C422.571 221.35 421.301 220.644 421.353 220.546Z" fill="#455A64"/>
<path d="M423.956 218.984C424.023 218.915 424.869 219.664 425.59 220.842C426.319 222.018 426.609 223.111 426.517 223.14C426.416 223.177 425.982 222.173 425.277 221.037C424.579 219.897 423.877 219.058 423.956 218.984Z" fill="#455A64"/>
<path d="M426.248 141.851L430.492 162.956L433.947 192.408C433.947 192.408 448.186 190.415 454.255 188.49C461.294 186.256 476.611 184.354 476.611 184.354L474.029 186.915C479.509 185.377 482.998 180.135 482.998 180.135C473.552 171.355 465.495 153.291 465.495 153.291L458.313 117.548C458.313 117.548 457.223 112.505 456.564 110.263C455.906 108.021 445 100.788 443.489 99.8736L442.539 99.4235L442.237 96.5588L441.113 95.8848L429.31 106.632C427.016 108.725 425.552 111.576 425.203 114.664C424.834 117.921 424.503 122.593 424.688 128.11C424.829 132.297 426.248 141.851 426.248 141.851Z" fill="#71B219"/>
<path d="M434.351 105.289C434.351 105.289 428.115 108.64 427.034 111.484C425.953 114.327 429.168 145.505 429.168 145.505L406.777 145.925L406.706 159.299C406.706 159.299 442.272 162.116 443.657 160.189C445.528 157.583 447.703 133.221 447.703 133.221L448.51 115.693C448.51 115.693 446.448 102.326 434.351 105.289Z" fill="#71B219"/>
<g opacity="0.3">
<g opacity="0.3">
<path opacity="0.3" d="M430.492 162.955C433.506 163.932 436.301 164.088 439.455 163.794C442.609 163.5 445.818 161.771 447.01 158.829C447.922 156.577 447.542 154.039 447.68 151.612C447.8 149.504 448.321 147.441 448.639 145.353C448.956 143.266 447.877 139.428 447.189 137.432C447.189 137.432 446.39 151.903 444.132 157.98C443.824 158.808 443.434 159.645 442.747 160.199C441.948 160.844 440.84 160.9 439.82 161.007C436.963 161.306 430.071 160.809 430.071 160.809" fill="black"/>
</g>
</g>
<path d="M448.472 117.587C448.479 117.588 448.479 117.695 448.473 117.905C448.464 118.131 448.452 118.441 448.438 118.836C448.397 119.673 448.34 120.876 448.266 122.416C448.184 123.976 448.085 125.878 447.97 128.08C447.835 130.287 447.762 132.806 447.492 135.577C447.251 138.35 446.961 141.385 446.614 144.639C446.254 147.892 445.869 151.369 445.251 155.006C445.075 155.915 444.936 156.83 444.637 157.755C444.329 158.667 443.794 159.541 443.022 160.18C442.261 160.804 441.252 161.248 440.236 161.176C439.248 161.199 438.259 161.173 437.258 161.162C433.261 161.062 429.13 160.857 424.9 160.628C418.544 160.275 412.419 159.878 406.694 159.475L406.53 159.464L406.53 159.299C406.559 154.549 406.586 150.074 406.61 145.946L406.611 145.792L406.764 145.79C415.705 145.597 423.149 145.437 428.377 145.324C430.969 145.279 433.01 145.244 434.424 145.219C435.107 145.212 435.638 145.207 436.015 145.203C436.375 145.202 436.561 145.214 436.561 145.214C436.561 145.214 436.376 145.236 436.016 145.253C435.638 145.267 435.108 145.289 434.425 145.315C433.012 145.36 430.972 145.425 428.381 145.507C423.154 145.652 415.711 145.858 406.771 146.106L406.926 145.948C406.913 150.075 406.897 154.55 406.882 159.3L406.718 159.123C412.441 159.515 418.565 159.907 424.919 160.258C429.147 160.488 433.277 160.696 437.265 160.8C438.262 160.813 439.252 160.84 440.224 160.819C441.182 160.89 442.083 160.483 442.797 159.907C443.511 159.319 444.013 158.507 444.308 157.642C444.593 156.773 444.741 155.841 444.916 154.946C445.54 151.33 445.936 147.854 446.309 144.606C446.669 141.355 446.974 138.323 447.231 135.553C447.518 132.786 447.609 130.269 447.763 128.065C447.903 125.864 448.022 123.966 448.121 122.407C448.225 120.869 448.306 119.668 448.362 118.832C448.393 118.436 448.416 118.128 448.434 117.902C448.454 117.694 448.466 117.586 448.472 117.587Z" fill="#263238"/>
<path d="M411.334 152.618C411.353 149.037 411.286 146.133 411.184 146.132C411.082 146.132 410.984 149.035 410.965 152.616C410.946 156.197 411.014 159.101 411.115 159.102C411.217 159.102 411.315 156.199 411.334 152.618Z" fill="#263238"/>
<path d="M408.727 148.165C408.685 148.141 408.908 147.891 409.333 148.032C409.529 148.095 409.767 148.314 409.788 148.626C409.813 148.921 409.667 149.267 409.333 149.427C408.995 149.573 408.642 149.461 408.432 149.261C408.208 149.053 408.167 148.752 408.213 148.555C408.314 148.131 408.608 148.04 408.618 148.084C408.654 148.125 408.479 148.282 408.473 148.586C408.471 148.734 408.521 148.9 408.659 149.007C408.792 149.117 409.014 149.168 409.181 149.09C409.346 149.017 409.453 148.813 409.449 148.645C409.452 148.475 409.35 148.344 409.225 148.27C408.966 148.116 408.75 148.213 408.727 148.165Z" fill="#263238"/>
<path d="M458.413 120.61C458.413 120.61 470.062 135.878 471.481 140.038C472.9 144.199 471.804 150.172 469.431 153.029C467.058 155.885 465.146 154.724 465.146 154.724L458.413 120.61Z" fill="#71B219"/>
<path d="M461.81 154.184C463.44 153.904 464.747 153.595 464.73 153.494C464.713 153.394 463.378 153.539 461.748 153.82C460.118 154.1 458.811 154.409 458.828 154.509C458.845 154.61 460.18 154.464 461.81 154.184Z" fill="#263238"/>
<path d="M466.968 164.755C466.992 164.748 467.104 165.036 467.284 165.561C467.46 166.087 467.728 166.844 468.074 167.773C468.761 169.632 469.82 172.16 471.203 174.848C472.591 177.535 474.027 179.868 475.117 181.524C475.66 182.352 476.11 183.018 476.423 183.476C476.735 183.935 476.898 184.197 476.878 184.212C476.858 184.226 476.656 183.995 476.308 183.56C475.957 183.128 475.475 182.483 474.901 181.67C473.752 180.046 472.271 177.72 470.875 175.016C469.484 172.312 468.456 169.749 467.828 167.859C467.512 166.915 467.282 166.142 467.147 165.601C467.008 165.064 466.944 164.762 466.968 164.755Z" fill="#263238"/>
<g opacity="0.3">
<g opacity="0.3">
<path opacity="0.3" d="M467.759 166.563C469.605 169.861 471.503 173.224 474.316 175.744C475.308 176.634 476.42 177.424 477.177 178.522C477.934 179.62 478.261 181.156 477.542 182.279C477.288 182.676 476.838 183.017 476.381 182.909C476.057 182.832 475.824 182.554 475.62 182.291C472.114 177.767 469.473 172.571 467.885 167.067" fill="black"/>
</g>
</g>
<g opacity="0.3">
<g opacity="0.3">
<path opacity="0.3" d="M466.221 154.667C467.816 153.518 468.375 151.333 468.138 149.378C467.901 147.424 467.011 145.622 466.204 143.827C463.701 138.261 462.01 133.226 460.529 127.147L459.391 122.912L465.153 153.129L466.221 154.667Z" fill="black"/>
</g>
</g>
<path d="M437.383 103.932C437.318 103.848 438.364 102.955 439.554 101.758C440.749 100.564 441.638 99.5162 441.723 99.581C441.801 99.6384 441.03 100.805 439.815 102.019C438.604 103.238 437.44 104.011 437.383 103.932Z" fill="#263238"/>
<path d="M436.206 106.52C436.224 106.582 435.533 106.79 434.503 107.301C433.473 107.808 432.123 108.674 430.889 109.919C429.66 111.172 428.812 112.534 428.319 113.573C427.821 114.612 427.622 115.307 427.559 115.289C427.535 115.282 427.565 115.104 427.64 114.784C427.709 114.463 427.857 114.01 428.08 113.465C428.522 112.377 429.361 110.947 430.626 109.659C431.895 108.376 433.312 107.519 434.392 107.063C434.932 106.833 435.383 106.68 435.702 106.606C436.021 106.527 436.198 106.495 436.206 106.52Z" fill="#263238"/>
<path d="M467.492 157.703C467.481 157.708 467.418 157.608 467.309 157.41C467.184 157.175 467.03 156.886 466.842 156.534C466.426 155.717 465.86 154.609 465.166 153.247L465.159 153.234L465.156 153.217C464.427 149.871 463.396 144.991 462.276 139.564C461.241 134.449 460.306 129.822 459.615 126.408C459.3 124.76 459.041 123.407 458.85 122.412C458.774 121.972 458.711 121.612 458.66 121.322C458.621 121.072 458.606 120.94 458.618 120.937C458.631 120.934 458.67 121.062 458.733 121.306C458.801 121.593 458.887 121.949 458.99 122.383C459.209 123.373 459.507 124.716 459.87 126.354C460.588 129.763 461.561 134.383 462.636 139.49C463.756 144.918 464.742 149.807 465.398 153.167L465.388 153.138C466.04 154.521 466.572 155.646 466.963 156.475C467.127 156.839 467.261 157.138 467.371 157.381C467.461 157.587 467.503 157.698 467.492 157.703Z" fill="#263238"/>
<path d="M428.781 145.493C428.756 145.495 428.696 145.101 428.61 144.386C428.526 143.606 428.415 142.586 428.282 141.357C428.021 138.797 427.685 135.258 427.337 131.348C426.988 127.437 426.694 123.894 426.5 121.328C426.414 120.095 426.342 119.072 426.288 118.289C426.246 117.571 426.235 117.173 426.261 117.171C426.287 117.169 426.345 117.564 426.431 118.278C426.516 119.059 426.627 120.078 426.76 121.308C427.021 123.868 427.357 127.406 427.705 131.316C428.053 135.226 428.347 138.767 428.542 141.332C428.628 142.565 428.699 143.589 428.754 144.372C428.796 145.091 428.807 145.49 428.781 145.493Z" fill="#263238"/>
<path d="M407.057 147.491C407.057 147.491 402.227 143.818 401.049 143.597C400.147 143.428 394.758 143.518 392.278 143.569C391.326 143.589 390.488 144.34 390.5 145.295C390.5 145.357 390.505 145.416 390.516 145.471C390.711 146.478 391.695 146.698 391.695 146.698C391.695 146.698 390.411 147.067 390.39 148.47C390.369 149.872 392.063 150.167 392.063 150.167C392.063 150.167 391.962 150.243 391.821 150.383C390.895 151.309 391.365 152.901 392.641 153.192L393.405 153.366C393.405 153.366 392.371 153.797 392.386 154.76C392.414 156.606 396.557 156.96 396.557 156.96C396.557 156.96 406.795 158.584 407.016 158.511C407.237 158.436 407.057 147.491 407.057 147.491Z" fill="#FFBE9D"/>
<path d="M393.23 141.385C393.275 141.994 393.418 143.289 394.451 143.876L400.156 143.652C400.156 143.652 395.908 142.182 395.304 141.455C395.092 141.2 394.8 140.885 394.489 140.657C393.948 140.26 393.181 140.715 393.23 141.385Z" fill="#FFBE9D"/>
<path d="M397.472 143.596C397.475 143.696 396.308 143.807 394.867 143.781C393.433 143.754 392.27 143.701 392.267 143.596C392.265 143.497 393.431 143.385 394.872 143.411C396.306 143.438 397.47 143.491 397.472 143.596Z" fill="#EB996E"/>
<path d="M396.191 146.788C396.201 146.886 395.195 147.065 393.942 147.018C392.688 146.975 391.697 146.726 391.714 146.628C391.731 146.525 392.728 146.607 393.954 146.648C395.181 146.695 396.181 146.683 396.191 146.788Z" fill="#EB996E"/>
<path d="M399.094 146.381C399.178 146.433 399.069 146.745 398.747 146.953C398.425 147.163 398.097 147.136 398.084 147.036C398.066 146.934 398.296 146.809 398.546 146.643C398.8 146.481 399.008 146.322 399.094 146.381Z" fill="#EB996E"/>
<path d="M396.829 150.398C396.832 150.296 395.737 150.177 394.382 150.132C393.028 150.088 391.927 150.134 391.924 150.236C391.92 150.338 393.016 150.457 394.37 150.502C395.725 150.547 396.826 150.5 396.829 150.398Z" fill="#EB996E"/>
<path d="M400.079 148.883C400.125 148.87 400.214 148.985 400.241 149.21C400.27 149.429 400.216 149.763 399.995 150.045C399.773 150.327 399.463 150.458 399.243 150.482C399.019 150.509 398.886 150.45 398.888 150.402C398.885 150.301 399.38 150.238 399.705 149.817C400.036 149.401 399.981 148.904 400.079 148.883Z" fill="#EB996E"/>
<path d="M397.674 153.974C397.686 153.873 396.714 153.669 395.501 153.518C394.289 153.368 393.296 153.328 393.283 153.43C393.271 153.531 394.244 153.735 395.456 153.885C396.668 154.036 397.661 154.075 397.674 153.974Z" fill="#EB996E"/>
<path d="M400.864 152.156C400.912 152.149 400.982 152.274 400.975 152.496C400.972 152.715 400.872 153.014 400.669 153.272C400.252 153.779 399.783 153.962 399.731 153.894C399.657 153.806 400.034 153.47 400.378 153.046C400.729 152.62 400.769 152.172 400.864 152.156Z" fill="#EB996E"/>
<path d="M472.092 187.224C474.108 187.044 476.007 185.845 477.039 184.1C477.156 183.902 477.257 183.632 477.105 183.46C477.002 183.345 476.828 183.332 476.673 183.331C475.079 183.316 473.483 183.59 471.985 184.137C471.815 184.198 471.628 184.282 471.564 184.452C471.518 184.575 471.551 184.712 471.584 184.839C471.785 185.613 471.985 186.388 472.186 187.163" fill="#E8505B"/>
<path d="M472.092 187.224C474.108 187.044 476.007 185.845 477.039 184.1C477.156 183.902 477.257 183.632 477.105 183.46C477.002 183.345 476.828 183.332 476.673 183.331C475.079 183.316 473.483 183.59 471.985 184.137C471.815 184.198 471.628 184.282 471.564 184.452C471.518 184.575 471.551 184.712 471.584 184.839C471.785 185.613 471.985 186.388 472.186 187.163" fill="black"/>
<path d="M423.919 106.323C423.919 106.323 421.57 114.227 422.217 113.777C422.865 113.328 424.268 112.08 424.268 112.08L423.919 106.323Z" fill="#EBEBEB"/>
<path d="M424.054 109.967L422.769 113.044C422.646 113.365 422.563 113.696 422.521 114.037C422.414 114.9 422.292 116.479 422.804 116.59C423.511 116.742 424.177 116.02 424.177 116.02L424.054 109.967Z" fill="#263238"/>
<path d="M463.887 110.452C463.887 110.452 451.323 105.539 444.365 109.878C437.409 114.217 436.141 121.14 431.998 121.14C423.919 121.14 424.177 115.426 424.177 115.426L422.46 115.948C422.426 117.117 420.587 125.512 429.101 126.553C437.616 127.594 441.194 115.959 448.854 115.948C456.514 115.937 462.329 120.1 462.329 120.1L467.832 116.611L463.887 110.452Z" fill="#263238"/>
<path d="M431.648 126.413C431.648 126.413 434.781 124.804 436.495 120.839C438.446 116.326 442.636 111.172 446.135 109.877C449.633 108.583 457.728 107.679 463.319 111.331L466.9 116.179L462.251 119.202C462.251 119.202 458.576 117.178 454.058 115.914C448.28 114.297 444.768 116.123 441.41 119.31C441.201 119.508 441.009 119.704 440.842 119.894C439.994 120.859 437.651 123.093 435.523 124.614C433.881 125.789 432.396 126.427 431.648 126.413Z" fill="#455A64"/>
<path d="M113.618 242.316L212.075 258.472V242.316H113.618Z" fill="#E0E0E0"/>
<path d="M212.077 270.573L310.535 286.729V270.573H212.077Z" fill="#E0E0E0"/>
<path d="M310.535 298.829L408.993 314.985V298.829H310.535Z" fill="#E0E0E0"/>
<path d="M408.628 327.086L507.086 343.242V327.086H408.628Z" fill="#E0E0E0"/>
<path d="M212.075 230.216H113.618V242.316H212.075V230.216Z" fill="#71B219"/>
<g opacity="0.3">
<path opacity="0.3" d="M212.076 230.216H181.352V242.316H212.076V230.216Z" fill="black"/>
</g>
<path d="M310.534 258.472H212.077V270.572H310.534V258.472Z" fill="#71B219"/>
<g opacity="0.3">
<path opacity="0.3" d="M310.535 258.472H279.811V270.572H310.535V258.472Z" fill="black"/>
</g>
<path d="M408.993 286.729H310.535V298.829H408.993V286.729Z" fill="#71B219"/>
<g opacity="0.3">
<path opacity="0.3" d="M408.993 286.729H378.269V298.829H408.993V286.729Z" fill="black"/>
</g>
<path d="M507.235 314.984H408.778V327.085H507.235V314.984Z" fill="#71B219"/>
<g opacity="0.3">
<path opacity="0.3" d="M507.236 314.984H476.512V327.085H507.236V314.984Z" fill="black"/>
</g>
<path d="M449.236 273.624C450.715 273.624 451.914 272.422 451.914 270.94C451.914 269.458 450.715 268.257 449.236 268.257C447.758 268.257 446.559 269.458 446.559 270.94C446.559 272.422 447.758 273.624 449.236 273.624Z" fill="#EBEBEB"/>
</g>
<path d="M116.3 112.009C116.3 112.009 112.187 108.673 105.73 118.579C99.273 128.485 96.6125 134.306 96.6125 134.306C96.6125 134.306 94.9649 136.351 93.5942 134.766C92.2236 133.18 90.5634 128.909 87.9074 129.379C85.1522 129.866 83.9646 132.735 84.0256 137.135C84.0866 141.535 83.8632 151.181 83.8397 152.053C83.8169 152.909 83.1959 154.111 82.0876 153.179C80.9794 152.247 74.903 143.986 71.1182 147.076C67.3334 150.166 69.5367 162.397 69.752 163.739C69.9666 165.081 69.6513 165.612 68.9914 165.872C68.3314 166.132 66.5536 163.165 64.7281 160.885C62.9025 158.605 60.3825 156.279 58.3497 158.244C56.3169 160.208 54.8162 169.065 61.8854 184.416L65.6313 191.316L73.567 191.683C90.598 191.442 98.0376 186.309 98.9599 183.648C99.8822 180.987 96.6816 179.727 93.8206 179.068C90.9596 178.409 87.4915 178.087 87.4459 177.385C87.4003 176.684 87.7502 176.173 89.0664 175.792C90.3826 175.41 102.485 172.148 103.685 167.437C104.885 162.727 94.7473 160.822 93.4223 160.228C92.0979 159.635 92.9291 158.565 93.7001 158.177C94.4857 157.783 103.19 153.455 107.231 151.627C111.272 149.798 113.383 147.507 112.648 144.832C111.939 142.253 107.331 142.595 105.299 142.046C103.266 141.497 104.427 139.147 104.427 139.147C104.427 139.147 108.599 134.275 114.874 124.254C121.149 114.234 116.212 111.947 116.212 111.947" fill="#EBEBEB"/>
<path d="M64.2269 192.592C68.8643 185.251 77.3276 172.34 84.5357 161.219C91.7416 150.101 98.2559 140.029 102.931 132.712C105.26 129.057 107.147 126.097 108.457 124.041C109.106 123.025 109.613 122.232 109.962 121.684C110.132 121.423 110.264 121.22 110.359 121.074C110.449 120.937 110.501 120.871 110.501 120.871C110.501 120.871 110.464 120.947 110.38 121.087C110.29 121.236 110.165 121.443 110.004 121.71C109.664 122.263 109.171 123.064 108.539 124.091C107.264 126.157 105.398 129.135 103.078 132.804C98.4403 140.145 91.9488 150.233 84.7429 161.351C77.5348 172.472 69.0487 185.367 64.3739 192.685" fill="#E0E0E0"/>
<path d="M89.9858 135.445C90.0027 135.442 90.0527 135.638 90.1299 135.994C90.2085 136.35 90.3063 136.868 90.4216 137.509C90.6495 138.791 90.9177 140.57 91.1786 142.539C91.4285 144.481 91.6548 146.237 91.8276 147.58C91.9091 148.185 91.9782 148.696 92.0341 149.106C92.0848 149.467 92.1046 149.667 92.0877 149.67C92.0708 149.673 92.0194 149.478 91.94 149.122C91.8628 148.766 91.7644 148.248 91.6563 147.606C91.4417 146.321 91.1963 144.539 90.9361 142.571C90.6722 140.632 90.4334 138.879 90.2511 137.537C90.1666 136.932 90.0946 136.422 90.0373 136.011C89.988 135.65 89.9697 135.449 89.9858 135.445Z" fill="#E0E0E0"/>
<path d="M101.044 148.537C105.593 147.727 109.27 147.016 109.258 146.95C109.246 146.884 105.549 147.487 101 148.297C96.4515 149.107 92.7738 149.817 92.7858 149.883C92.7977 149.949 96.495 149.346 101.044 148.537Z" fill="#E0E0E0"/>
<path d="M80.9507 166.463C80.9529 166.447 81.1609 166.459 81.5342 166.496C81.9575 166.541 82.486 166.596 83.1128 166.661C84.4453 166.799 86.2862 166.982 88.3257 167.11C90.3651 167.242 92.2149 167.298 93.5539 167.328C94.1845 167.343 94.7151 167.355 95.1406 167.365C95.5154 167.376 95.7227 167.39 95.7234 167.407C95.7234 167.424 95.5169 167.442 95.1413 167.46C94.7665 167.478 94.2234 167.495 93.5524 167.5C92.2105 167.514 90.3548 167.485 88.3095 167.352C86.2649 167.224 84.421 167.014 83.0915 166.832C82.4272 166.738 81.8907 166.656 81.521 166.589C81.1513 166.525 80.9485 166.48 80.9507 166.463Z" fill="#E0E0E0"/>
<path d="M75.5086 153.961C75.5241 153.955 75.6167 154.121 75.7717 154.428C75.9444 154.785 76.1554 155.223 76.4052 155.74C76.9307 156.851 77.6406 158.393 78.4116 160.103C79.1825 161.813 79.8675 163.368 80.3525 164.497C80.5737 165.026 80.7619 165.474 80.9147 165.839C81.0426 166.159 81.1058 166.339 81.0904 166.345C81.0749 166.352 80.9823 166.185 80.8273 165.878C80.6546 165.521 80.4436 165.083 80.1938 164.567C79.6683 163.455 78.9584 161.912 78.1874 160.202C77.4165 158.493 76.7315 156.939 76.2472 155.81C76.0253 155.28 75.8379 154.832 75.685 154.466C75.5564 154.147 75.4932 153.968 75.5086 153.961Z" fill="#E0E0E0"/>
<path d="M63.1737 167.283C63.1892 167.276 63.306 167.491 63.5045 167.885C63.7176 168.322 63.9924 168.886 64.3232 169.562C65.0044 170.983 65.9304 172.953 66.9387 175.135C67.9478 177.317 68.8488 179.299 69.4896 180.738C69.791 181.428 70.0423 182.003 70.2371 182.448C70.4083 182.854 70.4957 183.081 70.4803 183.088C70.4649 183.095 70.348 182.881 70.1496 182.487C69.9365 182.049 69.6616 181.486 69.3309 180.81C68.6496 179.388 67.7236 177.419 66.7146 175.236C65.7063 173.054 64.8053 171.073 64.1644 169.633C63.8631 168.944 63.6118 168.37 63.417 167.924C63.2458 167.518 63.1583 167.29 63.1737 167.283Z" fill="#E0E0E0"/>
<path d="M70.4135 182.662C70.4149 182.645 70.6788 182.654 71.1535 182.684C71.6716 182.72 72.3478 182.767 73.162 182.823C74.8582 182.938 77.2011 183.088 79.7925 183.181C82.3845 183.278 84.7326 183.305 86.4332 183.312C87.2497 183.317 87.9272 183.32 88.4468 183.323C88.9223 183.327 89.1862 183.337 89.1862 183.354C89.1862 183.371 88.9238 183.392 88.449 183.417C87.9735 183.442 87.2857 183.468 86.4346 183.484C84.7333 183.521 82.3801 183.521 79.7836 183.424C77.1879 183.331 74.8421 183.153 73.1481 182.994C72.3007 182.912 71.6165 182.839 71.144 182.778C70.6722 182.719 70.412 182.678 70.4135 182.662Z" fill="#E0E0E0"/>
<path d="M51.5405 139.775C51.5405 139.775 51.6272 141.026 51.3347 143.364C51.0194 145.679 50.2661 149.142 48.032 152.996L47.9548 152.865H47.9614L48.1143 152.864L48.0393 152.996C43.2491 161.412 36.0594 174.041 27.4542 189.159L27.3249 189.385L27.1853 189.165C20.6349 178.814 13.2336 167.118 5.42504 154.779C5.05831 154.2 4.69306 153.622 4.35499 153.087L4.1889 152.825L4.50198 152.825H4.50271L4.35352 153.082C2.68526 150.251 1.58802 147.146 1.07431 143.999C0.828852 142.425 0.691422 140.841 0.748011 139.274C0.790636 138.49 0.833996 137.711 0.876622 136.934C0.994209 136.165 1.11106 135.399 1.22718 134.637C2.42142 128.567 5.75134 123.242 10.1101 119.591C12.3053 117.776 14.7534 116.393 17.269 115.423L18.2156 115.074L18.6859 114.9L19.1695 114.773C19.814 114.606 20.4534 114.442 21.0876 114.278C22.3826 114.085 23.651 113.822 24.9232 113.818C26.1894 113.703 27.4329 113.821 28.6536 113.884C29.2621 113.932 29.8567 114.063 30.4498 114.146C30.7459 114.194 31.0406 114.241 31.3331 114.287C31.6234 114.347 31.9064 114.435 32.1908 114.507C32.7581 114.659 33.3196 114.81 33.8752 114.959C34.4132 115.163 34.9453 115.363 35.4722 115.563C35.7338 115.666 35.9999 115.754 36.2542 115.867C36.5033 115.99 36.751 116.113 36.9972 116.236C37.4888 116.482 37.9739 116.725 38.4545 116.966C42.182 119.114 44.9791 121.918 46.9068 124.695C48.8492 127.481 49.9259 130.228 50.5895 132.5C50.8695 133.654 51.1524 134.671 51.2377 135.584C51.3656 136.488 51.4912 137.251 51.4839 137.877C51.5052 138.493 51.5221 138.964 51.5339 139.294C51.5449 139.612 51.5405 139.775 51.5405 139.775C51.5405 139.775 51.5214 139.612 51.5008 139.293C51.4817 138.964 51.4538 138.493 51.4177 137.88C51.4141 137.256 51.2774 136.496 51.1399 135.597C51.0444 134.69 50.7519 133.679 50.4638 132.534C49.7833 130.279 48.6949 127.557 46.7517 124.801C44.8233 122.054 42.0358 119.287 38.3369 117.173C37.8607 116.936 37.3786 116.697 36.8913 116.455C36.6473 116.335 36.4019 116.214 36.1549 116.092C35.9029 115.982 35.639 115.895 35.3796 115.794C34.8578 115.599 34.3309 115.402 33.7973 115.202C33.2469 115.056 32.6905 114.909 32.1291 114.76C31.8468 114.689 31.5676 114.603 31.2802 114.545C30.9899 114.5 30.6982 114.454 30.4057 114.408C29.8185 114.328 29.2305 114.2 28.6286 114.154C27.4212 114.095 26.1909 113.98 24.9393 114.098C23.6819 114.105 22.4289 114.369 21.1494 114.562C20.5232 114.725 19.8919 114.89 19.2555 115.056L18.7785 115.182L18.314 115.355L17.38 115.702C14.8967 116.664 12.4817 118.035 10.3159 119.831C6.01665 123.445 2.73523 128.706 1.56083 134.7C1.44618 135.453 1.33154 136.21 1.21615 136.969C1.175 137.735 1.13311 138.506 1.09122 139.28C1.03536 140.828 1.17279 142.392 1.41532 143.946C1.92315 147.052 3.00715 150.116 4.65411 152.911L4.80623 153.168L4.50418 153.168H4.50198L4.64896 152.906C4.98702 153.44 5.35228 154.019 5.719 154.598C13.5172 166.943 20.9098 178.644 27.4513 189L27.1831 189.006C35.8375 173.916 43.0676 161.31 47.8857 152.91L47.9629 153.041H47.9563H47.8019L47.8791 152.909C50.1206 149.093 50.8989 145.655 51.2421 143.352C51.4111 142.192 51.4596 141.294 51.4986 140.691C51.5096 140.396 51.5177 140.17 51.5243 140.007C51.5309 139.852 51.5405 139.775 51.5405 139.775Z" fill="#E0E0E0"/>
<path d="M42.3061 139.487C42.3002 139.487 42.2899 139.4 42.2759 139.229C42.2627 139.042 42.2451 138.792 42.2223 138.474C42.212 138.306 42.2002 138.121 42.187 137.917C42.165 137.714 42.1201 137.493 42.0834 137.253C42.0062 136.773 41.9327 136.217 41.7475 135.611C41.4639 134.383 40.884 132.931 39.9698 131.393C39.0482 129.861 37.7202 128.261 35.9108 126.901C34.1073 125.555 31.8313 124.408 29.2025 123.942C26.5913 123.492 23.6435 123.566 20.8332 124.616C20.1181 124.841 19.4457 125.19 18.7549 125.516C18.1 125.906 17.4099 126.266 16.8 126.754C16.1518 127.193 15.5851 127.742 14.9906 128.271C14.4541 128.857 13.8897 129.43 13.4267 130.095C12.4764 131.396 11.6452 132.842 11.1411 134.433C10.6186 136.014 10.3349 137.693 10.3077 139.404C10.3261 141.115 10.6002 142.797 11.1146 144.381C11.6107 145.976 12.4338 147.426 13.3774 148.732C13.8375 149.399 14.3982 149.976 14.9325 150.564C15.5234 151.096 16.0878 151.648 16.7338 152.09C17.3416 152.582 18.0295 152.945 18.6828 153.339C19.3722 153.668 20.0432 154.021 20.7568 154.249C23.562 155.314 26.5097 155.402 29.1231 154.965C31.7541 154.511 34.036 153.376 35.8461 152.038C37.6621 150.688 38.9989 149.094 39.9279 147.567C40.8495 146.033 41.4374 144.585 41.727 143.358C41.9158 142.754 41.9915 142.199 42.0709 141.719C42.1084 141.479 42.1539 141.259 42.1775 141.055C42.1914 140.852 42.2039 140.667 42.2157 140.499C42.2399 140.18 42.259 139.93 42.273 139.744C42.2892 139.574 42.3002 139.487 42.3061 139.487C42.312 139.487 42.3134 139.574 42.3098 139.745C42.3039 139.933 42.2958 140.184 42.2862 140.505C42.2796 140.674 42.2723 140.86 42.2642 141.065C42.2465 141.27 42.2061 141.492 42.1731 141.734C42.1032 142.218 42.0371 142.78 41.8578 143.392C41.5859 144.634 41.0111 146.104 40.0947 147.666C39.1702 149.221 37.8289 150.848 35.9953 152.231C34.1676 153.602 31.8526 154.77 29.176 155.244C26.5178 155.702 23.5135 155.622 20.6487 154.545C19.9197 154.313 19.234 153.957 18.53 153.621C17.8627 153.222 17.1593 152.852 16.5383 152.351C15.8784 151.901 15.3007 151.339 14.6966 150.797C14.1498 150.198 13.5766 149.61 13.1063 148.929C12.1406 147.597 11.2984 146.115 10.7898 144.488C10.2629 142.869 9.98212 141.15 9.96375 139.403C9.99094 137.657 10.2812 135.939 10.817 134.325C11.3344 132.7 12.1832 131.223 13.1562 129.896C13.6303 129.218 14.2064 128.633 14.7562 128.036C15.3632 127.497 15.943 126.939 16.6059 126.492C17.2299 125.994 17.9347 125.628 18.6042 125.232C19.3104 124.9 19.9976 124.547 20.7274 124.319C23.598 123.257 26.6023 123.192 29.2576 123.663C31.9312 124.15 34.2396 125.33 36.0607 126.709C37.8877 128.102 39.2209 129.736 40.1373 131.295C41.0464 132.861 41.613 134.335 41.8791 135.578C42.0562 136.191 42.1194 136.753 42.1863 137.237C42.2179 137.48 42.2568 137.703 42.2737 137.908C42.2804 138.113 42.287 138.3 42.2929 138.469C42.3009 138.789 42.3075 139.04 42.3127 139.228C42.3134 139.4 42.312 139.487 42.3061 139.487Z" fill="#E0E0E0"/>
<path d="M25.9013 146.905L16.5509 140.443L18.8277 137.211L25.0973 141.544L33.2086 131.335L36.3342 133.772L25.9013 146.905Z" fill="#E0E0E0"/>
<path d="M116.992 35.2609C109.54 36.398 104.076 30.1977 102.335 24.6773C100.727 19.5813 99.9615 14.2793 97.7023 9.43158C94.5444 2.65685 86.181 -0.473533 78.6746 0.152543C71.1681 0.77862 63.6043 4.50523 56.9636 8.02654L58.7957 48.8067C58.7957 48.8067 73.2582 33.5515 80.2076 33.2734C91.8024 32.8097 91.1711 51.6895 102.43 54.477C102.43 54.477 118.215 58.7162 128.886 45.0619C135.659 36.3965 136.259 25.869 136.259 25.869C136.259 25.869 131.071 33.1125 116.992 35.2609Z" fill="#71B219"/>
<path d="M56.6592 1.25977C56.7606 1.2554 58.789 44.5595 61.1885 97.9703C63.5888 151.4 65.4518 194.702 65.3496 194.706C65.2482 194.711 63.2206 151.416 60.8203 97.9863C58.4208 44.5762 56.5578 1.26486 56.6592 1.25977Z" fill="#263238"/>
<g opacity="0.2">
<g opacity="0.2">
<path opacity="0.2" d="M96.4633 21.8555C97.4921 25.6716 99.7976 30.7669 101.944 34.096C104.09 37.4251 107.345 40.2279 111.249 41.0338C111.955 41.1794 112.687 41.2631 113.338 41.5711C113.989 41.879 114.561 42.4789 114.581 43.193C114.611 44.261 113.497 44.9599 112.529 45.4323C111.153 46.1043 109.754 46.7835 108.246 47.0631C106.737 47.3426 105.556 47.4977 104.519 46.3766C103.647 45.4316 102.487 44.2952 101.824 43.1777C98.4225 37.436 96.7396 29.2228 96.4633 22.7254" fill="black"/>
</g>
</g>
<path d="M106.54 48.0433C106.533 48.0535 106.418 47.9887 106.205 47.854C105.993 47.7186 105.69 47.5038 105.315 47.2061C104.574 46.6048 103.562 45.6394 102.567 44.2482C101.563 42.8643 100.602 41.0531 99.8142 38.9455C99.0205 36.838 98.3709 34.4552 97.7763 31.9386C96.5909 26.8965 96.0676 22.2242 95.8773 18.8441C95.7825 17.153 95.7663 15.7814 95.7678 14.8351C95.7773 14.3953 95.7854 14.0357 95.792 13.7452C95.8023 13.4963 95.8134 13.3652 95.8266 13.3652C95.8391 13.3652 95.853 13.4963 95.8663 13.7445C95.878 14.0343 95.8927 14.3939 95.9111 14.8321C95.9537 15.7764 96.0096 17.1428 96.1374 18.8267C96.3932 22.1922 96.9554 26.8368 98.1357 31.8556C98.7273 34.3613 99.3652 36.7375 100.133 38.8283C100.895 40.9213 101.818 42.7165 102.78 44.0997C103.735 45.4902 104.704 46.4686 105.408 47.0976C106.121 47.7215 106.559 48.0171 106.54 48.0433Z" fill="#263238"/>
<path d="M15.2637 206.665L113.721 222.631V206.665H15.2637Z" fill="#E0E0E0"/>
<path d="M113.721 194.706H15.2637V206.665H113.721V194.706Z" fill="#71B219"/>
<g opacity="0.3">
<path opacity="0.3" d="M113.722 194.706H82.9982V206.665H113.722V194.706Z" fill="black"/>
</g>
<defs>
<clipPath id="clip0">
<rect width="452" height="321" fill="white" transform="translate(55.2363 22.2422)"/>
</clipPath>
</defs>
</svg>
