<svg width="319" height="349" viewBox="0 0 319 349" fill="none" xmlns="http://www.w3.org/2000/svg">
<path d="M158.852 160.32L158.851 160.328L158.868 160.339L158.852 160.32Z" fill="#F5F5F5"/>
<path d="M158.94 160.442L158.906 160.484L158.993 160.483L158.94 160.442Z" fill="#F5F5F5"/>
<path d="M159.058 160.477L159.057 160.483L159.079 160.482L159.058 160.477Z" fill="#F5F5F5"/>
<path d="M159 160.48L159.05 160.483L159.014 160.463L159 160.48Z" fill="#F5F5F5"/>
<path d="M158.832 160.455L158.825 160.409L158.588 160.339L158.8 160.476L158.832 160.455Z" fill="#F5F5F5"/>
<path d="M158.84 160.412L158.833 160.453L158.865 160.434L158.84 160.412Z" fill="#F5F5F5"/>
<path d="M159.043 160.431L159.031 160.443L159.046 160.453L159.043 160.431Z" fill="#F5F5F5"/>
<path d="M159.003 160.461L158.988 160.456L158.997 160.475L159.003 160.461Z" fill="#F5F5F5"/>
<path d="M158.868 160.433L158.88 160.424L158.861 160.419L158.868 160.433Z" fill="#F5F5F5"/>
<path d="M159.026 160.412L158.995 160.42L159.016 160.433L159.026 160.412Z" fill="#F5F5F5"/>
<path d="M149.311 92.3109L158.939 159.707L168.483 92.2978C168.533 92.3051 168.584 92.3123 168.634 92.3196L181.396 1.50036C174.237 0.519271 166.93 0 159.5 0C151.511 0 143.661 0.594179 135.987 1.72654L149.031 92.3516C149.125 92.3378 149.217 92.324 149.311 92.3109Z" fill="#F5F5F5"/>
<path d="M187.52 97.8744L159.089 160.269L263.838 38.8026C252.339 28.863 239.401 20.5402 225.38 14.1816L187.369 97.806C187.42 97.8286 187.47 97.8518 187.52 97.8744Z" fill="#F5F5F5"/>
<path d="M92.9818 141.157L158.425 160.291H158.167L158.799 160.476L158.791 160.481L158.803 160.478L158.804 160.478L158.832 160.459L158.835 160.469L158.878 160.456L158.872 160.444L158.881 160.454L158.896 160.45L158.89 160.463L158.906 160.483L158.941 160.442L158.993 160.482L158.906 160.483L158.951 160.521L158.988 160.494L158.98 160.513L159.01 160.504L159.008 160.5L159.011 160.503L159.051 160.492L159.054 160.507L159.08 160.483L159.095 160.487L159.055 160.514L159.32 160.629L159.103 160.489L224.928 179.732C224.915 179.779 224.9 179.827 224.887 179.874L312.168 205.494C316.511 191.174 318.888 176.003 318.987 160.291H227.692C227.692 160.33 227.692 160.369 227.692 160.409L159.103 160.481H159.081L159.088 160.479L159.06 160.461L159.068 160.4L159.368 160.31L159.122 160.47L159.73 160.29H159.433L312.734 114.946C308.414 100.03 301.975 86.0126 293.754 73.2461L159.398 160.291H159.162L159.26 160.177L159.084 160.291H159.082L159.084 160.279L159.07 160.291L159.134 159.921L159.007 160.198L159.02 160.29L158.939 160.35L158.911 160.29H158.854L158.867 160.197L158.758 159.961L158.802 160.265L158.824 160.291H158.806L158.808 160.3L158.669 160.21L158.738 160.29H158.511L24.6388 74.2075C16.5647 86.9442 10.2444 100.9 6.03111 115.741L92.9811 141.159C92.9811 141.159 92.9811 141.158 92.9818 141.157ZM159.058 160.476L159.079 160.482L159.057 160.483L159.058 160.476ZM159 160.48L159.014 160.463L159.05 160.483L159 160.48ZM159.043 160.43L159.046 160.452L159.031 160.443L159.043 160.43ZM159.025 160.412L159.015 160.433L158.996 160.421L159.025 160.412ZM159.003 160.46L158.997 160.475L158.989 160.457L159.003 160.46ZM158.867 160.432L158.862 160.419L158.88 160.424L158.867 160.432ZM158.852 160.32L158.867 160.337L158.851 160.327L158.852 160.32ZM158.84 160.412L158.864 160.434L158.834 160.454L158.84 160.412ZM158.825 160.409L158.832 160.454L158.8 160.476L158.588 160.339L158.825 160.409Z" fill="#F5F5F5"/>
<path d="M113.869 108.487L158.776 160.232L130.291 97.9097C130.298 97.9061 130.306 97.9024 130.313 97.8995L92.2346 14.8271C78.3296 21.2955 65.5142 29.7034 54.1379 39.7085L113.859 108.497C113.863 108.493 113.866 108.49 113.869 108.487Z" fill="#F5F5F5"/>
<path d="M292.83 246.698L216.789 197.677C216.776 197.698 216.763 197.717 216.75 197.738L159.224 160.748L204.084 212.419C204.047 212.451 204.011 212.482 203.974 212.514L262.894 280.538C274.399 270.745 284.492 259.351 292.83 246.698Z" fill="#F5F5F5"/>
<path d="M159.036 160.632L159.037 160.627L159.025 160.62L159.036 160.632Z" fill="#F5F5F5"/>
<path d="M158.873 160.499L158.865 160.518L158.838 160.5L158.847 160.553L158.852 160.546L158.85 160.552L158.896 160.539L158.873 160.523L158.889 160.503L158.901 160.507L158.896 160.495L158.906 160.483H158.837L158.873 160.499Z" fill="#F5F5F5"/>
<path d="M158.544 160.641L158.819 160.56L158.827 160.494L158.811 160.483L158.544 160.641Z" fill="#F5F5F5"/>
<path d="M158.657 160.771L101.274 197.947C101.229 197.877 101.185 197.808 101.14 197.737L25.933 246.338C34.1914 258.945 44.1861 270.313 55.5864 280.098L122.641 202.537L158.657 160.771Z" fill="#F5F5F5"/>
<path d="M93.0203 179.936L158.786 160.483L0.0173645 160.653C0.149918 176.186 2.50748 191.187 6.78997 205.356L93.0233 179.947C93.0225 179.944 93.0218 179.94 93.0203 179.936Z" fill="#F5F5F5"/>
<path d="M93.4654 304.289C106.968 310.429 121.479 314.737 136.68 316.912L158.755 161.002L93.4654 304.289Z" fill="#F5F5F5"/>
<path d="M159.048 160.546L159.052 160.516L159.033 160.528L159.048 160.546Z" fill="#F5F5F5"/>
<path d="M181.416 317.038C196.661 314.946 211.221 310.71 224.775 304.632L159.122 160.99L181.416 317.038Z" fill="#F5F5F5"/>
<path d="M158.874 160.744L158.947 161.257L159.017 160.761L158.942 160.595L158.874 160.744Z" fill="#F5F5F5"/>
<path d="M159.025 160.534L159.015 160.54L159.029 160.544L159.025 160.534Z" fill="#F5F5F5"/>
<path d="M319 342.759C319 342.864 247.584 342.948 159.508 342.948C71.4011 342.948 0 342.864 0 342.759C0 342.655 71.4011 342.57 159.508 342.57C247.584 342.57 319 342.655 319 342.759Z" fill="#263238"/>
<path d="M201.245 79.6172C201.245 79.6172 224.365 129.042 206.966 175.135C189.567 221.228 125.652 287.258 118.565 290.749C118.565 290.749 134.964 265.027 105.032 265.238C75.0995 265.45 60.062 258.17 56.8472 247.688C53.6324 237.207 71.3807 203.363 55.0541 195.231C38.7275 187.1 18.8102 189.535 5.46237 178.254C5.46237 178.254 36.5993 175.666 59.5798 173.328C83.7148 170.873 156.224 120.435 162.081 83.3364" fill="#537F0E"/>
<g opacity="0.4">
<g opacity="0.4">
<path opacity="0.4" d="M201.245 79.6172C201.245 79.6172 224.365 129.042 206.966 175.135C189.567 221.228 125.652 287.258 118.565 290.749C118.565 290.749 134.964 265.027 105.032 265.238C75.0995 265.45 60.062 258.17 56.8472 247.688C53.6324 237.207 71.3807 203.363 55.0541 195.231C38.7275 187.1 18.8102 189.535 5.46237 178.254C5.46237 178.254 36.5993 175.666 59.5798 173.328C83.7148 170.873 156.224 120.435 162.081 83.3364" fill="#537F0E"/>
</g>
</g>
<path d="M117.133 164.771C117.14 164.782 116.999 164.888 116.725 165.079C116.416 165.288 116.014 165.561 115.514 165.899C114.46 166.61 112.909 167.599 110.97 168.785C107.095 171.16 101.617 174.248 95.359 177.247C89.0955 180.24 83.2515 182.566 78.9697 184.094C76.8292 184.86 75.0856 185.447 73.8708 185.822C73.2925 185.998 72.8278 186.141 72.471 186.25C72.1498 186.344 71.9793 186.387 71.975 186.375C71.9706 186.363 72.1337 186.295 72.4469 186.178C72.7972 186.052 73.2546 185.887 73.8234 185.683C75.023 185.265 76.7513 184.64 78.8765 183.844C83.1284 182.254 88.9433 179.893 95.1944 176.907C101.44 173.915 106.926 170.87 110.831 168.558C112.785 167.403 114.356 166.449 115.433 165.777C115.949 165.463 116.364 165.211 116.682 165.017C116.97 164.845 117.125 164.761 117.133 164.771Z" fill="#263238"/>
<path d="M136.802 192.19C136.81 192.201 136.641 192.336 136.311 192.582C135.952 192.845 135.468 193.2 134.859 193.645C133.591 194.557 131.768 195.896 129.535 197.571C125.064 200.92 118.997 205.69 112.573 211.288C106.152 216.894 100.602 222.258 96.6781 226.231C94.7153 228.216 93.1421 229.839 92.0671 230.972C91.5427 231.514 91.1261 231.946 90.8173 232.265C90.5282 232.558 90.3723 232.707 90.3621 232.698C90.3527 232.69 90.4903 232.522 90.7605 232.213C91.0569 231.882 91.4561 231.434 91.9586 230.871C93.0008 229.706 94.5456 228.054 96.4858 226.043C100.363 222.018 105.893 216.616 112.322 211.002C118.755 205.397 124.858 200.652 129.374 197.356C131.631 195.707 133.478 194.4 134.773 193.525C135.4 193.103 135.897 192.768 136.266 192.519C136.611 192.293 136.794 192.179 136.802 192.19Z" fill="#263238"/>
<path d="M134.146 200.294C134.155 200.303 134.079 200.396 133.928 200.566C133.743 200.766 133.519 201.006 133.25 201.297C132.657 201.927 131.779 202.82 130.678 203.908C128.477 206.084 125.356 209.011 121.77 212.086C118.18 215.159 114.808 217.794 112.32 219.635C111.076 220.557 110.06 221.287 109.345 221.777C109.017 221.998 108.745 222.182 108.519 222.335C108.328 222.459 108.223 222.519 108.216 222.509C108.209 222.498 108.298 222.417 108.474 222.273C108.688 222.105 108.947 221.902 109.258 221.658C109.99 221.094 110.969 220.339 112.158 219.422C114.601 217.529 117.941 214.866 121.523 211.798C125.103 208.729 128.246 205.839 130.492 203.716C131.579 202.682 132.475 201.83 133.146 201.193C133.435 200.924 133.675 200.699 133.874 200.513C134.042 200.36 134.136 200.284 134.146 200.294Z" fill="#263238"/>
<path d="M130.251 317.078L126.521 333.917L119.724 346.386C119.234 347.285 119.609 348.41 120.54 348.837C121.061 349.077 121.661 349.051 122.158 348.765C125.32 346.941 136.919 340.172 137.122 338.924C137.358 337.479 142.238 321.422 142.238 321.422L130.251 317.078Z" fill="#263238"/>
<path d="M137.673 337.24C137.687 337.262 137.457 337.438 137.03 337.736C136.531 338.076 135.921 338.491 135.204 338.978C133.58 340.063 131.477 341.468 129.151 343.022C126.827 344.582 124.728 345.992 123.106 347.081C122.382 347.558 121.766 347.964 121.262 348.296C120.823 348.578 120.573 348.723 120.558 348.702C120.543 348.68 120.764 348.494 121.178 348.176C121.591 347.857 122.197 347.408 122.953 346.862C124.463 345.768 126.575 344.292 128.94 342.708C131.304 341.125 133.473 339.734 135.059 338.753C135.853 338.262 136.499 337.872 136.951 337.612C137.402 337.351 137.659 337.217 137.673 337.24Z" fill="#455A64"/>
<path d="M205.031 321.076L204.023 334.532C204.023 334.532 217.381 340.074 217.437 342.579H191.205L191.949 320.534L205.031 321.076Z" fill="#263238"/>
<path d="M216.614 341.684C216.613 341.71 216.254 341.714 215.607 341.699C214.887 341.678 213.969 341.649 212.87 341.616C210.56 341.539 207.368 341.443 203.842 341.395C200.316 341.347 197.122 341.355 194.811 341.368C193.712 341.371 192.792 341.374 192.072 341.376C191.425 341.373 191.067 341.359 191.066 341.333C191.066 341.307 191.422 341.271 192.068 341.228C192.714 341.185 193.649 341.14 194.805 341.099C197.117 341.018 200.314 340.968 203.847 341.016C207.378 341.065 210.572 341.203 212.882 341.348C214.037 341.42 214.97 341.491 215.614 341.552C216.26 341.613 216.616 341.658 216.614 341.684Z" fill="#455A64"/>
<path d="M146.329 185.639L123.173 328.408L144.436 329.692L177.258 185.639H146.329Z" fill="#71B219"/>
<path d="M177.644 179.415L188.324 329.692H208.332V170.575L177.644 179.415Z" fill="#71B219"/>
<path d="M201.093 320.295C200.988 320.3 199.374 290.538 197.487 253.827C195.6 217.104 194.155 187.339 194.26 187.333C194.365 187.328 195.979 217.084 197.866 253.808C199.753 290.518 201.198 320.29 201.093 320.295Z" fill="#263238"/>
<path d="M208.332 320.295C208.332 320.295 208.338 320.289 208.351 320.29C208.357 320.29 208.373 320.288 208.355 320.316C208.341 320.326 208.339 320.325 208.329 320.33C208.294 320.346 208.243 320.361 208.175 320.377C208.04 320.411 207.839 320.449 207.581 320.491C207.063 320.576 206.312 320.678 205.383 320.792C203.524 321.018 200.952 321.289 198.107 321.542C192.422 322.057 187.771 322.27 187.778 322.006C187.784 321.994 187.849 322.006 187.988 321.999C188.168 321.99 188.365 321.98 188.586 321.969C189.189 321.923 189.926 321.867 190.792 321.801C192.745 321.63 195.275 321.409 198.074 321.165C200.872 320.919 203.402 320.697 205.356 320.526C207.201 320.367 208.413 320.279 208.332 320.295Z" fill="#263238"/>
<path d="M158.932 189C158.932 189 158.926 189.115 158.897 189.337C158.864 189.575 158.817 189.9 158.757 190.319C158.623 191.199 158.431 192.465 158.184 194.088C157.682 197.361 156.922 202.092 155.956 207.933C154.023 219.615 151.212 235.731 147.802 253.475C144.386 271.223 141.019 287.234 138.479 298.8C137.21 304.583 136.16 309.258 135.413 312.483C135.04 314.082 134.749 315.33 134.548 316.196C134.448 316.607 134.37 316.926 134.313 317.159C134.258 317.376 134.221 317.485 134.221 317.485C134.221 317.485 134.233 317.37 134.275 317.151C134.323 316.916 134.389 316.593 134.473 316.179C134.658 315.309 134.926 314.056 135.269 312.451C135.968 309.197 136.974 304.518 138.216 298.743C140.688 287.164 144.013 271.147 147.429 253.403C150.838 235.663 153.69 219.558 155.69 207.889C156.679 202.065 157.48 197.347 158.037 194.065C158.315 192.447 158.531 191.184 158.681 190.307C158.757 189.891 158.815 189.567 158.858 189.331C158.902 189.111 158.932 189 158.932 189Z" fill="#263238"/>
<path d="M146.577 320.295C146.576 320.321 146.268 320.331 145.711 320.326C145.075 320.31 144.289 320.291 143.357 320.27C141.286 320.187 138.585 320.079 135.598 319.961C132.611 319.82 129.911 319.693 127.84 319.596C126.911 319.552 126.125 319.515 125.492 319.484C124.935 319.45 124.638 319.465 124.629 319.433C124.619 319.361 125.864 319.289 127.849 319.329C129.838 319.356 132.584 319.447 135.615 319.582C138.646 319.718 141.387 319.871 143.371 320.003C144.363 320.068 145.166 320.129 145.719 320.179C146.273 320.228 146.579 320.269 146.577 320.295Z" fill="#263238"/>
<g opacity="0.3">
<path opacity="0.3" d="M145.202 192.584L145.662 189.749L176.705 187.995L175.533 193.168L145.202 192.584Z" fill="black"/>
</g>
<g opacity="0.3">
<path opacity="0.3" d="M178.523 193.168L177.644 187.973L208.332 186.46L208.323 193.807L178.523 193.168Z" fill="black"/>
</g>
<path d="M148.317 80.0865L169.987 75.2734L188.197 76.0262L204.071 81.0625L195.04 126.288L160.479 129.346L148.317 80.0865Z" fill="#263238"/>
<path d="M166.694 76.0264L143.899 81.0627L155.296 142.032C155.296 142.032 145.12 166.78 143.899 189.75L177.644 187.974C177.644 187.974 179.967 157.672 179.171 146.008C178.375 134.344 177.844 113.932 177.844 113.932L166.694 76.0264Z" fill="#71B219"/>
<path d="M101.51 111.006C101.51 111.006 109.249 103.169 117.315 98.9592C123.267 95.8523 134.92 91.9585 139.551 86.9519C142.523 83.7381 143.899 81.0625 143.899 81.0625L149.269 109.79L126.391 113.403C126.391 113.403 129.794 115.259 127.67 116.584L142.005 133.343L132.183 151.84C132.183 151.84 100.183 124.26 101.51 111.006Z" fill="#71B219"/>
<path d="M188.197 76.0264C188.197 76.0264 192.988 76.6024 196.385 77.7253C201.233 79.3282 209.434 81.0634 209.434 81.0634L197.754 142.828C197.754 142.828 213.594 162.38 209.434 186.302C209.434 186.302 187.549 188.027 177.645 187.975L177.514 112.815C177.514 112.815 185.808 102.271 186.87 91.9318C187.931 81.5929 188.197 76.0264 188.197 76.0264Z" fill="#71B219"/>
<path d="M209.433 81.0625C209.433 81.0625 222.494 94.5708 229.684 99.6653C236.873 104.76 245.917 112.396 245.917 116.451C245.917 118.84 245.072 121.83 244.377 123.886C243.869 125.39 243.118 126.795 242.163 128.064C238.868 132.44 230.123 143.821 224.349 149.221L209.819 133.903L223.654 118.654C223.654 118.654 205.082 111.009 204.164 108.926C203.246 106.843 209.433 81.0625 209.433 81.0625Z" fill="#71B219"/>
<path d="M177.372 120.964C177.364 120.972 177.25 120.869 177.04 120.664C176.81 120.433 176.508 120.13 176.131 119.752C175.322 118.92 174.189 117.755 172.784 116.31C169.932 113.333 165.979 109.207 161.455 104.486L161.386 104.414L161.409 104.316C161.889 102.307 162.391 100.198 162.907 98.0326C163.132 97.0952 163.354 96.1679 163.572 95.2559L163.756 95.4879C161.228 95.4843 158.802 95.4806 156.532 95.477L156.286 95.4763L156.362 95.2436C158.123 89.9134 159.632 85.3461 160.714 82.0705C161.253 80.4814 161.685 79.208 161.996 78.2938C162.142 77.8807 162.26 77.5498 162.351 77.2931C162.435 77.0669 162.483 76.9505 162.493 76.9542C162.503 76.9571 162.473 77.0793 162.409 77.312C162.331 77.5738 162.232 77.9105 162.108 78.3309C161.822 79.2531 161.422 80.5374 160.924 82.1389C159.875 85.4247 158.41 90.0065 156.702 95.3541L156.533 95.1214C158.803 95.1177 161.23 95.1148 163.757 95.1105H163.996L163.941 95.3432C163.723 96.2559 163.502 97.1825 163.277 98.1206C162.758 100.285 162.252 102.393 161.771 104.401L161.725 104.231C166.21 108.989 170.129 113.146 172.958 116.146C174.33 117.622 175.434 118.812 176.225 119.663C176.584 120.059 176.871 120.377 177.089 120.618C177.283 120.838 177.38 120.956 177.372 120.964Z" fill="#263238"/>
<path d="M177.644 187.974C177.539 187.974 177.4 171.019 177.333 150.108C177.266 129.189 177.297 112.237 177.402 112.237C177.506 112.237 177.646 129.189 177.713 150.107C177.78 171.017 177.749 187.974 177.644 187.974Z" fill="#263238"/>
<path d="M191.693 76.5772C191.703 76.5757 191.737 76.7161 191.791 76.9866C191.847 77.2913 191.919 77.6862 192.01 78.1786C192.194 79.2601 192.449 80.7655 192.765 82.6324C193.384 86.4673 194.242 91.7771 195.223 97.8563L195.263 98.1014L195.015 98.068C193.727 97.8949 192.374 97.7138 190.992 97.5284L191.187 97.2578C191.449 97.7894 191.73 98.3582 192.012 98.9313C192.568 100.06 193.115 101.171 193.635 102.227L193.687 102.333L193.613 102.426C189.414 107.667 185.699 112.305 183.004 115.669C181.674 117.304 180.597 118.626 179.826 119.574C179.466 120.006 179.176 120.352 178.956 120.616C178.754 120.851 178.644 120.971 178.635 120.963C178.625 120.956 178.717 120.821 178.9 120.573C179.108 120.298 179.38 119.938 179.719 119.49C180.468 118.525 181.515 117.178 182.807 115.514C185.477 112.13 189.158 107.464 193.318 102.192L193.297 102.392C192.776 101.336 192.229 100.226 191.671 99.0978C191.389 98.5247 191.108 97.9552 190.847 97.4236L190.69 97.1051L191.041 97.1531C192.423 97.3414 193.776 97.5254 195.064 97.7007L194.856 97.9123C193.926 91.8251 193.115 86.5088 192.528 82.668C192.257 80.7946 192.038 79.2826 191.881 78.1975C191.816 77.7008 191.764 77.303 191.724 76.9953C191.693 76.7226 191.681 76.5786 191.693 76.5772Z" fill="#263238"/>
<path d="M174.472 163.406C173.7 162.463 172.192 161.918 171.467 162.897L171.495 162.88C170.782 163.495 170.441 164.556 170.796 165.438C171.252 166.567 172.77 167.129 173.839 166.545C174.91 165.961 175.244 164.349 174.472 163.406Z" fill="#263238"/>
<path d="M174.881 143.773C174.11 142.83 172.602 142.285 171.877 143.264L171.905 143.247C171.192 143.862 170.851 144.924 171.206 145.805C171.662 146.934 173.18 147.497 174.249 146.912C175.319 146.328 175.653 144.716 174.881 143.773Z" fill="#263238"/>
<path d="M226.895 142.157C226.124 141.214 224.615 140.669 223.891 141.648L223.919 141.631C223.206 142.246 222.865 143.307 223.22 144.189C223.676 145.318 225.194 145.88 226.263 145.296C227.333 144.712 227.666 143.1 226.895 142.157Z" fill="#263238"/>
<path d="M132.049 143.976C131.277 143.033 129.769 142.488 129.044 143.467L129.072 143.45C128.359 144.065 128.018 145.127 128.374 146.008C128.829 147.138 130.347 147.7 131.416 147.115C132.486 146.531 132.82 144.919 132.049 143.976Z" fill="#263238"/>
<path d="M127.892 116.859C127.845 116.98 125.47 115.496 122.132 115.23C118.797 114.916 116.202 115.97 116.176 115.842C116.16 115.804 116.775 115.49 117.85 115.204C118.922 114.917 120.466 114.708 122.165 114.852C123.862 115.002 125.347 115.474 126.353 115.942C127.363 116.409 127.914 116.825 127.892 116.859Z" fill="#263238"/>
<path d="M116.176 113.404C116.16 113.364 116.704 113.072 117.656 112.778C118.605 112.483 119.973 112.224 121.498 112.234C123.024 112.248 124.388 112.53 125.332 112.84C126.279 113.149 126.819 113.448 126.801 113.488C126.765 113.609 124.487 112.618 121.495 112.612C118.505 112.57 116.211 113.525 116.176 113.404Z" fill="#263238"/>
<path d="M149.96 113.488C149.935 113.493 149.825 113.06 149.648 112.273C149.457 111.425 149.203 110.301 148.896 108.942C148.213 106.079 147.295 102.232 146.281 97.9812C145.262 93.6968 144.453 89.7878 144 86.9347C143.77 85.5092 143.609 84.3514 143.527 83.5478C143.44 82.7449 143.404 82.2998 143.43 82.2969C143.456 82.294 143.541 82.7325 143.673 83.5274C143.799 84.3231 144.001 85.4721 144.263 86.8889C144.782 89.723 145.632 93.6125 146.65 97.8946C147.669 102.175 148.584 106.055 149.157 108.885C149.446 110.3 149.664 111.447 149.793 112.244C149.925 113.041 149.986 113.483 149.96 113.488Z" fill="#263238"/>
<path d="M208.628 82.46C208.654 82.4651 208.595 82.9196 208.467 83.7378C208.324 84.6163 208.135 85.7843 207.906 87.1989C207.418 90.1785 206.761 94.1858 206.036 98.6148C205.303 103.074 204.606 107.107 204.056 110.018C203.781 111.473 203.549 112.649 203.375 113.459C203.203 114.269 203.095 114.715 203.07 114.71C203.044 114.705 203.102 114.25 203.23 113.432C203.373 112.554 203.563 111.386 203.792 109.971C204.28 106.992 204.936 102.984 205.662 98.553C206.395 94.0948 207.092 90.0629 207.642 87.1516C207.916 85.6963 208.148 84.5203 208.322 83.7102C208.495 82.9014 208.603 82.4556 208.628 82.46Z" fill="#263238"/>
<path d="M233.472 111.129C233.467 111.194 232.662 111.121 231.377 111.191C230.122 111.277 228.258 111.524 226.795 112.814C225.339 114.097 224.685 115.828 224.229 117.014C223.789 118.227 223.55 118.996 223.494 118.98C223.449 118.967 223.596 118.177 223.974 116.928C224.371 115.711 224.993 113.903 226.546 112.529C227.313 111.848 228.227 111.437 229.073 111.215C229.923 110.988 230.712 110.934 231.367 110.924C232.023 110.918 232.551 110.966 232.913 111.013C233.277 111.059 233.474 111.105 233.472 111.129Z" fill="#263238"/>
<path d="M236.943 114.523C236.938 114.587 236.139 114.535 234.858 114.613C233.579 114.687 231.817 114.941 229.962 115.554C228.108 116.173 226.544 117.023 225.475 117.728C224.404 118.432 223.795 118.952 223.752 118.904C223.735 118.884 223.871 118.737 224.134 118.485C224.393 118.23 224.799 117.893 225.322 117.508C226.368 116.735 227.948 115.827 229.842 115.194C231.737 114.568 233.547 114.351 234.848 114.344C235.499 114.339 236.026 114.367 236.386 114.416C236.747 114.461 236.945 114.497 236.943 114.523Z" fill="#263238"/>
<path d="M160.75 143.777C160.701 143.873 159.631 143.414 158.292 142.917C156.954 142.414 155.846 142.06 155.871 141.955C155.894 141.857 157.063 142.051 158.425 142.562C159.788 143.069 160.798 143.688 160.75 143.777Z" fill="#263238"/>
<path d="M161.682 136.463C161.744 136.557 160.041 137.719 158.125 139.373C156.201 141.02 154.798 142.529 154.713 142.454C154.637 142.393 155.929 140.754 157.877 139.086C159.819 137.411 161.634 136.38 161.682 136.463Z" fill="#263238"/>
<path d="M209.434 186.3C209.439 186.405 194.772 187.262 176.678 188.214C158.578 189.167 143.904 189.854 143.898 189.749C143.893 189.644 158.557 188.788 176.657 187.836C194.752 186.884 209.429 186.196 209.434 186.3Z" fill="#263238"/>
<g opacity="0.3">
<g opacity="0.3">
<path opacity="0.3" d="M222.948 118.235C221.976 115.455 223.081 112.091 225.511 110.425C226.031 110.068 226.654 109.777 227.274 109.89C227.894 110.004 228.426 110.685 228.179 111.264C228.021 111.633 227.628 111.832 227.288 112.046C226.163 112.756 225.384 113.916 224.9 115.153C224.417 116.39 224.201 117.712 223.988 119.023" fill="black"/>
</g>
</g>
<g opacity="0.3">
<g opacity="0.3">
<path opacity="0.3" d="M156.532 95.2983C156.669 95.6874 159.273 95.9863 159.766 97.0619C160.259 98.1376 160.084 99.3928 159.805 100.542C159.526 101.691 159.15 102.854 159.273 104.03C159.494 106.14 161.227 107.729 162.843 109.106C167.36 112.956 172.855 117.113 177.372 120.964C173.32 116.178 168.083 111.26 163.636 106.838C162.978 106.184 162.295 105.501 161.994 104.625C161.616 103.525 161.904 102.321 162.193 101.195C162.577 99.7034 162.96 98.211 163.344 96.7194C163.443 96.3361 163.663 95.6881 163.714 95.4758C163.714 95.4758 162.503 95.2823 162.083 95.339C162.082 95.339 158.218 95.0714 156.532 95.2983Z" fill="black"/>
</g>
</g>
<path d="M131.454 145.714C131.431 145.702 131.515 145.49 131.687 145.116C131.856 144.741 132.126 144.21 132.48 143.565C133.185 142.274 134.257 140.541 135.608 138.743C136.962 136.948 138.332 135.437 139.378 134.402C139.9 133.885 140.335 133.478 140.648 133.211C140.96 132.942 141.141 132.803 141.159 132.822C141.199 132.864 140.561 133.51 139.571 134.588C138.581 135.665 137.254 137.19 135.912 138.971C134.571 140.754 133.473 142.45 132.712 143.699C131.951 144.949 131.506 145.74 131.454 145.714Z" fill="#263238"/>
<path d="M136.851 127.699C136.894 127.744 136.054 128.552 134.801 129.95C133.548 131.346 131.914 133.365 130.372 135.776C128.835 138.19 127.693 140.523 126.957 142.247C126.218 143.971 125.841 145.073 125.78 145.053C125.755 145.045 125.826 144.763 125.975 144.256C126.12 143.749 126.369 143.026 126.709 142.146C127.387 140.384 128.501 138.01 130.052 135.573C131.608 133.14 133.292 131.127 134.604 129.769C135.259 129.088 135.81 128.558 136.21 128.213C136.606 127.863 136.834 127.68 136.851 127.699Z" fill="#263238"/>
<path d="M230.722 142.4C230.702 142.416 230.496 142.204 230.14 141.806C229.729 141.351 229.223 140.793 228.628 140.133C227.347 138.725 225.536 136.818 223.479 134.766C221.419 132.717 219.504 130.913 218.09 129.636C217.429 129.043 216.868 128.54 216.411 128.13C216.012 127.777 215.799 127.571 215.816 127.55C215.832 127.53 216.076 127.697 216.505 128.016C216.932 128.337 217.539 128.817 218.267 129.434C219.73 130.662 221.68 132.442 223.746 134.497C225.808 136.554 227.595 138.497 228.829 139.955C229.449 140.681 229.931 141.286 230.253 141.711C230.575 142.14 230.743 142.383 230.722 142.4Z" fill="#263238"/>
<path d="M139.968 137.179L144.739 139.745L155.321 142.746C155.321 142.746 153.114 157.203 151.755 158.436C150.397 159.669 134.92 146.686 134.92 146.686L139.968 137.179Z" fill="#FFBE9D"/>
<path d="M212.104 136.312L208.664 138.988L198.732 143.711C198.732 143.711 203.324 157.597 204.869 158.586C206.415 159.575 219.505 144.195 219.505 144.195L212.104 136.312Z" fill="#FFBE9D"/>
<path d="M163.235 31.9834C163.099 35.7041 158.133 37.9586 158.196 41.6808C158.224 43.2779 159.216 44.7121 159.41 46.2982C159.672 48.4299 158.479 50.4422 158.038 52.544C157.13 56.8749 159.653 61.4429 163.394 63.8138C167.135 66.1847 171.832 66.6371 176.222 66.0371" fill="#263238"/>
<path d="M193.227 31.0713C193.08 33.0684 194.401 34.8524 195.731 36.3505C197.062 37.8487 198.543 39.4102 198.83 41.392C199.34 44.9047 195.897 48.1658 196.607 51.6428C196.988 53.5068 198.516 55.0036 198.788 56.8865C199.052 58.7075 198.074 60.4893 196.863 61.8755C195.652 63.2617 194.248 63.0588 193.177 64.5555C192.048 66.1322 190.231 67.7497 188.529 68.6806C184.67 70.7911 180.038 67.7373 178.176 67.1897" fill="#263238"/>
<path d="M162.487 34.125C162.435 32.3141 164.112 30.9141 165.8 30.2508C167.489 29.5876 169.366 29.3374 170.871 28.3258C172.204 27.4298 173.1 26.0327 174.228 24.8909C176.995 22.0894 181.317 20.928 185.119 21.9636C188.922 22.9992 192.053 26.1912 193.012 30.0087C193.661 32.5883 193.219 35.6377 191.182 37.3519C188.819 39.341 185.315 38.8995 182.287 38.2806C179.259 37.6617 175.832 37.0515 173.304 38.8268C171.778 39.8973 170.904 41.6399 169.973 43.2515C169.041 44.8639 167.871 46.5097 166.109 47.1155C164.346 47.7213 161.953 46.6748 161.884 44.8151" fill="#263238"/>
<path d="M169.64 34.4964C168.074 34.6651 166.897 36.0033 166.932 37.5764L168.742 78.5086C168.818 83.3427 175.894 86.0591 181.078 85.9383C186.312 85.8169 186.481 83.2533 186.546 78.654C186.655 70.9704 186.646 68.0861 186.649 68.1297C186.649 68.1297 193.261 67.0184 194.612 58.3981C195.284 54.1108 195.053 47.0854 194.677 41.3422C194.34 36.1735 190.895 29.8382 185.738 30.3946L169.64 34.4964Z" fill="#FFBE9D"/>
<path d="M191.938 46.2672C191.959 46.8505 191.483 47.3508 190.873 47.3843C190.264 47.4185 189.752 46.9741 189.73 46.3901C189.708 45.8068 190.185 45.3065 190.793 45.2723C191.403 45.2388 191.916 45.6839 191.938 46.2672Z" fill="#263238"/>
<path d="M193.16 45.0021C193.023 45.1461 192.183 44.5286 190.992 44.5344C189.803 44.5235 188.93 45.1366 188.8 44.9919C188.737 44.9279 188.876 44.6668 189.256 44.3897C189.63 44.1133 190.268 43.8443 191.01 43.8457C191.752 43.8479 192.377 44.1192 192.736 44.3977C193.102 44.677 193.227 44.9373 193.16 45.0021Z" fill="#263238"/>
<path d="M180.384 46.2682C180.406 46.8514 179.929 47.3518 179.319 47.3852C178.711 47.4194 178.199 46.9751 178.177 46.3911C178.155 45.8078 178.632 45.3074 179.24 45.2733C179.85 45.2398 180.362 45.6849 180.384 46.2682Z" fill="#263238"/>
<path d="M181.453 45.2496C181.317 45.3943 180.475 44.7762 179.285 44.782C178.096 44.7703 177.223 45.3842 177.093 45.2387C177.03 45.174 177.167 44.9143 177.549 44.6365C177.923 44.3602 178.561 44.0911 179.303 44.0918C180.044 44.0947 180.669 44.366 181.029 44.6438C181.395 44.9245 181.52 45.1849 181.453 45.2496Z" fill="#263238"/>
<path d="M185.795 54.0596C185.789 53.992 186.529 53.8625 187.729 53.7069C188.032 53.6749 188.321 53.6138 188.371 53.4066C188.442 53.1869 188.314 52.8596 188.166 52.5069C187.879 51.7731 187.578 51.0029 187.262 50.1964C186.005 46.907 185.096 44.2015 185.228 44.1521C185.362 44.1026 186.488 46.7288 187.744 50.0182C188.046 50.8291 188.335 51.6029 188.611 52.3426C188.726 52.6873 188.925 53.0786 188.771 53.5338C188.689 53.7607 188.466 53.9258 188.272 53.9789C188.077 54.0385 187.906 54.0422 187.756 54.0516C186.549 54.12 185.8 54.1273 185.795 54.0596Z" fill="#263238"/>
<path d="M186.649 68.1302C186.649 68.1302 180.845 68.5171 175.085 65.0771C175.182 65.0975 178.268 71.0677 186.537 70.1651L186.649 68.1302Z" fill="#EB996E"/>
<path d="M185.298 56.9264C184.869 56.3621 184.118 56.053 183.373 56.1352C182.855 56.1919 182.334 56.4421 182.022 56.8632C181.708 57.2843 181.644 57.8806 181.931 58.2806C182.253 58.7315 182.925 58.8341 183.493 58.6712C184.061 58.509 184.549 58.1337 185.013 57.7606C185.141 57.6574 185.272 57.5497 185.352 57.4086C185.432 57.2675 185.449 57.0828 185.349 56.9657" fill="#E8505B"/>
<path d="M182.293 54.8907C182.486 54.8791 182.491 56.17 183.6 57.0835C184.706 58.0005 186.084 57.8522 186.094 58.0325C186.113 58.1133 185.788 58.2842 185.207 58.3009C184.636 58.322 183.802 58.1409 183.124 57.5816C182.448 57.0216 182.156 56.2726 182.111 55.7431C182.06 55.2035 182.204 54.8835 182.293 54.8907Z" fill="#263238"/>
<path d="M181.985 43.1671C181.868 43.4907 180.678 43.3402 179.282 43.5111C177.881 43.6544 176.755 44.0653 176.569 43.7758C176.486 43.6376 176.682 43.3329 177.137 43.0187C177.588 42.7053 178.308 42.4064 179.146 42.3111C179.985 42.2173 180.753 42.3489 181.263 42.5547C181.776 42.7598 182.035 43.0136 181.985 43.1671Z" fill="#263238"/>
<path d="M192.714 41.5611C192.505 41.8316 191.684 41.5531 190.697 41.5422C189.711 41.4964 188.876 41.7276 188.683 41.4455C188.598 41.308 188.729 41.0375 189.094 40.7807C189.453 40.5255 190.054 40.3153 190.732 40.3342C191.41 40.3546 191.998 40.5975 192.342 40.8738C192.691 41.1516 192.806 41.4295 192.714 41.5611Z" fill="#263238"/>
<path d="M165.988 63.3257C168.36 63.8035 168.572 62.5977 170.346 60.9512C172.119 59.3054 173.035 56.7839 172.731 54.3861C172.463 52.2698 171.32 50.1163 172.055 48.1134C173.027 45.4647 176.745 44.6502 177.731 42.0073C178.304 40.4713 177.79 38.6742 178.44 37.1695C179.051 35.7542 180.542 34.9389 181.994 34.4146C183.445 33.8902 185.002 33.5288 186.221 32.5826C187.439 31.6364 188.2 29.851 187.414 28.5244C180.976 29.2946 174.63 30.8342 168.557 33.0997C167.148 33.6248 165.669 34.256 164.837 35.5062C163.956 36.8291 163.998 38.5382 164.072 40.1244C164.433 47.8618 164.795 55.5992 165.157 63.3366" fill="#263238"/>
<path d="M160.559 45.7461C160.287 42.9061 157.97 40.3854 155.159 39.8719C152.348 39.3585 149.287 40.8967 148.025 43.4566C146.826 45.8908 147.241 48.8523 148.361 51.3235C149.692 54.2602 152.417 56.9439 155.642 56.7977C158.676 56.6602 161.118 53.9999 161.993 51.0951C162.867 48.1912 162.514 45.0777 162.153 42.0668" fill="#263238"/>
<path d="M158.869 57.548C158.86 57.5582 158.661 57.412 158.417 57.0477C158.17 56.6891 157.893 56.1 157.773 55.3233C157.646 54.5502 157.67 53.6091 157.851 52.6011C158.026 51.5866 158.369 50.5248 158.618 49.3961C158.872 48.2717 158.991 47.1721 158.806 46.2077C158.629 45.2484 158.177 44.4332 157.978 43.6754C157.76 42.919 157.788 42.2528 157.927 41.8325C158.063 41.4077 158.249 41.2317 158.262 41.2448C158.291 41.2623 158.153 41.4623 158.069 41.8688C157.983 42.2724 157.996 42.8899 158.235 43.5975C158.453 44.3124 158.933 45.1066 159.149 46.1423C159.366 47.1721 159.247 48.3328 158.988 49.4782C158.733 50.6288 158.381 51.687 158.194 52.6644C157.999 53.6426 157.95 54.5444 158.038 55.2869C158.2 56.7997 158.943 57.5095 158.869 57.548Z" fill="#455A64"/>
<path d="M158.744 47.2001C158.774 47.222 158.364 47.822 157.42 48.4932C156.492 49.163 154.967 49.8489 153.179 49.8816C151.391 49.9121 149.842 49.2794 148.891 48.6423C147.925 48.0038 147.493 47.419 147.523 47.3958C147.569 47.347 148.063 47.8561 149.031 48.414C149.986 48.9725 151.475 49.531 153.172 49.5027C154.868 49.4714 156.337 48.8612 157.272 48.27C158.221 47.6794 158.696 47.1536 158.744 47.2001Z" fill="#455A64"/>
<path d="M158.316 48.5501C158.353 48.5676 158.141 49.124 157.585 49.9036C157.034 50.6818 156.094 51.6498 154.837 52.4083C153.576 53.1625 152.279 53.537 151.332 53.6585C150.383 53.7836 149.791 53.7094 149.793 53.6694C149.792 53.6054 150.376 53.5836 151.286 53.3952C152.196 53.2105 153.427 52.8098 154.641 52.0847C155.852 51.3538 156.783 50.4556 157.373 49.74C157.967 49.0243 158.26 48.5196 158.316 48.5501Z" fill="#455A64"/>
<path d="M160.488 60.4335C160.483 60.4371 160.451 60.4015 160.393 60.3265C160.34 60.2495 160.244 60.1433 160.155 59.9818C159.96 59.6698 159.726 59.1665 159.586 58.4749C159.448 57.7876 159.436 56.896 159.725 55.9302C159.994 54.9666 160.667 53.9324 161.733 53.2328C162.757 52.512 164.09 52.0095 164.937 50.8626C165.359 50.3026 165.538 49.5753 165.405 48.8393C165.289 48.0997 164.951 47.3746 164.654 46.603C163.994 45.059 163.988 43.1303 164.766 41.4583C165.157 40.627 165.739 39.8517 166.516 39.2859C167.289 38.7026 168.233 38.4015 169.163 38.1899C170.098 37.9768 171.03 37.8532 171.895 37.5928C172.758 37.3354 173.583 36.9485 174.183 36.3434C174.798 35.7456 175.059 34.9165 175.176 34.0823C175.294 33.2488 175.357 32.3841 175.582 31.5768C176.004 29.9609 176.827 28.5289 177.912 27.4998C178.995 26.4641 180.324 25.8707 181.578 25.6838C182.837 25.4881 184.022 25.7209 184.914 26.1878C185.815 26.646 186.441 27.2816 186.844 27.8561C187.245 28.438 187.431 28.9616 187.519 29.3187C187.608 29.6765 187.603 29.8729 187.603 29.8729C187.547 29.8961 187.536 29.0641 186.724 27.9427C186.315 27.398 185.694 26.8001 184.819 26.3776C183.954 25.9471 182.823 25.7449 181.619 25.9485C180.421 26.1441 179.155 26.7281 178.129 27.7267C177.101 28.7209 176.319 30.1019 175.92 31.6648C175.706 32.4452 175.652 33.2685 175.534 34.1361C175.422 34.9892 175.135 35.9346 174.448 36.6037C173.783 37.2772 172.901 37.6837 172.004 37.9543C171.097 38.2277 170.162 38.3506 169.247 38.5601C168.336 38.7666 167.45 39.0539 166.739 39.5899C166.018 40.1121 165.473 40.8343 165.102 41.6154C164.368 43.195 164.358 44.9964 164.981 46.4801C165.266 47.2386 165.613 47.9833 165.735 48.7899C165.879 49.592 165.662 50.4451 165.191 51.048C164.249 52.2844 162.877 52.7659 161.884 53.4546C160.85 54.1142 160.21 55.0691 159.927 55.9942C159.629 56.9156 159.619 57.7782 159.731 58.4495C159.969 59.8131 160.546 60.4095 160.488 60.4335Z" fill="#455A64"/>
<path d="M161.066 36.3746C161.066 36.3746 160.985 36.2496 160.959 35.9768C160.931 35.7092 160.971 35.2816 161.245 34.8321C161.513 34.3885 161.99 33.9136 162.688 33.6401C163.395 33.3688 164.267 33.3776 165.167 33.5587C166.071 33.7296 167.009 34.0903 168.036 34.2888C169.044 34.483 170.247 34.5107 171.157 33.7987C172.074 33.1027 172.534 31.8961 173.006 30.6969C173.466 29.4721 174.119 28.2387 175 27.1478C176.759 24.9609 179.142 23.4605 181.53 22.9296C182.725 22.6714 183.93 22.6947 184.978 23.0198C186.025 23.3434 186.904 23.934 187.503 24.6496C188.113 25.3601 188.409 26.2001 188.459 26.9332C188.52 27.6707 188.375 28.3063 188.173 28.7805C187.974 29.2583 187.715 29.5769 187.524 29.7645C187.332 29.955 187.211 30.0299 187.206 30.0234C187.161 29.9899 187.677 29.6634 188.037 28.726C188.209 28.2627 188.325 27.6518 188.248 26.9536C188.18 26.2576 187.887 25.4838 187.299 24.8234C186.723 24.1609 185.883 23.614 184.887 23.3202C183.893 23.0256 182.749 23.0132 181.605 23.27C179.316 23.7965 176.999 25.2627 175.295 27.3834C174.439 28.4467 173.812 29.6227 173.351 30.8329C172.873 32.0212 172.401 33.2961 171.368 34.0765C170.865 34.4648 170.25 34.6619 169.664 34.715C169.073 34.7725 168.507 34.699 167.975 34.5957C166.91 34.3747 165.988 34.0008 165.112 33.8197C164.246 33.6277 163.416 33.6067 162.763 33.8379C162.106 34.0728 161.639 34.5048 161.371 34.9099C161.094 35.3201 161.033 35.715 161.036 35.9717C161.036 36.2343 161.089 36.3688 161.066 36.3746Z" fill="#455A64"/>
<path d="M281.048 324.271C281.042 324.267 281.084 324.167 281.172 323.974C281.271 323.764 281.403 323.483 281.571 323.125C281.911 322.374 282.351 321.238 282.744 319.724C283.52 316.701 283.79 312.08 282.644 306.593C282.112 303.845 281.253 300.897 280.205 297.772C279.172 294.642 277.973 291.321 276.994 287.73C276.025 284.148 275.261 280.26 275.408 276.184C275.557 272.1 276.767 268.023 278.099 263.966C279.428 259.901 280.802 255.929 281.214 251.933C281.68 247.944 280.825 244.028 279.005 240.82C277.243 237.578 275.025 234.804 273.365 231.932C271.68 229.068 270.625 226.124 269.976 223.387C268.717 217.866 269.157 213.215 269.761 210.149C270.415 207.066 271.144 205.474 271.144 205.474C271.151 205.476 271.123 205.581 271.062 205.784C270.993 206.005 270.901 206.302 270.783 206.68C270.539 207.468 270.223 208.644 269.923 210.18C269.371 213.239 268.982 217.859 270.266 223.319C270.929 226.026 271.988 228.932 273.668 231.755C275.323 234.594 277.55 237.355 279.348 240.636C281.206 243.88 282.099 247.923 281.626 251.975C281.212 256.039 279.827 260.038 278.501 264.097C277.169 268.151 275.973 272.185 275.821 276.201C275.67 280.214 276.416 284.065 277.369 287.63C278.332 291.203 279.517 294.524 280.536 297.664C281.571 300.798 282.419 303.769 282.936 306.537C284.053 312.065 283.734 316.732 282.903 319.766C282.482 321.284 282.013 322.419 281.649 323.161C281.464 323.513 281.319 323.789 281.211 323.995C281.11 324.181 281.055 324.275 281.048 324.271Z" fill="#263238"/>
<path d="M275.62 234.765C275.62 234.765 272.25 224.004 278.295 217.704C278.507 217.483 278.88 217.588 278.935 217.889C279.258 219.666 279.661 225.079 275.62 234.765Z" fill="#71B219"/>
<path d="M277.638 221.289C277.696 221.301 277.599 222.058 277.411 223.275C277.19 224.642 276.93 226.247 276.642 228.021C276.36 229.795 276.105 231.4 275.888 232.767C275.703 233.982 275.593 234.736 275.531 234.731C275.476 234.727 275.482 233.961 275.591 232.731C275.703 231.502 275.92 229.811 276.226 227.954C276.529 226.097 276.854 224.425 277.118 223.221C277.381 222.016 277.581 221.278 277.638 221.289Z" fill="#263238"/>
<path d="M279.578 260.145C279.578 260.145 281.639 249.06 289.933 246.314C290.224 246.218 290.505 246.484 290.412 246.776C289.866 248.498 287.687 253.47 279.578 260.145Z" fill="#71B219"/>
<path d="M287.673 249.176C287.718 249.214 287.278 249.838 286.543 250.825C285.707 251.931 284.725 253.228 283.64 254.662C282.56 256.098 281.583 257.398 280.751 258.504C280.018 259.493 279.568 260.107 279.516 260.074C279.469 260.045 279.833 259.371 280.506 258.334C281.18 257.299 282.164 255.906 283.304 254.407C284.442 252.908 285.512 251.582 286.309 250.64C287.106 249.699 287.628 249.14 287.673 249.176Z" fill="#263238"/>
<path d="M277.337 287.953C277.337 287.953 276.085 276.748 283.222 271.715C283.473 271.539 283.82 271.712 283.816 272.019C283.793 273.824 283.155 279.215 277.337 287.953Z" fill="#71B219"/>
<path d="M281.893 275.11C281.947 275.132 281.708 275.857 281.291 277.015C280.812 278.316 280.25 279.842 279.629 281.528C279.014 283.215 278.457 284.743 277.982 286.043C277.568 287.201 277.316 287.919 277.257 287.903C277.204 287.888 277.356 287.137 277.698 285.951C278.042 284.765 278.579 283.146 279.233 281.381C279.887 279.617 280.525 278.037 281.013 276.906C281.501 275.773 281.839 275.087 281.893 275.11Z" fill="#263238"/>
<path d="M283.585 315.925C283.585 315.925 282.736 304.683 290.049 299.908C290.306 299.74 290.646 299.926 290.631 300.232C290.544 302.036 289.713 307.4 283.585 315.925Z" fill="#71B219"/>
<path d="M288.598 303.253C288.651 303.277 288.386 303.992 287.928 305.135C287.403 306.418 286.787 307.923 286.106 309.586C285.43 311.25 284.819 312.756 284.297 314.039C283.843 315.181 283.565 315.89 283.506 315.871C283.453 315.855 283.632 315.111 284.017 313.937C284.404 312.765 284.997 311.165 285.715 309.426C286.431 307.686 287.125 306.13 287.654 305.016C288.184 303.902 288.545 303.229 288.598 303.253Z" fill="#263238"/>
<path d="M270.776 225.311C270.776 225.311 260.768 220.092 260.572 211.369C260.565 211.063 260.903 210.873 261.155 211.047C262.643 212.074 266.765 215.612 270.776 225.311Z" fill="#71B219"/>
<path d="M262.65 214.365C262.699 214.333 263.167 214.936 263.897 215.928C264.71 217.051 265.664 218.368 266.719 219.824C267.777 221.277 268.735 222.591 269.55 223.71C270.282 224.699 270.737 225.309 270.69 225.349C270.649 225.385 270.11 224.84 269.315 223.894C268.523 222.947 267.477 221.599 266.376 220.071C265.275 218.544 264.319 217.134 263.652 216.097C262.983 215.061 262.601 214.398 262.65 214.365Z" fill="#263238"/>
<path d="M281.523 248.421C281.523 248.421 271.216 243.819 270.49 235.123C270.464 234.818 270.79 234.608 271.053 234.766C272.6 235.701 276.929 238.983 281.523 248.421Z" fill="#71B219"/>
<path d="M272.746 237.988C272.793 237.952 273.297 238.526 274.086 239.472C274.966 240.544 275.998 241.801 277.139 243.19C278.283 244.575 279.319 245.829 280.201 246.897C280.992 247.839 281.484 248.421 281.439 248.464C281.399 248.502 280.828 247.991 279.978 247.095C279.129 246.197 278.003 244.915 276.812 243.457C275.62 242 274.58 240.65 273.85 239.656C273.121 238.661 272.7 238.024 272.746 237.988Z" fill="#263238"/>
<path d="M275.593 274.198C275.593 274.198 268.516 265.413 271.835 257.341C271.952 257.057 272.338 257.019 272.499 257.279C273.45 258.816 275.807 263.706 275.593 274.198Z" fill="#71B219"/>
<path d="M272.537 260.919C272.595 260.909 272.782 261.649 273.053 262.85C273.347 264.203 273.693 265.792 274.076 267.548C274.462 269.302 274.813 270.889 275.111 272.241C275.384 273.44 275.558 274.182 275.498 274.2C275.445 274.216 275.17 273.501 274.822 272.316C274.475 271.131 274.058 269.478 273.663 267.638C273.266 265.798 272.955 264.124 272.759 262.907C272.564 261.689 272.48 260.929 272.537 260.919Z" fill="#263238"/>
<path d="M282.602 304.532C282.602 304.532 272.374 299.758 271.794 291.052C271.774 290.746 272.103 290.541 272.363 290.704C273.894 291.665 278.168 295.018 282.602 304.532Z" fill="#71B219"/>
<path d="M274.002 293.954C274.05 293.919 274.544 294.5 275.317 295.46C276.179 296.546 277.19 297.82 278.308 299.228C279.428 300.633 280.443 301.903 281.307 302.986C282.081 303.942 282.563 304.532 282.518 304.574C282.478 304.611 281.916 304.091 281.08 303.18C280.246 302.269 279.142 300.968 277.976 299.49C276.809 298.014 275.792 296.647 275.079 295.64C274.365 294.634 273.955 293.988 274.002 293.954Z" fill="#263238"/>
<path d="M302.975 260.205C302.984 260.206 302.989 260.29 302.988 260.453C302.983 260.649 302.977 260.886 302.97 261.174C302.94 261.851 302.899 262.766 302.849 263.908C302.717 266.311 302.533 269.662 302.314 273.67L302.313 273.68L302.311 273.694C301.58 277.774 299.5 282.295 296.705 286.686C294.655 289.92 292.505 292.86 290.652 295.595C288.787 298.322 287.211 300.847 286.114 303.086C285.009 305.321 284.367 307.241 283.991 308.582C283.811 309.256 283.676 309.781 283.598 310.141C283.514 310.499 283.463 310.686 283.449 310.683C283.434 310.681 283.458 310.488 283.515 310.124C283.566 309.758 283.676 309.225 283.832 308.541C284.16 307.179 284.766 305.226 285.845 302.955C286.917 300.681 288.477 298.122 290.329 295.377C292.17 292.623 294.307 289.678 296.347 286.461C299.128 282.092 301.197 277.639 301.955 273.625L301.952 273.649C302.234 269.644 302.47 266.297 302.639 263.895C302.731 262.756 302.805 261.844 302.859 261.168C302.888 260.881 302.912 260.646 302.931 260.451C302.951 260.288 302.966 260.204 302.975 260.205Z" fill="#263238"/>
<path d="M296.885 285.846C296.885 285.846 301.217 275.435 295.768 268.614C295.576 268.374 295.194 268.445 295.113 268.74C294.631 270.48 293.739 275.834 296.885 285.846Z" fill="#E8505B"/>
<path d="M296.096 272.243C296.154 272.237 296.287 272.989 296.439 274.213C296.593 275.436 296.764 277.13 296.899 279.007C297.035 280.884 297.098 282.588 297.097 283.822C297.094 285.057 297.031 285.82 296.976 285.819C296.914 285.818 296.873 285.058 296.799 283.831C296.706 282.45 296.598 280.828 296.478 279.036C296.353 277.244 296.239 275.621 296.143 274.24C296.066 273.012 296.039 272.25 296.096 272.243Z" fill="#263238"/>
<path d="M296.885 285.846C296.885 285.846 301.217 275.435 295.768 268.614C295.576 268.374 295.194 268.445 295.113 268.74C294.631 270.48 293.739 275.834 296.885 285.846Z" fill="#71B219"/>
<path d="M283.469 310.936C283.469 310.936 286.941 300.208 280.956 293.85C280.745 293.627 280.371 293.728 280.314 294.029C279.973 295.803 279.519 301.212 283.469 310.936Z" fill="#E8505B"/>
<path d="M281.578 297.442C281.635 297.431 281.828 298.17 282.08 299.377C282.332 300.583 282.641 302.258 282.927 304.118C283.215 305.977 283.416 307.671 283.516 308.901C283.613 310.132 283.612 310.898 283.557 310.902C283.495 310.906 283.392 310.151 283.219 308.935C283.015 307.565 282.775 305.958 282.51 304.182C282.24 302.406 281.995 300.798 281.787 299.428C281.61 298.21 281.52 297.452 281.578 297.442Z" fill="#263238"/>
<path d="M283.469 310.936C283.469 310.936 286.941 300.208 280.956 293.85C280.745 293.627 280.371 293.728 280.314 294.029C279.973 295.803 279.519 301.212 283.469 310.936Z" fill="#71B219"/>
<path d="M302.402 273.122C302.402 273.122 311.652 266.656 310.718 257.981C310.685 257.676 310.325 257.531 310.097 257.736C308.755 258.946 305.126 262.986 302.402 273.122Z" fill="#E8505B"/>
<path d="M302.402 273.122C302.402 273.122 311.652 266.656 310.718 257.981C310.685 257.676 310.325 257.531 310.097 257.736C308.755 258.946 305.126 262.986 302.402 273.122Z" fill="#71B219"/>
<path d="M309.045 261.22C309.097 261.246 308.805 261.952 308.277 263.066C307.749 264.18 306.983 265.702 306.088 267.358C305.194 269.014 304.332 270.486 303.668 271.528C303.002 272.569 302.538 273.179 302.492 273.148C302.441 273.114 302.814 272.45 303.411 271.375C304.075 270.16 304.854 268.734 305.716 267.157C306.573 265.577 307.349 264.148 308.01 262.93C308.606 261.852 308.993 261.193 309.045 261.22Z" fill="#263238"/>
<path d="M287.198 300.299C287.198 300.299 298.354 298.563 301.343 290.364C301.448 290.076 301.189 289.788 300.894 289.871C299.154 290.368 294.114 292.398 287.198 300.299Z" fill="#E8505B"/>
<path d="M287.198 300.299C287.198 300.299 298.354 298.563 301.343 290.364C301.448 290.076 301.189 289.788 300.894 289.871C299.154 290.368 294.114 292.398 287.198 300.299Z" fill="#71B219"/>
<path d="M298.411 292.536C298.447 292.582 297.872 293.087 296.907 293.855C295.941 294.624 294.583 295.653 293.05 296.745C291.516 297.84 290.093 298.781 289.038 299.424C287.981 300.066 287.296 300.409 287.268 300.363C287.236 300.309 287.865 299.877 288.875 299.175C290.007 298.376 291.336 297.438 292.805 296.402C294.271 295.361 295.598 294.419 296.728 293.616C297.738 292.91 298.376 292.49 298.411 292.536Z" fill="#263238"/>
<path d="M276.556 320.801L273.301 342.672H293.581L290.952 320.801H276.556Z" fill="#455A64"/>
<path d="M283.585 327.789C288.101 327.789 291.763 327.695 291.763 327.578C291.763 327.462 288.101 327.367 283.585 327.367C279.069 327.367 275.408 327.462 275.408 327.578C275.408 327.695 279.069 327.789 283.585 327.789Z" fill="#263238"/>
<path d="M283.719 329.53C288.383 329.53 292.164 329.436 292.164 329.319C292.164 329.203 288.383 329.108 283.719 329.108C279.055 329.108 275.273 329.203 275.273 329.319C275.273 329.436 279.055 329.53 283.719 329.53Z" fill="#263238"/>
<path d="M35.0145 302.75C37.0749 303.02 38.9081 304.326 40.1222 306.01C41.337 307.693 41.986 309.726 42.3297 311.773C42.9939 315.732 41.9219 320.227 40.4514 323.964C36.4093 322.07 34.2549 317.366 33.3125 314.911C31.8223 311.031 31.4888 303.116 35.0145 302.75Z" fill="#71B219"/>
<path d="M46.4099 329.535C45.1274 327.603 45.1579 324.958 46.2541 322.915C47.3502 320.871 49.3989 319.427 51.6334 318.798C52.6661 318.507 53.8599 318.402 54.7382 319.018C55.5597 319.593 55.8948 320.694 55.7637 321.687C55.6333 322.681 55.106 323.58 54.492 324.372C52.3843 327.089 49.8454 329.331 46.4099 329.535Z" fill="#71B219"/>
<path d="M45.3894 342.076C45.3588 342.077 45.3115 341.781 45.254 341.242C45.1972 340.704 45.1294 339.924 45.0755 338.956C44.9787 337.03 44.8985 334.314 45.5373 331.39C46.1797 328.463 47.5999 326.042 48.9815 324.651C49.6654 323.948 50.3027 323.466 50.7702 323.184C51.2371 322.9 51.516 322.782 51.5284 322.804C51.5801 322.88 50.4898 323.436 49.216 324.867C47.9334 326.274 46.605 328.636 45.9779 331.488C45.3537 334.343 45.3785 337.024 45.3945 338.946C45.4251 340.875 45.4557 342.073 45.3894 342.076Z" fill="#263238"/>
<path d="M35.9547 308.755C35.9846 308.746 36.1645 309.207 36.4645 310.05C36.7661 310.892 37.1812 312.119 37.6779 313.639C38.6728 316.679 39.9779 320.903 41.3035 325.6C42.6283 330.3 43.7229 334.583 44.4636 337.695C44.8343 339.25 45.1213 340.513 45.3041 341.388C45.4884 342.264 45.5765 342.751 45.5459 342.759C45.5153 342.766 45.3704 342.292 45.1337 341.43C44.8824 340.49 44.5525 339.258 44.1541 337.772C43.3347 334.682 42.1927 330.417 40.8694 325.722C39.5446 321.029 38.2897 316.796 37.3735 313.733C36.9365 312.258 36.5738 311.036 36.297 310.103C36.0487 309.244 35.9256 308.764 35.9547 308.755Z" fill="#263238"/>
<path d="M41.0261 333.3C39.0545 328.827 34.7917 325.436 29.9848 324.517C28.7613 324.283 27.2515 324.317 26.5712 325.359C25.8895 326.403 26.4729 327.802 27.207 328.81C30.2616 333.005 36.0262 335.017 41.0326 333.638" fill="#71B219"/>
<path d="M31.3292 328.033C31.3343 328.003 31.6198 328.033 32.1348 328.115C32.3933 328.151 32.7072 328.208 33.0634 328.312C33.4202 328.411 33.8354 328.5 34.2694 328.673C35.1565 328.967 36.1725 329.436 37.2424 330.057C38.2985 330.701 39.4004 331.509 40.4346 332.497C41.4565 333.498 42.302 334.571 42.9801 335.605C43.6363 336.653 44.1389 337.651 44.4615 338.527C44.6487 338.955 44.7514 339.366 44.8621 339.719C44.9771 340.071 45.0449 340.382 45.0893 340.639C45.1884 341.15 45.2277 341.433 45.1971 341.44C45.1111 341.459 44.8905 340.33 44.1665 338.647C43.8126 337.803 43.2918 336.842 42.6327 335.831C41.951 334.835 41.1171 333.796 40.1207 332.819C39.112 331.857 38.0458 331.059 37.0261 330.411C35.9934 329.785 35.0145 329.296 34.158 328.971C32.4501 328.304 31.3118 328.12 31.3292 328.033Z" fill="#263238"/>
<path d="M245.18 63.9359C247.128 63.9359 248.707 63.7614 248.707 63.5461C248.707 63.3308 247.128 63.1562 245.18 63.1562C243.233 63.1562 241.654 63.3308 241.654 63.5461C241.654 63.7614 243.233 63.9359 245.18 63.9359Z" fill="#71B219"/>
<path d="M237.909 61.112C238.124 61.112 238.299 59.5122 238.299 57.5389C238.299 55.5655 238.124 53.9658 237.909 53.9658C237.693 53.9658 237.518 55.5655 237.518 57.5389C237.518 59.5122 237.693 61.112 237.909 61.112Z" fill="#71B219"/>
<path d="M230.393 63.7064C232.341 63.7064 233.92 63.5319 233.92 63.3166C233.92 63.1013 232.341 62.9268 230.393 62.9268C228.445 62.9268 226.867 63.1013 226.867 63.3166C226.867 63.5319 228.445 63.7064 230.393 63.7064Z" fill="#71B219"/>
<path d="M237.665 72.8962C237.88 72.8962 238.055 71.2964 238.055 69.3231C238.055 67.3497 237.88 65.75 237.665 65.75C237.449 65.75 237.274 67.3497 237.274 69.3231C237.274 71.2964 237.449 72.8962 237.665 72.8962Z" fill="#71B219"/>
<path d="M233.529 67.5345C234.222 66.7063 234.649 65.9231 234.483 65.7851C234.318 65.6471 233.622 66.2066 232.93 67.0347C232.237 67.8628 231.81 68.6461 231.975 68.7841C232.141 68.9221 232.837 68.3626 233.529 67.5345Z" fill="#71B219"/>
<path d="M234.902 60.5544C235.056 60.4029 234.597 59.6929 233.878 58.9686C233.159 58.2443 232.452 57.7801 232.299 57.9316C232.146 58.0832 232.604 58.7932 233.323 59.5175C234.042 60.2417 234.749 60.706 234.902 60.5544Z" fill="#71B219"/>
<path d="M241.867 59.9649C242.552 59.3962 242.995 58.8009 242.857 58.6354C242.719 58.4699 242.053 58.7969 241.368 59.3656C240.683 59.9344 240.24 60.5297 240.378 60.6952C240.516 60.8606 241.183 60.5337 241.867 59.9649Z" fill="#71B219"/>
<path d="M243.068 68.0815C243.227 67.9365 242.827 67.2392 242.175 66.5239C241.522 65.8087 240.864 65.3464 240.704 65.4914C240.545 65.6364 240.945 66.3337 241.598 67.049C242.25 67.7642 242.908 68.2265 243.068 68.0815Z" fill="#71B219"/>
<path d="M69.3635 147.759C70.4692 147.759 71.3656 147.66 71.3656 147.537C71.3656 147.415 70.4692 147.316 69.3635 147.316C68.2577 147.316 67.3614 147.415 67.3614 147.537C67.3614 147.66 68.2577 147.759 69.3635 147.759Z" fill="#71B219"/>
<path d="M65.2353 146.155C65.3576 146.155 65.4567 145.247 65.4567 144.127C65.4567 143.007 65.3576 142.099 65.2353 142.099C65.113 142.099 65.0139 143.007 65.0139 144.127C65.0139 145.247 65.113 146.155 65.2353 146.155Z" fill="#71B219"/>
<path d="M60.968 147.628C62.0738 147.628 62.9702 147.529 62.9702 147.407C62.9702 147.285 62.0738 147.186 60.968 147.186C59.8623 147.186 58.9659 147.285 58.9659 147.407C58.9659 147.529 59.8623 147.628 60.968 147.628Z" fill="#71B219"/>
<path d="M65.0968 152.845C65.2191 152.845 65.3182 151.937 65.3182 150.816C65.3182 149.696 65.2191 148.788 65.0968 148.788C64.9745 148.788 64.8754 149.696 64.8754 150.816C64.8754 151.937 64.9745 152.845 65.0968 152.845Z" fill="#71B219"/>
<path d="M62.7487 149.808C63.1419 149.338 63.3845 148.893 63.2907 148.815C63.1968 148.737 62.802 149.054 62.4088 149.525C62.0156 149.995 61.7729 150.439 61.8668 150.518C61.9606 150.596 62.3555 150.278 62.7487 149.808Z" fill="#71B219"/>
<path d="M63.5245 145.837C63.6113 145.751 63.3509 145.348 62.9429 144.937C62.5348 144.526 62.1336 144.262 62.0468 144.348C61.9599 144.434 62.2203 144.837 62.6284 145.248C63.0364 145.659 63.4376 145.923 63.5245 145.837Z" fill="#71B219"/>
<path d="M67.4811 145.502C67.8698 145.179 68.1214 144.841 68.0432 144.748C67.965 144.654 67.5865 144.839 67.1979 145.162C66.8092 145.485 66.5575 145.823 66.6358 145.917C66.714 146.011 67.0924 145.825 67.4811 145.502Z" fill="#71B219"/>
<path d="M68.1569 150.114C68.2473 150.032 68.0201 149.636 67.6495 149.23C67.2789 148.823 66.9052 148.561 66.8148 148.643C66.7244 148.725 66.9516 149.121 67.3222 149.527C67.6928 149.934 68.0665 150.196 68.1569 150.114Z" fill="#71B219"/>
<path d="M247.292 190.869C248.398 190.869 249.294 190.77 249.294 190.648C249.294 190.526 248.398 190.427 247.292 190.427C246.186 190.427 245.29 190.526 245.29 190.648C245.29 190.77 246.186 190.869 247.292 190.869Z" fill="#71B219"/>
<path d="M243.163 189.266C243.285 189.266 243.384 188.358 243.384 187.237C243.384 186.117 243.285 185.209 243.163 185.209C243.041 185.209 242.941 186.117 242.941 187.237C242.941 188.358 243.041 189.266 243.163 189.266Z" fill="#71B219"/>
<path d="M238.896 190.738C240.002 190.738 240.898 190.639 240.898 190.517C240.898 190.395 240.002 190.296 238.896 190.296C237.791 190.296 236.894 190.395 236.894 190.517C236.894 190.639 237.791 190.738 238.896 190.738Z" fill="#71B219"/>
<path d="M243.024 195.955C243.147 195.955 243.246 195.047 243.246 193.927C243.246 192.807 243.147 191.898 243.024 191.898C242.902 191.898 242.803 192.807 242.803 193.927C242.803 195.047 242.902 195.955 243.024 195.955Z" fill="#71B219"/>
<path d="M240.684 192.915C241.078 192.444 241.32 192 241.226 191.921C241.133 191.843 240.738 192.161 240.345 192.631C239.951 193.101 239.709 193.546 239.803 193.624C239.896 193.702 240.291 193.385 240.684 192.915Z" fill="#71B219"/>
<path d="M241.454 188.957C241.541 188.871 241.281 188.468 240.873 188.057C240.465 187.646 240.064 187.382 239.977 187.468C239.89 187.554 240.15 187.957 240.558 188.368C240.966 188.779 241.368 189.043 241.454 188.957Z" fill="#71B219"/>
<path d="M245.408 188.615C245.797 188.292 246.048 187.954 245.97 187.86C245.892 187.766 245.513 187.952 245.125 188.275C244.736 188.598 244.484 188.935 244.563 189.029C244.641 189.123 245.019 188.938 245.408 188.615Z" fill="#71B219"/>
<path d="M246.091 193.231C246.182 193.149 245.955 192.753 245.584 192.347C245.213 191.941 244.84 191.678 244.749 191.76C244.659 191.843 244.886 192.238 245.257 192.645C245.627 193.051 246.001 193.313 246.091 193.231Z" fill="#71B219"/>
<path d="M99.9929 303.488C101.099 303.488 101.995 303.389 101.995 303.267C101.995 303.145 101.099 303.046 99.9929 303.046C98.8871 303.046 97.9908 303.145 97.9908 303.267C97.9908 303.389 98.8871 303.488 99.9929 303.488Z" fill="#71B219"/>
<path d="M95.8647 301.885C95.987 301.885 96.0861 300.977 96.0861 299.856C96.0861 298.736 95.987 297.828 95.8647 297.828C95.7424 297.828 95.6433 298.736 95.6433 299.856C95.6433 300.977 95.7424 301.885 95.8647 301.885Z" fill="#71B219"/>
<path d="M91.5974 303.357C92.7032 303.357 93.5996 303.258 93.5996 303.136C93.5996 303.014 92.7032 302.915 91.5974 302.915C90.4917 302.915 89.5953 303.014 89.5953 303.136C89.5953 303.258 90.4917 303.357 91.5974 303.357Z" fill="#71B219"/>
<path d="M95.7262 308.574C95.8485 308.574 95.9476 307.666 95.9476 306.546C95.9476 305.426 95.8485 304.518 95.7262 304.518C95.6039 304.518 95.5048 305.426 95.5048 306.546C95.5048 307.666 95.6039 308.574 95.7262 308.574Z" fill="#71B219"/>
<path d="M93.3829 305.541C93.7761 305.071 94.0188 304.627 93.9249 304.548C93.8311 304.47 93.4362 304.788 93.043 305.258C92.6498 305.728 92.4072 306.173 92.501 306.251C92.5949 306.329 92.9897 306.012 93.3829 305.541Z" fill="#71B219"/>
<path d="M94.1558 301.561C94.2427 301.475 93.9823 301.073 93.5742 300.661C93.1662 300.25 92.765 299.987 92.6781 300.073C92.5913 300.159 92.8517 300.562 93.2597 300.973C93.6678 301.384 94.069 301.647 94.1558 301.561Z" fill="#71B219"/>
<path d="M98.1047 301.239C98.4934 300.916 98.745 300.578 98.6668 300.484C98.5886 300.39 98.2101 300.576 97.8215 300.899C97.4328 301.222 97.1811 301.559 97.2593 301.653C97.3376 301.747 97.716 301.562 98.1047 301.239Z" fill="#71B219"/>
<path d="M98.7827 305.851C98.873 305.769 98.6459 305.373 98.2753 304.967C97.9047 304.561 97.531 304.298 97.4406 304.38C97.3502 304.463 97.5774 304.859 97.948 305.265C98.3186 305.671 98.6923 305.934 98.7827 305.851Z" fill="#71B219"/>
<path d="M95.0795 118.061L94.8501 118.611C94.4488 119.573 93.6782 120.336 92.711 120.728L92.1116 120.971L92.687 121.205C93.6687 121.602 94.4466 122.381 94.8428 123.362L95.0052 123.764L95.2477 123.259C95.6898 122.341 96.4735 121.631 97.4312 121.282L97.9541 121.091L97.271 120.761C96.4116 120.345 95.7335 119.629 95.3664 118.749L95.0795 118.061Z" fill="#71B219"/>
<path d="M69.3875 108.44L69.2724 108.716C69.0714 109.198 68.6868 109.579 68.2025 109.774L67.9025 109.896L68.1901 110.012C68.681 110.211 69.0699 110.6 69.268 111.091L69.3489 111.291L69.4705 111.039C69.6912 110.58 70.083 110.225 70.5623 110.051L70.8237 109.955L70.4821 109.79C70.0524 109.582 69.7138 109.224 69.5302 108.784L69.3875 108.44Z" fill="#71B219"/>
<path d="M268.651 68.9248L268.536 69.2004C268.335 69.6819 267.95 70.063 267.466 70.2586L267.166 70.3801L267.453 70.4964C267.944 70.695 268.333 71.0848 268.531 71.575L268.613 71.7757L268.735 71.5233C268.955 71.0644 269.347 70.7095 269.826 70.535L270.088 70.4397L269.746 70.2746C269.316 70.0666 268.978 69.7088 268.794 69.2681L268.651 68.9248Z" fill="#71B219"/>
<path d="M257.695 216.988L257.58 217.264C257.379 217.745 256.994 218.126 256.51 218.322L256.21 218.444L256.497 218.56C256.988 218.758 257.377 219.148 257.575 219.638L257.656 219.839L257.778 219.587C257.998 219.128 258.39 218.773 258.869 218.598L259.131 218.503L258.789 218.338C258.36 218.13 258.021 217.772 257.837 217.332L257.695 216.988Z" fill="#71B219"/>
<path d="M104.116 281.852L104.001 282.127C103.8 282.609 103.415 282.99 102.931 283.185L102.631 283.307L102.918 283.423C103.409 283.622 103.798 284.012 103.996 284.502L104.077 284.702L104.199 284.45C104.419 283.991 104.811 283.636 105.29 283.462L105.552 283.366L105.21 283.201C104.781 282.993 104.442 282.636 104.258 282.195L104.116 281.852Z" fill="#71B219"/>
<path d="M219.543 40.2354L219.427 40.511C219.226 40.9924 218.842 41.3735 218.358 41.5692L218.058 41.6906L218.345 41.807C218.836 42.0063 219.225 42.3953 219.423 42.8855L219.505 43.0862L219.626 42.8339C219.847 42.375 220.239 42.0201 220.718 41.8455L220.98 41.7503L220.638 41.5852C220.208 41.3772 219.87 41.0193 219.686 40.5786L219.543 40.2354Z" fill="#71B219"/>
<path d="M236.941 233.738L236.711 234.289C236.31 235.251 235.539 236.014 234.572 236.406L233.973 236.649L234.548 236.882C235.53 237.28 236.308 238.058 236.704 239.039L236.866 239.441L237.109 238.936C237.551 238.018 238.334 237.308 239.292 236.959L239.815 236.768L239.132 236.438C238.273 236.022 237.595 235.306 237.228 234.426L236.941 233.738Z" fill="#71B219"/>
</svg>
