<svg width="443" height="295" viewBox="0 0 443 295" fill="none" xmlns="http://www.w3.org/2000/svg">
<path d="M417.341 34.5508H360.785V116.431H417.341V34.5508Z" fill="#E0E0E0"/>
<path d="M414.512 34.5508H357.955V116.431H414.512V34.5508Z" fill="#F5F5F5"/>
<path d="M407.478 43.4189H364.979V107.564H407.478V43.4189Z" fill="white"/>
<path d="M407.483 107.564C407.483 107.564 407.483 107.452 407.483 107.251C407.483 107.05 407.483 106.732 407.483 106.336C407.483 105.534 407.483 104.354 407.483 102.796C407.483 99.7226 407.483 95.2445 407.448 89.5864C407.448 78.2702 407.406 62.2576 407.377 43.3953L407.519 43.5369H364.991L365.144 43.3835C365.144 67.5735 365.144 89.8932 365.144 107.528L365.02 107.404L395.959 107.469H404.506H406.745H407.524H406.774H404.553L396.03 107.505L365.02 107.564H364.896V107.44C364.896 89.8047 364.896 67.4909 364.866 43.295V43.1416H365.026H407.554H407.696V43.2832C407.666 62.1632 407.643 78.2289 407.625 89.5628C407.625 95.2091 407.625 99.6813 407.584 102.743C407.584 104.266 407.584 105.434 407.584 106.236C407.584 106.626 407.584 106.921 407.584 107.127C407.584 107.334 407.483 107.564 407.483 107.564Z" fill="#E0E0E0"/>
<path d="M414.648 34.5508C414.363 35.0603 414.03 35.5422 413.656 35.9904C413 36.8636 412.067 38.0613 411.004 39.3534C409.94 40.6455 408.948 41.7842 408.21 42.5984C407.835 43.0645 407.42 43.4969 406.969 43.8905C407.289 43.392 407.648 42.9204 408.044 42.4804L410.767 39.1764L413.467 35.8783C413.82 35.4013 414.215 34.957 414.648 34.5508Z" fill="#E0E0E0"/>
<path d="M407.695 107.381C409.811 110.735 412.298 113.84 415.108 116.638L407.695 107.381Z" fill="white"/>
<path d="M415.108 116.614C414.639 116.266 414.208 115.871 413.821 115.434C412.831 114.434 411.897 113.383 411.021 112.283C409.993 110.997 409.143 109.775 408.558 108.867C408.222 108.39 407.933 107.883 407.695 107.351C408.079 107.787 408.429 108.253 408.741 108.743C409.332 109.616 410.241 110.814 411.263 112.094C412.285 113.374 413.259 114.484 413.974 115.286C414.386 115.699 414.765 116.142 415.108 116.614Z" fill="#E0E0E0"/>
<path d="M357.944 116.366L365.351 107.232L357.944 116.366Z" fill="white"/>
<path d="M365.351 107.232C364.243 108.852 363.048 110.41 361.771 111.899C360.573 113.453 359.295 114.943 357.944 116.366C359.058 114.751 360.255 113.196 361.529 111.705C362.724 110.148 363.999 108.655 365.351 107.232Z" fill="#E0E0E0"/>
<path d="M357.944 34.5508C359.216 35.9157 360.415 37.3475 361.535 38.8401C362.737 40.2725 363.857 41.7715 364.89 43.33C363.616 41.9639 362.417 40.5301 361.299 39.0348C360.098 37.6037 358.978 36.1067 357.944 34.5508Z" fill="#E0E0E0"/>
<path d="M394.24 56.4395H380.011V96.8014H394.24V56.4395Z" fill="#E0E0E0"/>
<path d="M151.553 259.665V280.333H181.813H215.186V259.665H151.553Z" fill="#F5F5F5"/>
<path d="M148.883 253.889V259.665H217.412V253.889H181.813H148.883Z" fill="#E0E0E0"/>
<path d="M183.148 280.332H215.185V259.665H217.412V253.889H181.813V259.128L183.148 280.332Z" fill="#E0E0E0"/>
<path d="M173.361 262.999H160.455V266.108H173.361V262.999Z" fill="#E0E0E0"/>
<path d="M175.363 269.996H158.795V276.563H175.363V269.996Z" fill="white"/>
<path d="M165.699 232.602V253.269H195.959H229.332V232.602H165.699Z" fill="#F5F5F5"/>
<path d="M163.03 226.82V232.602H231.559V226.82H195.96H163.03Z" fill="#E0E0E0"/>
<path d="M197.294 253.27H229.332V232.602H231.559V226.82H195.96V232.065L197.294 253.27Z" fill="#E0E0E0"/>
<path d="M187.507 235.936H174.601V239.045H187.507V235.936Z" fill="#E0E0E0"/>
<path d="M189.509 242.933H172.941V249.499H189.509V242.933Z" fill="white"/>
<path d="M93.5311 49.2011L88.4514 49.2285L88.5881 74.4625L93.6678 74.435L93.5311 49.2011Z" fill="#E0E0E0"/>
<path d="M57.6139 49.2659L44.4659 49.3369L44.5413 63.2666L57.6894 63.1956L57.6139 49.2659Z" fill="#EBEBEB"/>
<path d="M70.7021 49.1946L57.5541 49.2656L57.6295 63.1953L70.7776 63.1243L70.7021 49.1946Z" fill="#F5F5F5"/>
<path d="M44.4887 53.1891C53.2246 53.2599 61.9842 53.1891 70.7202 53.0652C70.7521 53.0586 70.7808 53.0412 70.8013 53.016C70.8219 52.9907 70.8332 52.9592 70.8332 52.9266C70.8332 52.894 70.8219 52.8625 70.8013 52.8372C70.7808 52.8119 70.7521 52.7946 70.7202 52.7879C61.9842 52.7407 53.2246 52.7879 44.4887 52.9472C44.4611 52.9534 44.4365 52.9687 44.4188 52.9907C44.4012 53.0127 44.3915 53.04 44.3915 53.0682C44.3915 53.0964 44.4012 53.1237 44.4188 53.1457C44.4365 53.1677 44.4611 53.183 44.4887 53.1891Z" fill="#E0E0E0"/>
<path d="M60.1628 62.9637L36.2766 63.0928L36.338 74.4442L60.2242 74.3151L60.1628 62.9637Z" fill="#EBEBEB"/>
<path d="M83.9304 62.8348L60.0442 62.9639L60.1057 74.3153L83.9919 74.1862L83.9304 62.8348Z" fill="#F5F5F5"/>
<path d="M36.2844 66.2512C52.1556 66.4341 68.0741 66.2512 83.9453 66.0152C83.9772 66.0086 84.0059 65.9912 84.0265 65.966C84.047 65.9407 84.0583 65.9091 84.0583 65.8766C84.0583 65.844 84.047 65.8125 84.0265 65.7872C84.0059 65.762 83.9772 65.7446 83.9453 65.7379C68.0741 65.6553 52.1497 65.6612 36.2844 66.0152C36.2531 66.0152 36.223 66.0277 36.2009 66.0498C36.1787 66.0719 36.1663 66.1019 36.1663 66.1332C36.1663 66.1645 36.1787 66.1945 36.2009 66.2167C36.223 66.2388 36.2531 66.2512 36.2844 66.2512Z" fill="#E0E0E0"/>
<path d="M119.893 74.4463H27.3535V78.5114H119.893V74.4463Z" fill="#E0E0E0"/>
<path d="M46.2605 76.4053H42.5038V90.2821H46.2605V76.4053Z" fill="#E0E0E0"/>
<path d="M102.339 76.4053H98.5822V90.2821H102.339V76.4053Z" fill="#E0E0E0"/>
<path d="M98.6617 39.336L93.5878 39.3867L93.9353 74.0905L99.0091 74.0398L98.6617 39.336Z" fill="#EBEBEB"/>
<path d="M106.63 45.7591L98.7383 45.8379L99.0199 73.9632L106.911 73.8844L106.63 45.7591Z" fill="#F5F5F5"/>
<path d="M106.355 51.6727C105.047 51.8092 103.73 51.8545 102.415 51.8084C101.099 51.8545 99.7801 51.8092 98.4697 51.6727C99.7801 51.5362 101.099 51.4908 102.415 51.537C103.73 51.4909 105.047 51.5362 106.355 51.6727Z" fill="#E0E0E0"/>
<path d="M106.355 50.493C105.047 50.6295 103.73 50.6748 102.415 50.6287C101.099 50.6749 99.7801 50.6295 98.4697 50.493C99.7801 50.3565 101.099 50.3112 102.415 50.3573C103.73 50.3112 105.047 50.3565 106.355 50.493Z" fill="#E0E0E0"/>
<path d="M106.355 70.1453C105.047 70.2818 103.73 70.3272 102.415 70.281C101.099 70.3272 99.7801 70.2818 98.4697 70.1453C99.7804 70.0124 101.099 69.967 102.415 70.0096C103.73 69.9672 105.046 70.0125 106.355 70.1453Z" fill="#E0E0E0"/>
<path d="M106.355 68.9657C105.047 69.1022 103.73 69.1475 102.415 69.1014C101.099 69.1475 99.7801 69.1022 98.4697 68.9657C99.7801 68.8292 101.099 68.7838 102.415 68.83C103.73 68.7838 105.047 68.8292 106.355 68.9657Z" fill="#E0E0E0"/>
<path d="M102.539 66.3871C102.462 66.3871 102.403 63.5492 102.403 60.0505C102.403 56.5518 102.462 53.7139 102.539 53.7139C102.616 53.7139 102.675 56.5518 102.675 60.0505C102.675 63.5492 102.616 66.3871 102.539 66.3871Z" fill="#E0E0E0"/>
<path d="M115.032 53.1592H106.444V74.3874H115.032V53.1592Z" fill="#EBEBEB"/>
<path d="M95.8651 47.1763C96.6709 47.1763 97.3241 46.5239 97.3241 45.719C97.3241 44.9142 96.6709 44.2617 95.8651 44.2617C95.0594 44.2617 94.4062 44.9142 94.4062 45.719C94.4062 46.5239 95.0594 47.1763 95.8651 47.1763Z" fill="#E0E0E0"/>
<path d="M96.3196 49.7256H95.4158V70.3697H96.3196V49.7256Z" fill="#E0E0E0"/>
<path d="M168.659 126.886H76.119V131.004H168.659V126.886Z" fill="#E0E0E0"/>
<path d="M95.0259 128.868H91.2693V142.928H95.0259V128.868Z" fill="#E0E0E0"/>
<path d="M151.11 128.868H147.353V142.928H151.11V128.868Z" fill="#E0E0E0"/>
<path d="M133.584 91.3854C133.738 91.2438 134.766 91.9754 136.118 93.5271C136.904 94.4339 137.621 95.3983 138.263 96.4122C139.051 97.6602 139.74 98.9681 140.324 100.324C140.9 101.685 141.372 103.087 141.736 104.519C142.018 105.683 142.216 106.866 142.326 108.059C142.509 110.112 142.326 111.381 142.137 111.392C141.653 111.428 141.21 106.466 138.812 100.955C136.414 95.4446 133.23 91.7217 133.584 91.3854Z" fill="#EBEBEB"/>
<path d="M143.768 115.528C143.556 115.557 142.971 112.843 142.433 108.389C141.896 103.934 141.435 97.7689 141.252 90.9367C141.069 84.1045 141.146 77.9567 141.252 73.4609C141.358 68.9651 141.601 66.2275 141.843 66.2275C142.085 66.2275 142.268 68.9946 142.433 73.455C142.599 77.9154 142.699 84.075 142.882 90.8895C143.065 97.704 143.325 103.84 143.579 108.289C143.833 112.737 143.999 115.498 143.768 115.528Z" fill="#EBEBEB"/>
<path d="M153.614 76.7005C153.821 76.8244 152.97 78.7242 151.842 81.8925C150.714 85.0608 149.308 89.4858 147.932 94.43C146.556 99.3742 145.528 103.911 144.89 107.215C144.252 110.519 143.986 112.578 143.75 112.572C143.514 112.567 143.378 110.437 143.75 107.038C144.875 98.2214 147.239 89.6072 150.773 81.45C152.202 78.3584 153.437 76.612 153.614 76.7005Z" fill="#EBEBEB"/>
<path d="M131.093 109.853V115.286C131.083 116.8 131.371 118.301 131.942 119.703C132.513 121.105 133.355 122.382 134.419 123.459C135.484 124.536 136.751 125.393 138.147 125.981C139.543 126.569 141.042 126.877 142.558 126.886C144.073 126.877 145.572 126.569 146.968 125.981C148.365 125.393 149.631 124.536 150.696 123.459C151.761 122.382 152.602 121.105 153.173 119.703C153.744 118.301 154.033 116.8 154.022 115.286V109.853H131.093Z" fill="#E0E0E0"/>
<path d="M154.228 114.46C154.228 114.554 149.048 114.625 142.663 114.625C136.278 114.625 131.092 114.554 131.092 114.46C131.092 114.366 136.272 114.295 142.663 114.295C149.054 114.295 154.228 114.36 154.228 114.46Z" fill="#FAFAFA"/>
<path d="M154.228 115.959C154.228 116.048 149.048 116.124 142.663 116.124C136.278 116.124 131.092 116.048 131.092 115.959C131.092 115.871 136.272 115.794 142.663 115.794C149.054 115.794 154.228 115.871 154.228 115.959Z" fill="#FAFAFA"/>
<path d="M113.068 113.54L113.041 108.401L87.7788 108.533L87.8057 113.672L113.068 113.54Z" fill="#E0E0E0"/>
<path d="M116.108 126.864L116.067 118.882L87.9099 119.029L87.9518 127.012L116.108 126.864Z" fill="#F5F5F5"/>
<path d="M110.685 126.815C110.552 125.49 110.506 124.157 110.549 122.826C110.506 121.493 110.552 120.159 110.685 118.832C110.825 120.159 110.873 121.493 110.826 122.826C110.873 124.157 110.825 125.49 110.685 126.815Z" fill="#E0E0E0"/>
<path d="M111.872 126.815C111.735 125.49 111.69 124.157 111.736 122.826C111.69 121.493 111.735 120.159 111.872 118.832C112.005 120.159 112.051 121.493 112.008 122.826C112.05 124.157 112.005 125.49 111.872 126.815Z" fill="#E0E0E0"/>
<path d="M92.1912 126.815C92.0547 125.49 92.0093 124.157 92.0554 122.826C92.0092 121.493 92.0546 120.159 92.1912 118.832C92.3279 120.159 92.3733 121.493 92.3271 122.826C92.3732 124.157 92.3278 125.49 92.1912 126.815Z" fill="#E0E0E0"/>
<path d="M93.3782 126.815C93.2377 125.49 93.1903 124.157 93.2364 122.826C93.1902 121.493 93.2376 120.159 93.3782 118.832C93.5113 120.159 93.5567 121.493 93.514 122.826C93.5566 124.157 93.5112 125.49 93.3782 126.815Z" fill="#E0E0E0"/>
<path d="M95.9531 122.956C95.9531 122.879 98.7942 122.814 102.297 122.814C105.799 122.814 108.646 122.879 108.646 122.956C108.646 123.033 105.805 123.092 102.297 123.092C98.7883 123.092 95.9531 123.033 95.9531 122.956Z" fill="#E0E0E0"/>
<path d="M126.677 118.551L126.65 113.412L91.9072 113.594L91.9342 118.733L126.677 118.551Z" fill="#EBEBEB"/>
<path d="M121.712 117.918C121.382 117.923 121.057 117.829 120.78 117.649C120.503 117.469 120.286 117.211 120.156 116.908C120.027 116.604 119.99 116.269 120.052 115.945C120.114 115.62 120.27 115.322 120.502 115.087C120.734 114.852 121.031 114.691 121.355 114.625C121.678 114.558 122.015 114.59 122.32 114.715C122.626 114.84 122.888 115.054 123.072 115.328C123.256 115.602 123.354 115.924 123.354 116.254C123.356 116.471 123.314 116.687 123.233 116.888C123.151 117.089 123.031 117.272 122.878 117.426C122.726 117.581 122.544 117.704 122.344 117.788C122.144 117.872 121.929 117.917 121.712 117.918Z" fill="#E0E0E0"/>
<path d="M117.194 116.768V115.741H93.9394V116.768H117.194Z" fill="#E0E0E0"/>
<path d="M426.875 281.43C426.875 281.512 336.438 281.583 224.902 281.583C113.366 281.583 22.894 281.512 22.894 281.43C22.894 281.347 113.313 281.276 224.902 281.276C336.491 281.276 426.875 281.329 426.875 281.43Z" fill="#263238"/>
<path d="M350.578 200.388H312.51V204.063H350.578V200.388Z" fill="#263238"/>
<path d="M346.496 225.269H308.428V228.944H346.496V225.269Z" fill="#263238"/>
<path d="M357.572 173.602H319.503V177.277H357.572V173.602Z" fill="#263238"/>
<path d="M362.226 148.373H324.158V152.049H362.226V148.373Z" fill="#263238"/>
<path d="M338.334 250.29H300.265V253.966H338.334V250.29Z" fill="#263238"/>
<path d="M325.056 126.219L291.027 281.412H297.406L331.512 126.467L325.056 126.219Z" fill="#263238"/>
<path d="M364.849 126.219L330.826 281.412H337.2L371.305 126.467L364.849 126.219Z" fill="#263238"/>
<path d="M328.452 124.201L364.046 281.413H369.923L334.654 124.201H328.452Z" fill="#455A64"/>
<path d="M366.904 124.201L402.498 281.413H408.375L373.112 124.201H366.904Z" fill="#455A64"/>
<path d="M323.095 123.634V126.903H377.483V123.133L323.095 123.634Z" fill="#455A64"/>
<path d="M382.391 174.346H344.323V178.021H382.391V174.346Z" fill="#455A64"/>
<path d="M389.816 200.275H351.748V203.951H389.816V200.275Z" fill="#455A64"/>
<path d="M394.11 225.269H356.042V228.944H394.11V225.269Z" fill="#455A64"/>
<path d="M400.507 252.137H362.439V255.812H400.507V252.137Z" fill="#455A64"/>
<path d="M375.652 148.373H337.584V152.049H375.652V148.373Z" fill="#455A64"/>
<path d="M368.163 65.3248L368.233 87.9631L359.373 88.382L359.019 82.9599C359.019 82.9599 354.754 83.603 353.863 80.3993C353.272 78.352 353.437 62.54 353.437 62.54L368.163 65.3248Z" fill="#B78876"/>
<path d="M351.264 64.7703C351.919 66.1273 355.038 68.5994 355.038 68.5994L356.45 72.3695C357.672 71.4137 359.314 71.4668 359.627 73.6203C359.852 75.172 357.914 75.4847 357.914 75.4847C359.043 77.3963 359.805 78.9421 361.458 80.7593C363.23 82.7299 364.223 82.9246 366.148 82.96H368.269C368.269 82.96 372.604 79.3374 371.748 69.803C370.891 60.2686 362.297 63.0534 360.259 60.6698C356.904 56.7876 349.084 60.2568 351.264 64.7703Z" fill="#263238"/>
<path d="M356.964 59.6789C356.426 59.8395 355.906 60.0529 355.41 60.3161C354.822 60.6374 354.31 61.0816 353.91 61.6184C353.509 62.1552 353.229 62.7719 353.089 63.4266C352.949 64.0813 352.952 64.7585 353.098 65.4119C353.243 66.0654 353.528 66.6798 353.933 67.2132C354.288 67.6546 354.684 68.0616 355.115 68.4286C354.967 68.3803 354.829 68.3064 354.707 68.2103C354.356 67.9722 354.045 67.6794 353.786 67.343C353.335 66.7949 353.013 66.1523 352.845 65.4629C352.677 64.7735 352.666 64.0551 352.814 63.3611C352.963 62.6672 353.265 62.0155 353.7 61.4546C354.136 60.8937 354.692 60.438 355.327 60.1214C355.698 59.9258 356.097 59.7866 356.509 59.7084C356.657 59.6705 356.811 59.6605 356.964 59.6789Z" fill="#455A64"/>
<path d="M357.997 63.6494C357.766 63.8258 357.524 63.9855 357.27 64.1273C356.709 64.5193 356.239 65.0287 355.894 65.62C355.553 66.2162 355.351 66.8818 355.303 67.567C355.309 67.8587 355.295 68.1504 355.262 68.4402C355.124 68.1708 355.063 67.8688 355.085 67.567C355.067 66.8339 355.249 66.1099 355.611 65.4719C355.973 64.834 356.502 64.306 357.14 63.9444C357.392 63.7663 357.689 63.664 357.997 63.6494Z" fill="#455A64"/>
<path d="M315.705 118.041C317.584 118.041 319.108 116.519 319.108 114.643C319.108 112.766 317.584 111.244 315.705 111.244C313.826 111.244 312.303 112.766 312.303 114.643C312.303 116.519 313.826 118.041 315.705 118.041Z" fill="#71B219"/>
<path d="M343.053 105.545L338.788 116.436L321.659 117.882L321.305 117.787C320.98 117.575 320.596 117.31 320.171 116.985C319.798 116.701 319.476 116.356 319.22 115.964C318.918 115.533 318.665 115.07 318.464 114.584C318.461 114.546 318.461 114.509 318.464 114.472C318.447 114.399 318.419 114.329 318.381 114.265C318.337 114.177 318.269 114.103 318.185 114.051C318.101 113.999 318.004 113.972 317.905 113.972C317.807 113.972 317.71 113.999 317.626 114.051C317.542 114.103 317.474 114.177 317.43 114.265C317.259 114.678 317.519 115.929 318.393 117.18C318.402 117.203 318.414 117.224 318.428 117.245C319.279 118.537 316.987 117.787 316.148 117.528C315.309 117.268 312.681 116.59 312.403 116.79C311.996 117.074 312.238 117.575 313.077 117.817C313.915 118.059 316.408 118.95 316.26 119.386C316.113 119.823 311.86 118.442 311.86 118.442C311.86 118.442 310.998 118.006 310.809 118.501C310.472 119.41 315.097 120.537 315.534 120.631C315.841 120.696 315.699 121.18 315.369 121.091C315.038 121.003 311.157 119.622 310.803 120.537C310.537 121.239 314.601 121.499 315.256 122.236C315.912 122.974 312.191 121.723 311.96 122.407C311.872 122.661 311.848 122.861 314.081 123.269C315.844 123.507 317.618 123.649 319.397 123.693L319.899 123.752V123.687L340.501 123.428C343.526 123.428 346.024 122.938 346.999 120.071L350.543 109.451L343.053 105.545Z" fill="#B78876"/>
<path d="M400.821 202.99L397.353 199.821L403.26 193.302L408.375 197.886L408.038 198.317C406.509 200.205 400.129 207.816 398.671 208.683C397.052 209.657 400.821 202.99 400.821 202.99Z" fill="#71B219"/>
<g opacity="0.4">
<path opacity="0.4" d="M399.072 206.335C399.072 206.335 397.89 208.784 398.416 208.831C398.942 208.878 405.693 201.432 408.375 197.887L408.221 197.769L400.436 206.501C400.436 206.501 399.432 205.97 399.072 206.335Z" fill="white"/>
</g>
<path d="M408.31 197.65C408.285 197.695 408.256 197.736 408.222 197.774L407.95 198.111L406.928 199.344C406.06 200.376 404.837 201.792 403.455 203.32C402.073 204.848 400.791 206.205 399.852 207.179L398.73 208.318L398.417 208.624L398.304 208.725C398.334 208.682 398.367 208.643 398.405 208.607L398.7 208.288L399.799 207.108C400.72 206.123 401.996 204.748 403.378 203.232C404.76 201.715 405.989 200.282 406.869 199.279L407.92 198.069L408.204 197.739L408.31 197.65Z" fill="#263238"/>
<path d="M400.542 206.607C400.297 206.485 400.039 206.389 399.775 206.318C399.502 206.291 399.227 206.291 398.954 206.318C399.212 206.184 399.511 206.15 399.792 206.223C400.08 206.259 400.345 206.394 400.542 206.607Z" fill="#263238"/>
<path d="M401.305 203.804C401.161 203.839 401.011 203.839 400.868 203.804C400.632 203.763 400.443 203.71 400.448 203.68C400.592 203.646 400.742 203.646 400.885 203.68C401.122 203.716 401.311 203.775 401.305 203.804Z" fill="#263238"/>
<path d="M401.5 203.025C401.5 203.054 401.346 203.09 401.14 203.113C401.018 203.145 400.89 203.145 400.768 203.113C400.768 203.084 400.927 203.043 401.128 203.019C401.329 202.995 401.5 202.995 401.5 203.025Z" fill="#263238"/>
<path d="M401.187 202.134C401.187 202.134 401.092 202.323 400.921 202.512C400.75 202.701 400.602 202.842 400.578 202.819C400.555 202.795 400.673 202.63 400.844 202.441C401.015 202.252 401.169 202.111 401.187 202.134Z" fill="#263238"/>
<path d="M400.856 201.626C400.831 201.806 400.751 201.973 400.626 202.104C400.443 202.34 400.236 202.47 400.218 202.447C400.2 202.423 400.366 202.264 400.543 202.039C400.72 201.815 400.826 201.615 400.856 201.626Z" fill="#263238"/>
<path d="M400.537 203.509C400.432 203.668 400.302 203.81 400.153 203.928C399.995 204.059 399.827 204.177 399.651 204.282C399.546 204.35 399.433 204.403 399.314 204.441C399.242 204.47 399.162 204.47 399.09 204.441C399.053 204.419 399.023 204.388 399.003 204.351C398.984 204.313 398.975 204.271 398.977 204.229C399.044 203.997 399.188 203.796 399.386 203.659C399.585 203.523 399.824 203.459 400.064 203.479C400.205 203.488 400.342 203.529 400.466 203.597C400.554 203.644 400.596 203.68 400.59 203.686C400.42 203.615 400.241 203.571 400.058 203.556C399.863 203.549 399.669 203.6 399.503 203.703C399.298 203.818 399.148 204.009 399.084 204.234C399.084 204.347 399.178 204.388 399.29 204.352C399.398 204.314 399.503 204.266 399.603 204.211C399.778 204.112 399.946 204.002 400.105 203.88C400.377 203.656 400.519 203.497 400.537 203.509Z" fill="#263238"/>
<path d="M400.472 203.638C400.34 203.606 400.223 203.529 400.141 203.42C400.042 203.309 399.972 203.175 399.935 203.031C399.907 202.938 399.902 202.841 399.92 202.746C399.939 202.652 399.98 202.563 400.041 202.488C400.088 202.455 400.147 202.441 400.204 202.45C400.261 202.459 400.313 202.489 400.348 202.535C400.406 202.606 400.449 202.688 400.472 202.777C400.515 202.915 400.541 203.058 400.549 203.202C400.563 203.336 400.547 203.471 400.502 203.597C400.502 203.597 400.502 203.444 400.502 203.208C400.484 203.071 400.452 202.937 400.407 202.807C400.372 202.671 400.248 202.488 400.135 202.571C400.091 202.633 400.061 202.705 400.049 202.781C400.036 202.856 400.042 202.934 400.065 203.007C400.089 203.141 400.146 203.266 400.23 203.373C400.324 203.55 400.472 203.621 400.472 203.638Z" fill="#263238"/>
<path d="M406.379 196.181C406.379 196.181 406.196 196.352 405.959 196.676C405.659 197.102 405.481 197.602 405.445 198.122C405.414 198.64 405.529 199.157 405.776 199.614C405.971 199.968 406.148 200.151 406.131 200.163C406.082 200.13 406.038 200.091 406.001 200.045C405.891 199.926 405.794 199.795 405.711 199.656C405.436 199.191 405.306 198.655 405.339 198.116C405.38 197.574 405.586 197.057 405.93 196.635C406.03 196.506 406.143 196.388 406.267 196.281C406.299 196.242 406.337 196.209 406.379 196.181Z" fill="#263238"/>
<path d="M403.077 194.405C403.564 194.77 404.027 195.164 404.465 195.585C404.931 195.969 405.373 196.381 405.788 196.818C405.301 196.453 404.835 196.059 404.394 195.638C403.931 195.254 403.491 194.842 403.077 194.405Z" fill="#263238"/>
<path d="M404.807 200.453C404.596 200.83 404.338 201.179 404.039 201.491C403.764 201.823 403.448 202.12 403.1 202.376C403.1 202.376 403.49 201.951 403.957 201.42C404.423 200.889 404.778 200.435 404.807 200.453Z" fill="#263238"/>
<path d="M405.959 199.172C405.989 199.172 406.018 199.29 406.077 199.42C406.137 199.549 406.202 199.656 406.178 199.673C406.154 199.691 406.048 199.614 405.977 199.461C405.906 199.308 405.93 199.172 405.959 199.172Z" fill="#263238"/>
<path d="M405.788 198.146C405.788 198.146 405.847 198.252 405.859 198.381C405.871 198.511 405.859 198.617 405.817 198.617C405.776 198.617 405.758 198.517 405.752 198.387C405.746 198.258 405.788 198.151 405.788 198.146Z" fill="#263238"/>
<path d="M406.148 197.214C406.148 197.214 406.083 197.32 406.029 197.45C405.976 197.579 405.965 197.691 405.935 197.691C405.905 197.691 405.864 197.562 405.935 197.408C406.006 197.255 406.13 197.184 406.148 197.214Z" fill="#263238"/>
<path d="M406.46 196.606C406.46 196.606 406.46 196.682 406.46 196.753C406.46 196.823 406.384 196.876 406.36 196.87C406.337 196.864 406.331 196.788 406.36 196.718C406.389 196.647 406.431 196.594 406.46 196.606Z" fill="#263238"/>
<g opacity="0.3">
<path opacity="0.3" d="M405.983 195.881L399.367 201.663L398.54 200.925L404.524 194.364L405.983 195.881Z" fill="black"/>
</g>
<path d="M372.823 222.082L372.049 217.457L380.72 215.94L381.901 222.696L381.37 222.826C379.007 223.374 369.285 225.445 367.601 225.239C365.747 225.021 372.823 222.082 372.823 222.082Z" fill="#71B219"/>
<g opacity="0.4">
<path opacity="0.4" d="M369.385 223.645C369.385 223.645 366.933 224.825 367.329 225.209C367.725 225.592 377.624 223.852 381.924 222.707L381.877 222.519L370.347 224.631C370.347 224.631 369.898 223.61 369.385 223.645Z" fill="white"/>
</g>
<path d="M382.013 222.489L381.866 222.531L381.44 222.631L379.881 222.973C378.558 223.256 376.721 223.616 374.695 223.97C372.669 224.324 370.814 224.607 369.473 224.796L367.885 225.003L367.453 225.056C367.404 225.061 367.355 225.061 367.306 225.056H367.453L367.879 224.985L369.462 224.743C370.797 224.537 372.639 224.247 374.671 223.893C376.703 223.539 378.54 223.185 379.863 222.926L381.434 222.613L381.86 222.536C381.909 222.515 381.961 222.499 382.013 222.489Z" fill="#263238"/>
<path d="M370.377 224.791C370.258 224.544 370.114 224.311 369.946 224.094C369.754 223.9 369.54 223.727 369.308 223.581C369.593 223.639 369.848 223.796 370.029 224.024C370.233 224.23 370.356 224.502 370.377 224.791Z" fill="#263238"/>
<path d="M372.71 223.02C372.71 223.02 372.539 222.914 372.38 222.737C372.22 222.56 372.108 222.4 372.126 222.377C372.143 222.353 372.297 222.489 372.462 222.666C372.628 222.843 372.71 223.02 372.71 223.02Z" fill="#263238"/>
<path d="M373.343 222.53C373.343 222.53 373.177 222.483 373 222.377C372.823 222.27 372.705 222.158 372.717 222.135C372.728 222.111 372.888 222.176 373.059 222.288C373.23 222.4 373.36 222.5 373.343 222.53Z" fill="#263238"/>
<path d="M373.644 221.634C373.508 221.711 373.357 221.757 373.201 221.769C373.052 221.815 372.894 221.825 372.74 221.799C372.876 221.721 373.027 221.675 373.183 221.663C373.332 221.617 373.49 221.607 373.644 221.634Z" fill="#263238"/>
<path d="M373.697 221.032C373.564 221.155 373.397 221.235 373.218 221.262C373.043 221.318 372.856 221.318 372.681 221.262C372.846 221.207 373.016 221.166 373.189 221.138C373.354 221.084 373.524 221.049 373.697 221.032Z" fill="#263238"/>
<path d="M372.279 222.318C372.1 222.378 371.913 222.41 371.724 222.412C371.517 222.419 371.309 222.409 371.104 222.383C370.981 222.37 370.86 222.342 370.743 222.3C370.707 222.288 370.672 222.269 370.643 222.243C370.614 222.218 370.59 222.187 370.572 222.152C370.557 222.113 370.554 222.069 370.562 222.028C370.571 221.986 370.59 221.948 370.619 221.916C370.813 221.774 371.051 221.704 371.292 221.718C371.532 221.732 371.76 221.829 371.937 221.993C372.041 222.09 372.125 222.206 372.185 222.335C372.209 222.381 372.221 222.431 372.22 222.483C372.136 222.32 372.021 222.174 371.883 222.052C371.734 221.927 371.551 221.849 371.358 221.828C371.243 221.808 371.126 221.812 371.013 221.839C370.9 221.867 370.794 221.917 370.702 221.987C370.625 222.064 370.702 222.164 370.785 222.206C370.894 222.244 371.007 222.269 371.121 222.282C371.316 222.318 371.514 222.336 371.712 222.335C372.066 222.335 372.279 222.3 372.279 222.318Z" fill="#263238"/>
<path d="M372.12 222.371C372.027 222.268 371.979 222.132 371.984 221.994C371.976 221.846 372.005 221.698 372.066 221.563C372.1 221.473 372.156 221.393 372.228 221.329C372.3 221.265 372.386 221.22 372.48 221.197C372.538 221.2 372.593 221.225 372.633 221.267C372.674 221.308 372.697 221.363 372.698 221.421C372.702 221.513 372.683 221.604 372.645 221.687C372.595 221.824 372.525 221.953 372.439 222.07C372.371 222.186 372.275 222.283 372.161 222.354C372.161 222.354 372.255 222.236 372.38 222.029C372.45 221.912 372.508 221.787 372.551 221.657C372.61 221.522 372.622 221.303 372.48 221.303C372.338 221.303 372.22 221.48 372.155 221.604C372.095 221.726 372.063 221.859 372.061 221.994C372.067 222.121 372.087 222.248 372.12 222.371Z" fill="#263238"/>
<path d="M381.422 220.153C381.422 220.153 381.168 220.153 380.784 220.283C380.285 220.435 379.836 220.718 379.485 221.103C379.144 221.497 378.917 221.976 378.829 222.49C378.764 222.885 378.794 223.133 378.77 223.139C378.762 223.08 378.762 223.02 378.77 222.962C378.753 222.801 378.753 222.639 378.77 222.478C378.838 221.941 379.066 221.438 379.426 221.033C379.785 220.629 380.259 220.343 380.784 220.212C380.941 220.174 381.101 220.15 381.263 220.141C381.316 220.135 381.37 220.139 381.422 220.153Z" fill="#263238"/>
<path d="M379.894 216.701C380.057 217.283 380.185 217.874 380.277 218.471C380.409 219.055 380.504 219.646 380.561 220.241C380.398 219.659 380.27 219.068 380.177 218.471C380.049 217.887 379.954 217.296 379.894 216.701Z" fill="#263238"/>
<path d="M377.53 222.53C377.135 222.702 376.717 222.819 376.29 222.878C375.868 222.974 375.435 223.014 375.002 222.996C375.002 222.996 375.593 222.902 376.266 222.772C376.94 222.642 377.524 222.501 377.53 222.53Z" fill="#263238"/>
<path d="M379.208 222.235C379.208 222.235 379.208 222.365 379.143 222.501C379.078 222.637 379.102 222.76 379.067 222.766C379.031 222.772 379.002 222.637 379.067 222.477C379.132 222.318 379.208 222.218 379.208 222.235Z" fill="#263238"/>
<path d="M379.733 221.327C379.733 221.327 379.733 221.445 379.639 221.551C379.544 221.657 379.485 221.728 379.462 221.71C379.438 221.693 379.462 221.598 379.55 221.492C379.639 221.386 379.704 221.309 379.733 221.327Z" fill="#263238"/>
<path d="M380.584 220.802C380.584 220.831 380.466 220.855 380.348 220.92C380.23 220.985 380.147 221.073 380.123 221.055C380.1 221.038 380.123 220.908 380.295 220.825C380.466 220.743 380.59 220.772 380.584 220.802Z" fill="#263238"/>
<path d="M381.204 220.519C381.204 220.519 381.204 220.595 381.109 220.636C381.015 220.677 380.98 220.689 380.962 220.666C380.944 220.642 380.962 220.583 381.056 220.548C381.151 220.513 381.192 220.495 381.204 220.519Z" fill="#263238"/>
<g opacity="0.3">
<path opacity="0.3" d="M381.275 219.657L372.498 220.141L372.303 219.055L381.057 217.557L381.275 219.657Z" fill="black"/>
</g>
<path d="M346.834 90.0987L330.555 73.5787L330.2 71.8087C330.13 71.4842 330.065 71.1184 330 70.6995C329.92 70.2189 329.92 69.7286 330 69.2481C330.085 68.6493 330.254 68.0655 330.502 67.5135C330.773 67.0356 330.336 66.4574 329.882 66.658C329.427 66.8586 328.641 68.1507 328.47 69.9384C328.299 71.7261 326.775 69.3484 326.208 68.5047C325.641 67.661 323.75 65.0945 323.355 65.065C322.764 65.0178 322.634 65.655 323.219 66.481C323.804 67.307 325.404 69.962 324.955 70.2393C324.51 70.1623 324.052 70.2289 323.648 70.4294C323.243 70.6299 322.913 70.9538 322.705 71.3544C322.291 72.145 321.837 73.2601 322.209 73.7734C323.015 74.7447 323.883 75.6631 324.808 76.5228L325.351 76.9889C325.351 76.9889 339.438 97.3792 342.48 98.0459C344.388 98.453 373.91 100.902 373.91 100.902L376.137 92.7773L346.834 90.0987Z" fill="#B78876"/>
<path d="M322.096 73.4082L323.603 74.8537C323.77 75.0306 323.971 75.173 324.193 75.2726C324.302 75.3193 324.422 75.3341 324.539 75.3153C324.657 75.2965 324.766 75.2449 324.855 75.1664C324.917 75.0827 324.957 74.9852 324.972 74.8824C324.988 74.7796 324.978 74.6745 324.943 74.5764C324.86 74.3799 324.742 74.2 324.595 74.0454L323.13 72.2754" fill="#B78876"/>
<path d="M323.094 72.2695C323.124 72.2695 323.408 72.5232 323.839 72.9952C324.081 73.2666 324.329 73.5439 324.583 73.8389C324.746 74.0069 324.887 74.1953 325.002 74.3994C325.072 74.5286 325.105 74.6745 325.098 74.8211C325.091 74.9678 325.043 75.1097 324.961 75.2313C324.859 75.3439 324.725 75.4224 324.577 75.4562C324.429 75.49 324.275 75.4774 324.134 75.4201C323.909 75.327 323.708 75.1861 323.543 75.0071L322.758 74.2047C322.315 73.7445 322.055 73.4436 322.084 73.4082C322.388 73.5814 322.665 73.7981 322.905 74.0513L323.738 74.8006C323.878 74.9466 324.047 75.0613 324.234 75.1369C324.315 75.1709 324.405 75.1801 324.491 75.1633C324.577 75.1465 324.657 75.1045 324.719 75.0425C324.764 74.9645 324.788 74.876 324.788 74.7859C324.788 74.6958 324.764 74.6073 324.719 74.5292C324.618 74.3442 324.495 74.1719 324.353 74.0159L323.685 73.1604C323.443 72.8962 323.243 72.5956 323.094 72.2695Z" fill="#AA6550"/>
<path d="M323.165 72.3576L324.672 73.8031C324.838 73.9797 325.039 74.1203 325.262 74.2161C325.363 74.2724 325.478 74.2951 325.592 74.2808C325.707 74.2665 325.813 74.2161 325.896 74.1368C325.98 74.0576 326.035 73.9538 326.055 73.8406C326.075 73.7274 326.058 73.6108 326.006 73.5081C325.927 73.3095 325.81 73.1274 325.664 72.9712L324.199 71.2012" fill="#B78876"/>
<path d="M324.175 71.2129C324.456 71.4213 324.707 71.6675 324.92 71.9445L325.664 72.7823C325.83 72.9586 325.972 73.1572 326.083 73.3723C326.153 73.5015 326.186 73.6473 326.179 73.794C326.172 73.9407 326.124 74.0826 326.042 74.2042C325.94 74.3168 325.806 74.3953 325.658 74.4291C325.51 74.4628 325.356 74.4502 325.215 74.393C324.99 74.2999 324.789 74.1589 324.624 73.98L323.839 73.1599C323.577 72.928 323.351 72.6597 323.165 72.3634C323.468 72.5354 323.745 72.75 323.986 73.0006L324.819 73.7558C324.959 73.9018 325.128 74.0165 325.315 74.0921C325.397 74.1246 325.486 74.133 325.572 74.1162C325.657 74.0995 325.737 74.0583 325.8 73.9977C325.845 73.9186 325.869 73.8291 325.869 73.7381C325.869 73.6471 325.845 73.5576 325.8 73.4785C325.698 73.2954 325.576 73.125 325.434 72.9711L324.742 72.0861C324.508 71.8271 324.317 71.5323 324.175 71.2129Z" fill="#AA6550"/>
<path d="M324.341 71.4962L325.847 72.9417C326.011 73.1216 326.213 73.2627 326.438 73.3547C326.538 73.4111 326.654 73.4338 326.768 73.4195C326.882 73.4052 326.989 73.3548 327.072 73.2755C327.155 73.1963 327.211 73.0924 327.231 72.9793C327.251 72.8661 327.234 72.7495 327.182 72.6467C327.1 72.4481 326.982 72.2662 326.834 72.1098C326.349 71.5198 325.859 70.9298 325.375 70.3398" fill="#B78876"/>
<path d="M325.351 70.3516C325.631 70.5587 325.881 70.8029 326.095 71.0773L326.84 71.921C327.001 72.0892 327.14 72.2776 327.253 72.4815C327.326 72.6107 327.361 72.758 327.354 72.9063C327.347 73.0546 327.297 73.1978 327.212 73.3193C327.111 73.432 326.979 73.5108 326.831 73.5447C326.684 73.5785 326.53 73.5657 326.391 73.5081C326.166 73.4149 325.964 73.274 325.8 73.0951L325.009 72.2927C324.748 72.0619 324.523 71.7934 324.341 71.4962C324.643 71.67 324.919 71.8844 325.162 72.1334L325.995 72.8886C326.133 73.0331 326.3 73.1476 326.485 73.2249C326.566 73.2581 326.655 73.2669 326.742 73.2501C326.828 73.2333 326.907 73.1917 326.97 73.1305C327.016 73.0519 327.041 72.9622 327.041 72.8709C327.041 72.7795 327.016 72.6898 326.97 72.6113C326.868 72.4295 326.747 72.2594 326.609 72.1039L325.918 71.2189C325.684 70.9616 325.493 70.6689 325.351 70.3516Z" fill="#AA6550"/>
<path d="M326.721 73.9982C326.721 73.951 327.093 73.8743 327.637 74.0395L327.466 74.187C327.382 73.8492 327.368 73.4979 327.424 73.1545C327.505 72.6902 327.709 72.2562 328.015 71.8978C328.245 71.6264 328.44 71.5202 328.464 71.5497C328.136 72.0564 327.896 72.615 327.755 73.2017C327.708 73.5107 327.708 73.8249 327.755 74.1339V74.3699L327.554 74.2873C327.076 74.0867 326.715 74.0572 326.721 73.9982Z" fill="#AA6550"/>
<path d="M352.138 107.121L350.631 112.224L341.063 107.893C341.411 106.826 342.994 102.07 346.018 94.5241C346.846 92.454 348.193 90.6316 349.93 89.2325C351.667 87.8333 353.735 86.9045 355.936 86.5355C358.96 85.9894 362.024 85.6895 365.097 85.6387C370.466 85.6977 378.363 89.0489 379.42 94.2999C380.236 98.3119 377.572 123.387 377.572 123.387L379.166 132.892L351.257 131.358L352.138 107.121Z" fill="#71B219"/>
<path d="M351.447 89.2847C351.447 89.2847 351.724 89.326 352.179 89.503C352.814 89.7776 353.361 90.2203 353.762 90.7833C354.347 91.626 354.675 92.6198 354.707 93.6448C354.745 94.9063 354.648 96.1682 354.418 97.409C354.028 99.679 353.515 101.926 352.882 104.141C352.658 104.967 352.468 105.645 352.327 106.165C352.246 106.409 352.186 106.659 352.15 106.914C352.26 106.681 352.349 106.438 352.415 106.188C352.569 105.716 352.787 105.038 353.041 104.188C353.728 101.978 354.266 99.7255 354.654 97.4444C354.886 96.186 354.977 94.9057 354.926 93.6271C354.88 92.5644 354.523 91.5386 353.898 90.6771C353.467 90.1025 352.881 89.6624 352.209 89.4086C352.026 89.3487 351.838 89.3053 351.647 89.2788C351.506 89.2788 351.447 89.2729 351.447 89.2847Z" fill="#263238"/>
<path d="M377.4 90.3941C377.4 90.4295 370.956 90.459 363.006 90.459C355.055 90.459 348.617 90.459 348.617 90.3941C348.617 90.3292 355.055 90.3351 363.006 90.3351C370.956 90.3351 377.4 90.3646 377.4 90.3941Z" fill="#F5F5F5"/>
<path d="M379.527 95.1733C379.527 95.2028 371.961 95.2323 362.622 95.2323C353.284 95.2323 345.717 95.2323 345.717 95.1733C345.717 95.1143 353.284 95.1084 362.622 95.1084C371.961 95.1084 379.527 95.1379 379.527 95.1733Z" fill="#F5F5F5"/>
<path d="M379.491 100.135C379.491 100.171 371.529 100.194 361.7 100.194C351.872 100.194 343.909 100.194 343.909 100.135C343.909 100.076 351.872 100.07 361.7 100.07C371.529 100.07 379.491 100.1 379.491 100.135Z" fill="#F5F5F5"/>
<path d="M378.99 104.383C378.99 104.419 370.72 104.442 360.59 104.442C350.46 104.442 342.191 104.442 342.191 104.383C342.191 104.324 350.425 104.318 360.59 104.318C370.756 104.318 378.99 104.348 378.99 104.383Z" fill="#F5F5F5"/>
<path d="M378.901 109.15C378.901 109.186 372.858 109.203 365.41 109.191C357.962 109.18 351.913 109.138 351.913 109.109C351.913 109.079 357.956 109.056 365.41 109.068C372.864 109.079 378.901 109.085 378.901 109.15Z" fill="#F5F5F5"/>
<path d="M378.617 112.814C378.617 112.85 372.645 112.867 365.28 112.856C357.914 112.844 351.943 112.802 351.943 112.773C351.943 112.743 357.914 112.72 365.28 112.732C372.645 112.743 378.617 112.779 378.617 112.814Z" fill="#F5F5F5"/>
<path d="M377.873 116.46C377.873 116.496 371.966 116.513 364.737 116.502C357.507 116.49 351.594 116.454 351.594 116.419C351.594 116.384 357.501 116.366 364.737 116.378C371.972 116.389 377.873 116.425 377.873 116.46Z" fill="#F5F5F5"/>
<path d="M377.873 120.419H377.613H374.069C371.707 120.419 368.47 120.366 364.89 120.289L355.711 120.124L352.929 120.089H352.173H351.907H352.173H352.929H355.711C358.074 120.089 361.305 120.142 364.89 120.213L374.069 120.378L376.851 120.413H377.607C377.696 120.41 377.785 120.412 377.873 120.419Z" fill="#F5F5F5"/>
<path d="M377.324 123.8C377.324 123.836 371.547 123.853 364.43 123.841C357.312 123.83 351.536 123.794 351.536 123.759C351.536 123.723 357.306 123.706 364.43 123.718C371.553 123.729 377.324 123.765 377.324 123.8Z" fill="#F5F5F5"/>
<path d="M378.257 127.469C378.257 127.505 372.274 127.523 364.897 127.511C357.519 127.499 351.536 127.458 351.536 127.428C351.536 127.399 357.519 127.375 364.897 127.387C372.274 127.399 378.257 127.44 378.257 127.469Z" fill="#F5F5F5"/>
<path d="M378.877 131.157C378.877 131.192 372.693 131.263 365.067 131.322C357.442 131.381 351.258 131.393 351.258 131.357C351.258 131.322 357.442 131.251 365.067 131.198C372.693 131.145 378.877 131.127 378.877 131.157Z" fill="#F5F5F5"/>
<path d="M351.642 108.949C351.642 108.985 349.486 108.879 346.834 108.713C344.182 108.548 342.038 108.395 342.038 108.359C342.038 108.324 344.193 108.43 346.846 108.595C349.498 108.761 351.642 108.914 351.642 108.949Z" fill="#F5F5F5"/>
<path d="M373.224 122.083C373.139 122.107 373.052 122.121 372.964 122.125C372.793 122.125 372.545 122.178 372.22 122.184C371.302 122.217 370.382 122.166 369.474 122.03C366.441 121.599 363.594 120.317 361.263 118.332C358.932 116.348 357.214 113.743 356.308 110.82C356.028 109.946 355.83 109.047 355.717 108.136C355.67 107.817 355.664 107.546 355.652 107.392C355.636 107.307 355.636 107.219 355.652 107.133C355.732 107.458 355.793 107.786 355.835 108.118C355.99 109.012 356.215 109.891 356.508 110.75C357.455 113.601 359.168 116.139 361.459 118.085C363.751 120.032 366.533 121.313 369.503 121.788C370.399 121.941 371.305 122.024 372.214 122.036C372.552 122.026 372.889 122.042 373.224 122.083Z" fill="#263238"/>
<g opacity="0.2">
<path opacity="0.2" d="M351.913 109.079C353.7 107.295 354.946 105.044 355.507 102.583C356.068 100.123 355.922 97.5538 355.085 95.1729C353.903 99.7985 352.828 104.448 351.86 109.12" fill="black"/>
</g>
<g opacity="0.2">
<path opacity="0.2" d="M356.485 111.239C357.221 112.716 358.281 114.008 359.586 115.019C360.891 116.031 362.407 116.735 364.022 117.08C365.239 117.334 366.491 117.375 367.702 117.67C368.941 117.882 370.054 118.552 370.821 119.546C371.217 120.136 371.412 121.01 370.904 121.547C370.396 122.083 369.504 122.001 368.777 121.806C366.051 121.066 363.516 119.751 361.342 117.949C359.167 116.148 357.405 113.902 356.172 111.363" fill="black"/>
</g>
<path d="M351.258 131.357L370.992 219.256H382.155L371.246 142.945L373.295 136.461L372.073 132.166L351.258 131.357Z" fill="#263238"/>
<path d="M366.437 142.703C367.4 143.73 366.81 175.696 366.81 175.696L398.115 201.927L405.675 195.343L379.958 170.911L380.737 141.411L379.137 132.443L365.085 131.771L366.437 142.703Z" fill="#263238"/>
<path d="M374.79 135.205C374.861 135.408 374.901 135.621 374.908 135.836C374.943 136.46 374.842 137.084 374.613 137.665C374.251 138.579 373.762 139.437 373.16 140.214C372.354 141.209 371.737 142.343 371.34 143.559C371.03 145.079 371.042 146.647 371.376 148.161L372.297 153.471C372.923 157.212 373.573 161.33 374.229 165.655C375.528 174.298 376.704 182.122 377.554 187.809C377.997 190.63 378.352 192.913 378.606 194.518C378.724 195.297 378.818 195.904 378.889 196.347C378.889 196.541 378.936 196.695 378.954 196.819C378.958 196.874 378.958 196.929 378.954 196.984C378.93 196.934 378.914 196.88 378.907 196.825C378.907 196.701 378.848 196.547 378.812 196.353C378.73 195.916 378.611 195.308 378.47 194.541C378.18 192.96 377.784 190.677 377.324 187.845C376.391 182.187 375.215 174.352 373.91 165.696C373.248 161.377 372.61 157.259 371.996 153.519C371.683 151.648 371.405 149.872 371.11 148.209C370.776 146.653 370.776 145.044 371.11 143.489C371.526 142.252 372.169 141.104 373.006 140.102C373.608 139.342 374.105 138.505 374.483 137.612C374.809 136.854 374.915 136.02 374.79 135.205Z" fill="#455A64"/>
<path d="M380.158 171.012C380.158 171.1 379.367 171.319 378.445 171.785C377.524 172.251 376.862 172.758 376.803 172.693C377.219 172.2 377.731 171.797 378.308 171.508C378.885 171.219 379.514 171.05 380.158 171.012Z" fill="#455A64"/>
<path d="M96.1904 255.216C97.3466 252.202 98.8575 249.336 100.691 246.679C101.234 245.735 102.046 244.975 103.024 244.496C104.72 243.853 106.568 244.891 108.063 245.888L111.571 248.195C111.683 248.246 111.782 248.321 111.862 248.413C111.943 248.506 112.003 248.614 112.038 248.732C112.103 249.168 111.56 249.416 111.128 249.469C109.629 249.64 108.117 249.268 106.87 248.419C105.931 247.77 105.009 246.808 103.869 246.926C102.452 247.074 101.819 248.696 101.27 250.03C100.078 252.864 97.9803 255.225 95.3044 256.744" fill="#71B219"/>
<path d="M96.1782 255.8C96.4499 248.785 96.7275 241.717 98.4109 234.909C100.094 228.1 103.296 221.474 108.582 216.849C107.885 222.749 105.735 228.383 103.603 233.959C100.736 241.432 97.8675 248.905 94.9968 256.379" fill="#71B219"/>
<path d="M94.9616 258.349C93.9671 251.964 92.1814 245.727 89.6456 239.782C89.3549 238.874 88.7895 238.078 88.0271 237.505C86.8458 236.785 85.2864 237.257 84.0047 237.829C80.9448 239.189 78.112 241.009 75.6054 243.228C75.3889 243.382 75.2308 243.604 75.1565 243.859C75.1464 244.054 75.2062 244.247 75.3252 244.403C75.4442 244.558 75.6147 244.667 75.8062 244.709C76.1996 244.785 76.6062 244.761 76.9876 244.638L84.0047 243.015C84.6994 242.781 85.4482 242.761 86.1547 242.956C86.9816 243.281 87.4424 244.136 87.8381 244.933L94.7312 258.809" fill="#71B219"/>
<g opacity="0.4">
<path opacity="0.4" d="M96.1904 255.216C97.3466 252.202 98.8575 249.336 100.691 246.679C101.234 245.735 102.046 244.975 103.024 244.496C104.72 243.853 106.568 244.891 108.063 245.888L111.571 248.195C111.683 248.246 111.782 248.321 111.862 248.413C111.943 248.506 112.003 248.614 112.038 248.732C112.103 249.168 111.56 249.416 111.128 249.469C109.629 249.64 108.117 249.268 106.87 248.419C105.931 247.77 105.009 246.808 103.869 246.926C102.452 247.074 101.819 248.696 101.27 250.03C100.078 252.864 97.9803 255.225 95.3044 256.744" fill="black"/>
</g>
<g opacity="0.4">
<path opacity="0.4" d="M96.1782 255.8C96.4499 248.785 96.7275 241.717 98.4109 234.909C100.094 228.1 103.296 221.474 108.582 216.849C107.885 222.749 105.735 228.383 103.603 233.959C100.736 241.432 97.8675 248.905 94.9968 256.379" fill="black"/>
</g>
<g opacity="0.3">
<path opacity="0.3" d="M94.9616 258.349C93.9671 251.964 92.1814 245.727 89.6456 239.782C89.3549 238.874 88.7895 238.078 88.0271 237.505C86.8458 236.785 85.2864 237.257 84.0047 237.829C80.9448 239.189 78.112 241.009 75.6054 243.228C75.3889 243.382 75.2308 243.604 75.1565 243.859C75.1464 244.054 75.2062 244.247 75.3252 244.403C75.4442 244.558 75.6147 244.667 75.8062 244.709C76.1996 244.785 76.6062 244.761 76.9876 244.638L84.0047 243.015C84.6994 242.781 85.4482 242.761 86.1547 242.956C86.9816 243.281 87.4424 244.136 87.8381 244.933L94.7312 258.809" fill="black"/>
</g>
<path d="M105.623 205.485C99.7624 212.435 96.3304 221.103 95.8475 230.177C95.1859 245.104 94.3058 255.86 94.3058 255.86H95.9538C95.9538 255.86 99.2497 225.77 101.447 220.519C103.644 215.268 107.052 207.792 105.623 205.485Z" fill="#71B219"/>
<path d="M105.623 205.485C105.57 205.651 105.501 205.811 105.416 205.963L104.784 207.308C104.241 208.488 103.485 210.188 102.646 212.335C101.807 214.483 100.874 217.055 100.012 220.005C99.0418 223.167 98.2743 226.387 97.7139 229.646C97.4185 231.375 97.2827 233.086 97.1232 234.743C96.9637 236.401 96.9047 238 96.8161 239.522C96.6329 242.573 96.4498 245.322 96.1958 247.617C95.9419 249.912 95.6465 251.747 95.3866 253.033C95.2685 253.671 95.1445 254.154 95.0677 254.491C95.032 254.658 94.9867 254.824 94.9318 254.986C94.9401 254.813 94.9659 254.641 95.0086 254.473C95.0677 254.143 95.1681 253.653 95.2685 253.01C95.493 251.741 95.7647 249.895 95.9832 247.594C96.2018 245.293 96.3671 242.555 96.5325 239.505C96.6152 237.983 96.7038 236.378 96.822 234.72C96.9401 233.062 97.0818 231.339 97.3772 229.593C97.951 226.321 98.7402 223.091 99.7398 219.923C100.632 216.973 101.577 214.406 102.439 212.253C103.302 210.099 104.099 208.406 104.672 207.249C104.955 206.659 105.204 206.229 105.363 205.928C105.435 205.772 105.522 205.624 105.623 205.485Z" fill="#263238"/>
<path d="M111.748 219.48C111.748 219.48 100.62 230.1 99.3443 240.101C98.0684 250.101 97.46 255.47 97.46 255.47H98.5587C98.5587 255.47 101.193 241.204 104.601 236.703C108.009 232.201 112.516 220.66 111.748 219.48Z" fill="#71B219"/>
<path d="M111.636 220.153C111.591 220.27 111.536 220.383 111.471 220.49L110.951 221.428L109.007 224.856C107.383 227.747 105.127 231.759 103.101 236.39C101.326 240.336 99.9929 244.465 99.1256 248.703C98.8066 250.332 98.6235 251.653 98.5349 252.586C98.4758 253.046 98.4522 253.406 98.4227 253.648C98.4163 253.773 98.3965 253.898 98.3636 254.019C98.3519 253.894 98.3519 253.767 98.3636 253.642C98.3636 253.4 98.3636 253.052 98.4168 252.574C98.517 251.262 98.6846 249.957 98.9188 248.662C99.7323 244.393 101.047 240.234 102.835 236.272C104.619 232.319 106.629 228.472 108.854 224.749C109.699 223.316 110.396 222.165 110.886 221.375L111.476 220.466C111.516 220.355 111.569 220.25 111.636 220.153Z" fill="#263238"/>
<path d="M90.2423 221.327C90.2423 221.327 88.5943 242.29 92.4396 254.798H93.7567C93.7567 254.798 94.6368 227.693 90.2423 221.327Z" fill="#71B219"/>
<path d="M91.1518 225.292C91.185 225.387 91.2029 225.486 91.2049 225.587L91.2935 226.437C91.3644 227.221 91.453 228.277 91.5652 229.564C91.7838 232.207 92.0614 235.859 92.3508 239.889C92.6402 243.918 92.8883 247.559 93.0478 250.225C93.1187 251.517 93.1777 252.585 93.225 253.364C93.225 253.7 93.225 253.984 93.225 254.214C93.2352 254.314 93.2352 254.415 93.225 254.515C93.1927 254.42 93.1747 254.32 93.1718 254.22L93.0832 253.37C93.0123 252.585 92.9178 251.529 92.8056 250.243C92.593 247.6 92.3094 243.948 92.02 239.912C91.7306 235.877 91.4884 232.242 91.3289 229.575C91.2522 228.289 91.1931 227.215 91.1518 226.442C91.1518 226.1 91.1517 225.817 91.1163 225.587C91.115 225.488 91.127 225.388 91.1518 225.292Z" fill="#263238"/>
<path d="M87.6253 253.582C87.6253 253.582 91.6596 256.479 91.4528 257.824C91.2461 259.169 81.5119 266.403 82.138 272.09C82.7641 277.778 87.4186 281.707 95.3867 281.395C103.355 281.082 108.736 276.12 108.015 271.058C107.295 265.996 99.3796 257.942 99.291 257.553C99.0311 256.438 102.835 253.582 102.835 253.582H87.6253Z" fill="#263238"/>
<path d="M102.133 260.934C102.133 261.016 99.1793 261.087 95.5703 261.087C91.9613 261.087 89.008 261.016 89.008 260.934C89.008 260.851 91.9613 260.78 95.5703 260.78C99.1793 260.78 102.133 260.845 102.133 260.934Z" fill="#FAFAFA"/>
<path d="M103.059 262.309C103.059 262.391 99.598 262.462 95.3275 262.462C91.0569 262.462 87.5897 262.391 87.5897 262.309C87.5897 262.226 91.051 262.155 95.3275 262.155C99.6039 262.155 103.059 262.226 103.059 262.309Z" fill="#FAFAFA"/>
<path d="M104.453 263.83C104.453 263.913 100.36 263.984 95.3158 263.984C90.2715 263.984 86.1782 263.913 86.1782 263.83C86.1782 263.748 90.2656 263.677 95.3158 263.677C100.366 263.677 104.453 263.73 104.453 263.83Z" fill="#FAFAFA"/>
<path d="M105.688 265.86C105.688 265.943 100.963 266.014 95.1505 266.014C89.3384 266.014 84.619 265.943 84.619 265.86C84.619 265.778 89.3443 265.707 95.1505 265.707C100.957 265.707 105.688 265.772 105.688 265.86Z" fill="#FAFAFA"/>
<path d="M276.846 239.746H213.414V265.482H276.846V239.746Z" fill="white"/>
<path d="M276.852 265.499C276.852 265.499 276.852 265.34 276.852 265.039C276.852 264.738 276.852 264.284 276.852 263.7C276.852 262.52 276.852 260.803 276.852 258.579C276.852 254.136 276.852 247.711 276.816 239.758L276.887 239.828H213.455L213.556 239.728V265.499L213.455 265.399L258.937 265.446H272.132H275.676H272.162H258.99L213.443 265.493H213.349V265.499C213.349 257.475 213.349 248.773 213.349 239.758V239.657H213.455L276.887 239.687H276.958V239.758C276.958 247.728 276.928 254.171 276.917 258.638C276.917 260.856 276.917 262.573 276.917 263.747C276.917 264.337 276.917 264.768 276.917 265.069C276.917 265.369 276.852 265.499 276.852 265.499Z" fill="#263238"/>
<path d="M213.479 243.221C213.479 243.162 227.655 243.121 245.144 243.121C262.634 243.121 276.81 243.162 276.81 243.221C276.81 243.28 262.634 243.322 245.144 243.322C227.655 243.322 213.479 243.274 213.479 243.221Z" fill="#263238"/>
<g opacity="0.3">
<path opacity="0.3" d="M216.137 241.669C216.137 241.791 216.089 241.908 216.002 241.995C215.916 242.081 215.799 242.129 215.677 242.129C215.554 242.129 215.437 242.081 215.351 241.995C215.264 241.908 215.216 241.791 215.216 241.669C215.216 241.547 215.264 241.43 215.351 241.344C215.437 241.257 215.554 241.209 215.677 241.209C215.799 241.209 215.916 241.257 216.002 241.344C216.089 241.43 216.137 241.547 216.137 241.669Z" fill="#263238"/>
</g>
<g opacity="0.3">
<path opacity="0.3" d="M217.714 241.669C217.714 241.791 217.666 241.908 217.579 241.995C217.493 242.081 217.376 242.129 217.254 242.129C217.131 242.129 217.014 242.081 216.928 241.995C216.841 241.908 216.793 241.791 216.793 241.669C216.793 241.547 216.841 241.43 216.928 241.344C217.014 241.257 217.131 241.209 217.254 241.209C217.376 241.209 217.493 241.257 217.579 241.344C217.666 241.43 217.714 241.547 217.714 241.669Z" fill="#263238"/>
</g>
<g opacity="0.3">
<path opacity="0.3" d="M219.268 241.669C219.268 241.791 219.22 241.908 219.133 241.995C219.047 242.081 218.93 242.129 218.807 242.129C218.685 242.129 218.568 242.081 218.482 241.995C218.395 241.908 218.347 241.791 218.347 241.669C218.347 241.547 218.395 241.43 218.482 241.344C218.568 241.257 218.685 241.209 218.807 241.209C218.93 241.209 219.047 241.257 219.133 241.344C219.22 241.43 219.268 241.547 219.268 241.669Z" fill="#263238"/>
</g>
<path d="M234.129 247.404H218.807V262.709H234.129V247.404Z" fill="#455A64"/>
<path d="M272.463 251.505C272.463 251.558 264.578 251.605 254.856 251.605C245.133 251.605 237.242 251.558 237.242 251.505C237.242 251.451 245.127 251.404 254.856 251.404C264.584 251.404 272.463 251.446 272.463 251.505Z" fill="#263238"/>
<path d="M272.463 254.62C272.463 254.679 264.578 254.72 254.856 254.72C245.133 254.72 237.242 254.679 237.242 254.62C237.242 254.561 245.127 254.52 254.856 254.52C264.584 254.52 272.463 254.567 272.463 254.62Z" fill="#263238"/>
<path d="M259.893 257.741H259.663H259.002L256.568 257.777H248.553H240.537L238.11 257.741H237.448H237.218C237.294 257.732 237.372 257.732 237.448 257.741H238.11H240.537L248.553 257.712L256.568 257.741H259.002H259.663C259.74 257.732 259.817 257.732 259.893 257.741Z" fill="#263238"/>
<path d="M287.354 257.062H260.154V281.412H287.354V257.062Z" fill="#71B219"/>
<g opacity="0.2">
<path opacity="0.2" d="M287.354 257.062H260.154V281.412H287.354V257.062Z" fill="black"/>
</g>
<path d="M270.945 237.599H207.514V263.334H270.945V237.599Z" fill="white"/>
<path d="M270.945 263.334C270.945 263.334 270.945 263.175 270.945 262.874C270.945 262.573 270.945 262.125 270.945 261.541C270.945 260.361 270.945 258.638 270.945 256.413C270.945 251.977 270.945 245.546 270.904 237.598L270.974 237.669L207.543 237.699L207.643 237.598C207.643 246.608 207.643 255.298 207.643 263.334L207.549 263.24L253.03 263.281L266.22 263.311H269.764H266.255H253.083L207.537 263.358H207.436V237.498H207.537H270.969H271.039V237.569C271.039 245.54 271.01 251.977 271.004 256.449C271.004 258.661 271.004 260.384 271.004 261.552C271.004 262.142 271.004 262.573 271.004 262.874C271.004 263.175 270.945 263.334 270.945 263.334Z" fill="#263238"/>
<path d="M207.572 241.067C207.572 241.008 221.748 240.967 239.238 240.967C256.727 240.967 270.909 241.008 270.909 241.067C270.909 241.126 256.733 241.167 239.238 241.167C221.742 241.167 207.572 241.12 207.572 241.067Z" fill="#263238"/>
<g opacity="0.3">
<path opacity="0.3" d="M209.77 239.976C210.024 239.976 210.23 239.77 210.23 239.516C210.23 239.262 210.024 239.056 209.77 239.056C209.515 239.056 209.309 239.262 209.309 239.516C209.309 239.77 209.515 239.976 209.77 239.976Z" fill="#263238"/>
</g>
<g opacity="0.3">
<path opacity="0.3" d="M211.807 239.539C211.807 239.63 211.78 239.719 211.73 239.795C211.679 239.871 211.607 239.93 211.523 239.964C211.439 239.999 211.346 240.008 211.257 239.991C211.167 239.973 211.085 239.929 211.021 239.865C210.956 239.8 210.913 239.718 210.895 239.629C210.877 239.54 210.886 239.447 210.921 239.363C210.956 239.279 211.015 239.207 211.091 239.157C211.167 239.106 211.256 239.079 211.347 239.079C211.469 239.079 211.586 239.128 211.673 239.214C211.759 239.3 211.807 239.417 211.807 239.539Z" fill="#263238"/>
</g>
<g opacity="0.3">
<path opacity="0.3" d="M213.361 239.539C213.361 239.63 213.334 239.719 213.283 239.795C213.233 239.871 213.161 239.93 213.077 239.964C212.993 239.999 212.9 240.008 212.811 239.991C212.721 239.973 212.639 239.929 212.575 239.865C212.51 239.8 212.466 239.718 212.449 239.629C212.431 239.54 212.44 239.447 212.475 239.363C212.51 239.279 212.569 239.207 212.644 239.157C212.72 239.106 212.809 239.079 212.9 239.079C213.023 239.079 213.14 239.128 213.226 239.214C213.313 239.3 213.361 239.417 213.361 239.539Z" fill="#263238"/>
</g>
<path d="M228.222 245.251H212.9V260.556H228.222V245.251Z" fill="#455A64"/>
<path d="M266.557 249.351C266.557 249.404 258.671 249.452 248.949 249.452C239.227 249.452 231.341 249.404 231.341 249.351C231.341 249.298 239.221 249.251 248.949 249.251C258.677 249.251 266.557 249.298 266.557 249.351Z" fill="#263238"/>
<path d="M266.557 252.467C266.557 252.525 258.671 252.567 248.949 252.567C239.227 252.567 231.341 252.525 231.341 252.467C231.341 252.408 239.221 252.366 248.949 252.366C258.677 252.366 266.557 252.413 266.557 252.467Z" fill="#263238"/>
<path d="M253.987 255.587H253.757H253.095L250.668 255.617L242.652 255.646L234.637 255.617L232.203 255.587H231.548C231.471 255.595 231.394 255.595 231.317 255.587H231.548H232.203L234.637 255.558L242.652 255.528L250.668 255.558L253.095 255.587H253.757H253.987Z" fill="#263238"/>
<path d="M266.627 242.943H203.195V268.679H266.627V242.943Z" fill="white"/>
<path d="M266.628 268.679C266.628 268.679 266.628 268.52 266.628 268.219C266.628 267.918 266.628 267.47 266.628 266.886C266.628 265.706 266.628 263.983 266.628 261.759C266.628 257.322 266.628 250.891 266.586 242.944L266.657 243.014L203.19 243.044L203.291 242.944C203.291 251.953 203.291 260.644 203.291 268.679L203.196 268.585L248.677 268.626L261.867 268.656H265.411H261.902H248.731L203.184 268.703H203.09V268.609C203.09 260.585 203.09 251.882 203.09 242.873V242.772H203.19H266.616H266.687V242.843C266.687 250.814 266.687 257.251 266.651 261.723C266.651 263.936 266.651 265.659 266.651 266.827C266.651 267.417 266.651 267.847 266.651 268.148C266.651 268.449 266.628 268.679 266.628 268.679Z" fill="#263238"/>
<path d="M203.26 246.413C203.26 246.354 217.436 246.312 234.92 246.312C252.404 246.312 266.592 246.354 266.592 246.413C266.592 246.472 252.416 246.513 234.92 246.513C217.425 246.513 203.26 246.466 203.26 246.413Z" fill="#263238"/>
<g opacity="0.3">
<path opacity="0.3" d="M205.913 244.85C205.913 244.941 205.886 245.03 205.835 245.106C205.785 245.181 205.713 245.24 205.628 245.275C205.544 245.31 205.452 245.319 205.362 245.301C205.273 245.283 205.191 245.24 205.126 245.175C205.062 245.111 205.018 245.029 205 244.94C204.982 244.85 204.992 244.758 205.026 244.674C205.061 244.59 205.12 244.518 205.196 244.467C205.272 244.417 205.361 244.39 205.452 244.39C205.574 244.39 205.691 244.438 205.778 244.524C205.864 244.611 205.913 244.728 205.913 244.85Z" fill="#263238"/>
</g>
<g opacity="0.3">
<path opacity="0.3" d="M207.029 245.322C207.284 245.322 207.49 245.116 207.49 244.862C207.49 244.607 207.284 244.401 207.029 244.401C206.775 244.401 206.568 244.607 206.568 244.862C206.568 245.116 206.775 245.322 207.029 245.322Z" fill="#263238"/>
</g>
<g opacity="0.3">
<path opacity="0.3" d="M209.043 244.85C209.043 244.941 209.016 245.03 208.965 245.106C208.915 245.181 208.843 245.24 208.759 245.275C208.674 245.31 208.582 245.319 208.492 245.301C208.403 245.283 208.321 245.24 208.257 245.175C208.192 245.111 208.148 245.029 208.13 244.94C208.113 244.85 208.122 244.758 208.157 244.674C208.192 244.59 208.251 244.518 208.326 244.467C208.402 244.417 208.491 244.39 208.582 244.39C208.643 244.389 208.703 244.4 208.76 244.423C208.816 244.446 208.867 244.48 208.91 244.523C208.953 244.566 208.987 244.617 209.01 244.673C209.032 244.729 209.044 244.789 209.043 244.85Z" fill="#263238"/>
</g>
<path d="M223.904 250.596H208.583V265.9H223.904V250.596Z" fill="#455A64"/>
<path d="M262.256 254.697C262.256 254.75 254.371 254.797 244.649 254.797C234.926 254.797 227.041 254.75 227.041 254.697C227.041 254.644 234.92 254.597 244.649 254.597C254.377 254.597 262.256 254.644 262.256 254.697Z" fill="#263238"/>
<path d="M262.256 257.83C262.256 257.889 254.371 257.93 244.649 257.93C234.926 257.93 227.041 257.889 227.041 257.83C227.041 257.771 234.92 257.729 244.649 257.729C254.377 257.729 262.256 257.759 262.256 257.83Z" fill="#263238"/>
<path d="M249.693 260.933H249.463H248.801L246.373 260.962L238.358 260.992L230.36 261.004L227.933 260.974H227.271H227.041H227.271H227.933L230.36 260.945L238.376 260.915L246.391 260.945L248.819 260.974H249.48L249.693 260.933Z" fill="#263238"/>
<path d="M196.864 257.062V281.43H273.479V257.062H196.864ZM237.868 266.679H226.291C225.631 266.679 224.999 266.418 224.532 265.952C224.066 265.486 223.804 264.854 223.804 264.196C223.804 263.537 224.066 262.905 224.532 262.439C224.999 261.973 225.631 261.712 226.291 261.712H237.868C238.527 261.712 239.16 261.973 239.626 262.439C240.092 262.905 240.354 263.537 240.354 264.196C240.354 264.854 240.092 265.486 239.626 265.952C239.16 266.418 238.527 266.679 237.868 266.679Z" fill="#71B219"/>
<path d="M147.667 227.558C146.992 227.559 146.332 227.36 145.771 226.986C145.209 226.613 144.772 226.081 144.513 225.459C144.254 224.837 144.186 224.152 144.318 223.491C144.449 222.83 144.774 222.223 145.251 221.746C145.728 221.27 146.335 220.945 146.997 220.814C147.659 220.683 148.345 220.751 148.968 221.009C149.591 221.268 150.123 221.705 150.497 222.266C150.871 222.826 151.07 223.485 151.069 224.159C151.069 225.061 150.71 225.925 150.072 226.562C149.434 227.2 148.569 227.558 147.667 227.558Z" fill="#71B219"/>
<path d="M45.3798 271.422C45.8956 269.617 44.8489 267.736 43.042 267.221C41.2352 266.706 39.3524 267.751 38.8367 269.556C38.321 271.361 39.3676 273.242 41.1745 273.757C42.9813 274.272 44.8641 273.227 45.3798 271.422Z" fill="#71B219"/>
<path d="M215.015 125.623C216.894 125.623 218.417 124.101 218.417 122.225C218.417 120.348 216.894 118.826 215.015 118.826C213.136 118.826 211.613 120.348 211.613 122.225C211.613 124.101 213.136 125.623 215.015 125.623Z" fill="#71B219"/>
<path d="M264.725 177.744C266.604 177.744 268.127 176.223 268.127 174.346C268.127 172.469 266.604 170.947 264.725 170.947C262.846 170.947 261.323 172.469 261.323 174.346C261.323 176.223 262.846 177.744 264.725 177.744Z" fill="#71B219"/>
<path d="M323.384 68.4403C325.263 68.4403 326.786 66.9188 326.786 65.0419C326.786 63.1651 325.263 61.6436 323.384 61.6436C321.505 61.6436 319.982 63.1651 319.982 65.0419C319.982 66.9188 321.505 68.4403 323.384 68.4403Z" fill="#71B219"/>
<path d="M95.3514 188.382C97.2304 188.382 98.7536 186.86 98.7536 184.983C98.7536 183.106 97.2304 181.585 95.3514 181.585C93.4724 181.585 91.9492 183.106 91.9492 184.983C91.9492 186.86 93.4724 188.382 95.3514 188.382Z" fill="#71B219"/>
<path d="M323.384 65.042L323.118 65.5612L322.309 67.0834C321.594 68.4345 320.537 70.4228 319.149 73.0188L307.146 95.4978C296.786 114.838 282.008 142.415 264.341 175.372L264.252 175.537L264.128 175.401L214.175 122.048H214.412L189.149 160.764L146.963 225.339L146.875 225.475L146.751 225.374L95.3628 184.293L95.5459 184.263L56.5088 247.057L45.6937 264.415C44.4533 266.409 43.4964 267.955 42.8526 268.964L41.8721 270.509C41.8721 270.509 42.191 269.973 42.823 268.94L45.6346 264.379C48.1036 260.373 51.7421 254.497 56.3847 246.98L95.3215 184.133L95.3924 184.016L95.5046 184.098L146.928 225.144L146.715 225.18L188.865 160.581L214.134 121.865L214.24 121.7L214.37 121.841L264.299 175.23H264.081C281.801 142.291 296.597 114.732 306.987 95.4093L319.072 72.9893L322.273 67.0893C322.634 66.4226 322.911 65.9093 323.1 65.573C323.289 65.2367 323.384 65.042 323.384 65.042Z" fill="#71B219"/>
<path d="M205.422 78.7118C205.422 78.641 223.555 78.582 245.924 78.582C268.292 78.582 286.426 78.641 286.426 78.7118C286.426 78.7826 268.292 78.8416 245.924 78.8416C223.555 78.8416 205.422 78.7826 205.422 78.7118Z" fill="#71B219"/>
<g opacity="0.3">
<path opacity="0.3" d="M208.818 76.7296C208.818 76.8463 208.784 76.9604 208.719 77.0574C208.654 77.1545 208.562 77.2301 208.454 77.2747C208.346 77.3194 208.227 77.3311 208.112 77.3083C207.998 77.2855 207.893 77.2294 207.81 77.1468C207.727 77.0643 207.671 76.9592 207.648 76.8447C207.626 76.7303 207.637 76.6117 207.682 76.5039C207.727 76.3961 207.802 76.3039 207.899 76.2391C207.997 76.1743 208.111 76.1396 208.228 76.1396C208.384 76.1396 208.535 76.2018 208.645 76.3125C208.756 76.4231 208.818 76.5732 208.818 76.7296Z" fill="#71B219"/>
</g>
<g opacity="0.3">
<path opacity="0.3" d="M210.832 76.7296C210.832 76.8861 210.77 77.0362 210.659 77.1468C210.548 77.2575 210.398 77.3196 210.241 77.3196C210.085 77.3196 209.935 77.2575 209.824 77.1468C209.713 77.0362 209.651 76.8861 209.651 76.7296C209.651 76.5732 209.713 76.4231 209.824 76.3125C209.935 76.2018 210.085 76.1396 210.241 76.1396C210.398 76.1396 210.548 76.2018 210.659 76.3125C210.77 76.4231 210.832 76.5732 210.832 76.7296Z" fill="#71B219"/>
</g>
<g opacity="0.3">
<path opacity="0.3" d="M212.823 76.7296C212.823 76.8463 212.788 76.9604 212.723 77.0574C212.658 77.1545 212.566 77.2301 212.458 77.2747C212.35 77.3194 212.232 77.3311 212.117 77.3083C212.002 77.2855 211.897 77.2294 211.815 77.1468C211.732 77.0643 211.676 76.9592 211.653 76.8447C211.63 76.7303 211.642 76.6117 211.687 76.5039C211.731 76.3961 211.807 76.3039 211.904 76.2391C212.001 76.1743 212.115 76.1396 212.232 76.1396C212.389 76.1396 212.539 76.2018 212.65 76.3125C212.761 76.4231 212.823 76.5732 212.823 76.7296Z" fill="#71B219"/>
</g>
<g opacity="0.3">
<path opacity="0.3" d="M231.831 84.0635H212.232V103.64H231.831V84.0635Z" fill="#71B219"/>
</g>
<path d="M280.862 89.3085C280.862 89.3793 270.774 89.4383 258.34 89.4383C245.906 89.4383 235.818 89.3793 235.818 89.3085C235.818 89.2377 245.901 89.1787 258.34 89.1787C270.779 89.1787 280.862 89.2377 280.862 89.3085Z" fill="#71B219"/>
<path d="M280.862 93.2968C280.862 93.3676 270.774 93.4266 258.34 93.4266C245.906 93.4266 235.818 93.3676 235.818 93.2968C235.818 93.226 245.901 93.167 258.34 93.167C270.779 93.167 280.862 93.2201 280.862 93.2968Z" fill="#71B219"/>
<path d="M264.814 97.2856C264.716 97.2958 264.617 97.2958 264.518 97.2856H263.674L260.567 97.3269L250.313 97.3682L240.065 97.3505L236.958 97.3092H236.107C236.011 97.3192 235.914 97.3192 235.818 97.3092C235.914 97.2954 236.011 97.2954 236.107 97.3092H236.958L240.065 97.2679L250.313 97.2266L260.567 97.2679L263.674 97.3092H264.518C264.615 97.2873 264.715 97.2794 264.814 97.2856Z" fill="#71B219"/>
<path d="M251.193 107.268H250.726H249.356L244.04 107.227L224.128 107.014H224.199L214.53 116.277L214.335 116.466V116.195C214.335 113.404 214.335 110.419 214.335 107.315L214.459 107.439H205.286L205.245 107.404L205.126 107.28L205.085 107.239V107.186C205.085 97.1556 205.085 85.9928 205.085 74.1455V73.998H234.205L286.585 74.0393H286.727V74.1809C286.68 86.5356 286.638 97.6571 286.609 107.221V107.327H286.473H260.649H253.632H251.807C251.393 107.327 251.187 107.327 251.187 107.327H251.807H253.632L260.649 107.292L286.461 107.174L286.361 107.28C286.361 97.7456 286.396 86.63 286.42 74.2694L286.556 74.411H234.175H205.203L205.357 74.2635C205.357 86.1167 205.357 97.2736 205.357 107.304L205.315 107.209L205.439 107.333L205.345 107.298H214.577V107.422C214.577 110.525 214.577 113.51 214.577 116.301L214.382 116.218L224.087 106.961L224.116 106.932H224.158L244.063 107.233L249.379 107.327L250.744 107.357L251.193 107.268Z" fill="#71B219"/>
</svg>
